<svg width="68" height="28" viewBox="0 0 68 28" fill="none" xmlns="http://www.w3.org/2000/svg">
<path fill-rule="evenodd" clip-rule="evenodd" d="M7.27575 11.8291C7.50366 12.5106 7.5879 13.2425 7.52775 14.0252C5.48523 13.9888 3.45448 13.7863 1.4348 13.4184C1.397 12.8383 1.51086 12.3308 1.77721 11.8952C3.61096 11.7282 5.44377 11.7059 7.27575 11.8291Z" fill="white"/>
<path fill-rule="evenodd" clip-rule="evenodd" d="M44.8235 12.4337C45.5822 13.4078 45.5589 14.3556 44.7542 15.2771C43.0909 15.5986 41.4669 15.4076 39.8821 14.7043C39.4249 14.2054 39.2375 13.5437 39.3195 12.7185C41.146 12.3917 42.9806 12.2962 44.8235 12.4337Z" fill="white"/>
<path fill-rule="evenodd" clip-rule="evenodd" d="M27.9755 14.5927C26.444 14.6228 24.9204 14.5075 23.403 14.2469C23.149 13.6463 23.0628 12.9873 23.1458 12.2697C24.5697 12.3093 25.994 12.3487 27.4179 12.388C27.8523 12.9604 28.0384 13.6949 27.9755 14.5927Z" fill="white"/>
<path fill-rule="evenodd" clip-rule="evenodd" d="M35.3506 12.6085C35.7632 12.9411 36.2137 13.2461 36.7025 13.5217C36.8976 14.0893 36.8342 14.5987 36.5127 15.0487C35.3867 15.3094 34.2679 15.2782 33.1558 14.9558C32.5522 14.328 32.4682 13.5958 32.9036 12.7595C33.7167 12.5647 34.5323 12.514 35.3506 12.6085Z" fill="white"/>
<path fill-rule="evenodd" clip-rule="evenodd" d="M17.9196 13.657C17.7757 13.8343 17.6684 14.0502 17.5983 14.3049C15.9683 14.7687 14.3383 14.7964 12.7103 14.3882C12.2529 13.8895 12.0655 13.2276 12.1477 12.4024C13.6704 12.1146 15.2002 12.0114 16.7362 12.0918C17.1647 12.5107 17.559 13.0317 17.9196 13.657Z" fill="white"/>
<path fill-rule="evenodd" clip-rule="evenodd" d="M32.8977 18.6696C6.55916 17.6535 26.8584 18.2171 0.503488 17.771C-0.0668548 17.2366 -0.152575 16.5772 0.245989 15.7934C15.7302 15.5144 3.87103 16.5346 13.595 15.5069C34.5856 16.658 18.815 16.5118 39.8223 17.1105C44.9589 17.3978 50.0484 17.393 55.0922 17.0964C55.1064 16.5134 55.1205 15.9297 55.1347 15.3467C53.9251 15.0852 52.7082 14.9056 51.4828 14.8076C50.4154 14.7877 50.0246 14.1198 50.3101 12.8053C51.3345 12.5412 52.3521 12.5695 53.362 12.8894C53.8503 13.6312 54.4517 14.0127 55.1665 14.034C55.1912 13.0132 55.2162 11.9924 55.241 10.9719C37.6361 10.7537 56.0054 11.4093 38.4052 10.9421C25.9375 10.9134 20.6638 11.0587 8.1941 10.9796C-4.05943 10.4016 12.8228 10.7238 0.567838 10.3298C0.530041 9.75026 0.644062 9.24266 0.910254 8.80725C1.60187 8.8112 1.39811 8.76879 7.16877 9.1999C18.9809 8.75418 23.594 8.5901 35.3962 9.10782C35.6967 9.10198 35.9966 9.10431 36.2966 9.11118C36.557 9.11547 36.8169 9.12678 37.0767 9.1395C39.8921 9.20135 44.1423 8.3368 55.2837 9.22172C55.121 6.15716 54.992 3.08965 54.8966 0.0171852C55.2189 -0.0388298 55.5226 0.0419502 55.8066 0.261547C56.7172 1.38909 57.6058 2.508 58.4734 3.61904C60.744 6.36572 63.2319 8.69675 65.9383 10.612C66.8397 11.3718 67.5268 12.4131 68 13.7335C66.4088 15.8889 64.6335 17.7367 62.6735 19.277C60.1613 22.1263 57.6491 24.9747 55.1364 27.8242C54.6369 28.1252 54.1809 28.0399 53.7686 27.5668C53.8708 25.3789 54.0769 23.1959 54.3861 21.0173C54.6823 20.558 54.7986 19.978 54.7335 19.2755C39.6783 18.8582 47.9534 19.0874 32.8977 18.6696Z" fill="white"/>
</svg>
