<svg width="72" height="37" viewBox="0 0 72 37" fill="none" xmlns="http://www.w3.org/2000/svg">
<path fill-rule="evenodd" clip-rule="evenodd" d="M34.8328 24.1817C6.94505 22.8751 28.4384 23.5996 0.533132 23.0256C-0.0707619 22.3392 -0.161511 21.4913 0.260329 20.4838C16.6554 20.1253 4.09877 21.4367 14.3948 20.1152C36.6199 21.5952 19.9218 21.4075 42.1648 22.1772C47.6035 22.5462 52.9924 22.5403 58.3331 22.1589C58.348 21.4089 58.363 20.6587 58.3778 19.9093C57.0971 19.573 55.8087 19.3416 54.5111 19.2158C53.381 19.1907 52.9673 18.3319 53.2694 16.6414C54.3542 16.3021 55.4318 16.3388 56.5009 16.7504C57.018 17.7037 57.6547 18.1937 58.4117 18.2213C58.4377 16.9093 58.4643 15.5964 58.4904 14.2844C39.8501 14.004 59.3 14.8464 40.6645 14.2462C27.4633 14.209 21.8792 14.3962 8.67615 14.2943C-4.2982 13.5514 13.577 13.9658 0.601267 13.4591C0.561076 12.7137 0.681819 12.061 0.96367 11.5013C1.69597 11.5062 1.48021 11.4519 7.5905 12.006C20.0975 11.4331 24.9818 11.222 37.4782 11.8877C37.7964 11.8802 38.114 11.8832 38.4318 11.8926C38.7073 11.8982 38.9826 11.9125 39.2578 11.9288C42.2388 12.0081 46.7388 10.8966 58.5357 12.0342C58.3633 8.09421 58.2268 4.14986 58.1259 0.200043C58.4672 0.127705 58.7888 0.231644 59.0895 0.514C60.0534 1.96369 60.9943 3.40255 61.9131 4.83092C64.3171 8.36227 66.9515 11.3591 69.8171 13.8217C70.7714 14.7989 71.499 16.1371 72 17.8354C70.3154 20.6066 68.4354 22.9819 66.3601 24.9626C63.7001 28.6257 61.0402 32.2884 58.3799 35.9515C57.8508 36.3388 57.3679 36.2292 56.9316 35.621C57.0398 32.8079 57.2579 30.0006 57.5852 27.2003C57.8989 26.6094 58.0221 25.8636 57.9531 24.9606C42.0122 24.4238 50.7742 24.7189 34.8328 24.1817Z" fill="black"/>
</svg>
