<svg width="330" height="84" viewBox="0 0 330 84" fill="none" xmlns="http://www.w3.org/2000/svg">
<mask id="mask0_91_41434" style="mask-type:luminance" maskUnits="userSpaceOnUse" x="0" y="0" width="330" height="84">
<path fill-rule="evenodd" clip-rule="evenodd" d="M0 0H330V84H0V0Z" fill="white"/>
</mask>
<g mask="url(#mask0_91_41434)">
<path fill-rule="evenodd" clip-rule="evenodd" d="M358.604 24.5025C360.928 24.6255 363.011 24.7307 365.094 24.8534C367.698 24.9936 370.302 25.1521 372.385 25.7832C374.067 26.2921 374.027 26.573 372.144 26.9765C370.382 27.3624 368.459 27.6255 366.537 27.8887C359.767 28.7657 352.757 29.3099 345.747 29.8364C341.621 30.1518 337.495 30.415 333.369 30.7132C332.568 30.7659 331.767 30.8362 330.646 30.9061C332.969 31.2048 335.131 31.257 337.215 31.38C344.304 31.8011 351.275 32.3976 357.924 33.3625C359.326 33.5731 360.808 33.7133 362.21 33.9061C366.136 34.4326 370.221 34.6255 374.427 34.5552C377.11 34.5202 379.795 34.5552 382.478 34.6959C383.44 34.7486 384.402 34.8012 385.283 34.9415C386.805 35.2048 387.166 35.6259 386.124 36.117C385.322 36.5027 384.322 36.8186 383.24 37.1346C382.079 37.4682 380.876 37.8014 379.796 38.1522C377.632 38.8715 377.672 39.3804 379.796 40.0997C380.476 40.3275 381.198 40.5381 381.878 40.7837C382.999 41.1522 383.561 41.6084 383.361 42.1349C382.92 43.2928 383.441 44.4683 382.999 45.6259C382.68 46.4153 384.042 47.0471 385.564 47.5908C387.287 48.2049 389.209 48.7485 391.131 49.2923C393.055 49.8188 394.737 50.398 396.259 51.0642C398.143 51.8711 398.183 52.3976 396.38 53.2395C395.699 53.5733 394.818 53.836 393.897 54.082C391.133 54.8185 388.329 55.5031 385.204 56.0467C383.802 56.2923 382.44 56.5911 381.038 56.836C379.395 57.1347 378.634 57.6081 378.555 58.2222C378.474 58.8185 378.595 59.4149 378.915 60.0118C379.756 61.7132 379.315 63.3798 377.312 64.9761C376.31 65.7659 376.31 66.5024 377.272 67.31C378.594 68.4152 379.636 69.5728 379.035 70.7834C378.434 72.0292 377.913 73.2746 377.032 74.5028C376.591 75.0991 375.67 75.5902 374.428 76.0291C372.545 76.6781 370.221 76.9238 367.698 77.0113C363.572 77.1516 359.446 77.2568 355.32 77.3976C346.588 77.6957 337.855 78.0465 329.163 78.4673C320.47 78.8708 311.778 79.2216 303.086 79.696C294.033 80.2048 284.939 80.6781 275.887 81.2046C267.434 81.7135 258.983 81.8187 250.49 81.3448C246.765 81.1342 242.92 81.117 239.114 81.0467C230.222 80.8715 221.289 80.8012 212.396 80.8361C202.622 80.8715 192.888 80.6958 183.234 80.1521C178.347 79.8712 173.501 79.4677 168.734 78.9766C160.322 78.0992 151.79 77.9063 143.098 78.0644C128.997 78.3098 114.897 78.5204 100.797 78.5731C95.4297 78.5731 90.0213 78.6606 84.6544 78.7311C78.3656 78.8009 72.2363 78.5028 66.1077 78.082C59.1382 77.6082 52.1676 77.4325 45.0774 77.6787C39.7899 77.8538 34.4224 77.7662 29.1351 77.7135C19.7211 77.6082 10.3079 77.6081 0.93428 77.7312C-5.91545 77.8011 -12.7657 77.8187 -19.6149 77.5911C-22.3789 77.4857 -25.0629 77.3278 -27.7066 77.0124C-29.2688 76.8189 -30.7113 76.5384 -32.0328 76.17C-33.5952 75.731 -33.9561 75.2577 -32.7141 74.7488C-31.5124 74.2401 -31.7927 73.8017 -32.554 73.3101C-33.7563 72.503 -35.5587 71.8889 -37.6819 71.3802C-40.0848 70.784 -42.7695 70.3272 -45.4125 69.8716C-47.9768 69.4326 -50.5001 69.012 -53.0632 68.5731C-54.6658 68.2925 -56.148 67.959 -57.5497 67.5554C-59.1919 67.0644 -59.2716 66.5378 -57.7899 66.0113C-55.6666 65.292 -53.464 64.608 -51.1808 63.959C-47.6157 62.9238 -43.4898 62.38 -38.9636 62.1516C-34.6374 61.9238 -30.3513 61.6605 -26.0647 61.4323C-25.5839 61.3969 -25.1031 61.3969 -24.6222 61.2394C-25.3836 60.9934 -26.1443 60.7656 -26.8255 60.5199C-28.1874 60.0112 -28.0272 59.6077 -26.2641 59.2392C-25.2621 59.0287 -24.1409 58.8884 -23.0998 58.7127C-20.4158 58.2743 -17.7324 57.8359 -15.0478 57.397C-15.2885 57.1513 -15.8489 57.1864 -16.2899 57.1513C-22.0184 56.7124 -27.7464 56.274 -33.3941 55.7126C-36.5994 55.3966 -39.683 55.0109 -42.5674 54.4317C-46.293 53.6779 -50.3793 53.2213 -54.4245 52.7303C-55.5061 52.5894 -56.8277 52.5197 -57.0285 52.0286C-57.2692 51.5021 -56.0669 51.2743 -55.0257 51.0459C-51.941 50.362 -48.8169 49.7125 -45.6523 49.0635C-44.0502 48.7125 -42.5282 48.3617 -41.1663 47.9229C-40.1644 47.6075 -40.1644 47.5548 -41.1663 47.2567C-42.0877 46.9934 -43.009 46.7478 -43.8901 46.4845C-45.252 46.081 -45.8134 45.5545 -45.5329 44.9404C-45.0919 44.0282 -45.7328 43.2035 -47.4954 42.4846C-48.1762 42.2043 -48.6971 41.9059 -49.2977 41.6072C-50.5797 40.9761 -50.5797 40.3269 -49.4982 39.6603C-48.9771 39.3444 -48.4169 39.0463 -47.7355 38.7834C-45.9735 38.0641 -44.3305 37.3275 -43.3291 36.4496C-43.0488 36.1869 -42.7285 35.9237 -42.929 35.6253C-43.2093 35.1864 -42.6081 34.8882 -41.6073 34.6604C-39.2839 34.1339 -36.9604 33.6252 -34.4767 33.2044C-31.4726 32.6957 -28.4684 32.1343 -25.5039 31.5202C-25.8638 31.2397 -26.6252 31.1521 -27.2257 31.0291C-33.074 29.8885 -38.6418 28.6076 -44.2898 27.3628C-46.3328 26.9238 -48.2157 26.3802 -50.0585 25.8537C-52.8628 25.0645 -52.6221 24.6431 -49.3369 24.1699C-42.447 23.1695 -35.8778 21.9413 -29.3886 20.661C-29.308 20.6432 -29.2286 20.5907 -28.9481 20.5032C-30.4298 19.7664 -32.072 19.082 -34.3554 18.6258C-36.4784 18.2225 -38.4813 17.7668 -40.4046 17.2403C-41.8471 16.8368 -43.4087 16.486 -45.0113 16.1524C-48.3361 15.4507 -51.6605 14.714 -55.0253 14.0118C-58.3103 13.3456 -60.9937 12.3979 -64.1178 11.6614C-65.6397 11.2927 -66.4816 10.7492 -67.042 10.1351C-67.7231 9.4156 -67.5632 8.88906 -64.8786 8.3631C-63.5167 8.09984 -61.9946 7.92415 -60.4722 7.76664C-55.3443 7.17036 -50.1773 6.64383 -44.9704 6.16999C-42.3659 5.92435 -39.6825 5.87187 -36.9587 6.08245C-34.2752 6.29302 -31.5112 6.38056 -28.7472 6.38056C-24.1801 6.36331 -19.6138 6.38056 -15.0472 6.38056C-7.95697 6.41601 -0.986916 6.10007 5.94279 5.6268C8.70679 5.4511 11.5106 5.2754 14.3548 5.1702C17.519 5.047 20.6833 5.08264 23.8083 5.36296C25.3298 5.50378 26.8921 5.62624 28.3749 5.81918C32.1409 6.3279 35.9863 6.48595 39.9511 6.22269C41.7943 6.09968 43.6767 6.08243 45.5195 6.22269C46.5213 6.27518 47.482 6.18764 48.3635 6.08245C51.8492 5.69617 55.2938 5.27541 58.7783 4.87189C62.9848 4.39805 67.1499 3.87153 71.5965 3.76634C77.5255 3.62608 83.1733 3.88932 88.5413 4.80155C90.5844 5.15295 92.7076 5.4511 94.7905 5.7843C101.8 6.87167 109.211 6.99467 116.742 6.76627C125.434 6.48595 133.846 5.69673 142.258 4.90694C150.71 4.13535 159.283 3.66152 168.015 3.52126C169.257 3.50364 170.498 3.45096 171.74 3.41608C178.27 3.27525 184.719 3.46857 190.968 4.18748C195.495 4.714 200.141 5.08263 204.989 5.047C208.794 5.01213 212.559 4.92402 216.364 4.74889C222.574 4.46857 228.823 4.22235 235.112 4.1526C245.086 4.02959 254.86 4.46855 264.273 5.62623C270.882 6.43327 277.612 6.8544 284.622 6.64383C289.589 6.50357 294.516 6.27519 299.443 6.04699C302.528 5.90674 305.652 5.76649 308.736 5.7138C316.227 5.57317 323.477 5.94162 330.326 7.08224C334.372 7.74845 338.659 7.64325 342.904 7.34492C346.83 7.0646 350.716 6.7132 354.641 6.46813C360.129 6.15218 365.537 6.22211 370.905 6.62563C378.476 7.18703 386.126 7.60819 393.818 7.95902C395.46 8.02896 397.102 8.15195 398.624 8.36253C401.189 8.69611 401.468 9.32747 399.225 9.88887C397.022 10.4332 394.618 10.8538 392.175 11.24C388.449 11.8187 388.29 11.8714 389.051 13.2753C389.21 13.5912 389.451 13.8717 389.732 14.1699C389.972 14.4858 390.493 14.714 391.214 14.9246C392.576 15.3281 392.576 15.5559 391.094 15.9246C389.932 16.2227 388.69 16.486 387.449 16.7493C385.246 17.2403 384.765 17.5385 385.486 18.4158C386.007 19.0648 385.567 19.5032 384.084 19.9245C380.118 21.0297 376.073 22.0998 371.746 23.0471C368.462 23.7664 364.816 24.0996 361.011 24.2753C360.45 24.2929 359.889 24.3107 359.368 24.3634C359.165 24.3623 359.005 24.415 358.604 24.5025Z" fill="#F7AA1A"/>
</g>
</svg>
