<svg width="346" height="191" viewBox="0 0 346 191" fill="none" xmlns="http://www.w3.org/2000/svg">
<rect x="0.5" y="0.177734" width="345" height="190" rx="10" fill="#42B86F"/>
<path fill-rule="evenodd" clip-rule="evenodd" d="M314.916 50.076C314.916 49.7947 315.031 49.5123 315.256 49.2969C325.813 39.3043 325.813 23.0494 315.256 13.0586C314.801 12.6277 314.801 11.9315 315.256 11.5009C315.712 11.07 316.447 11.07 316.902 11.5009C328.365 22.3512 328.368 40.0065 316.902 50.8547C316.447 51.2854 315.712 51.2854 315.256 50.8547C315.029 50.6403 314.916 50.3579 314.916 50.076Z" fill="white"/>
<path fill-rule="evenodd" clip-rule="evenodd" d="M309.09 18.5793C309.09 18.2973 309.203 18.0151 309.43 17.7997C309.885 17.3693 310.621 17.3693 311.076 17.7997C318.87 25.1758 318.87 37.1774 311.076 44.5537C310.621 44.9844 309.885 44.9844 309.43 44.5537C308.975 44.1234 308.975 43.4267 309.43 42.9959C316.316 36.478 316.316 25.8744 309.43 19.3598C309.203 19.1425 309.09 18.8607 309.09 18.5793Z" fill="white"/>
<path fill-rule="evenodd" clip-rule="evenodd" d="M303.501 37.9311C303.501 37.6493 303.614 37.3669 303.841 37.1515C307.32 33.8594 307.32 28.5014 303.841 25.2078C303.386 24.777 303.386 24.0803 303.841 23.65C304.297 23.2193 305.032 23.2193 305.487 23.65C309.875 27.802 309.875 34.5579 305.487 38.7098C305.032 39.14 304.297 39.14 303.841 38.7098C303.614 38.4949 303.501 38.2125 303.501 37.9311Z" fill="white"/>
<path d="M35.5712 85.1902C34.0912 85.1902 32.7962 83.8952 32.7962 82.4152C32.7962 80.8427 34.0912 79.6402 35.5712 79.6402C37.0975 79.6402 38.3925 80.8427 38.3925 82.4152C38.3925 83.8952 37.0975 85.1902 35.5712 85.1902ZM43.3412 85.1902C41.8613 85.1902 40.5662 83.8952 40.5662 82.4152C40.5662 80.8427 41.8613 79.6402 43.3412 79.6402C44.9138 79.6402 46.1162 80.8427 46.1162 82.4152C46.1162 83.8952 44.9138 85.1902 43.3412 85.1902ZM39.4562 116.548C31.5938 116.548 25.2113 110.165 25.2113 102.303C25.2113 94.4402 31.5938 88.0577 39.4562 88.0577C47.365 88.0577 53.7012 94.4402 53.7012 102.303C53.7012 110.165 47.365 116.548 39.4562 116.548ZM39.4562 110.581C44.1737 110.581 47.735 106.974 47.735 102.303C47.735 97.6315 44.1737 94.024 39.4562 94.024C34.785 94.024 31.2237 97.6315 31.2237 102.303C31.2237 106.974 34.785 110.581 39.4562 110.581ZM71.3052 84.4965H77.1789V116.178L71.3052 116.224V114.559C69.9177 115.808 68.1602 116.548 66.0327 116.548C60.8989 116.548 56.8752 112.293 56.8752 106.928C56.8752 101.563 60.8989 97.3077 66.0327 97.3077C68.1602 97.3077 69.9177 98.0477 71.3052 99.2965V84.4965ZM67.1889 111.321C69.5939 111.321 71.5827 109.379 71.5827 106.928C71.5827 104.476 69.5939 102.534 67.1889 102.534C64.7377 102.534 62.7952 104.476 62.7952 106.928C62.7952 109.379 64.7377 111.321 67.1889 111.321ZM101.456 106.881V107.899H87.3033C87.5346 110.535 88.9221 112.154 91.6046 112.154C93.6396 112.154 94.9808 111.275 95.4896 109.795H101.178C100.253 113.819 96.8308 116.548 91.6971 116.548C85.4996 116.548 81.3371 112.709 81.3371 106.928C81.3371 101.146 85.5458 97.2615 91.5121 97.2615C97.4783 97.2615 101.456 101.1 101.456 106.881ZM91.6046 101.794C89.5233 101.794 88.2746 102.765 87.6733 104.338H95.3508C94.7496 102.719 93.5933 101.794 91.6046 101.794ZM127.638 97.3077C131.708 97.3077 133.974 100.175 133.974 104.476V116.178H128.1V105.448C128.1 103.829 126.99 102.534 125.371 102.534C123.568 102.534 122.735 104.106 122.735 105.448V116.178H116.815V105.448C116.815 103.829 115.751 102.534 114.133 102.534C112.329 102.534 111.496 104.106 111.496 105.448V116.178H105.576V97.6777H111.496V99.944C112.699 98.3252 114.41 97.3077 116.538 97.3077C118.896 97.3077 120.746 98.6027 121.81 100.545C122.966 98.5102 125.001 97.3077 127.638 97.3077ZM157.895 106.881V107.899H143.743C143.974 110.535 145.362 112.154 148.044 112.154C150.079 112.154 151.42 111.275 151.929 109.795H157.618C156.693 113.819 153.27 116.548 148.137 116.548C141.939 116.548 137.777 112.709 137.777 106.928C137.777 101.146 141.985 97.2615 147.952 97.2615C153.918 97.2615 157.895 101.1 157.895 106.881ZM148.044 101.794C145.963 101.794 144.714 102.765 144.113 104.338H151.79C151.189 102.719 150.033 101.794 148.044 101.794ZM190.082 116.178L188.371 110.951H178.011L176.3 116.178H169.779L179.769 88.4277H186.614L196.604 116.178H190.082ZM179.63 105.864H186.752L183.191 94.8565L179.63 105.864ZM211.862 84.4965H217.736V116.178L211.862 116.224V114.559C210.474 115.808 208.717 116.548 206.589 116.548C201.456 116.548 197.432 112.293 197.432 106.928C197.432 101.563 201.456 97.3077 206.589 97.3077C208.717 97.3077 210.474 98.0477 211.862 99.2965V84.4965ZM207.746 111.321C210.151 111.321 212.139 109.379 212.139 106.928C212.139 104.476 210.151 102.534 207.746 102.534C205.294 102.534 203.352 104.476 203.352 106.928C203.352 109.379 205.294 111.321 207.746 111.321ZM223.42 116.178V97.6777H229.34V116.178H223.42ZM257.102 97.3077C261.172 97.3077 263.438 100.175 263.438 104.476V116.178H257.564V105.448C257.564 103.829 256.454 102.534 254.835 102.534C253.032 102.534 252.199 104.106 252.199 105.448V116.178H246.279V105.448C246.279 103.829 245.215 102.534 243.597 102.534C241.793 102.534 240.96 104.106 240.96 105.448V116.178H235.04V97.6777H240.96V99.944C242.163 98.3252 243.874 97.3077 246.002 97.3077C248.36 97.3077 250.21 98.6027 251.274 100.545C252.43 98.5102 254.465 97.3077 257.102 97.3077ZM268.767 116.178V97.6777H274.687V116.178H268.767ZM291.579 97.3077C295.233 97.3077 298.193 100.406 298.193 104.476V116.178H292.319V105.448C292.319 103.783 291.117 102.534 289.406 102.534C287.694 102.534 286.307 103.783 286.307 105.448V116.178H280.387V97.6777H286.307V99.944C287.602 98.3252 289.452 97.3077 291.579 97.3077ZM323.923 111.368H324.755V116.178C324.339 116.363 323.784 116.548 323.183 116.548C320.685 116.548 318.65 115.299 317.494 113.403C316.014 115.345 313.84 116.548 311.158 116.548C306.024 116.548 302 112.293 302 106.928C302 101.563 306.024 97.3077 311.158 97.3077C313.285 97.3077 315.043 98.0477 316.43 99.2965V97.6777H322.304V109.564C322.304 111.09 323.136 111.368 323.923 111.368ZM312.314 111.321C314.719 111.321 316.708 109.379 316.708 106.928C316.708 104.476 314.719 102.534 312.314 102.534C309.863 102.534 307.92 104.476 307.92 106.928C307.92 109.379 309.863 111.321 312.314 111.321Z" fill="white"/>
<path d="M261.88 154.55H276.557V155.928C276.557 164.003 270.002 170.558 261.927 170.558C253.805 170.558 247.297 164.003 247.297 155.928C247.297 147.853 253.805 141.298 261.927 141.298C267.532 141.298 272.425 144.48 274.895 149.135L269.48 151.938C268.055 149.23 265.3 147.425 261.927 147.425C257.13 147.425 253.425 151.13 253.425 155.928C253.425 160.725 257.13 164.43 261.927 164.43C265.442 164.43 268.387 162.435 269.717 159.443H261.88V154.55ZM300.506 160.63V161.675H285.971C286.209 164.383 287.634 166.045 290.389 166.045C292.479 166.045 293.856 165.143 294.379 163.623H300.221C299.271 167.755 295.756 170.558 290.484 170.558C284.119 170.558 279.844 166.615 279.844 160.678C279.844 154.74 284.166 150.75 290.294 150.75C296.421 150.75 300.506 154.693 300.506 160.63ZM290.389 155.405C288.251 155.405 286.969 156.403 286.351 158.018H294.236C293.619 156.355 292.431 155.405 290.389 155.405ZM314.001 165.19C315.948 165.143 317.516 164.098 318.133 162.483H324.403C323.643 167.043 319.986 170.32 314.618 170.558L313.526 172.41C315.948 171.983 317.896 173.55 317.896 175.878C317.896 178.253 316.043 180.105 313.668 180.105C311.721 180.105 309.773 178.775 309.203 177.16L311.863 176.305C312.196 176.875 313.003 177.35 313.668 177.35C314.476 177.35 315.141 176.685 315.141 175.878C315.141 174.548 313.811 174.12 312.196 174.975L310.058 173.74L311.911 170.415C306.733 169.608 303.408 165.713 303.408 160.678C303.408 154.978 307.636 150.798 314.001 150.798C319.701 150.798 323.596 154.123 324.403 158.873H318.133C317.516 157.258 315.948 156.213 314.001 156.165C311.388 156.213 309.488 158.113 309.488 160.678C309.488 163.243 311.388 165.143 314.001 165.19Z" fill="white"/>
</svg>
