<svg width="340" height="47" viewBox="0 0 340 47" fill="none" xmlns="http://www.w3.org/2000/svg">
<mask id="mask0_168_13800" style="mask-type:luminance" maskUnits="userSpaceOnUse" x="0" y="0" width="340" height="47">
<path fill-rule="evenodd" clip-rule="evenodd" d="M340 46.1765H0V0.176514H340V46.1765Z" fill="white"/>
</mask>
<g mask="url(#mask0_168_13800)">
<path fill-rule="evenodd" clip-rule="evenodd" d="M197.964 1.60697H213.915C214.356 1.62658 214.796 1.65639 215.237 1.65639C219.423 1.69576 223.61 1.74516 227.796 1.77449C241.235 1.88302 254.674 1.883 268.158 1.79424C291.733 1.62659 315.307 1.75488 338.881 1.85322C347.385 1.89274 355.845 2.07024 364.218 2.35599C367.214 2.45448 370.166 2.60239 372.942 2.83874C375.145 3.02599 376.247 3.39064 375.366 3.73536C374.484 4.0898 374.969 4.37551 375.718 4.68102C377.569 5.39994 379.508 6.10978 381.182 6.84846C382.636 7.49868 385.016 7.91225 388.762 8.08993C389.422 8.11926 390.04 8.16866 390.7 8.21775C391.89 8.30651 393.168 8.39527 393.212 8.68101C393.3 8.94669 392.198 9.06525 391.096 9.16374C390.171 9.26223 389.201 9.351 388.276 9.42942C383.341 9.83372 378.449 10.2376 373.559 10.6511C372.81 10.7103 372.017 10.7496 371.488 10.8484C371.488 10.9469 371.797 10.996 372.061 11.0358C377.04 11.9122 381.358 12.8877 385.809 13.8434C387.219 14.1292 388.496 14.4345 389.642 14.7598C390.7 15.0651 390.348 15.3211 388.629 15.4787C387.924 15.5479 387.087 15.5973 386.293 15.6366C374.705 16.2179 363.424 16.9564 351.836 17.538C351.483 17.5577 350.866 17.5476 350.953 17.6759C358.444 17.8925 365.892 18.1883 373.206 18.5332C377.216 18.7204 381.137 18.9172 384.84 19.2521C387.219 19.4691 389.554 19.7055 391.405 20.0604C393.344 20.4244 393.344 20.6414 391.449 21.0156C390.083 21.272 388.718 21.528 387.483 21.8042C386.602 22.001 385.853 22.2273 385.941 22.474C386.161 23.4001 386.734 24.3063 391.009 24.9762C393.124 25.3109 395.151 25.6558 397.178 26.0107C399.249 26.3752 401.232 26.7594 402.819 27.1931C404.89 27.7545 404.846 28.0894 402.554 28.6118C401.894 28.7592 401.232 28.9173 400.483 29.0451C398.896 29.3206 398.544 29.6064 399.293 30.0006C400.527 30.6212 399.469 31.0847 396.341 31.4391C395.064 31.597 393.698 31.7153 392.332 31.8434C388.807 32.1681 385.502 32.5427 382.55 33.0355C380.082 33.4494 379.818 33.8432 381.8 34.3359C382.77 34.5823 384.004 34.7893 385.061 35.0257C386.56 35.3408 388.102 35.6365 389.424 35.9712C391.275 36.4539 390.791 36.8386 388.146 37.1733C386.78 37.341 385.281 37.4691 383.696 37.5772C378.761 37.9321 373.782 38.2769 368.846 38.6314C368.141 38.6808 367.26 38.7005 366.688 38.858C366.996 38.9171 367.261 38.9863 367.525 39.0454C370.257 39.6265 373.606 40.0405 377.263 40.3852C381.626 40.7988 385.987 41.2224 390.394 41.6364C394.977 42.06 399.032 42.6022 402.688 43.2519C404.231 43.5377 405.596 43.8532 406.478 44.2177C408.725 45.1341 407.403 45.587 402.115 45.7349C396.783 45.8823 391.364 45.9025 385.987 45.9317C379.994 45.9611 374.134 45.853 368.494 45.4885C366.688 45.38 364.837 45.3013 362.987 45.2225C351.927 44.7691 340.69 44.6611 329.454 44.5819C323.152 44.5423 316.851 44.5227 310.55 44.5227C303.764 44.5227 297.022 44.5132 290.236 44.5621C280.455 44.6212 270.628 44.5621 260.846 44.444C257.629 44.4047 254.456 44.3455 251.284 44.4338C245.247 44.6015 239.21 44.7095 233.129 44.8181C223.788 44.9857 214.446 44.9363 205.105 44.8676C196.557 44.808 188.053 44.7691 179.548 44.7985C172.41 44.8278 165.228 44.8574 158.089 44.808C152.536 44.7591 147.029 44.7 141.476 44.6606C125.173 44.5323 108.913 44.6308 92.6535 44.7095C79.5217 44.7591 66.3475 44.8574 53.2162 44.9266C43.3453 44.9757 33.4314 45.0644 23.605 45.2517C11.5757 45.488 -0.4095 45.7148 -12.4828 45.8329C-29.4479 46.0101 -46.2357 45.7344 -62.848 45.1331C-67.5628 44.966 -72.1454 44.7293 -76.4637 44.3255C-77.8735 44.1876 -79.2843 44.0593 -80.4734 43.8623C-82.192 43.5868 -82.1474 43.3304 -80.3848 43.084C-79.4596 42.9562 -78.5341 42.8381 -77.5204 42.7391C-73.3345 42.3255 -69.1478 41.902 -64.8295 41.5274C-61.9646 41.2811 -59.1454 40.9958 -56.5456 40.6702C-53.0198 40.2072 -52.9318 40.0103 -56.2368 39.5175C-58.5723 39.1728 -61.0396 38.8577 -63.4187 38.5128C-65.4461 38.2271 -67.3403 37.902 -68.8827 37.5177C-70.381 37.1535 -70.3365 36.8871 -68.8827 36.5131C-68.4863 36.4045 -68.001 36.3156 -67.5606 36.2171C-66.1508 35.9118 -64.74 35.6163 -63.3307 35.3009C-62.5375 35.1237 -61.9208 34.9171 -61.6566 34.6803C-61.2602 34.2861 -61.6566 33.9316 -62.8463 33.5868C-66.0181 32.6508 -69.6318 31.7738 -73.1569 30.8772C-75.4044 30.3259 -77.1671 29.7149 -79.1938 29.1434C-80.8239 28.6902 -80.2073 28.3059 -77.74 28.0105C-76.6382 27.8726 -75.4045 27.7545 -74.1709 27.6364C-69.4561 27.2028 -64.6092 26.7988 -59.9817 26.3258C-54.2976 25.7543 -47.9969 25.4786 -41.7397 25.1828C-39.6244 25.0843 -37.51 25.0151 -35.1299 24.8577C-37.0241 24.6905 -38.7435 24.6707 -40.4176 24.6113C-47.027 24.3649 -53.769 24.2075 -60.246 23.8428C-62.8893 23.6949 -65.6212 23.5575 -68.0455 23.2814C-71.2618 22.9269 -71.6591 22.5327 -69.4121 21.991C-68.2225 21.6952 -66.8117 21.4195 -65.5341 21.1241C-64.2116 20.8282 -63.0224 20.5131 -62.4935 20.1291C-61.7883 19.5872 -62.3172 19.3212 -64.829 18.9961C-66.7232 18.7598 -68.7506 18.5821 -70.7774 18.3852C-73.3772 18.1291 -75.8445 17.8338 -77.7392 17.4098C-79.3701 17.0549 -80.3395 16.651 -80.5151 16.1783C-80.6036 15.8236 -80.5151 15.469 -80.3395 15.1145C-80.0307 14.4345 -81.0887 13.853 -83.7328 13.3411C-85.8913 12.9275 -87.9188 12.4839 -89.9455 12.0405C-92.061 11.5775 -93.6033 11.0652 -95.0571 10.5334C-96.0264 10.1886 -95.7623 10.0109 -93.9997 9.81396C-93.0744 9.7059 -92.1055 9.61714 -91.1792 9.53841C-87.2136 9.22334 -83.0709 8.99656 -78.9297 8.7599C-72.3197 8.39527 -65.7107 8.01119 -59.2325 7.58759C-57.4698 7.46934 -57.4255 7.44973 -58.219 7.14422C-59.321 6.73035 -60.4666 6.30676 -61.524 5.88315C-62.8908 5.35149 -62.4495 5.12471 -59.5858 4.85872C-57.118 4.63195 -54.4296 4.51385 -51.7863 4.40532C-30.6354 3.50872 -9.08852 3.09516 12.5029 2.76001C21.0071 2.63173 29.5113 2.52369 37.9723 2.40512C49.957 2.23794 61.9433 2.05064 73.9725 2.00124C89.5271 1.92236 105.126 1.91232 120.724 1.93208C145.841 1.96172 170.913 1.88301 195.986 1.66642C196.691 1.65639 197.352 1.6664 198.013 1.60697H197.964Z" fill="#F7AA1A"/>
</g>
</svg>
