<svg width="370" height="39" viewBox="0 0 370 39" fill="none" xmlns="http://www.w3.org/2000/svg">
<path d="M36.8914 20.136C36.8914 21.6488 35.6649 22.875 34.152 22.875H19.2824C17.7691 22.875 16.543 21.6488 16.543 20.136C16.543 18.6231 17.7691 17.3965 19.2824 17.3965H34.152C35.6649 17.3965 36.8914 18.6231 36.8914 20.136Z" fill="#C6F2F9"/>
<path d="M73.9042 20.136C73.9042 21.6488 72.6781 22.875 71.1647 22.875H56.2952C54.7823 22.875 53.5557 21.6488 53.5557 20.136C53.5557 18.6231 54.7823 17.3965 56.2952 17.3965H71.1647C72.6781 17.3965 73.9042 18.6231 73.9042 20.136Z" fill="#C6F2F9"/>
<path d="M110.917 20.136C110.917 21.6488 109.691 22.875 108.178 22.875H93.3082C91.795 22.875 90.5684 21.6488 90.5684 20.136C90.5684 18.6231 91.795 17.3965 93.3082 17.3965H108.178C109.691 17.3965 110.917 18.6231 110.917 20.136Z" fill="#C6F2F9"/>
<path d="M147.928 20.136C147.928 21.6488 146.702 22.875 145.189 22.875H130.319C128.807 22.875 127.58 21.6488 127.58 20.136C127.58 18.6231 128.807 17.3965 130.319 17.3965H145.189C146.702 17.3965 147.928 18.6231 147.928 20.136Z" fill="#C6F2F9"/>
<path d="M184.94 20.136C184.94 21.6488 183.713 22.875 182.201 22.875H167.331C165.818 22.875 164.592 21.6488 164.592 20.136C164.592 18.6231 165.818 17.3965 167.331 17.3965H182.201C183.713 17.3965 184.94 18.6231 184.94 20.136Z" fill="#C6F2F9"/>
<path d="M221.953 20.136C221.953 21.6488 220.726 22.875 219.214 22.875H204.343C202.831 22.875 201.604 21.6488 201.604 20.136C201.604 18.6231 202.831 17.3965 204.343 17.3965H219.214C220.726 17.3965 221.953 18.6231 221.953 20.136Z" fill="#C6F2F9"/>
<path d="M258.966 20.136C258.966 21.6488 257.739 22.875 256.226 22.875H241.357C239.843 22.875 238.617 21.6488 238.617 20.136C238.617 18.6231 239.843 17.3965 241.357 17.3965H256.226C257.739 17.3965 258.966 18.6231 258.966 20.136Z" fill="#C6F2F9"/>
<path d="M295.975 20.136C295.975 21.6488 294.749 22.875 293.236 22.875H278.366C276.854 22.875 275.627 21.6488 275.627 20.136C275.627 18.6231 276.854 17.3965 278.366 17.3965H293.236C294.749 17.3965 295.975 18.6231 295.975 20.136Z" fill="#C6F2F9"/>
<path d="M332.988 20.136C332.988 21.6488 331.762 22.875 330.25 22.875H315.38C313.867 22.875 312.641 21.6488 312.641 20.136C312.641 18.6231 313.867 17.3965 315.38 17.3965H330.25C331.762 17.3965 332.988 18.6231 332.988 20.136Z" fill="#C6F2F9"/>
<path d="M370 20.136C370 21.6488 368.773 22.875 367.26 22.875H352.391C350.878 22.875 349.651 21.6488 349.651 20.136C349.651 18.6231 350.878 17.3965 352.391 17.3965H367.26C368.773 17.3965 370 18.6231 370 20.136Z" fill="#C6F2F9"/>
<path d="M20.3484 2.73935C20.3484 4.25226 19.1215 5.47888 17.609 5.47888H2.73908C1.22663 5.47888 0 4.25226 0 2.73935C0 1.22644 1.22663 0 2.73908 0H17.609C19.1215 0 20.3484 1.22644 20.3484 2.73935Z" fill="#C6F2F9"/>
<path d="M57.3601 2.73935C57.3601 4.25226 56.134 5.47888 54.6207 5.47888H39.7511C38.2382 5.47888 37.0117 4.25226 37.0117 2.73935C37.0117 1.22644 38.2382 0 39.7511 0H54.6207C56.134 0 57.3601 1.22644 57.3601 2.73935Z" fill="#C6F2F9"/>
<path d="M94.3728 2.73935C94.3728 4.25226 93.1457 5.47888 91.6334 5.47888H76.7633C75.2504 5.47888 74.0244 4.25226 74.0244 2.73935C74.0244 1.22644 75.2504 0 76.7633 0H91.6334C93.1457 0 94.3728 1.22644 94.3728 2.73935Z" fill="#C6F2F9"/>
<path d="M131.386 2.73935C131.386 4.25226 130.159 5.47888 128.646 5.47888H113.777C112.264 5.47888 111.037 4.25226 111.037 2.73935C111.037 1.22644 112.264 0 113.777 0H128.646C130.159 0 131.386 1.22644 131.386 2.73935Z" fill="#C6F2F9"/>
<path d="M168.397 2.73935C168.397 4.25226 167.171 5.47888 165.658 5.47888H150.788C149.275 5.47888 148.049 4.25226 148.049 2.73935C148.049 1.22644 149.275 0 150.788 0H165.658C167.171 0 168.397 1.22644 168.397 2.73935Z" fill="#C6F2F9"/>
<path d="M205.407 2.73935C205.407 4.25226 204.181 5.47888 202.668 5.47888H187.798C186.285 5.47888 185.059 4.25226 185.059 2.73935C185.059 1.22644 186.285 0 187.798 0H202.668C204.181 0 205.407 1.22644 205.407 2.73935Z" fill="#C6F2F9"/>
<path d="M242.42 2.73935C242.42 4.25226 241.194 5.47888 239.681 5.47888H224.811C223.299 5.47888 222.072 4.25226 222.072 2.73935C222.072 1.22644 223.299 0 224.811 0H239.681C241.194 0 242.42 1.22644 242.42 2.73935Z" fill="#C6F2F9"/>
<path d="M279.432 2.73935C279.432 4.25226 278.206 5.47888 276.693 5.47888H261.823C260.31 5.47888 259.084 4.25226 259.084 2.73935C259.084 1.22644 260.31 0 261.823 0H276.693C278.206 0 279.432 1.22644 279.432 2.73935Z" fill="#C6F2F9"/>
<path d="M316.444 2.73935C316.444 4.25226 315.217 5.47888 313.705 5.47888H298.834C297.322 5.47888 296.096 4.25226 296.096 2.73935C296.096 1.22644 297.322 0 298.834 0H313.705C315.217 0 316.444 1.22644 316.444 2.73935Z" fill="#C6F2F9"/>
<path d="M353.456 2.73935C353.456 4.25226 352.229 5.47888 350.716 5.47888H335.847C334.334 5.47888 333.107 4.25226 333.107 2.73935C333.107 1.22644 334.334 0 335.847 0H350.716C352.229 0 353.456 1.22644 353.456 2.73935Z" fill="#C6F2F9"/>
<path d="M20.3484 36.2693C20.3484 37.7825 19.1215 39.0087 17.609 39.0087H2.73908C1.22663 39.0087 0 37.7825 0 36.2693C0 34.7564 1.22663 33.5303 2.73908 33.5303H17.609C19.1215 33.5303 20.3484 34.7564 20.3484 36.2693Z" fill="#C6F2F9"/>
<path d="M57.3601 36.2693C57.3601 37.7825 56.134 39.0087 54.6207 39.0087H39.7511C38.2382 39.0087 37.0117 37.7825 37.0117 36.2693C37.0117 34.7564 38.2382 33.5303 39.7511 33.5303H54.6207C56.134 33.5303 57.3601 34.7564 57.3601 36.2693Z" fill="#C6F2F9"/>
<path d="M94.3728 36.2693C94.3728 37.7825 93.1457 39.0087 91.6334 39.0087H76.7633C75.2504 39.0087 74.0244 37.7825 74.0244 36.2693C74.0244 34.7564 75.2504 33.5303 76.7633 33.5303H91.6334C93.1457 33.5303 94.3728 34.7564 94.3728 36.2693Z" fill="#C6F2F9"/>
<path d="M131.386 36.2693C131.386 37.7825 130.159 39.0087 128.646 39.0087H113.777C112.264 39.0087 111.037 37.7825 111.037 36.2693C111.037 34.7564 112.264 33.5303 113.777 33.5303H128.646C130.159 33.5303 131.386 34.7564 131.386 36.2693Z" fill="#C6F2F9"/>
<path d="M168.397 36.2693C168.397 37.7825 167.171 39.0087 165.658 39.0087H150.788C149.275 39.0087 148.049 37.7825 148.049 36.2693C148.049 34.7564 149.275 33.5303 150.788 33.5303H165.658C167.171 33.5303 168.397 34.7564 168.397 36.2693Z" fill="#C6F2F9"/>
<path d="M205.407 36.2693C205.407 37.7825 204.181 39.0087 202.668 39.0087H187.798C186.285 39.0087 185.059 37.7825 185.059 36.2693C185.059 34.7564 186.285 33.5303 187.798 33.5303H202.668C204.181 33.5303 205.407 34.7564 205.407 36.2693Z" fill="#C6F2F9"/>
<path d="M242.42 36.2693C242.42 37.7825 241.194 39.0087 239.681 39.0087H224.811C223.299 39.0087 222.072 37.7825 222.072 36.2693C222.072 34.7564 223.299 33.5303 224.811 33.5303H239.681C241.194 33.5303 242.42 34.7564 242.42 36.2693Z" fill="#C6F2F9"/>
<path d="M279.432 36.2693C279.432 37.7825 278.206 39.0087 276.693 39.0087H261.823C260.31 39.0087 259.084 37.7825 259.084 36.2693C259.084 34.7564 260.31 33.5303 261.823 33.5303H276.693C278.206 33.5303 279.432 34.7564 279.432 36.2693Z" fill="#C6F2F9"/>
<path d="M316.444 36.2693C316.444 37.7825 315.217 39.0087 313.705 39.0087H298.834C297.322 39.0087 296.096 37.7825 296.096 36.2693C296.096 34.7564 297.322 33.5303 298.834 33.5303H313.705C315.217 33.5303 316.444 34.7564 316.444 36.2693Z" fill="#C6F2F9"/>
<path d="M353.456 36.2693C353.456 37.7825 352.229 39.0087 350.716 39.0087H335.847C334.334 39.0087 333.107 37.7825 333.107 36.2693C333.107 34.7564 334.334 33.5303 335.847 33.5303H350.716C352.229 33.5303 353.456 34.7564 353.456 36.2693Z" fill="#C6F2F9"/>
</svg>
