<svg width="39" height="370" viewBox="0 0 39 370" fill="none" xmlns="http://www.w3.org/2000/svg">
<path d="M20.136 333.108C21.6488 333.108 22.875 334.334 22.875 335.847V350.717C22.875 352.23 21.6488 353.456 20.136 353.456C18.6231 353.456 17.3965 352.23 17.3965 350.717V335.847C17.3965 334.334 18.6231 333.108 20.136 333.108Z" fill="#C6F2F9"/>
<path d="M20.136 296.095C21.6488 296.095 22.875 297.321 22.875 298.834V313.704C22.875 315.217 21.6488 316.443 20.136 316.443C18.6231 316.443 17.3965 315.217 17.3965 313.704V298.834C17.3965 297.321 18.6231 296.095 20.136 296.095Z" fill="#C6F2F9"/>
<path d="M20.136 259.083C21.6488 259.083 22.875 260.309 22.875 261.822V276.692C22.875 278.205 21.6488 279.431 20.136 279.431C18.6231 279.431 17.3965 278.205 17.3965 276.692V261.822C17.3965 260.309 18.6231 259.083 20.136 259.083Z" fill="#C6F2F9"/>
<path d="M20.136 222.071C21.6488 222.071 22.875 223.298 22.875 224.81V239.68C22.875 241.193 21.6488 242.419 20.136 242.419C18.6231 242.419 17.3965 241.193 17.3965 239.68V224.81C17.3965 223.298 18.6231 222.071 20.136 222.071Z" fill="#C6F2F9"/>
<path d="M20.136 185.059C21.6488 185.059 22.875 186.286 22.875 187.798V202.668C22.875 204.181 21.6488 205.407 20.136 205.407C18.6231 205.407 17.3965 204.181 17.3965 202.668V187.798C17.3965 186.286 18.6231 185.059 20.136 185.059Z" fill="#C6F2F9"/>
<path d="M20.136 148.047C21.6488 148.047 22.875 149.274 22.875 150.786V165.657C22.875 167.169 21.6488 168.395 20.136 168.395C18.6231 168.395 17.3965 167.169 17.3965 165.657V150.786C17.3965 149.274 18.6231 148.047 20.136 148.047Z" fill="#C6F2F9"/>
<path d="M20.136 111.034C21.6488 111.034 22.875 112.261 22.875 113.774V128.643C22.875 130.156 21.6488 131.383 20.136 131.383C18.6231 131.383 17.3965 130.156 17.3965 128.643V113.774C17.3965 112.261 18.6231 111.034 20.136 111.034Z" fill="#C6F2F9"/>
<path d="M20.136 74.0239C21.6488 74.0239 22.875 75.2499 22.875 76.7633V91.6329C22.875 93.1457 21.6488 94.3723 20.136 94.3723C18.6231 94.3723 17.3965 93.1457 17.3965 91.6329V76.7633C17.3965 75.2499 18.6231 74.0239 20.136 74.0239Z" fill="#C6F2F9"/>
<path d="M20.136 37.0109C21.6488 37.0109 22.875 38.237 22.875 39.7495V54.6191C22.875 56.1323 21.6488 57.3585 20.136 57.3585C18.6231 57.3585 17.3965 56.1323 17.3965 54.6191V39.7495C17.3965 38.237 18.6231 37.0109 20.136 37.0109Z" fill="#C6F2F9"/>
<path d="M20.136 -4.3869e-05C21.6488 -4.3869e-05 22.875 1.22659 22.875 2.73935V17.609C22.875 19.1219 21.6488 20.3484 20.136 20.3484C18.6231 20.3484 17.3965 19.1219 17.3965 17.609V2.73935C17.3965 1.22659 18.6231 -4.3869e-05 20.136 -4.3869e-05Z" fill="#C6F2F9"/>
<path d="M2.73898 349.651C4.25189 349.651 5.47852 350.878 5.47852 352.39L5.47852 367.26C5.47852 368.773 4.25189 370 2.73898 370C1.22607 370 -0.000366211 368.773 -0.000366211 367.26L-0.000366211 352.39C-0.000366211 350.878 1.22607 349.651 2.73898 349.651Z" fill="#C6F2F9"/>
<path d="M2.73898 312.639C4.25189 312.639 5.47852 313.865 5.47852 315.379L5.47852 330.248C5.47852 331.761 4.25189 332.988 2.73898 332.988C1.22607 332.988 -0.000366211 331.761 -0.000366211 330.248L-0.000366211 315.379C-0.000366211 313.865 1.22607 312.639 2.73898 312.639Z" fill="#C6F2F9"/>
<path d="M2.73898 275.627C4.25189 275.627 5.47852 276.854 5.47852 278.367L5.47852 293.237C5.47852 294.75 4.25189 295.976 2.73898 295.976C1.22607 295.976 -0.000366211 294.75 -0.000366211 293.237L-0.000366211 278.367C-0.000366211 276.854 1.22607 275.627 2.73898 275.627Z" fill="#C6F2F9"/>
<path d="M2.73898 238.614C4.25189 238.614 5.47852 239.841 5.47852 241.354L5.47852 256.223C5.47852 257.736 4.25189 258.963 2.73898 258.963C1.22607 258.963 -0.000366211 257.736 -0.000366211 256.223L-0.000366211 241.354C-0.000366211 239.841 1.22607 238.614 2.73898 238.614Z" fill="#C6F2F9"/>
<path d="M2.73898 201.603C4.25189 201.603 5.47852 202.829 5.47852 204.342L5.47852 219.212C5.47852 220.724 4.25189 221.951 2.73898 221.951C1.22607 221.951 -0.000366211 220.724 -0.000366211 219.212L-0.000366211 204.342C-0.000366211 202.829 1.22607 201.603 2.73898 201.603Z" fill="#C6F2F9"/>
<path d="M2.73898 164.593C4.25189 164.593 5.47852 165.819 5.47852 167.331L5.47852 182.201C5.47852 183.714 4.25189 184.94 2.73898 184.94C1.22607 184.94 -0.000366211 183.714 -0.000366211 182.201L-0.000366211 167.331C-0.000366211 165.819 1.22607 164.593 2.73898 164.593Z" fill="#C6F2F9"/>
<path d="M2.73898 127.58C4.25189 127.58 5.47852 128.806 5.47852 130.319L5.47852 145.189C5.47852 146.701 4.25189 147.928 2.73898 147.928C1.22607 147.928 -0.000366211 146.701 -0.000366211 145.189L-0.000366211 130.319C-0.000366211 128.806 1.22607 127.58 2.73898 127.58Z" fill="#C6F2F9"/>
<path d="M2.73898 90.5671C4.25189 90.5671 5.47852 91.7938 5.47852 93.3065L5.47852 108.176C5.47852 109.689 4.25189 110.916 2.73898 110.916C1.22607 110.916 -0.000366211 109.689 -0.000366211 108.176L-0.000366211 93.3065C-0.000366211 91.7938 1.22607 90.5671 2.73898 90.5671Z" fill="#C6F2F9"/>
<path d="M2.73898 53.5556C4.25189 53.5556 5.47852 54.7822 5.47852 56.2945L5.47852 71.1651C5.47852 72.6775 4.25189 73.9036 2.73898 73.9036C1.22607 73.9036 -0.000366211 72.6775 -0.000366211 71.1651L-0.000366211 56.2945C-0.000366211 54.7822 1.22607 53.5556 2.73898 53.5556Z" fill="#C6F2F9"/>
<path d="M2.73898 16.5432C4.25189 16.5432 5.47852 17.7697 5.47852 19.2826L5.47852 34.1522C5.47852 35.6651 4.25189 36.8916 2.73898 36.8916C1.22607 36.8916 -0.000366211 35.6651 -0.000366211 34.1522L-0.000366211 19.2826C-0.000366211 17.7697 1.22607 16.5432 2.73898 16.5432Z" fill="#C6F2F9"/>
<path d="M36.2694 349.651C37.7827 349.651 39.0088 350.878 39.0088 352.39V367.26C39.0088 368.773 37.7827 370 36.2694 370C34.7565 370 33.5305 368.773 33.5305 367.26V352.39C33.5305 350.878 34.7565 349.651 36.2694 349.651Z" fill="#C6F2F9"/>
<path d="M36.2694 312.639C37.7827 312.639 39.0088 313.865 39.0088 315.379V330.248C39.0088 331.761 37.7827 332.988 36.2694 332.988C34.7565 332.988 33.5305 331.761 33.5305 330.248V315.379C33.5305 313.865 34.7565 312.639 36.2694 312.639Z" fill="#C6F2F9"/>
<path d="M36.2694 275.627C37.7827 275.627 39.0088 276.854 39.0088 278.367V293.237C39.0088 294.75 37.7827 295.976 36.2694 295.976C34.7565 295.976 33.5305 294.75 33.5305 293.237V278.367C33.5305 276.854 34.7565 275.627 36.2694 275.627Z" fill="#C6F2F9"/>
<path d="M36.2694 238.614C37.7827 238.614 39.0088 239.841 39.0088 241.354V256.223C39.0088 257.736 37.7827 258.963 36.2694 258.963C34.7565 258.963 33.5305 257.736 33.5305 256.223V241.354C33.5305 239.841 34.7565 238.614 36.2694 238.614Z" fill="#C6F2F9"/>
<path d="M36.2694 201.603C37.7827 201.603 39.0088 202.829 39.0088 204.342V219.212C39.0088 220.724 37.7827 221.951 36.2694 221.951C34.7565 221.951 33.5305 220.724 33.5305 219.212V204.342C33.5305 202.829 34.7565 201.603 36.2694 201.603Z" fill="#C6F2F9"/>
<path d="M36.2694 164.593C37.7827 164.593 39.0088 165.819 39.0088 167.331V182.201C39.0088 183.714 37.7827 184.94 36.2694 184.94C34.7565 184.94 33.5305 183.714 33.5305 182.201V167.331C33.5305 165.819 34.7565 164.593 36.2694 164.593Z" fill="#C6F2F9"/>
<path d="M36.2694 127.58C37.7827 127.58 39.0088 128.806 39.0088 130.319V145.189C39.0088 146.701 37.7827 147.928 36.2694 147.928C34.7565 147.928 33.5305 146.701 33.5305 145.189V130.319C33.5305 128.806 34.7565 127.58 36.2694 127.58Z" fill="#C6F2F9"/>
<path d="M36.2694 90.5671C37.7827 90.5671 39.0088 91.7938 39.0088 93.3065V108.176C39.0088 109.689 37.7827 110.916 36.2694 110.916C34.7565 110.916 33.5305 109.689 33.5305 108.176V93.3065C33.5305 91.7938 34.7565 90.5671 36.2694 90.5671Z" fill="#C6F2F9"/>
<path d="M36.2694 53.5556C37.7827 53.5556 39.0088 54.7822 39.0088 56.2945V71.1651C39.0088 72.6775 37.7827 73.9036 36.2694 73.9036C34.7565 73.9036 33.5305 72.6775 33.5305 71.1651V56.2945C33.5305 54.7822 34.7565 53.5556 36.2694 53.5556Z" fill="#C6F2F9"/>
<path d="M36.2694 16.5432C37.7827 16.5432 39.0088 17.7697 39.0088 19.2826V34.1522C39.0088 35.6651 37.7827 36.8916 36.2694 36.8916C34.7565 36.8916 33.5305 35.6651 33.5305 34.1522V19.2826C33.5305 17.7697 34.7565 16.5432 36.2694 16.5432Z" fill="#C6F2F9"/>
</svg>
