<svg width="38" height="85" viewBox="0 0 38 85" fill="none" xmlns="http://www.w3.org/2000/svg">
<path d="M23.4662 9.07436L20.8348 9.08364L22.8017 3.83102L18.1929 3.84941L16.4785 12.8285L18.5793 12.8214L17.0244 20.0685L23.4662 9.07436Z" fill="#E14137" stroke="#E14137" stroke-width="0.373435" stroke-miterlimit="10"/>
<path d="M12.9086 28.5446L10.2772 28.5543L12.2442 23.3012L7.63483 23.3191L5.9209 32.2992L8.02173 32.2921L6.46633 39.5394L12.9086 28.5446Z" fill="#E14137" stroke="#E14137" stroke-width="0.373435" stroke-miterlimit="10"/>
<path d="M23.4662 48.016L20.8348 48.0248L22.8017 42.7722L18.1929 42.7901L16.4785 51.7702L18.5793 51.763L17.0244 59.0102L23.4662 48.016Z" fill="#E14137" stroke="#E14137" stroke-width="0.373435" stroke-miterlimit="10"/>
<path d="M28.7607 2.13703L30.1591 0.661348L30.3875 0.660691L28.7607 2.37695V2.13703Z" fill="#E14137" stroke="#E14137" stroke-width="0.373484" stroke-miterlimit="2.61313"/>
<path d="M28.7617 4.173L32.0972 0.654878L32.3155 0.653784L32.3087 0.671516L28.7617 4.41336V4.173Z" fill="#E14137" stroke="#E14137" stroke-width="0.373484" stroke-miterlimit="2.61313"/>
<path d="M28.7617 6.20653L31.197 3.63739L31.0486 4.03428L28.7617 6.44711V6.20653Z" fill="#E14137" stroke="#E14137" stroke-width="0.373484" stroke-miterlimit="2.61313"/>
<path d="M28.7617 8.24578L29.937 7.00587L29.7886 7.40297L28.7617 8.48615V8.24578Z" fill="#E14137" stroke="#E14137" stroke-width="0.373484" stroke-miterlimit="2.61313"/>
<path d="M28.7607 2.13703L30.1562 0.66485L30.2699 0.784814L28.7607 2.37695V2.13703Z" fill="#E14137" stroke="#E14137" stroke-width="0.373484" stroke-miterlimit="2.61313"/>
<path d="M28.7617 4.173L30.1572 2.70082L30.2709 2.82122L28.7617 4.41336V4.173Z" fill="#E14137" stroke="#E14137" stroke-width="0.373484" stroke-miterlimit="2.61313"/>
<path d="M28.7617 6.20653L30.1572 4.73435L30.2709 4.85432L28.7617 6.44711V6.20653Z" fill="#E14137" stroke="#E14137" stroke-width="0.373484" stroke-miterlimit="2.61313"/>
<path d="M28.7617 8.24622L29.937 7.00631L29.7886 7.40341L28.7617 8.48615V8.24622Z" fill="#E14137" stroke="#E14137" stroke-width="0.373484" stroke-miterlimit="2.61313"/>
<path d="M29.6211 35.8381L31.7267 33.6173L31.3582 34.2464L29.8489 35.8381H29.6211Z" fill="#E14137" stroke="#E14137" stroke-width="0.373484" stroke-miterlimit="2.61313"/>
<path d="M28.7617 34.7122L30.1572 33.24L30.2709 33.36L28.7617 34.9521V34.7122Z" fill="#E14137" stroke="#E14137" stroke-width="0.373484" stroke-miterlimit="2.61313"/>
<path d="M29.6211 35.8381L30.1554 35.2748L30.2691 35.3948L29.8489 35.8381H29.6211Z" fill="#E14137" stroke="#E14137" stroke-width="0.373484" stroke-miterlimit="2.61313"/>
<path d="M28.7598 28.6026L30.3267 26.9494L30.5552 26.9489L28.7598 28.843V28.6026Z" fill="#E14137" stroke="#E14137" stroke-width="0.373484" stroke-miterlimit="2.61313"/>
<path d="M28.7617 30.6364L32.2648 26.9407L32.4933 26.9403L28.7617 30.877V30.6364Z" fill="#E14137" stroke="#E14137" stroke-width="0.373484" stroke-miterlimit="2.61313"/>
<path d="M28.7617 32.6754L34.201 26.9373L34.4293 26.9366L28.7617 32.9157V32.6754Z" fill="#E14137" stroke="#E14137" stroke-width="0.373484" stroke-miterlimit="2.61313"/>
<path d="M28.7617 34.7116L34.8529 28.2857L34.4842 28.915L28.7617 34.9521V34.7116Z" fill="#E14137" stroke="#E14137" stroke-width="0.373484" stroke-miterlimit="2.61313"/>
<path d="M29.6211 35.8381L31.7267 33.6166L31.3582 34.2453L29.8485 35.8381H29.6211Z" fill="#E14137" stroke="#E14137" stroke-width="0.373484" stroke-miterlimit="2.61313"/>
<path d="M28.7598 28.6026L30.1552 27.1304L30.2689 27.2508L28.7598 28.843V28.6026Z" fill="#E14137" stroke="#E14137" stroke-width="0.373484" stroke-miterlimit="2.61313"/>
<path d="M28.7617 30.6364L30.1572 29.1642L30.2709 29.2848L28.7617 30.877V30.6364Z" fill="#E14137" stroke="#E14137" stroke-width="0.373484" stroke-miterlimit="2.61313"/>
<path d="M28.7617 32.6754L30.1572 31.2032L30.2709 31.3232L28.7617 32.9157V32.6754Z" fill="#E14137" stroke="#E14137" stroke-width="0.373484" stroke-miterlimit="2.61313"/>
<path d="M28.7617 34.7122L30.1572 33.24L30.2709 33.36L28.7617 34.9521V34.7122Z" fill="#E14137" stroke="#E14137" stroke-width="0.373484" stroke-miterlimit="2.61313"/>
<path d="M28.7607 36.746L29.6219 35.8371H29.8497L28.7607 36.9859V36.746Z" fill="#E14137" stroke="#E14137" stroke-width="0.373484" stroke-miterlimit="2.61313"/>
<path d="M28.7607 36.746L29.6219 35.8371H29.8497L28.7607 36.9859V36.746Z" fill="#E14137" stroke="#E14137" stroke-width="0.373484" stroke-miterlimit="2.61313"/>
<path d="M28.7607 36.7455L29.6219 35.8371H29.8493L28.7607 36.9859V36.7455Z" fill="#E14137" stroke="#E14137" stroke-width="0.373484" stroke-miterlimit="2.61313"/>
<path d="M7.36214 10.462L8.9296 8.80878L9.04333 8.92875L7.30469 10.763L7.36214 10.462Z" fill="#E14137" stroke="#E14137" stroke-width="0.373484" stroke-miterlimit="2.61313"/>
<path d="M8.39746 11.4061L10.8616 8.80678L10.9753 8.92674L8.62541 11.4061H8.39746Z" fill="#E14137" stroke="#E14137" stroke-width="0.373484" stroke-miterlimit="2.61313"/>
<path d="M10.3242 11.4061L12.7884 8.80678L12.9021 8.92674L10.5517 11.4061H10.3242Z" fill="#E14137" stroke="#E14137" stroke-width="0.373484" stroke-miterlimit="2.61313"/>
<path d="M12.2549 11.4061L14.7187 8.80678L14.8329 8.92674L12.4823 11.4061H12.2549Z" fill="#E14137" stroke="#E14137" stroke-width="0.373484" stroke-miterlimit="2.61313"/>
<path d="M14.1816 11.4061L16.6454 8.80678L16.7592 8.92674L14.4091 11.4061H14.1816Z" fill="#E14137" stroke="#E14137" stroke-width="0.373484" stroke-miterlimit="2.61313"/>
<path d="M16.1152 11.4061L18.5796 8.80678L18.6933 8.92674L16.3432 11.4061H16.1152Z" fill="#E14137" stroke="#E14137" stroke-width="0.373484" stroke-miterlimit="2.61313"/>
<path d="M18.043 11.4061L20.5071 8.80678L20.6208 8.92674L18.2709 11.4061H18.043Z" fill="#E14137" stroke="#E14137" stroke-width="0.373484" stroke-miterlimit="2.61313"/>
<path d="M19.9736 11.4061L22.4378 8.80678L22.5515 8.92674L20.2014 11.4061H19.9736Z" fill="#E14137" stroke="#E14137" stroke-width="0.373484" stroke-miterlimit="2.61313"/>
<path d="M21.9014 11.4061L24.3657 8.80678L24.4794 8.92674L22.1288 11.4061H21.9014Z" fill="#E14137" stroke="#E14137" stroke-width="0.373484" stroke-miterlimit="2.61313"/>
<path d="M23.8359 11.4061L26.2997 8.80678L26.414 8.92674L24.0634 11.4061H23.8359Z" fill="#E14137" stroke="#E14137" stroke-width="0.373484" stroke-miterlimit="2.61313"/>
<path d="M25.7637 11.4061L28.2273 8.80678L28.341 8.92674L25.9911 11.4061H25.7637Z" fill="#E14137" stroke="#E14137" stroke-width="0.373484" stroke-miterlimit="2.61313"/>
<path d="M27.6934 11.4061L28.6773 10.3685L28.5289 10.7654L27.9213 11.4061H27.6934Z" fill="#E14137" stroke="#E14137" stroke-width="0.373484" stroke-miterlimit="2.61313"/>
<path d="M26.4099 0.783539L26.3086 0.675949L26.5116 0.67508L26.4099 0.783539Z" fill="#E14137" stroke="#E14137" stroke-width="0.373484" stroke-miterlimit="2.61313"/>
<path d="M26.415 2.82233L26.3008 2.70193L28.2262 0.670651L28.455 0.669994L26.415 2.82233Z" fill="#E14137" stroke="#E14137" stroke-width="0.373484" stroke-miterlimit="2.61313"/>
<path d="M26.415 4.85632L26.3008 4.73636L28.7649 2.13723V2.37716L26.415 4.85632Z" fill="#E14137" stroke="#E14137" stroke-width="0.373484" stroke-miterlimit="2.61313"/>
<path d="M26.415 6.89273L26.3008 6.77277L28.7649 4.1732V4.41356L26.415 6.89273Z" fill="#E14137" stroke="#E14137" stroke-width="0.373484" stroke-miterlimit="2.61313"/>
<path d="M26.415 8.92676L26.3008 8.80679L28.7649 6.20723V6.44781L26.415 8.92676Z" fill="#E14137" stroke="#E14137" stroke-width="0.373484" stroke-miterlimit="2.61313"/>
<path d="M26.415 10.9655L26.3008 10.8456L28.7649 8.24577V8.48613L26.415 10.9655Z" fill="#E14137" stroke="#E14137" stroke-width="0.373484" stroke-miterlimit="2.61313"/>
<path d="M27.6934 11.4061L28.6778 10.3678L28.5289 10.7649L27.9208 11.4061H27.6934Z" fill="#E14137" stroke="#E14137" stroke-width="0.373484" stroke-miterlimit="2.61313"/>
<path d="M8.82291 2.81192L10.7914 0.735328L11.0198 0.734891L8.76562 3.1127L8.82291 2.81192Z" fill="#E14137" stroke="#E14137" stroke-width="0.373484" stroke-miterlimit="2.61313"/>
<path d="M8.33658 5.36272L12.7287 0.729255L12.9572 0.728598L8.2793 5.66373L8.33658 5.36272Z" fill="#E14137" stroke="#E14137" stroke-width="0.373484" stroke-miterlimit="2.61313"/>
<path d="M7.85123 7.91144L14.6667 0.721743L14.895 0.720867L7.79395 8.21222L7.85123 7.91144Z" fill="#E14137" stroke="#E14137" stroke-width="0.373484" stroke-miterlimit="2.61313"/>
<path d="M7.36248 10.4627L16.6012 0.716301L16.8296 0.715206L7.30469 10.763L7.36248 10.4627Z" fill="#E14137" stroke="#E14137" stroke-width="0.373484" stroke-miterlimit="2.61313"/>
<path d="M8.39746 11.4061L18.541 0.705759L18.7695 0.704884L8.62541 11.4061H8.39746Z" fill="#E14137" stroke="#E14137" stroke-width="0.373484" stroke-miterlimit="2.61313"/>
<path d="M10.3242 11.4061L20.4746 0.698318L20.7028 0.697224L10.5522 11.4061H10.3242Z" fill="#E14137" stroke="#E14137" stroke-width="0.373484" stroke-miterlimit="2.61313"/>
<path d="M12.2549 11.4061L22.4124 0.690656L22.6408 0.68978L12.4827 11.4061H12.2549Z" fill="#E14137" stroke="#E14137" stroke-width="0.373484" stroke-miterlimit="2.61313"/>
<path d="M14.1816 11.4061L24.3464 0.682993L24.5749 0.681898L14.4091 11.4061H14.1816Z" fill="#E14137" stroke="#E14137" stroke-width="0.373484" stroke-miterlimit="2.61313"/>
<path d="M16.1152 11.4061L26.2868 0.675332L26.5156 0.674457L16.3427 11.4061H16.1152Z" fill="#E14137" stroke="#E14137" stroke-width="0.373484" stroke-miterlimit="2.61313"/>
<path d="M18.043 11.4061L28.2217 0.667889L28.4505 0.667232L18.2704 11.4061H18.043Z" fill="#E14137" stroke="#E14137" stroke-width="0.373484" stroke-miterlimit="2.61313"/>
<path d="M19.9736 11.4061L28.7617 2.13591V2.37583L20.2016 11.4061H19.9736Z" fill="#E14137" stroke="#E14137" stroke-width="0.373484" stroke-miterlimit="2.61313"/>
<path d="M21.9014 11.4061L28.7595 4.17134V4.4117L22.1291 11.4061H21.9014Z" fill="#E14137" stroke="#E14137" stroke-width="0.373484" stroke-miterlimit="2.61313"/>
<path d="M23.832 11.4061L28.7605 6.20721V6.4478L24.06 11.4061H23.832Z" fill="#E14137" stroke="#E14137" stroke-width="0.373484" stroke-miterlimit="2.61313"/>
<path d="M25.7637 11.4061L28.7623 8.24308V8.48301L25.9916 11.4061H25.7637Z" fill="#E14137" stroke="#E14137" stroke-width="0.373484" stroke-miterlimit="2.61313"/>
<path d="M27.6934 11.4061L28.6773 10.3678L28.5289 10.7649L27.9213 11.4061H27.6934Z" fill="#E14137" stroke="#E14137" stroke-width="0.373484" stroke-miterlimit="2.61313"/>
<path d="M6.46289 35.8381L8.92721 33.239L9.04093 33.3589L6.69084 35.8381H6.46289Z" fill="#E14137" stroke="#E14137" stroke-width="0.373484" stroke-miterlimit="2.61313"/>
<path d="M8.39746 35.8381L10.8616 33.239L10.9753 33.3589L8.62541 35.8381H8.39746Z" fill="#E14137" stroke="#E14137" stroke-width="0.373484" stroke-miterlimit="2.61313"/>
<path d="M10.3242 35.8381L12.7884 33.239L12.9021 33.3589L10.5517 35.8381H10.3242Z" fill="#E14137" stroke="#E14137" stroke-width="0.373484" stroke-miterlimit="2.61313"/>
<path d="M12.2549 35.8381L14.7187 33.239L14.8329 33.3589L12.4823 35.8381H12.2549Z" fill="#E14137" stroke="#E14137" stroke-width="0.373484" stroke-miterlimit="2.61313"/>
<path d="M14.1816 35.8381L16.6454 33.239L16.7592 33.3589L14.4091 35.8381H14.1816Z" fill="#E14137" stroke="#E14137" stroke-width="0.373484" stroke-miterlimit="2.61313"/>
<path d="M16.1152 35.8381L18.5796 33.239L18.6933 33.3589L16.3432 35.8381H16.1152Z" fill="#E14137" stroke="#E14137" stroke-width="0.373484" stroke-miterlimit="2.61313"/>
<path d="M18.043 35.8381L20.5071 33.239L20.6208 33.3589L18.2709 35.8381H18.043Z" fill="#E14137" stroke="#E14137" stroke-width="0.373484" stroke-miterlimit="2.61313"/>
<path d="M19.9736 35.8381L22.4378 33.239L22.5515 33.3589L20.2014 35.8381H19.9736Z" fill="#E14137" stroke="#E14137" stroke-width="0.373484" stroke-miterlimit="2.61313"/>
<path d="M21.9014 35.8381L24.3657 33.239L24.4794 33.3589L22.1288 35.8381H21.9014Z" fill="#E14137" stroke="#E14137" stroke-width="0.373484" stroke-miterlimit="2.61313"/>
<path d="M23.8359 35.8381L26.2997 33.239L26.414 33.3589L24.0634 35.8381H23.8359Z" fill="#E14137" stroke="#E14137" stroke-width="0.373484" stroke-miterlimit="2.61313"/>
<path d="M25.7637 35.8381L28.2273 33.239L28.341 33.3589L25.9911 35.8381H25.7637Z" fill="#E14137" stroke="#E14137" stroke-width="0.373484" stroke-miterlimit="2.61313"/>
<path d="M27.6934 35.8381L28.7621 34.7112V34.9511L27.9213 35.8381H27.6934Z" fill="#E14137" stroke="#E14137" stroke-width="0.373484" stroke-miterlimit="2.61313"/>
<path d="M5.60449 34.7122L6.99992 33.24L7.11365 33.36L5.60449 34.9521V34.7122Z" fill="#E14137" stroke="#E14137" stroke-width="0.373484" stroke-miterlimit="2.61313"/>
<path d="M6.46289 35.8381L6.99733 35.2748L7.11106 35.3948L6.69084 35.8381H6.46289Z" fill="#E14137" stroke="#E14137" stroke-width="0.373484" stroke-miterlimit="2.61313"/>
<path d="M26.415 15.0359L26.3008 14.9157L27.4202 13.7354L27.2712 14.1323L26.415 15.0359Z" fill="#E14137" stroke="#E14137" stroke-width="0.373484" stroke-miterlimit="2.61313"/>
<path d="M26.415 27.2495L26.3008 27.1291L26.4597 26.9619L26.6882 26.961L26.415 27.2495Z" fill="#E14137" stroke="#E14137" stroke-width="0.373484" stroke-miterlimit="2.61313"/>
<path d="M26.415 29.2883L26.3008 29.1677L28.3959 26.9576L28.6242 26.9569L26.415 29.2883Z" fill="#E14137" stroke="#E14137" stroke-width="0.373484" stroke-miterlimit="2.61313"/>
<path d="M26.415 31.3224L26.3008 31.2025L28.7649 28.6027V28.8431L26.415 31.3224Z" fill="#E14137" stroke="#E14137" stroke-width="0.373484" stroke-miterlimit="2.61313"/>
<path d="M26.415 33.3563L26.3008 33.2364L28.7649 30.6366V30.8772L26.415 33.3563Z" fill="#E14137" stroke="#E14137" stroke-width="0.373484" stroke-miterlimit="2.61313"/>
<path d="M26.415 35.3927L26.3008 35.2728L28.7649 32.6732V32.9136L26.415 35.3927Z" fill="#E14137" stroke="#E14137" stroke-width="0.373484" stroke-miterlimit="2.61313"/>
<path d="M27.6934 35.8381L28.7621 34.7105V34.9511L27.9208 35.8381H27.6934Z" fill="#E14137" stroke="#E14137" stroke-width="0.373484" stroke-miterlimit="2.61313"/>
<path d="M6.87777 13.0105L8.39746 11.4074H8.62542L6.82031 13.3115L6.87777 13.0105Z" fill="#E14137" stroke="#E14137" stroke-width="0.373484" stroke-miterlimit="2.61313"/>
<path d="M6.38851 15.5611L10.3248 11.4085H10.5522L6.33105 15.8621L6.38851 15.5611Z" fill="#E14137" stroke="#E14137" stroke-width="0.373484" stroke-miterlimit="2.61313"/>
<path d="M5.90155 18.1074L12.2538 11.4061H12.4813L5.84375 18.4084L5.90155 18.1074Z" fill="#E14137" stroke="#E14137" stroke-width="0.373484" stroke-miterlimit="2.61313"/>
<path d="M5.60449 20.4594L14.1848 11.4074H14.4123L5.60449 20.6998V20.4594Z" fill="#E14137" stroke="#E14137" stroke-width="0.373484" stroke-miterlimit="2.61313"/>
<path d="M5.60449 22.4934L16.1142 11.4056H16.3421L5.60449 22.7338V22.4934Z" fill="#E14137" stroke="#E14137" stroke-width="0.373484" stroke-miterlimit="2.61313"/>
<path d="M5.60449 24.5327L18.0441 11.409H18.272L5.60449 24.7727V24.5327Z" fill="#E14137" stroke="#E14137" stroke-width="0.373484" stroke-miterlimit="2.61313"/>
<path d="M5.60449 26.5666L19.9739 11.4068H20.2017L5.60449 26.8065V26.5666Z" fill="#E14137" stroke="#E14137" stroke-width="0.373484" stroke-miterlimit="2.61313"/>
<path d="M5.60449 28.6026L21.9036 11.4076H22.1311L5.60449 28.843V28.6026Z" fill="#E14137" stroke="#E14137" stroke-width="0.373484" stroke-miterlimit="2.61313"/>
<path d="M5.60449 30.6364L23.8335 11.4055H24.0609L5.60449 30.877V30.6364Z" fill="#E14137" stroke="#E14137" stroke-width="0.373484" stroke-miterlimit="2.61313"/>
<path d="M5.60449 32.6754L25.7634 11.4084H25.9908L5.60449 32.9157V32.6754Z" fill="#E14137" stroke="#E14137" stroke-width="0.373484" stroke-miterlimit="2.61313"/>
<path d="M5.60449 34.7116L27.6927 11.4094H27.9207L5.60449 34.9521V34.7116Z" fill="#E14137" stroke="#E14137" stroke-width="0.373484" stroke-miterlimit="2.61313"/>
<path d="M6.46289 35.8381L27.4141 13.736L27.2652 14.1329L6.69033 35.8381H6.46289Z" fill="#E14137" stroke="#E14137" stroke-width="0.373484" stroke-miterlimit="2.61313"/>
<path d="M8.39746 35.8381L26.1592 17.1011L26.0103 17.4982L8.62541 35.8381H8.39746Z" fill="#E14137" stroke="#E14137" stroke-width="0.373484" stroke-miterlimit="2.61313"/>
<path d="M10.3242 35.8381L24.8959 20.4657L24.7472 20.8628L10.5522 35.8381H10.3242Z" fill="#E14137" stroke="#E14137" stroke-width="0.373484" stroke-miterlimit="2.61313"/>
<path d="M12.2549 35.8381L23.6368 23.8311L23.4879 24.2286L12.4827 35.8381H12.2549Z" fill="#E14137" stroke="#E14137" stroke-width="0.373484" stroke-miterlimit="2.61313"/>
<path d="M14.1816 35.8381L22.5814 26.977L22.8099 26.9762L14.4091 35.8381H14.1816Z" fill="#E14137" stroke="#E14137" stroke-width="0.373484" stroke-miterlimit="2.61313"/>
<path d="M16.1152 35.8381L24.5213 26.9707L24.7496 26.9696L16.3427 35.8381H16.1152Z" fill="#E14137" stroke="#E14137" stroke-width="0.373484" stroke-miterlimit="2.61313"/>
<path d="M18.043 35.8381L26.4552 26.9639L26.6836 26.963L18.2704 35.8381H18.043Z" fill="#E14137" stroke="#E14137" stroke-width="0.373484" stroke-miterlimit="2.61313"/>
<path d="M19.9727 35.8381L28.3917 26.9569L28.6199 26.9562L20.2006 35.8381H19.9727Z" fill="#E14137" stroke="#E14137" stroke-width="0.373484" stroke-miterlimit="2.61313"/>
<path d="M21.9014 35.8381L28.7595 28.6033V28.8437L22.1291 35.8381H21.9014Z" fill="#E14137" stroke="#E14137" stroke-width="0.373484" stroke-miterlimit="2.61313"/>
<path d="M23.832 35.8381L28.7605 30.6392V30.8798L24.06 35.8381H23.832Z" fill="#E14137" stroke="#E14137" stroke-width="0.373484" stroke-miterlimit="2.61313"/>
<path d="M25.7637 35.8381L28.7623 32.6753V32.9156L25.9916 35.8381H25.7637Z" fill="#E14137" stroke="#E14137" stroke-width="0.373484" stroke-miterlimit="2.61313"/>
<path d="M27.6934 35.8381L28.7621 34.7112V34.9511L27.9213 35.8381H27.6934Z" fill="#E14137" stroke="#E14137" stroke-width="0.373484" stroke-miterlimit="2.61313"/>
<path d="M6.87777 13.0105L7.00203 12.88L7.11575 13L6.82031 13.3115L6.87777 13.0105Z" fill="#E14137" stroke="#E14137" stroke-width="0.373484" stroke-miterlimit="2.61313"/>
<path d="M6.38851 15.5573L6.99945 14.9128L7.11317 15.033L6.33105 15.8577L6.38851 15.5573Z" fill="#E14137" stroke="#E14137" stroke-width="0.373484" stroke-miterlimit="2.61313"/>
<path d="M5.90155 18.1081L6.99882 16.9498L7.11254 17.0704L5.84375 18.4084L5.90155 18.1081Z" fill="#E14137" stroke="#E14137" stroke-width="0.373484" stroke-miterlimit="2.61313"/>
<path d="M5.60449 20.4594L6.99992 18.9872L7.11365 19.1072L5.60449 20.6998V20.4594Z" fill="#E14137" stroke="#E14137" stroke-width="0.373484" stroke-miterlimit="2.61313"/>
<path d="M5.60449 22.4938L6.99992 21.0217L7.11365 21.1416L5.60449 22.7338V22.4938Z" fill="#E14137" stroke="#E14137" stroke-width="0.373484" stroke-miterlimit="2.61313"/>
<path d="M5.60449 24.5327L6.99992 23.0606L7.11365 23.1808L5.60449 24.7727V24.5327Z" fill="#E14137" stroke="#E14137" stroke-width="0.373484" stroke-miterlimit="2.61313"/>
<path d="M5.60449 26.5666L6.99992 25.0942L7.11365 25.2142L5.60449 26.8065V26.5666Z" fill="#E14137" stroke="#E14137" stroke-width="0.373484" stroke-miterlimit="2.61313"/>
<path d="M5.60449 28.6026L6.99992 27.1304L7.11365 27.2508L5.60449 28.843V28.6026Z" fill="#E14137" stroke="#E14137" stroke-width="0.373484" stroke-miterlimit="2.61313"/>
<path d="M5.60449 30.6364L6.99992 29.1642L7.11365 29.2848L5.60449 30.877V30.6364Z" fill="#E14137" stroke="#E14137" stroke-width="0.373484" stroke-miterlimit="2.61313"/>
<path d="M5.60449 32.6754L6.99992 31.2032L7.11365 31.3232L5.60449 32.9157V32.6754Z" fill="#E14137" stroke="#E14137" stroke-width="0.373484" stroke-miterlimit="2.61313"/>
<path d="M5.60449 34.7122L6.99992 33.24L7.11365 33.36L5.60449 34.9521V34.7122Z" fill="#E14137" stroke="#E14137" stroke-width="0.373484" stroke-miterlimit="2.61313"/>
<path d="M26.415 12.9995L26.3008 12.8796L27.6962 11.4076H27.9237L26.415 12.9995Z" fill="#E14137" stroke="#E14137" stroke-width="0.373484" stroke-miterlimit="2.61313"/>
<path d="M7.11275 12.9995L6.99902 12.8796L8.39394 11.4076H8.6219L7.11275 12.9995Z" fill="#E14137" stroke="#E14137" stroke-width="0.373484" stroke-miterlimit="2.61313"/>
<path d="M9.04536 12.9995L8.93164 12.8796L10.3266 11.4076H10.5545L9.04536 12.9995Z" fill="#E14137" stroke="#E14137" stroke-width="0.373484" stroke-miterlimit="2.61313"/>
<path d="M10.975 12.9995L10.8613 12.8796L12.2564 11.4076H12.4842L10.975 12.9995Z" fill="#E14137" stroke="#E14137" stroke-width="0.373484" stroke-miterlimit="2.61313"/>
<path d="M12.9028 12.9995L12.7891 12.8796L14.184 11.4076H14.4114L12.9028 12.9995Z" fill="#E14137" stroke="#E14137" stroke-width="0.373484" stroke-miterlimit="2.61313"/>
<path d="M14.834 12.9995L14.7197 12.8796L16.1152 11.4076H16.3426L14.834 12.9995Z" fill="#E14137" stroke="#E14137" stroke-width="0.373484" stroke-miterlimit="2.61313"/>
<path d="M16.7641 12.9995L16.6504 12.8796L18.0458 11.4076H18.2733L16.7641 12.9995Z" fill="#E14137" stroke="#E14137" stroke-width="0.373484" stroke-miterlimit="2.61313"/>
<path d="M18.6948 12.9995L18.5811 12.8796L19.976 11.4076H20.2039L18.6948 12.9995Z" fill="#E14137" stroke="#E14137" stroke-width="0.373484" stroke-miterlimit="2.61313"/>
<path d="M20.6225 12.9995L20.5088 12.8796L21.9039 11.4076H22.1317L20.6225 12.9995Z" fill="#E14137" stroke="#E14137" stroke-width="0.373484" stroke-miterlimit="2.61313"/>
<path d="M22.5532 12.9995L22.4395 12.8796L23.8344 11.4076H24.0623L22.5532 12.9995Z" fill="#E14137" stroke="#E14137" stroke-width="0.373484" stroke-miterlimit="2.61313"/>
<path d="M24.4829 12.9995L24.3691 12.8796L25.7641 11.4076H25.992L24.4829 12.9995Z" fill="#E14137" stroke="#E14137" stroke-width="0.373484" stroke-miterlimit="2.61313"/>
<path d="M26.415 12.9995L26.3008 12.8796L27.6962 11.4076H27.9242L26.415 12.9995Z" fill="#E14137" stroke="#E14137" stroke-width="0.373484" stroke-miterlimit="2.61313"/>
<path d="M8.49029 58.1327L8.93124 57.668L9.04497 57.7879L8.42383 58.4434L8.49029 58.1327Z" fill="#E14137" stroke="#E14137" stroke-width="0.373484" stroke-miterlimit="2.61313"/>
<path d="M8.39746 60.2677L10.8616 57.6684L10.9753 57.7883L8.62541 60.2677H8.39746Z" fill="#E14137" stroke="#E14137" stroke-width="0.373484" stroke-miterlimit="2.61313"/>
<path d="M10.3242 60.2677L12.7884 57.6684L12.9021 57.7883L10.5517 60.2677H10.3242Z" fill="#E14137" stroke="#E14137" stroke-width="0.373484" stroke-miterlimit="2.61313"/>
<path d="M12.2549 60.2677L14.7187 57.6684L14.8329 57.7883L12.4823 60.2677H12.2549Z" fill="#E14137" stroke="#E14137" stroke-width="0.373484" stroke-miterlimit="2.61313"/>
<path d="M14.1816 60.2677L16.6454 57.6684L16.7592 57.7883L14.4091 60.2677H14.1816Z" fill="#E14137" stroke="#E14137" stroke-width="0.373484" stroke-miterlimit="2.61313"/>
<path d="M26.415 39.4655L26.3008 39.3451L28.7649 36.746V36.9859L26.415 39.4655Z" fill="#E14137" stroke="#E14137" stroke-width="0.373484" stroke-miterlimit="2.61313"/>
<path d="M26.415 41.5019L26.3008 41.3813L28.6073 38.9483L28.2388 39.5773L26.415 41.5019Z" fill="#E14137" stroke="#E14137" stroke-width="0.373484" stroke-miterlimit="2.61313"/>
<path d="M5.60449 36.746L6.46548 35.8371H6.69344L5.60449 36.9859V36.746Z" fill="#E14137" stroke="#E14137" stroke-width="0.373484" stroke-miterlimit="2.61313"/>
<path d="M5.60449 38.7802L8.39536 35.8355H8.62331L5.60449 39.0202V38.7802Z" fill="#E14137" stroke="#E14137" stroke-width="0.373484" stroke-miterlimit="2.61313"/>
<path d="M5.60449 40.8162L10.3252 35.836H10.5527L5.60449 41.0565V40.8162Z" fill="#E14137" stroke="#E14137" stroke-width="0.373484" stroke-miterlimit="2.61313"/>
<path d="M5.60449 42.8548L12.2549 35.8387H12.4824L5.60449 43.0953V42.8548Z" fill="#E14137" stroke="#E14137" stroke-width="0.373484" stroke-miterlimit="2.61313"/>
<path d="M5.60449 44.8892L14.1848 35.837H14.4123L5.60449 45.1294V44.8892Z" fill="#E14137" stroke="#E14137" stroke-width="0.373484" stroke-miterlimit="2.61313"/>
<path d="M6.74414 45.7224L16.1139 35.8371H16.3418L6.97261 45.7213L6.74414 45.7224Z" fill="#E14137" stroke="#E14137" stroke-width="0.373484" stroke-miterlimit="2.61313"/>
<path d="M8.67773 45.7153L18.0417 35.8367H18.2697L8.90671 45.7148L8.67773 45.7153Z" fill="#E14137" stroke="#E14137" stroke-width="0.373484" stroke-miterlimit="2.61313"/>
<path d="M10.6182 45.7081L19.9758 35.8361H20.2036L10.847 45.7074L10.6182 45.7081Z" fill="#E14137" stroke="#E14137" stroke-width="0.373484" stroke-miterlimit="2.61313"/>
<path d="M10.7486 47.6081L21.9039 35.839H22.1314L10.6816 47.9183L10.7486 47.6081Z" fill="#E14137"/>
<path d="M10.1851 50.2375L23.8352 35.8371H24.0626L10.1182 50.5479L10.1851 50.2375Z" fill="#E14137" stroke="#E14137" stroke-width="0.373484" stroke-miterlimit="2.61313"/>
<path d="M9.61776 52.869L25.7624 35.8371H25.9898L9.55078 53.1797L9.61776 52.869Z" fill="#E14137" stroke="#E14137" stroke-width="0.373484" stroke-miterlimit="2.61313"/>
<path d="M9.05428 55.5009L27.693 35.8372H27.9209L8.9873 55.8115L9.05428 55.5009Z" fill="#E14137" stroke="#E14137" stroke-width="0.373484" stroke-miterlimit="2.61313"/>
<path d="M8.4908 58.1327L28.7629 36.7462V36.9861L8.42383 58.4434L8.4908 58.1327Z" fill="#E14137" stroke="#E14137" stroke-width="0.373484" stroke-miterlimit="2.61313"/>
<path d="M8.39746 60.2677L28.6065 38.9486L28.238 39.5776L8.62541 60.2677H8.39746Z" fill="#E14137" stroke="#E14137" stroke-width="0.373484" stroke-miterlimit="2.61313"/>
<path d="M10.3242 60.2677L25.479 44.2802L25.1105 44.9089L10.5522 60.2677H10.3242Z" fill="#E14137" stroke="#E14137" stroke-width="0.373484" stroke-miterlimit="2.61313"/>
<path d="M12.2549 60.2677L22.3556 49.6118L21.9869 50.2409L12.4827 60.2677H12.2549Z" fill="#E14137" stroke="#E14137" stroke-width="0.373484" stroke-miterlimit="2.61313"/>
<path d="M14.1816 60.2677L19.2286 54.9436L18.8601 55.5725L14.4091 60.2677H14.1816Z" fill="#E14137" stroke="#E14137" stroke-width="0.373484" stroke-miterlimit="2.61313"/>
<path d="M5.60449 36.746L6.46548 35.8371H6.69344L5.60449 36.9859V36.746Z" fill="#E14137" stroke="#E14137" stroke-width="0.373484" stroke-miterlimit="2.61313"/>
<path d="M5.60449 38.7802L6.99992 37.3081L7.11365 37.428L5.60449 39.0202V38.7802Z" fill="#E14137" stroke="#E14137" stroke-width="0.373484" stroke-miterlimit="2.61313"/>
<path d="M5.60449 40.8162L6.99992 39.344L7.11365 39.4644L5.60449 41.0565V40.8162Z" fill="#E14137" stroke="#E14137" stroke-width="0.373484" stroke-miterlimit="2.61313"/>
<path d="M5.60449 42.8548L6.99992 41.3826L7.11365 41.5032L5.60449 43.0953V42.8548Z" fill="#E14137" stroke="#E14137" stroke-width="0.373484" stroke-miterlimit="2.61313"/>
<path d="M5.60449 44.8892L6.99992 43.417L7.11365 43.537L5.60449 45.1294V44.8892Z" fill="#E14137" stroke="#E14137" stroke-width="0.373484" stroke-miterlimit="2.61313"/>
<path d="M6.74414 45.7224L6.99963 45.4527L7.11336 45.5727L6.97261 45.7213L6.74414 45.7224Z" fill="#E14137" stroke="#E14137" stroke-width="0.373484" stroke-miterlimit="2.61313"/>
<path d="M26.415 37.4315L26.3008 37.3116L27.6962 35.8394H27.9237L26.415 37.4315Z" fill="#E14137" stroke="#E14137" stroke-width="0.373484" stroke-miterlimit="2.61313"/>
<path d="M28.3403 37.4315L28.2266 37.3116L28.761 36.7479V36.9882L28.3403 37.4315Z" fill="#E14137" stroke="#E14137" stroke-width="0.373484" stroke-miterlimit="2.61313"/>
<path d="M5.60449 36.7455L6.46548 35.8371H6.69292L5.60449 36.9859V36.7455Z" fill="#E14137" stroke="#E14137" stroke-width="0.373484" stroke-miterlimit="2.61313"/>
<path d="M7.11275 37.4315L6.99902 37.3116L8.39394 35.8394H8.6219L7.11275 37.4315Z" fill="#E14137" stroke="#E14137" stroke-width="0.373484" stroke-miterlimit="2.61313"/>
<path d="M9.04536 37.4315L8.93164 37.3116L10.3266 35.8394H10.5545L9.04536 37.4315Z" fill="#E14137" stroke="#E14137" stroke-width="0.373484" stroke-miterlimit="2.61313"/>
<path d="M10.975 37.4315L10.8613 37.3116L12.2564 35.8394H12.4842L10.975 37.4315Z" fill="#E14137" stroke="#E14137" stroke-width="0.373484" stroke-miterlimit="2.61313"/>
<path d="M12.9028 37.4315L12.7891 37.3116L14.184 35.8394H14.4114L12.9028 37.4315Z" fill="#E14137" stroke="#E14137" stroke-width="0.373484" stroke-miterlimit="2.61313"/>
<path d="M14.834 37.4315L14.7197 37.3116L16.1152 35.8394H16.3426L14.834 37.4315Z" fill="#E14137" stroke="#E14137" stroke-width="0.373484" stroke-miterlimit="2.61313"/>
<path d="M16.7641 37.4315L16.6504 37.3116L18.0458 35.8394H18.2733L16.7641 37.4315Z" fill="#E14137" stroke="#E14137" stroke-width="0.373484" stroke-miterlimit="2.61313"/>
<path d="M18.6948 37.4315L18.5811 37.3116L19.976 35.8394H20.2039L18.6948 37.4315Z" fill="#E14137" stroke="#E14137" stroke-width="0.373484" stroke-miterlimit="2.61313"/>
<path d="M20.6225 37.4315L20.5088 37.3116L21.9039 35.8394H22.1317L20.6225 37.4315Z" fill="#E14137" stroke="#E14137" stroke-width="0.373484" stroke-miterlimit="2.61313"/>
<path d="M22.5532 37.4315L22.4395 37.3116L23.8344 35.8394H24.0623L22.5532 37.4315Z" fill="#E14137" stroke="#E14137" stroke-width="0.373484" stroke-miterlimit="2.61313"/>
<path d="M24.4829 37.4315L24.3691 37.3116L25.7641 35.8394H25.992L24.4829 37.4315Z" fill="#E14137" stroke="#E14137" stroke-width="0.373484" stroke-miterlimit="2.61313"/>
<path d="M26.415 37.4315L26.3008 37.3116L27.6962 35.8394H27.9242L26.415 37.4315Z" fill="#E14137" stroke="#E14137" stroke-width="0.373484" stroke-miterlimit="2.61313"/>
<path d="M7.92584 60.7624L8.39705 60.2653H8.625L7.85938 61.0728L7.92584 60.7624Z" fill="#E14137" stroke="#E14137" stroke-width="0.373484" stroke-miterlimit="2.61313"/>
<path d="M7.36139 63.3963L10.3273 60.2677H10.5548L7.29492 63.707L7.36139 63.3963Z" fill="#E14137" stroke="#E14137" stroke-width="0.373484" stroke-miterlimit="2.61313"/>
<path d="M6.79498 66.0282L12.2553 60.2677H12.4828L6.72852 66.3388L6.79498 66.0282Z" fill="#E14137" stroke="#E14137" stroke-width="0.373484" stroke-miterlimit="2.61313"/>
<path d="M6.22857 68.6575L14.1835 60.2653H14.411L6.16211 68.9681L6.22857 68.6575Z" fill="#E14137" stroke="#E14137" stroke-width="0.373484" stroke-miterlimit="2.61313"/>
<path d="M5.66518 71.2909L16.107 60.275L15.7383 60.9042L5.60449 71.5954V71.5735L5.66518 71.2909Z" fill="#E14137" stroke="#E14137" stroke-width="0.373484" stroke-miterlimit="2.61313"/>
<path d="M5.60449 73.3892L12.9827 65.6056L12.614 66.2343L5.60449 73.6294V73.3892Z" fill="#E14137" stroke="#E14137" stroke-width="0.373484" stroke-miterlimit="2.61313"/>
<path d="M5.60449 75.4258L9.85827 70.9377L9.48957 71.5671L5.60449 75.6658V75.4258Z" fill="#E14137" stroke="#E14137" stroke-width="0.373484" stroke-miterlimit="2.61313"/>
<path d="M5.60449 77.4642L6.7344 76.2727L6.36536 76.902L5.60449 77.7046V77.4642Z" fill="#E14137" stroke="#E14137" stroke-width="0.373484" stroke-miterlimit="2.61313"/>
<path d="M6.79498 66.0282L7.00033 65.8117L7.11405 65.9321L6.72852 66.3388L6.79498 66.0282Z" fill="#E14137" stroke="#E14137" stroke-width="0.373484" stroke-miterlimit="2.61313"/>
<path d="M6.22857 68.6575L6.99862 67.8451L7.11234 67.9651L6.16211 68.9681L6.22857 68.6575Z" fill="#E14137" stroke="#E14137" stroke-width="0.373484" stroke-miterlimit="2.61313"/>
<path d="M5.66518 71.2915L6.99992 69.8833L7.11365 70.0032L5.60449 71.5954V71.5741L5.66518 71.2915Z" fill="#E14137" stroke="#E14137" stroke-width="0.373484" stroke-miterlimit="2.61313"/>
<path d="M5.60449 73.3892L6.99992 71.917L7.11365 72.037L5.60449 73.6294V73.3892Z" fill="#E14137" stroke="#E14137" stroke-width="0.373484" stroke-miterlimit="2.61313"/>
<path d="M5.60449 75.4258L6.99992 73.9537L7.11365 74.0736L5.60449 75.6658V75.4258Z" fill="#E14137" stroke="#E14137" stroke-width="0.373484" stroke-miterlimit="2.61313"/>
<path d="M5.60449 77.4642L6.7344 76.2727L6.3657 76.9014L5.60449 77.7046V77.4642Z" fill="#E14137" stroke="#E14137" stroke-width="0.373484" stroke-miterlimit="2.61313"/>
<path d="M7.92584 60.7629L8.39654 60.2657H8.62449L7.85938 61.0728L7.92584 60.7629Z" fill="#E14137" stroke="#E14137" stroke-width="0.373484" stroke-miterlimit="2.61313"/>
<path d="M9.04536 61.8587L8.93164 61.7388L10.3266 60.2666H10.5545L9.04536 61.8587Z" fill="#E14137" stroke="#E14137" stroke-width="0.373484" stroke-miterlimit="2.61313"/>
<path d="M10.975 61.8587L10.8613 61.7388L12.2564 60.2666H12.4842L10.975 61.8587Z" fill="#E14137" stroke="#E14137" stroke-width="0.373484" stroke-miterlimit="2.61313"/>
<path d="M12.9028 61.8587L12.7891 61.7388L14.184 60.2666H14.4114L12.9028 61.8587Z" fill="#E14137" stroke="#E14137" stroke-width="0.373484" stroke-miterlimit="2.61313"/>
<path d="M14.834 61.8587L14.7197 61.7388L16.1084 60.2736L15.7398 60.903L14.834 61.8587Z" fill="#E14137" stroke="#E14137" stroke-width="0.373484" stroke-miterlimit="2.61313"/>
<path d="M2.98307 33.4034L3.14065 33.237L3.25488 33.357L2.92578 33.7042L2.98307 33.4034Z" fill="#E14137" stroke="#E14137" stroke-width="0.373484" stroke-miterlimit="2.61313"/>
<path d="M2.60547 35.8381L5.06911 33.239L5.18283 33.3589L2.83291 35.8381H2.60547Z" fill="#E14137" stroke="#E14137" stroke-width="0.373484" stroke-miterlimit="2.61313"/>
<path d="M4.53516 35.8381L5.60404 34.7112V34.9511L4.76311 35.8381H4.53516Z" fill="#E14137" stroke="#E14137" stroke-width="0.373484" stroke-miterlimit="2.61313"/>
<path d="M5.41446 20.6583L5.6005 20.4595V20.6999L5.35742 20.9593L5.41446 20.6583Z" fill="#E14137" stroke="#E14137" stroke-width="0.373484" stroke-miterlimit="2.61313"/>
<path d="M4.92694 23.2068L5.60213 22.4947V22.7351L4.86914 23.5078L4.92694 23.2068Z" fill="#E14137" stroke="#E14137" stroke-width="0.373484" stroke-miterlimit="2.61313"/>
<path d="M4.44205 25.7578L5.60392 24.5322V24.7721L4.38477 26.0586L4.44205 25.7578Z" fill="#E14137" stroke="#E14137" stroke-width="0.373484" stroke-miterlimit="2.61313"/>
<path d="M3.95767 28.3066L5.60622 26.5678V26.8077L3.90039 28.6071L3.95767 28.3066Z" fill="#E14137" stroke="#E14137" stroke-width="0.373484" stroke-miterlimit="2.61313"/>
<path d="M3.47135 30.8525L5.60657 28.5999V28.8402L3.41406 31.1533L3.47135 30.8525Z" fill="#E14137" stroke="#E14137" stroke-width="0.373484" stroke-miterlimit="2.61313"/>
<path d="M3.25584 33.3563L3.1416 33.2364L5.60592 30.6366V30.8772L3.25584 33.3563Z" fill="#E14137" stroke="#E14137" stroke-width="0.373484" stroke-miterlimit="2.61313"/>
<path d="M3.25584 35.3927L3.1416 35.2728L5.60592 32.6732V32.9136L3.25584 35.3927Z" fill="#E14137" stroke="#E14137" stroke-width="0.373484" stroke-miterlimit="2.61313"/>
<path d="M4.53516 35.8381L5.60404 34.7105V34.9511L4.7626 35.8381H4.53516Z" fill="#E14137" stroke="#E14137" stroke-width="0.373484" stroke-miterlimit="2.61313"/>
<path d="M5.41446 20.6588L5.6005 20.4595V20.6999L5.35742 20.9593L5.41446 20.6588Z" fill="#E14137" stroke="#E14137" stroke-width="0.373484" stroke-miterlimit="2.61313"/>
<path d="M4.92643 23.2068L5.60162 22.4947V22.7346L4.86914 23.5078L4.92643 23.2068Z" fill="#E14137" stroke="#E14137" stroke-width="0.373484" stroke-miterlimit="2.61313"/>
<path d="M4.44205 25.7578L5.60392 24.5322V24.7721L4.38477 26.0586L4.44205 25.7578Z" fill="#E14137" stroke="#E14137" stroke-width="0.373484" stroke-miterlimit="2.61313"/>
<path d="M3.95767 28.3066L5.60622 26.5678V26.8077L3.90039 28.6071L3.95767 28.3066Z" fill="#E14137" stroke="#E14137" stroke-width="0.373484" stroke-miterlimit="2.61313"/>
<path d="M3.47135 30.8525L5.60657 28.5999V28.8402L3.41406 31.1533L3.47135 30.8525Z" fill="#E14137" stroke="#E14137" stroke-width="0.373484" stroke-miterlimit="2.61313"/>
<path d="M2.98307 33.4038L5.60497 30.6377V30.8782L2.92578 33.7042L2.98307 33.4038Z" fill="#E14137" stroke="#E14137" stroke-width="0.373484" stroke-miterlimit="2.61313"/>
<path d="M2.60449 35.8381L5.60308 32.6753V32.9156L2.83245 35.8381H2.60449Z" fill="#E14137" stroke="#E14137" stroke-width="0.373484" stroke-miterlimit="2.61313"/>
<path d="M4.53516 35.8381L5.60404 34.7112V34.9511L4.7626 35.8381H4.53516Z" fill="#E14137" stroke="#E14137" stroke-width="0.373484" stroke-miterlimit="2.61313"/>
<path d="M3.25584 39.4655L3.1416 39.3451L5.60592 36.746V36.9859L3.25584 39.4655Z" fill="#E14137" stroke="#E14137" stroke-width="0.373484" stroke-miterlimit="2.61313"/>
<path d="M3.25584 41.5019L3.1416 41.3813L5.60592 38.7822V39.0221L3.25584 41.5019Z" fill="#E14137" stroke="#E14137" stroke-width="0.373484" stroke-miterlimit="2.61313"/>
<path d="M3.25584 43.5359L3.1416 43.416L5.60592 40.8162V41.0566L3.25584 43.5359Z" fill="#E14137" stroke="#E14137" stroke-width="0.373484" stroke-miterlimit="2.61313"/>
<path d="M3.25584 45.5699L3.1416 45.45L5.60592 42.8504V43.091L3.25584 45.5699Z" fill="#E14137" stroke="#E14137" stroke-width="0.373484" stroke-miterlimit="2.61313"/>
<path d="M4.80762 45.7296L5.60367 44.8898V45.13L5.03608 45.7289L4.80762 45.7296Z" fill="#E14137" stroke="#E14137" stroke-width="0.373484" stroke-miterlimit="2.61313"/>
<path d="M2.49869 35.9539L2.60918 35.8377H2.83663L2.44141 36.2549L2.49869 35.9539Z" fill="#E14137" stroke="#E14137" stroke-width="0.373484" stroke-miterlimit="2.61313"/>
<path d="M2.01041 38.5027L4.53677 35.8374H4.76473L1.95312 38.8035L2.01041 38.5027Z" fill="#E14137" stroke="#E14137" stroke-width="0.373484" stroke-miterlimit="2.61313"/>
<path d="M1.52018 41.0532L5.6021 36.7477V36.9876L1.46289 41.3542L1.52018 41.0532Z" fill="#E14137" stroke="#E14137" stroke-width="0.373484" stroke-miterlimit="2.61313"/>
<path d="M1.03678 43.6017L5.60538 38.7826V39.0226L0.979492 43.9027L1.03678 43.6017Z" fill="#E14137" stroke="#E14137" stroke-width="0.373484" stroke-miterlimit="2.61313"/>
<path d="M0.936523 45.7414L5.60474 40.8166V41.0569L1.16482 45.7407L0.936523 45.7414Z" fill="#E14137" stroke="#E14137" stroke-width="0.373484" stroke-miterlimit="2.61313"/>
<path d="M2.87305 45.7343L5.60527 42.8521V43.0927L3.10151 45.734L2.87305 45.7343Z" fill="#E14137" stroke="#E14137" stroke-width="0.373484" stroke-miterlimit="2.61313"/>
<path d="M4.80762 45.7296L5.60367 44.8898V45.13L5.03608 45.7289L4.80762 45.7296Z" fill="#E14137" stroke="#E14137" stroke-width="0.373484" stroke-miterlimit="2.61313"/>
<path d="M3.25584 37.4315L3.1416 37.3116L4.53703 35.8394H4.76448L3.25584 37.4315Z" fill="#E14137" stroke="#E14137" stroke-width="0.373484" stroke-miterlimit="2.61313"/>
<path d="M5.18403 37.4315L5.07031 37.3116L5.60475 36.7479V36.9882L5.18403 37.4315Z" fill="#E14137" stroke="#E14137" stroke-width="0.373484" stroke-miterlimit="2.61313"/>
<path d="M2.49869 35.9539L2.60867 35.8381H2.83663L2.44141 36.2549L2.49869 35.9539Z" fill="#E14137" stroke="#E14137" stroke-width="0.373484" stroke-miterlimit="2.61313"/>
<path d="M3.25584 37.4315L3.1416 37.3116L4.53703 35.8394H4.76448L3.25584 37.4315Z" fill="#E14137" stroke="#E14137" stroke-width="0.373484" stroke-miterlimit="2.61313"/>
<path d="M5.60449 73.3892L6.88382 72.0396C6.9542 72.0452 7.02491 72.0503 7.09478 72.0569L5.60449 73.6294V73.3892Z" fill="#E14137" stroke="#E14137" stroke-width="0.373484" stroke-miterlimit="2.61313"/>
<path d="M5.60449 75.4258L8.58948 72.2762C8.65357 72.2889 8.71731 72.3018 8.78089 72.3149L5.60449 75.6658V75.4258Z" fill="#E14137" stroke="#E14137" stroke-width="0.373484" stroke-miterlimit="2.61313"/>
<path d="M5.60449 77.4642L10.1425 72.6768C10.2013 72.6951 10.2596 72.7134 10.3179 72.7322L5.60449 77.7046V77.4642Z" fill="#E14137" stroke="#E14137" stroke-width="0.373484" stroke-miterlimit="2.61313"/>
<path d="M5.60449 73.3892L6.88382 72.0396C6.9542 72.0452 7.02491 72.0503 7.09478 72.0569L5.60449 73.6294V73.3892Z" fill="#E14137" stroke="#E14137" stroke-width="0.373484" stroke-miterlimit="2.61313"/>
<path d="M5.60449 75.4258L6.99992 73.9537L7.11365 74.0736L5.60449 75.6658V75.4258Z" fill="#E14137" stroke="#E14137" stroke-width="0.373484" stroke-miterlimit="2.61313"/>
<path d="M5.60449 77.4642L6.99992 75.992L7.11365 76.1126L5.60449 77.7046V77.4642Z" fill="#E14137" stroke="#E14137" stroke-width="0.373484" stroke-miterlimit="2.61313"/>
<path d="M5.60449 79.498L6.99992 78.0258L7.11365 78.1464L5.60449 79.7386V79.498Z" fill="#E14137" stroke="#E14137" stroke-width="0.373484" stroke-miterlimit="2.61313"/>
<path d="M36.937 28.6527L23.7504 28.6974L33.607 2.37515L10.5098 2.46561L1.91992 47.4639L12.4483 47.4283L4.65348 83.747L36.937 28.6527Z" fill="#E14137" stroke="#E14137" stroke-width="0.373435" stroke-miterlimit="10"/>
</svg>
