<svg width="26" height="20" viewBox="0 0 26 20" fill="none" xmlns="http://www.w3.org/2000/svg">
<path d="M22.7499 0.2505H3.25014C1.45536 0.2505 0 1.70552 0 3.5003V16.5005C0 18.2949 1.45536 19.7495 3.25014 19.7495H22.7499C24.5442 19.7495 26 18.2949 26 16.5005V3.5003C26 1.70552 24.5442 0.2505 22.7499 0.2505ZM17.3997 8.9228L24.2789 3.02729C24.3271 3.17992 24.374 3.33206 24.374 3.5003V16.5005C24.374 16.6121 24.3314 16.7125 24.309 16.8184L17.3997 8.9228ZM22.7499 1.87608C22.857 1.87608 22.9522 1.91745 23.0541 1.93699L12.9997 10.5547L2.94501 1.93699C3.04733 1.91745 3.1422 1.87608 3.25014 1.87608H22.7499ZM1.68924 16.8169C1.66689 16.7116 1.62455 16.6121 1.62455 16.5005V3.5003C1.62455 3.33206 1.67362 3.17992 1.7214 3.02729L8.59775 8.92177L1.68924 16.8169ZM3.25014 18.1247C3.08598 18.1247 2.93613 18.0774 2.78588 18.0316L9.83165 9.97947L12.4707 12.2404C12.6233 12.373 12.8121 12.4375 12.9997 12.4375C13.1873 12.4375 13.3762 12.373 13.5276 12.2404L16.1666 9.97947L23.2127 18.0316C23.0637 18.0774 22.9136 18.1247 22.7499 18.1247H3.25014Z" fill="#4D4D4D"/>
</svg>
