<svg width="43" height="43" viewBox="0 0 43 43" fill="none" xmlns="http://www.w3.org/2000/svg">
<path fill-rule="evenodd" clip-rule="evenodd" d="M12.6459 39.3013L4.01054 30.5852C-0.85861 25.6706 -0.85861 17.6877 4.01054 12.773L12.6459 4.05696C17.515 -0.857692 25.424 -0.857692 30.2932 4.05696L38.9285 12.773C43.7977 17.6877 43.7977 25.6706 38.9285 30.5852L30.2932 39.3013C25.424 44.2159 17.515 44.2159 12.6459 39.3013Z" fill="url(#paint0_linear_231_25441)"/>
<path d="M23.5136 33.6264V23.1726H26.9704L27.6295 18.8417H23.5136V16.0314C23.5136 14.8503 24.092 13.6963 25.9347 13.6963H27.8044V10.0171C27.8044 10.0171 26.1096 9.71838 24.4821 9.71838C21.0925 9.71838 18.8866 11.7956 18.8866 15.5427V18.8417H15.1204V23.1726H18.8866V33.6264H23.5136Z" fill="#FEFEFE"/>
<defs>
<linearGradient id="paint0_linear_231_25441" x1="21.4695" y1="1.53175" x2="21.4695" y2="41.8265" gradientUnits="userSpaceOnUse">
<stop stop-color="#4176BA"/>
<stop offset="1" stop-color="#38489A"/>
</linearGradient>
</defs>
</svg>
