<svg width="820" height="630" viewBox="0 0 820 630" fill="none" xmlns="http://www.w3.org/2000/svg">
<path d="M817.704 0H2.91302C1.64542 0 0.617745 1.02509 0.617745 2.289V48.9899C0.617745 49.106 0.608895 49.2217 0.591482 49.3362L0.026263 53.0106C0.00884966 53.1252 0 53.2412 0 53.3569V541.84V543.397V599.209C0 607.512 9.37079 614.243 20.9297 614.243C32.4885 614.243 41.8593 607.512 41.8593 599.209V575.987C41.8593 575.729 41.8949 575.471 41.9779 575.227C44.2027 568.642 52.4556 563.75 62.308 563.75C72.1595 563.75 80.4131 568.642 82.6385 575.227C82.7205 575.471 82.7562 575.729 82.7562 575.987V614.967C82.7562 623.27 92.1266 630 103.686 630C115.245 630 124.615 623.27 124.615 614.967V591.35C124.615 591.093 124.651 590.834 124.734 590.59C126.959 584.005 135.212 579.113 145.064 579.113C154.916 579.113 163.169 584.005 165.394 590.59C165.477 590.835 165.512 591.093 165.512 591.35V599.209C165.512 607.512 174.883 614.243 186.442 614.243C198.001 614.243 207.372 607.512 207.372 599.209V575.986C207.372 575.728 207.407 575.471 207.49 575.227C209.716 568.642 217.969 563.75 227.82 563.75C237.671 563.75 245.925 568.642 248.151 575.227C248.233 575.471 248.269 575.728 248.269 575.986V609.846C248.269 618.149 257.639 624.879 269.198 624.879C280.757 624.879 290.128 618.149 290.128 609.846V588.999C290.128 588.772 290.155 588.544 290.218 588.325C292.189 581.494 300.6 576.356 310.696 576.356C320.548 576.356 328.8 581.248 331.026 587.833C331.109 588.077 331.144 588.335 331.144 588.593V599.209C331.144 607.512 340.515 614.243 352.073 614.243C363.632 614.243 373.003 607.512 373.003 599.209L373.027 565.005C373.03 561.38 375.978 558.443 379.614 558.443H817.704C818.972 558.443 820 557.418 820 556.154V2.289C820 1.02509 818.972 0 817.704 0Z" fill="#1B9DA1"/>
</svg>
