<svg width="43" height="43" viewBox="0 0 43 43" fill="none" xmlns="http://www.w3.org/2000/svg">
<path fill-rule="evenodd" clip-rule="evenodd" d="M12.9336 39.3012L4.2983 30.5851C-0.570848 25.6705 -0.570848 17.6875 4.2983 12.7729L12.9336 4.05684C17.8028 -0.857814 25.7118 -0.857814 30.5809 4.05684L39.2163 12.7729C44.0854 17.6875 44.0854 25.6705 39.2163 30.5851L30.5809 39.3012C25.7118 44.2158 17.8028 44.2158 12.9336 39.3012Z" fill="url(#paint0_linear_231_25436)"/>
<path d="M27.2992 14.8909C26.6266 14.8909 26.0751 15.4475 26.0751 16.1263C26.0751 16.8051 26.6266 17.3618 27.2992 17.3618C27.9717 17.3618 28.5232 16.8051 28.5232 16.1263C28.5232 15.4475 27.9717 14.8909 27.2992 14.8909Z" fill="#FEFEFE"/>
<path d="M21.8518 25.0052C20.0359 25.0052 18.5563 23.5118 18.5563 21.679C18.5563 19.8462 20.0359 18.3528 21.8518 18.3528C23.6676 18.3528 25.1472 19.8462 25.1472 21.679C25.1472 23.5118 23.6676 25.0052 21.8518 25.0052ZM21.8518 16.4792C19.0137 16.4792 16.7001 18.8144 16.7001 21.679C16.7001 24.5436 19.0137 26.8788 21.8518 26.8788C24.6899 26.8788 27.0034 24.5436 27.0034 21.679C27.0034 18.8144 24.6899 16.4792 21.8518 16.4792Z" fill="#FEFEFE"/>
<path d="M17.5871 13.1124C15.2063 13.1124 13.2694 15.0674 13.2694 17.4704V25.8878C13.2694 28.2908 15.2063 30.2458 17.5871 30.2458H25.9265C28.3073 30.2458 30.2442 28.2908 30.2442 25.8878V17.4704C30.2442 15.0674 28.3073 13.1124 25.9265 13.1124H17.5871ZM25.9265 32.228H17.5871C14.1303 32.228 11.3056 29.3905 11.3056 25.8878V17.4704C11.3056 13.9813 14.1168 11.1302 17.5871 11.1302H25.9265C29.3833 11.1302 32.208 13.9677 32.208 17.4704V25.8878C32.208 29.3769 29.3968 32.228 25.9265 32.228Z" fill="#FEFEFE"/>
<defs>
<linearGradient id="paint0_linear_231_25436" x1="21.7573" y1="1.53163" x2="21.7573" y2="41.8264" gradientUnits="userSpaceOnUse">
<stop stop-color="#FBDE87"/>
<stop offset="0.211765" stop-color="#FCB94F"/>
<stop offset="0.380392" stop-color="#F06281"/>
<stop offset="0.521569" stop-color="#EE509C"/>
<stop offset="0.741176" stop-color="#7B5AA4"/>
<stop offset="1" stop-color="#5662AB"/>
</linearGradient>
</defs>
</svg>
