<svg width="62" height="62" viewBox="0 0 62 62" fill="none" xmlns="http://www.w3.org/2000/svg">
<path fill-rule="evenodd" clip-rule="evenodd" d="M34.2164 25.9214C33.8129 25.7812 33.6003 25.3399 33.7405 24.9366C33.8812 24.5331 34.3218 24.3208 34.7253 24.4611L36.3203 25.0172L58.2617 3.07419L2.96316 22.0396C2.48443 22.2202 2.45599 22.6586 2.45864 22.7886C2.46186 22.9196 2.50905 23.3585 3.00238 23.5166L29.3781 31.9602L35.106 26.2319L34.2164 25.9214ZM24.9863 21.8844C24.8746 22.2035 24.5763 22.4027 24.2562 22.4027C24.1719 22.4027 24.0859 22.3889 24.0015 22.3599L21.9482 21.6437C21.5447 21.5034 21.3327 21.0629 21.4729 20.6594C21.613 20.2559 22.0542 20.0432 22.4575 20.1839L24.5107 20.8995C24.9142 21.0403 25.1265 21.4808 24.9863 21.8844ZM31.7956 24.259C31.6846 24.5782 31.3857 24.7776 31.0662 24.7776C30.9818 24.7776 30.8958 24.7636 30.8115 24.7346L27.4065 23.5477C27.003 23.4074 26.7903 22.9664 26.9311 22.5629C27.0712 22.1594 27.5124 21.9473 27.9153 22.0874L31.3203 23.2742C31.7236 23.4145 31.9364 23.8555 31.7956 24.259Z" fill="#1B9DA1"/>
<path fill-rule="evenodd" clip-rule="evenodd" d="M38.9131 59.4305C39.0711 59.9238 39.5099 59.9716 39.641 59.9743C39.771 59.9786 40.2094 59.9496 40.39 59.4697L59.3543 4.16832L30.4712 33.0532L38.9131 59.4305ZM39.829 35.3924C40.2325 35.2521 40.6735 35.4642 40.8138 35.8678L42.246 39.9752C42.3863 40.3781 42.1736 40.8192 41.7701 40.9594C41.6858 40.9884 41.5998 41.0024 41.5154 41.0024C41.1959 41.0024 40.8972 40.8027 40.786 40.484L39.3537 36.3772C39.2124 35.9737 39.4261 35.5325 39.829 35.3924ZM36.9652 27.1782C37.3686 27.0379 37.8097 27.2502 37.9499 27.6541L39.3821 31.7609C39.5224 32.1644 39.3096 32.6051 38.9061 32.7457C38.8217 32.7747 38.7359 32.7888 38.6515 32.7888C38.3318 32.7888 38.0332 32.5894 37.9219 32.2704L36.4897 28.163C36.3494 27.7595 36.5628 27.3188 36.9652 27.1782Z" fill="#E14137"/>
<path fill-rule="evenodd" clip-rule="evenodd" d="M61.9402 1.23532C61.9402 1.22509 61.9397 1.21447 61.9385 1.20423C61.9376 1.194 61.9365 1.18261 61.9359 1.17256C61.9347 1.16119 61.9327 1.15098 61.9311 1.1398C61.9289 1.12956 61.9273 1.1199 61.9251 1.10966C61.9236 1.09886 61.9203 1.08709 61.9177 1.07629C61.916 1.06662 61.9127 1.05752 61.9101 1.04786C61.9074 1.03705 61.9036 1.02531 61.8999 1.01451C61.8972 1.00484 61.8934 0.99575 61.8896 0.986084C61.8858 0.975849 61.8811 0.964649 61.8767 0.954414C61.872 0.945316 61.8682 0.935074 61.8633 0.925407C61.8591 0.916119 61.8542 0.906094 61.8495 0.896427C61.844 0.886192 61.8381 0.87595 61.8328 0.865715C61.8301 0.85984 61.8269 0.854343 61.8237 0.849606L61.8167 0.840496C61.8102 0.830261 61.8038 0.820595 61.7962 0.81036C61.7903 0.80278 61.785 0.794827 61.7786 0.786674C61.7716 0.777576 61.7646 0.769051 61.7564 0.759953C61.75 0.752369 61.7435 0.743847 61.7361 0.736267C61.7285 0.728683 61.721 0.721088 61.7136 0.713131C61.706 0.704601 61.6975 0.697025 61.6893 0.689445C61.6817 0.682999 61.6744 0.676559 61.6668 0.669548C61.6577 0.662155 61.648 0.654018 61.6389 0.646439C61.6313 0.640564 61.6237 0.63525 61.6162 0.629375C61.6061 0.621796 61.5953 0.614216 61.585 0.607773C61.585 0.607773 61.5798 0.604164 61.576 0.601322C61.571 0.598099 61.5657 0.595444 61.561 0.592793C61.5508 0.586346 61.5406 0.581039 61.5292 0.574974C61.5201 0.570236 61.5116 0.565861 61.5025 0.561123C61.4917 0.556194 61.4814 0.552052 61.4712 0.547127C61.4609 0.542385 61.4513 0.538597 61.441 0.534805C61.4319 0.531013 61.4217 0.527222 61.4115 0.524567C61.4014 0.520775 61.3895 0.51812 61.3793 0.514328C61.3702 0.511677 61.3599 0.508457 61.3497 0.506752C61.3385 0.504097 61.3277 0.502003 61.3171 0.499348C61.3069 0.497074 61.296 0.495564 61.2858 0.493477C61.2756 0.491772 61.2653 0.490627 61.2542 0.489109C61.2428 0.487972 61.2316 0.487038 61.2214 0.485901C61.2111 0.484764 61.2015 0.484764 61.1912 0.484192C61.18 0.484192 61.1677 0.483246 61.1569 0.484192C61.1467 0.484192 61.1371 0.484745 61.128 0.484745C61.1166 0.485882 61.1043 0.487034 61.0931 0.487984C61.0828 0.48912 61.0726 0.489685 61.0629 0.491772C61.0521 0.493477 61.0413 0.494411 61.0302 0.496689C61.0193 0.498203 61.0076 0.500862 60.9974 0.503136C60.9883 0.504654 60.978 0.507881 60.9684 0.509586C60.9566 0.513187 60.9441 0.516399 60.9318 0.519623C60.9265 0.521896 60.9216 0.522861 60.9163 0.524567L2.44906 20.5767C2.44299 20.579 2.43765 20.5805 2.43234 20.5828C1.48511 20.9319 0.887732 21.8093 0.910285 22.8187C0.932838 23.8272 1.5674 24.6783 2.52847 24.9857L28.9737 33.4512L37.4376 59.8981C37.7456 60.8592 38.5965 61.4947 39.6054 61.5161C39.6232 61.5161 39.6408 61.5167 39.6597 61.5167C40.6454 61.5167 41.4985 60.9248 41.8413 59.9942C41.8434 59.9889 41.8451 59.9828 41.8472 59.9775L61.8984 1.50671C61.8999 1.50084 61.901 1.49535 61.9025 1.48948C61.9063 1.47867 61.9101 1.46749 61.9128 1.45518C61.916 1.44494 61.9177 1.43471 61.9203 1.42504C61.9236 1.41481 61.9251 1.40342 61.9273 1.39337C61.9288 1.382 61.9311 1.37084 61.9327 1.36061C61.9338 1.35037 61.9359 1.34071 61.9365 1.33047C61.9376 1.3191 61.9385 1.30732 61.9396 1.29614C61.9396 1.28591 61.9402 1.27624 61.9402 1.26601C61.9412 1.25785 61.9412 1.24669 61.9402 1.23532ZM3.0017 23.5168C2.50856 23.3587 2.46079 22.9198 2.45814 22.7888C2.45492 22.6588 2.48335 22.2207 2.96266 22.0397L58.2607 3.07436L36.3192 25.0173L34.7242 24.4612C34.3213 24.321 33.88 24.5333 33.74 24.9368C33.5992 25.3401 33.8119 25.7813 34.2154 25.9216L35.1055 26.2315L29.3776 31.9598L3.0017 23.5168ZM40.3903 59.4703C40.2097 59.9497 39.7719 59.9787 39.6413 59.9749C39.5102 59.9722 39.0715 59.9243 38.9134 59.4311L30.4704 33.0536L59.3534 4.16874L40.3903 59.4703Z" fill="#1A1A1A"/>
<path fill-rule="evenodd" clip-rule="evenodd" d="M24.5088 20.8997L22.4555 20.1841C22.0522 20.0434 21.611 20.2561 21.471 20.6596C21.3307 21.0631 21.5428 21.5036 21.9463 21.6439L23.9996 22.3601C24.0839 22.3891 24.17 22.403 24.2543 22.403C24.5744 22.403 24.8731 22.2026 24.9843 21.8846C25.1246 21.4811 24.9123 21.0406 24.5088 20.8997Z" fill="#1A1A1A"/>
<path fill-rule="evenodd" clip-rule="evenodd" d="M31.3194 23.2743L27.9144 22.0875C27.5115 21.9474 27.0702 22.1595 26.9302 22.563C26.7894 22.9665 27.002 23.4076 27.4055 23.5478L30.8105 24.7347C30.8948 24.7637 30.9809 24.7777 31.0652 24.7777C31.3848 24.7777 31.6836 24.5772 31.7947 24.2592C31.9355 23.8556 31.7227 23.4146 31.3194 23.2743Z" fill="#1A1A1A"/>
<path fill-rule="evenodd" clip-rule="evenodd" d="M36.4906 28.1629L37.9223 32.2703C38.0336 32.5893 38.3322 32.7887 38.6525 32.7887C38.7368 32.7887 38.8227 32.7747 38.907 32.7457C39.31 32.6051 39.5228 32.1644 39.3825 31.7609L37.9503 27.654C37.8101 27.2505 37.3694 27.0379 36.9661 27.1781C36.5632 27.3188 36.3498 27.7594 36.4906 28.1629Z" fill="#1A1A1A"/>
<path fill-rule="evenodd" clip-rule="evenodd" d="M39.3542 36.3775L40.7864 40.4843C40.8977 40.8033 41.1973 41.0027 41.5159 41.0027C41.6002 41.0027 41.6862 40.9887 41.7706 40.9597C42.1741 40.8194 42.3867 40.3784 42.2465 39.9754L40.8142 35.868C40.674 35.4645 40.233 35.2524 39.8295 35.3927C39.4266 35.5327 39.2128 35.974 39.3542 36.3775Z" fill="#1A1A1A"/>
</svg>
