<svg width="18" height="24" viewBox="0 0 18 24" fill="none" xmlns="http://www.w3.org/2000/svg">
<path d="M10.0453 18.0441V20.8697C10.0453 20.9924 9.93641 21.0792 9.822 21.0792H8.46506C8.3605 21.0792 8.26093 20.9924 8.26093 20.8697V18.0441C7.33402 17.6829 6.66421 16.7929 6.66421 15.728C6.66421 14.3612 7.7818 13.2468 9.15525 13.2468C10.522 13.2468 11.6392 14.3612 11.6392 15.728C11.6392 16.7929 10.9683 17.6829 10.0453 18.0441ZM5.87487 6.50397C5.87487 4.78217 7.26801 3.38638 8.98703 3.38638C10.7119 3.38638 12.1063 4.78217 12.1063 6.50397V8.20686H5.87487V6.50397ZM16.0412 8.20686H14.6811V6.50397C14.6811 3.3631 12.1283 0.813124 8.98703 0.813124C5.85282 0.813124 3.30243 3.3631 3.30243 6.50397V8.20686H1.93605C0.867972 8.20686 0 9.07763 0 10.1425V21.2069C0 22.2955 0.867972 23.1705 1.93605 23.1705H16.0412C17.1265 23.1705 18 22.2955 18 21.2069V10.1425C18 9.07763 17.1265 8.20686 16.0412 8.20686Z" fill="#5DC26B"/>
</svg>
