<?xml version="1.0" encoding="UTF-8"?>
<!DOCTYPE svg PUBLIC "-//W3C//DTD SVG 1.1//EN" "http://www.w3.org/Graphics/SVG/1.1/DTD/svg11.dtd">
<!-- Creator: CorelDRAW -->
<svg xmlns="http://www.w3.org/2000/svg" xml:space="preserve" width="2.3622in" height="1.05772in" version="1.1" style="shape-rendering:geometricPrecision; text-rendering:geometricPrecision; image-rendering:optimizeQuality; fill-rule:evenodd; clip-rule:evenodd"
viewBox="0 0 1161.9 520.26"
 xmlns:xlink="http://www.w3.org/1999/xlink"
 xmlns:xodm="http://www.corel.com/coreldraw/odm/2003">
 <defs>
  <style type="text/css">
   <![CDATA[
    .fil0 {fill:#E6E6E6}
   ]]>
  </style>
 </defs>
 <g id="Layer_x0020_1">
  <metadata id="CorelCorpID_0Corel-Layer"/>
  <g id="_1460341919232">
   <path class="fil0" d="M1134.17 14.4c3.98,-0.09 7.16,-3.28 7.1,-7.13 -0.06,-3.85 -3.34,-6.9 -7.32,-6.81 -3.98,0.09 -7.16,3.28 -7.1,7.14 0.06,3.85 3.33,6.9 7.32,6.81z"/>
   <path class="fil0" d="M1154.49 13.95c3.98,-0.09 7.16,-3.28 7.1,-7.13 -0.06,-3.85 -3.34,-6.9 -7.32,-6.81 -3.99,0.09 -7.16,3.28 -7.1,7.14 0.06,3.85 3.34,6.9 7.32,6.81z"/>
   <path class="fil0" d="M1114.16 34.51c3.98,-0.09 7.16,-3.28 7.1,-7.13 -0.06,-3.85 -3.34,-6.9 -7.32,-6.81 -3.98,0.09 -7.16,3.28 -7.1,7.13 0.06,3.85 3.34,6.9 7.32,6.81z"/>
   <path class="fil0" d="M1134.48 34.05c3.99,-0.09 7.16,-3.28 7.1,-7.13 -0.06,-3.85 -3.33,-6.9 -7.32,-6.81 -3.98,0.09 -7.16,3.28 -7.1,7.14 0.06,3.85 3.33,6.9 7.32,6.81z"/>
   <path class="fil0" d="M1154.79 33.6c3.98,-0.09 7.16,-3.28 7.1,-7.13 -0.06,-3.85 -3.34,-6.9 -7.32,-6.81 -3.98,0.09 -7.16,3.28 -7.1,7.14 0.06,3.85 3.34,6.9 7.32,6.81z"/>
   <path class="fil0" d="M1053.51 55.52c3.98,-0.09 7.16,-3.28 7.1,-7.14 -0.06,-3.85 -3.34,-6.9 -7.32,-6.81 -3.99,0.09 -7.16,3.28 -7.1,7.14 0.06,3.85 3.34,6.9 7.32,6.81z"/>
   <path class="fil0" d="M1073.83 55.06c3.98,-0.09 7.16,-3.28 7.1,-7.14 -0.06,-3.85 -3.34,-6.9 -7.32,-6.81 -3.98,0.09 -7.16,3.28 -7.1,7.14 0.06,3.85 3.34,6.9 7.32,6.81z"/>
   <path class="fil0" d="M1094.15 54.61c3.98,-0.09 7.16,-3.28 7.1,-7.14 -0.06,-3.85 -3.34,-6.9 -7.32,-6.81 -3.99,0.09 -7.16,3.28 -7.1,7.14 0.06,3.85 3.34,6.9 7.32,6.81z"/>
   <path class="fil0" d="M1114.47 54.16c3.98,-0.09 7.16,-3.28 7.1,-7.14 -0.06,-3.85 -3.34,-6.9 -7.32,-6.81 -3.99,0.09 -7.16,3.28 -7.1,7.14 0.06,3.85 3.34,6.9 7.32,6.81z"/>
   <path class="fil0" d="M1134.78 53.7c3.98,-0.09 7.16,-3.28 7.1,-7.14 -0.06,-3.85 -3.34,-6.9 -7.32,-6.81 -3.98,0.09 -7.16,3.28 -7.1,7.14 0.06,3.85 3.33,6.9 7.32,6.81z"/>
   <path class="fil0" d="M1092.5 36.1c3.98,-0.09 7.16,-3.28 7.1,-7.13 -0.06,-3.85 -3.34,-6.9 -7.32,-6.81 -3.99,0.09 -7.16,3.28 -7.1,7.14 0.06,3.85 3.34,6.9 7.32,6.81z"/>
   <path class="fil0" d="M1013.19 76.07c3.98,-0.09 7.16,-3.28 7.1,-7.14 -0.06,-3.85 -3.34,-6.9 -7.32,-6.81 -3.99,0.09 -7.16,3.28 -7.1,7.14 0.06,3.85 3.34,6.9 7.32,6.81z"/>
   <path class="fil0" d="M1033.5 75.62c3.99,-0.09 7.16,-3.28 7.1,-7.14 -0.06,-3.85 -3.34,-6.9 -7.32,-6.81 -3.98,0.09 -7.16,3.28 -7.1,7.13 0.06,3.85 3.34,6.9 7.32,6.81z"/>
   <path class="fil0" d="M1053.82 75.17c3.98,-0.09 7.16,-3.28 7.1,-7.14 -0.06,-3.85 -3.34,-6.9 -7.32,-6.81 -3.99,0.09 -7.16,3.28 -7.1,7.13 0.06,3.85 3.34,6.9 7.32,6.81z"/>
   <path class="fil0" d="M1074.14 74.71c3.98,-0.09 7.16,-3.28 7.1,-7.14 -0.06,-3.85 -3.34,-6.9 -7.32,-6.81 -3.98,0.09 -7.16,3.28 -7.1,7.13 0.06,3.85 3.34,6.9 7.32,6.81z"/>
   <path class="fil0" d="M1094.45 74.26c3.98,-0.09 7.16,-3.28 7.1,-7.13 -0.06,-3.85 -3.34,-6.9 -7.32,-6.81 -3.99,0.09 -7.16,3.28 -7.1,7.14 0.06,3.85 3.34,6.9 7.32,6.81z"/>
   <path class="fil0" d="M972.86 96.63c3.98,-0.09 7.16,-3.28 7.1,-7.14 -0.06,-3.85 -3.34,-6.9 -7.32,-6.81 -3.98,0.09 -7.16,3.28 -7.1,7.13 0.06,3.85 3.34,6.9 7.32,6.81z"/>
   <ellipse class="fil0" transform="matrix(-0.00296364 -0.265758 0.274772 -0.0049828 993.097 89.1962)" rx="26.25" ry="26.24"/>
   <path class="fil0" d="M1013.49 95.72c3.98,-0.09 7.16,-3.28 7.1,-7.13 -0.06,-3.85 -3.34,-6.9 -7.32,-6.81 -3.98,0.09 -7.16,3.28 -7.1,7.14 0.06,3.85 3.34,6.9 7.32,6.81z"/>
   <path class="fil0" d="M1033.81 95.27c3.99,-0.09 7.16,-3.28 7.1,-7.13 -0.06,-3.85 -3.34,-6.9 -7.32,-6.81 -3.98,0.09 -7.16,3.28 -7.1,7.14 0.06,3.85 3.34,6.9 7.32,6.81z"/>
   <path class="fil0" d="M1054.13 94.82c3.98,-0.09 7.16,-3.28 7.1,-7.14 -0.06,-3.85 -3.34,-6.9 -7.32,-6.81 -3.98,0.09 -7.16,3.28 -7.1,7.14 0.06,3.85 3.34,6.9 7.32,6.81z"/>
   <path class="fil0" d="M1074.44 94.36c3.99,-0.09 7.16,-3.28 7.1,-7.14 -0.06,-3.85 -3.34,-6.9 -7.32,-6.81 -3.98,0.09 -7.16,3.28 -7.1,7.14 0.06,3.85 3.34,6.9 7.32,6.81z"/>
   <path class="fil0" d="M912.21 117.64c3.98,-0.09 7.16,-3.28 7.1,-7.13 -0.06,-3.85 -3.34,-6.9 -7.32,-6.81 -3.99,0.09 -7.16,3.28 -7.1,7.13 0.06,3.85 3.34,6.9 7.32,6.81z"/>
   <path class="fil0" d="M932.53 117.18c3.98,-0.09 7.16,-3.28 7.1,-7.13 -0.06,-3.85 -3.34,-6.9 -7.32,-6.81 -3.98,0.09 -7.16,3.28 -7.1,7.13 0.06,3.85 3.34,6.9 7.32,6.81z"/>
   <path class="fil0" d="M952.85 116.73c3.98,-0.09 7.16,-3.28 7.1,-7.14 -0.06,-3.85 -3.34,-6.9 -7.32,-6.81 -3.99,0.09 -7.16,3.28 -7.1,7.13 0.06,3.85 3.34,6.9 7.32,6.81z"/>
   <path class="fil0" d="M973.17 116.28c3.98,-0.09 7.16,-3.28 7.1,-7.14 -0.06,-3.85 -3.34,-6.9 -7.32,-6.81 -3.99,0.09 -7.16,3.28 -7.1,7.13 0.06,3.85 3.34,6.9 7.32,6.81z"/>
   <path class="fil0" d="M993.48 115.83c3.98,-0.09 7.16,-3.28 7.1,-7.14 -0.06,-3.85 -3.34,-6.9 -7.32,-6.81 -3.98,0.09 -7.16,3.28 -7.1,7.13 0.06,3.85 3.33,6.9 7.32,6.81z"/>
   <path class="fil0" d="M1013.8 115.37c3.98,-0.09 7.16,-3.28 7.1,-7.14 -0.06,-3.85 -3.34,-6.9 -7.32,-6.81 -3.98,0.09 -7.16,3.28 -7.1,7.13 0.06,3.85 3.33,6.9 7.32,6.81z"/>
   <path class="fil0" d="M1034.12 114.92c3.98,-0.09 7.16,-3.28 7.1,-7.14 -0.06,-3.85 -3.34,-6.9 -7.32,-6.81 -3.98,0.09 -7.16,3.28 -7.1,7.13 0.06,3.85 3.34,6.9 7.32,6.81z"/>
   <path class="fil0" d="M1054.43 114.47c3.98,-0.09 7.16,-3.28 7.1,-7.14 -0.06,-3.85 -3.34,-6.9 -7.32,-6.81 -3.98,0.09 -7.16,3.28 -7.1,7.13 0.06,3.85 3.33,6.9 7.32,6.81z"/>
   <path class="fil0" d="M892.2 137.74c3.99,-0.09 7.16,-3.28 7.1,-7.13 -0.06,-3.85 -3.34,-6.9 -7.32,-6.81 -3.98,0.09 -7.16,3.28 -7.1,7.14 0.06,3.85 3.34,6.9 7.32,6.81z"/>
   <path class="fil0" d="M912.52 137.29c3.98,-0.09 7.16,-3.28 7.1,-7.13 -0.06,-3.85 -3.34,-6.9 -7.32,-6.81 -3.99,0.09 -7.16,3.28 -7.1,7.14 0.06,3.85 3.34,6.9 7.32,6.81z"/>
   <path class="fil0" d="M932.84 136.83c3.98,-0.09 7.16,-3.28 7.1,-7.13 -0.06,-3.85 -3.34,-6.9 -7.32,-6.81 -3.98,0.09 -7.16,3.28 -7.1,7.14 0.06,3.85 3.34,6.9 7.32,6.81z"/>
   <path class="fil0" d="M953.15 136.38c3.98,-0.09 7.16,-3.28 7.1,-7.13 -0.06,-3.85 -3.34,-6.9 -7.32,-6.81 -3.99,0.09 -7.16,3.28 -7.1,7.14 0.06,3.85 3.34,6.9 7.32,6.81z"/>
   <path class="fil0" d="M973.47 135.93c3.98,-0.09 7.16,-3.28 7.1,-7.13 -0.06,-3.85 -3.34,-6.9 -7.32,-6.81 -3.98,0.09 -7.16,3.28 -7.1,7.14 0.06,3.85 3.34,6.9 7.32,6.81z"/>
   <path class="fil0" d="M993.79 135.47c3.98,-0.09 7.16,-3.28 7.1,-7.13 -0.06,-3.85 -3.34,-6.9 -7.32,-6.81 -3.98,0.09 -7.16,3.28 -7.1,7.13 0.06,3.85 3.33,6.9 7.32,6.81z"/>
   <path class="fil0" d="M1014.11 135.02c3.98,-0.09 7.16,-3.28 7.1,-7.13 -0.06,-3.85 -3.34,-6.9 -7.32,-6.81 -3.99,0.09 -7.16,3.28 -7.1,7.13 0.06,3.85 3.34,6.9 7.32,6.81z"/>
   <path class="fil0" d="M1034.42 134.57c3.98,-0.09 7.16,-3.28 7.1,-7.13 -0.06,-3.85 -3.34,-6.9 -7.32,-6.81 -3.98,0.09 -7.16,3.28 -7.1,7.13 0.06,3.85 3.34,6.9 7.32,6.81z"/>
   <path class="fil0" d="M851.88 158.29c3.99,-0.09 7.16,-3.28 7.1,-7.13 -0.06,-3.85 -3.33,-6.9 -7.32,-6.81 -3.98,0.09 -7.16,3.28 -7.1,7.14 0.06,3.85 3.33,6.9 7.32,6.81z"/>
   <path class="fil0" d="M872.19 157.84c3.98,-0.09 7.16,-3.28 7.1,-7.13 -0.06,-3.85 -3.34,-6.9 -7.32,-6.81 -3.98,0.09 -7.16,3.28 -7.1,7.14 0.06,3.85 3.34,6.9 7.32,6.81z"/>
   <path class="fil0" d="M892.51 157.39c3.99,-0.09 7.16,-3.28 7.1,-7.13 -0.06,-3.85 -3.34,-6.9 -7.32,-6.81 -3.98,0.09 -7.16,3.28 -7.1,7.14 0.06,3.85 3.34,6.9 7.32,6.81z"/>
   <path class="fil0" d="M912.83 156.94c3.98,-0.09 7.16,-3.28 7.1,-7.13 -0.06,-3.85 -3.34,-6.9 -7.32,-6.81 -3.98,0.09 -7.16,3.28 -7.1,7.14 0.06,3.85 3.34,6.9 7.32,6.81z"/>
   <path class="fil0" d="M933.14 156.48c3.99,-0.09 7.16,-3.28 7.1,-7.13 -0.06,-3.85 -3.34,-6.9 -7.32,-6.81 -3.98,0.09 -7.16,3.28 -7.1,7.13 0.06,3.85 3.34,6.9 7.32,6.81z"/>
   <path class="fil0" d="M953.46 156.03c3.98,-0.09 7.16,-3.28 7.1,-7.13 -0.06,-3.85 -3.34,-6.9 -7.32,-6.81 -3.98,0.09 -7.16,3.28 -7.1,7.13 0.06,3.85 3.34,6.9 7.32,6.81z"/>
   <path class="fil0" d="M973.78 155.58c3.98,-0.09 7.16,-3.28 7.1,-7.13 -0.06,-3.85 -3.34,-6.9 -7.32,-6.81 -3.98,0.09 -7.16,3.28 -7.1,7.13 0.06,3.85 3.34,6.9 7.32,6.81z"/>
   <path class="fil0" d="M994.1 155.12c3.99,-0.09 7.16,-3.28 7.1,-7.13 -0.06,-3.85 -3.34,-6.9 -7.32,-6.81 -3.98,0.09 -7.16,3.28 -7.1,7.14 0.06,3.85 3.33,6.9 7.32,6.81z"/>
   <path class="fil0" d="M925.18 101.85c3.98,-0.09 7.16,-3.28 7.1,-7.13 -0.06,-3.85 -3.34,-6.9 -7.32,-6.81 -3.99,0.09 -7.16,3.28 -7.1,7.14 0.06,3.85 3.34,6.9 7.32,6.81z"/>
   <path class="fil0" d="M831.87 178.4c3.98,-0.09 7.16,-3.28 7.1,-7.13 -0.06,-3.85 -3.34,-6.9 -7.32,-6.81 -3.99,0.09 -7.16,3.28 -7.1,7.13 0.06,3.85 3.34,6.9 7.32,6.81z"/>
   <path class="fil0" d="M852.18 177.94c3.98,-0.09 7.16,-3.28 7.1,-7.13 -0.06,-3.85 -3.34,-6.9 -7.32,-6.81 -3.98,0.09 -7.16,3.28 -7.1,7.13 0.06,3.85 3.33,6.9 7.32,6.81z"/>
   <path class="fil0" d="M872.5 177.49c3.98,-0.09 7.16,-3.28 7.1,-7.13 -0.06,-3.85 -3.34,-6.9 -7.32,-6.81 -3.98,0.09 -7.16,3.28 -7.1,7.13 0.06,3.85 3.33,6.9 7.32,6.81z"/>
   <path class="fil0" d="M892.82 177.04c3.98,-0.09 7.16,-3.28 7.1,-7.13 -0.06,-3.85 -3.34,-6.9 -7.32,-6.81 -3.98,0.09 -7.16,3.28 -7.1,7.14 0.06,3.85 3.34,6.9 7.32,6.81z"/>
   <path class="fil0" d="M913.13 176.59c3.98,-0.09 7.16,-3.28 7.1,-7.13 -0.06,-3.85 -3.34,-6.9 -7.32,-6.81 -3.98,0.09 -7.16,3.28 -7.1,7.14 0.06,3.85 3.33,6.9 7.32,6.81z"/>
   <path class="fil0" d="M933.45 176.13c3.98,-0.09 7.16,-3.28 7.1,-7.13 -0.06,-3.85 -3.34,-6.9 -7.32,-6.81 -3.98,0.09 -7.16,3.28 -7.1,7.14 0.06,3.85 3.34,6.9 7.32,6.81z"/>
   <path class="fil0" d="M953.77 175.68c3.98,-0.09 7.16,-3.28 7.1,-7.13 -0.06,-3.85 -3.34,-6.9 -7.32,-6.81 -3.98,0.09 -7.16,3.28 -7.1,7.14 0.06,3.85 3.34,6.9 7.32,6.81z"/>
   <path class="fil0" d="M974.09 175.23c3.98,-0.09 7.16,-3.28 7.1,-7.13 -0.06,-3.85 -3.34,-6.9 -7.32,-6.81 -3.98,0.09 -7.16,3.28 -7.1,7.14 0.06,3.85 3.34,6.9 7.32,6.81z"/>
   <path class="fil0" d="M771.22 199.41c3.98,-0.09 7.16,-3.28 7.1,-7.13 -0.06,-3.85 -3.34,-6.9 -7.32,-6.81 -3.99,0.09 -7.16,3.28 -7.1,7.14 0.06,3.85 3.34,6.9 7.32,6.81z"/>
   <path class="fil0" d="M791.54 198.96c3.99,-0.09 7.16,-3.29 7.1,-7.14 -0.06,-3.85 -3.34,-6.9 -7.32,-6.81 -3.98,0.09 -7.16,3.28 -7.1,7.14 0.06,3.85 3.34,6.9 7.32,6.81z"/>
   <path class="fil0" d="M811.85 198.5c3.98,-0.09 7.16,-3.28 7.1,-7.14 -0.06,-3.85 -3.34,-6.9 -7.32,-6.81 -3.99,0.09 -7.16,3.28 -7.1,7.14 0.06,3.85 3.34,6.9 7.32,6.81z"/>
   <path class="fil0" d="M832.17 198.05c3.98,-0.09 7.16,-3.28 7.1,-7.14 -0.06,-3.85 -3.34,-6.9 -7.32,-6.81 -3.98,0.09 -7.16,3.28 -7.1,7.14 0.06,3.85 3.34,6.9 7.32,6.81z"/>
   <path class="fil0" d="M852.49 197.6c3.98,-0.09 7.16,-3.28 7.1,-7.14 -0.06,-3.85 -3.34,-6.9 -7.32,-6.81 -3.98,0.09 -7.16,3.28 -7.1,7.14 0.06,3.85 3.33,6.9 7.32,6.81z"/>
   <path class="fil0" d="M872.81 197.14c3.98,-0.09 7.16,-3.28 7.1,-7.14 -0.06,-3.85 -3.34,-6.9 -7.32,-6.81 -3.99,0.09 -7.16,3.28 -7.1,7.14 0.06,3.85 3.34,6.9 7.32,6.81z"/>
   <path class="fil0" d="M893.12 196.69c3.98,-0.09 7.16,-3.28 7.1,-7.14 -0.06,-3.85 -3.34,-6.9 -7.32,-6.81 -3.98,0.09 -7.16,3.28 -7.1,7.13 0.06,3.85 3.34,6.9 7.32,6.81z"/>
   <path class="fil0" d="M913.44 196.24c3.98,-0.09 7.16,-3.28 7.1,-7.14 -0.06,-3.85 -3.34,-6.9 -7.32,-6.81 -3.99,0.09 -7.16,3.28 -7.1,7.13 0.06,3.85 3.34,6.9 7.32,6.81z"/>
   <path class="fil0" d="M933.76 195.78c3.98,-0.09 7.16,-3.28 7.1,-7.14 -0.06,-3.85 -3.34,-6.9 -7.32,-6.81 -3.98,0.09 -7.16,3.28 -7.1,7.13 0.06,3.85 3.34,6.9 7.32,6.81z"/>
   <path class="fil0" d="M954.07 195.33c3.98,-0.09 7.16,-3.28 7.1,-7.13 -0.06,-3.85 -3.34,-6.9 -7.32,-6.81 -3.99,0.09 -7.16,3.28 -7.1,7.14 0.06,3.85 3.34,6.9 7.32,6.81z"/>
   <circle class="fil0" transform="matrix(0.274754 -0.00612545 0.00414508 0.265732 669.832 214.347)" r="26.25"/>
   <path class="fil0" d="M690.26 220.87c3.98,-0.09 7.16,-3.28 7.1,-7.13 -0.06,-3.85 -3.34,-6.9 -7.32,-6.81 -3.98,0.09 -7.16,3.28 -7.1,7.14 0.06,3.85 3.34,6.9 7.32,6.81z"/>
   <ellipse class="fil0" transform="matrix(-0.00323839 -0.265752 0.274768 -0.00524854 710.441 213.419)" rx="26.25" ry="26.24"/>
   <path class="fil0" d="M730.89 219.96c3.98,-0.09 7.16,-3.28 7.1,-7.14 -0.06,-3.85 -3.34,-6.9 -7.32,-6.81 -3.98,0.09 -7.16,3.28 -7.1,7.14 0.06,3.85 3.34,6.9 7.32,6.81z"/>
   <path class="fil0" d="M751.21 219.51c3.99,-0.09 7.16,-3.28 7.1,-7.14 -0.06,-3.85 -3.34,-6.9 -7.32,-6.81 -3.98,0.09 -7.16,3.28 -7.1,7.14 0.06,3.85 3.34,6.9 7.32,6.81z"/>
   <path class="fil0" d="M771.53 219.06c3.98,-0.09 7.16,-3.28 7.1,-7.14 -0.06,-3.85 -3.34,-6.9 -7.32,-6.81 -3.98,0.09 -7.16,3.28 -7.1,7.14 0.06,3.85 3.34,6.9 7.32,6.81z"/>
   <path class="fil0" d="M791.84 218.6c3.99,-0.09 7.16,-3.28 7.1,-7.14 -0.06,-3.85 -3.34,-6.9 -7.32,-6.81 -3.98,0.09 -7.16,3.28 -7.1,7.14 0.06,3.85 3.34,6.9 7.32,6.81z"/>
   <path class="fil0" d="M812.16 218.15c3.98,-0.09 7.16,-3.28 7.1,-7.14 -0.06,-3.85 -3.34,-6.9 -7.32,-6.81 -3.98,0.09 -7.16,3.28 -7.1,7.13 0.06,3.85 3.34,6.9 7.32,6.81z"/>
   <path class="fil0" d="M832.48 217.7c3.98,-0.09 7.16,-3.28 7.1,-7.14 -0.06,-3.85 -3.34,-6.9 -7.32,-6.81 -3.98,0.09 -7.16,3.28 -7.1,7.13 0.06,3.85 3.34,6.9 7.32,6.81z"/>
   <ellipse class="fil0" transform="matrix(-0.00310101 -0.265755 0.27477 -0.00511567 852.688 210.26)" rx="26.25" ry="26.24"/>
   <path class="fil0" d="M873.11 216.79c3.98,-0.09 7.16,-3.28 7.1,-7.13 -0.06,-3.85 -3.34,-6.9 -7.32,-6.81 -3.98,0.09 -7.16,3.28 -7.1,7.14 0.06,3.85 3.34,6.9 7.32,6.81z"/>
   <path class="fil0" d="M893.43 216.34c3.99,-0.09 7.16,-3.28 7.1,-7.13 -0.06,-3.85 -3.34,-6.9 -7.32,-6.81 -3.98,0.09 -7.16,3.28 -7.1,7.14 0.06,3.85 3.34,6.9 7.32,6.81z"/>
   <path class="fil0" d="M913.75 215.89c3.98,-0.09 7.16,-3.28 7.1,-7.14 -0.06,-3.85 -3.34,-6.9 -7.32,-6.81 -3.98,0.09 -7.16,3.28 -7.1,7.14 0.06,3.85 3.34,6.9 7.32,6.81z"/>
   <path class="fil0" d="M202.95 251.39c3.98,-0.09 7.16,-3.28 7.1,-7.14 -0.06,-3.85 -3.33,-6.9 -7.32,-6.81 -3.98,0.09 -7.16,3.28 -7.1,7.13 0.06,3.85 3.34,6.9 7.32,6.81z"/>
   <path class="fil0" d="M223.27 250.94c3.98,-0.09 7.16,-3.28 7.1,-7.14 -0.06,-3.85 -3.33,-6.9 -7.32,-6.81 -3.98,0.09 -7.16,3.28 -7.1,7.13 0.06,3.85 3.34,6.9 7.32,6.81z"/>
   <path class="fil0" d="M243.59 250.48c3.98,-0.09 7.16,-3.28 7.1,-7.14 -0.06,-3.85 -3.33,-6.9 -7.32,-6.81 -3.98,0.09 -7.16,3.28 -7.1,7.13 0.06,3.85 3.34,6.9 7.32,6.81z"/>
   <path class="fil0" d="M649.93 241.42c3.98,-0.09 7.16,-3.28 7.1,-7.14 -0.06,-3.85 -3.34,-6.9 -7.32,-6.81 -3.98,0.09 -7.16,3.28 -7.1,7.13 0.06,3.85 3.34,6.9 7.32,6.81z"/>
   <path class="fil0" d="M670.25 240.97c3.98,-0.09 7.16,-3.28 7.1,-7.14 -0.06,-3.85 -3.34,-6.9 -7.32,-6.81 -3.99,0.09 -7.16,3.28 -7.1,7.13 0.06,3.85 3.33,6.9 7.32,6.81z"/>
   <path class="fil0" d="M690.56 240.52c3.98,-0.09 7.16,-3.28 7.1,-7.14 -0.06,-3.85 -3.34,-6.9 -7.32,-6.81 -3.98,0.09 -7.16,3.28 -7.1,7.13 0.06,3.85 3.34,6.9 7.32,6.81z"/>
   <path class="fil0" d="M710.88 240.07c3.98,-0.09 7.16,-3.28 7.1,-7.14 -0.06,-3.85 -3.34,-6.9 -7.32,-6.81 -3.98,0.09 -7.16,3.28 -7.1,7.13 0.06,3.85 3.33,6.9 7.32,6.81z"/>
   <path class="fil0" d="M731.2 239.61c3.98,-0.09 7.16,-3.28 7.1,-7.14 -0.06,-3.85 -3.34,-6.9 -7.32,-6.81 -3.98,0.09 -7.16,3.28 -7.1,7.13 0.06,3.85 3.33,6.9 7.32,6.81z"/>
   <path class="fil0" d="M751.52 239.16c3.98,-0.09 7.16,-3.28 7.1,-7.13 -0.06,-3.85 -3.34,-6.9 -7.32,-6.81 -3.98,0.09 -7.16,3.28 -7.1,7.13 0.06,3.85 3.34,6.9 7.32,6.81z"/>
   <path class="fil0" d="M771.83 238.71c3.98,-0.09 7.16,-3.28 7.1,-7.13 -0.06,-3.85 -3.34,-6.9 -7.32,-6.81 -3.98,0.09 -7.16,3.28 -7.1,7.13 0.06,3.85 3.33,6.9 7.32,6.81z"/>
   <path class="fil0" d="M792.15 238.25c3.98,-0.09 7.16,-3.28 7.1,-7.13 -0.06,-3.85 -3.34,-6.9 -7.32,-6.81 -3.98,0.09 -7.16,3.28 -7.1,7.13 0.06,3.85 3.34,6.9 7.32,6.81z"/>
   <path class="fil0" d="M812.47 237.8c3.98,-0.09 7.16,-3.28 7.1,-7.14 -0.06,-3.85 -3.34,-6.9 -7.32,-6.81 -3.98,0.09 -7.16,3.28 -7.1,7.13 0.06,3.85 3.34,6.9 7.32,6.81z"/>
   <path class="fil0" d="M832.79 237.35c3.98,-0.09 7.16,-3.28 7.1,-7.14 -0.06,-3.85 -3.34,-6.9 -7.32,-6.81 -3.98,0.09 -7.16,3.28 -7.1,7.13 0.06,3.85 3.34,6.9 7.32,6.81z"/>
   <path class="fil0" d="M853.1 236.9c3.98,-0.09 7.16,-3.28 7.1,-7.14 -0.06,-3.85 -3.34,-6.9 -7.32,-6.81 -3.98,0.09 -7.16,3.28 -7.1,7.13 0.06,3.85 3.33,6.9 7.32,6.81z"/>
   <path class="fil0" d="M873.42 236.44c3.98,-0.09 7.16,-3.28 7.1,-7.14 -0.06,-3.85 -3.34,-6.9 -7.32,-6.81 -3.98,0.09 -7.16,3.28 -7.1,7.13 0.06,3.85 3.34,6.9 7.32,6.81z"/>
   <path class="fil0" d="M203.26 271.04c3.98,-0.09 7.16,-3.28 7.1,-7.14 -0.06,-3.85 -3.34,-6.9 -7.32,-6.81 -3.98,0.09 -7.16,3.28 -7.1,7.13 0.06,3.85 3.33,6.9 7.32,6.81z"/>
   <path class="fil0" d="M223.58 270.59c3.98,-0.09 7.16,-3.28 7.1,-7.13 -0.06,-3.85 -3.34,-6.9 -7.32,-6.81 -3.98,0.09 -7.16,3.28 -7.1,7.13 0.06,3.85 3.34,6.9 7.32,6.81z"/>
   <path class="fil0" d="M243.9 270.13c3.98,-0.09 7.16,-3.28 7.1,-7.13 -0.06,-3.85 -3.34,-6.9 -7.32,-6.81 -3.98,0.09 -7.16,3.28 -7.1,7.13 0.06,3.85 3.34,6.9 7.32,6.81z"/>
   <path class="fil0" d="M264.21 269.68c3.98,-0.09 7.16,-3.28 7.1,-7.13 -0.06,-3.85 -3.34,-6.9 -7.32,-6.81 -3.98,0.09 -7.16,3.28 -7.1,7.13 0.06,3.85 3.34,6.9 7.32,6.81z"/>
   <path class="fil0" d="M284.53 269.23c3.98,-0.09 7.16,-3.28 7.1,-7.14 -0.06,-3.85 -3.34,-6.9 -7.32,-6.81 -3.98,0.09 -7.16,3.28 -7.1,7.13 0.06,3.85 3.34,6.9 7.32,6.81z"/>
   <path class="fil0" d="M304.84 268.78c3.98,-0.09 7.16,-3.28 7.1,-7.14 -0.06,-3.85 -3.34,-6.9 -7.32,-6.81 -3.98,0.09 -7.16,3.28 -7.1,7.13 0.06,3.85 3.34,6.9 7.32,6.81z"/>
   <path class="fil0" d="M304.84 247.21c3.98,-0.09 7.16,-3.28 7.1,-7.14 -0.06,-3.85 -3.34,-6.9 -7.32,-6.81 -3.98,0.09 -7.16,3.28 -7.1,7.13 0.06,3.85 3.34,6.9 7.32,6.81z"/>
   <path class="fil0" d="M325.16 268.32c3.98,-0.09 7.16,-3.28 7.1,-7.14 -0.06,-3.85 -3.33,-6.9 -7.32,-6.81 -3.98,0.09 -7.16,3.28 -7.1,7.13 0.06,3.85 3.34,6.9 7.32,6.81z"/>
   <path class="fil0" d="M345.48 267.87c3.98,-0.09 7.16,-3.28 7.1,-7.14 -0.06,-3.85 -3.34,-6.9 -7.32,-6.81 -3.98,0.09 -7.16,3.28 -7.1,7.13 0.06,3.85 3.34,6.9 7.32,6.81z"/>
   <path class="fil0" d="M365.8 267.42c3.98,-0.09 7.16,-3.28 7.1,-7.14 -0.06,-3.85 -3.34,-6.9 -7.32,-6.81 -3.98,0.09 -7.16,3.28 -7.1,7.13 0.06,3.85 3.34,6.9 7.32,6.81z"/>
   <path class="fil0" d="M386.12 266.96c3.98,-0.09 7.16,-3.28 7.1,-7.14 -0.06,-3.85 -3.34,-6.9 -7.32,-6.81 -3.98,0.09 -7.16,3.28 -7.1,7.13 0.06,3.85 3.34,6.9 7.32,6.81z"/>
   <path class="fil0" d="M200.76 233.49c3.98,-0.09 7.16,-3.28 7.1,-7.14 -0.06,-3.85 -3.34,-6.9 -7.32,-6.81 -3.98,0.09 -7.16,3.28 -7.1,7.13 0.06,3.85 3.34,6.9 7.32,6.81z"/>
   <path class="fil0" d="M589.29 262.43c3.98,-0.09 7.16,-3.28 7.1,-7.14 -0.06,-3.85 -3.34,-6.9 -7.32,-6.81 -3.98,0.09 -7.16,3.28 -7.1,7.13 0.06,3.85 3.34,6.9 7.32,6.81z"/>
   <path class="fil0" d="M609.6 261.98c3.99,-0.09 7.16,-3.28 7.1,-7.14 -0.06,-3.85 -3.34,-6.9 -7.32,-6.81 -3.98,0.09 -7.16,3.28 -7.1,7.13 0.06,3.85 3.34,6.9 7.32,6.81z"/>
   <path class="fil0" d="M629.92 261.53c3.98,-0.09 7.16,-3.28 7.1,-7.14 -0.06,-3.85 -3.34,-6.9 -7.32,-6.81 -3.98,0.09 -7.16,3.28 -7.1,7.13 0.06,3.85 3.34,6.9 7.32,6.81z"/>
   <path class="fil0" d="M650.24 261.07c3.99,-0.09 7.16,-3.28 7.1,-7.13 -0.06,-3.85 -3.34,-6.9 -7.32,-6.81 -3.98,0.09 -7.16,3.28 -7.1,7.13 0.06,3.85 3.34,6.9 7.32,6.81z"/>
   <path class="fil0" d="M670.55 260.62c3.98,-0.09 7.16,-3.28 7.1,-7.13 -0.06,-3.85 -3.34,-6.9 -7.32,-6.81 -3.98,0.09 -7.16,3.28 -7.1,7.13 0.06,3.85 3.34,6.9 7.32,6.81z"/>
   <path class="fil0" d="M690.87 260.17c3.99,-0.09 7.16,-3.28 7.1,-7.14 -0.06,-3.85 -3.34,-6.9 -7.32,-6.81 -3.98,0.09 -7.16,3.28 -7.1,7.13 0.06,3.85 3.34,6.9 7.32,6.81z"/>
   <path class="fil0" d="M711.19 259.72c3.98,-0.09 7.16,-3.28 7.1,-7.14 -0.06,-3.85 -3.34,-6.9 -7.32,-6.81 -3.99,0.09 -7.16,3.28 -7.1,7.13 0.06,3.85 3.33,6.9 7.32,6.81z"/>
   <path class="fil0" d="M731.51 259.26c3.98,-0.09 7.16,-3.28 7.1,-7.14 -0.06,-3.85 -3.34,-6.9 -7.32,-6.81 -3.99,0.09 -7.16,3.28 -7.1,7.13 0.06,3.85 3.34,6.9 7.32,6.81z"/>
   <path class="fil0" d="M751.82 258.81c3.98,-0.09 7.16,-3.28 7.1,-7.14 -0.06,-3.85 -3.34,-6.9 -7.32,-6.81 -3.98,0.09 -7.16,3.28 -7.1,7.13 0.06,3.85 3.34,6.9 7.32,6.81z"/>
   <path class="fil0" d="M772.14 258.36c3.98,-0.09 7.16,-3.28 7.1,-7.14 -0.06,-3.85 -3.34,-6.9 -7.32,-6.81 -3.99,0.09 -7.16,3.28 -7.1,7.13 0.06,3.85 3.34,6.9 7.32,6.81z"/>
   <path class="fil0" d="M792.46 257.9c3.98,-0.09 7.16,-3.28 7.1,-7.14 -0.06,-3.85 -3.34,-6.9 -7.32,-6.81 -3.98,0.09 -7.16,3.28 -7.1,7.13 0.06,3.85 3.34,6.9 7.32,6.81z"/>
   <path class="fil0" d="M812.77 257.45c3.98,-0.09 7.16,-3.28 7.1,-7.14 -0.06,-3.85 -3.34,-6.9 -7.32,-6.81 -3.99,0.09 -7.16,3.28 -7.1,7.13 0.06,3.85 3.34,6.9 7.32,6.81z"/>
   <path class="fil0" d="M833.09 257c3.98,-0.09 7.16,-3.28 7.1,-7.14 -0.06,-3.85 -3.34,-6.9 -7.32,-6.81 -3.99,0.09 -7.16,3.28 -7.1,7.13 0.06,3.85 3.34,6.9 7.32,6.81z"/>
   <path class="fil0" d="M853.41 256.54c3.98,-0.09 7.16,-3.28 7.1,-7.13 -0.06,-3.85 -3.34,-6.9 -7.32,-6.81 -3.98,0.09 -7.16,3.28 -7.1,7.13 0.06,3.85 3.33,6.9 7.32,6.81z"/>
   <path class="fil0" d="M873.73 256.09c3.98,-0.09 7.16,-3.28 7.1,-7.13 -0.06,-3.85 -3.34,-6.9 -7.32,-6.81 -3.99,0.09 -7.16,3.28 -7.1,7.13 0.06,3.85 3.34,6.9 7.32,6.81z"/>
   <path class="fil0" d="M203.57 290.69c3.98,-0.09 7.16,-3.28 7.1,-7.13 -0.06,-3.85 -3.34,-6.9 -7.32,-6.81 -3.99,0.09 -7.16,3.28 -7.1,7.14 0.06,3.85 3.34,6.9 7.32,6.81z"/>
   <path class="fil0" d="M223.89 290.24c3.98,-0.09 7.16,-3.28 7.1,-7.13 -0.06,-3.85 -3.34,-6.9 -7.32,-6.81 -3.98,0.09 -7.16,3.28 -7.1,7.14 0.06,3.85 3.34,6.9 7.32,6.81z"/>
   <path class="fil0" d="M244.2 289.78c3.98,-0.09 7.16,-3.28 7.1,-7.13 -0.06,-3.85 -3.34,-6.9 -7.32,-6.81 -3.98,0.09 -7.16,3.28 -7.1,7.14 0.06,3.85 3.34,6.9 7.32,6.81z"/>
   <path class="fil0" d="M264.52 289.33c3.98,-0.09 7.16,-3.28 7.1,-7.13 -0.06,-3.85 -3.34,-6.9 -7.32,-6.81 -3.98,0.09 -7.16,3.28 -7.1,7.14 0.06,3.85 3.34,6.9 7.32,6.81z"/>
   <path class="fil0" d="M284.84 288.88c3.98,-0.09 7.16,-3.28 7.1,-7.13 -0.06,-3.85 -3.34,-6.9 -7.32,-6.81 -3.98,0.09 -7.16,3.28 -7.1,7.14 0.06,3.85 3.33,6.9 7.32,6.81z"/>
   <path class="fil0" d="M305.15 288.42c3.98,-0.09 7.16,-3.28 7.1,-7.13 -0.06,-3.85 -3.34,-6.9 -7.32,-6.81 -3.98,0.09 -7.16,3.28 -7.1,7.14 0.06,3.85 3.34,6.9 7.32,6.81z"/>
   <path class="fil0" d="M325.47 287.97c3.98,-0.09 7.16,-3.28 7.1,-7.13 -0.06,-3.85 -3.34,-6.9 -7.32,-6.81 -3.98,0.09 -7.16,3.28 -7.1,7.13 0.06,3.85 3.34,6.9 7.32,6.81z"/>
   <path class="fil0" d="M345.79 287.52c3.98,-0.09 7.16,-3.28 7.1,-7.13 -0.06,-3.85 -3.34,-6.9 -7.32,-6.81 -3.98,0.09 -7.16,3.28 -7.1,7.13 0.06,3.85 3.33,6.9 7.32,6.81z"/>
   <path class="fil0" d="M366.11 287.06c3.98,-0.09 7.16,-3.28 7.1,-7.13 -0.06,-3.85 -3.34,-6.9 -7.32,-6.81 -3.98,0.09 -7.16,3.28 -7.1,7.13 0.06,3.85 3.34,6.9 7.32,6.81z"/>
   <path class="fil0" d="M386.42 286.61c3.98,-0.09 7.16,-3.28 7.1,-7.13 -0.06,-3.85 -3.34,-6.9 -7.32,-6.81 -3.98,0.09 -7.16,3.28 -7.1,7.14 0.06,3.85 3.34,6.9 7.32,6.81z"/>
   <path class="fil0" d="M406.74 286.16c3.98,-0.09 7.16,-3.28 7.1,-7.13 -0.06,-3.85 -3.34,-6.9 -7.32,-6.81 -3.98,0.09 -7.16,3.28 -7.1,7.14 0.06,3.85 3.34,6.9 7.32,6.81z"/>
   <path class="fil0" d="M406.74 267.74c3.98,-0.09 7.16,-3.28 7.1,-7.13 -0.06,-3.85 -3.34,-6.9 -7.32,-6.81 -3.98,0.09 -7.16,3.28 -7.1,7.14 0.06,3.85 3.34,6.9 7.32,6.81z"/>
   <path class="fil0" d="M427.06 285.71c3.98,-0.09 7.16,-3.28 7.1,-7.13 -0.06,-3.85 -3.34,-6.9 -7.32,-6.81 -3.98,0.09 -7.16,3.28 -7.1,7.14 0.06,3.85 3.34,6.9 7.32,6.81z"/>
   <path class="fil0" d="M447.37 285.25c3.98,-0.09 7.16,-3.28 7.1,-7.13 -0.06,-3.85 -3.34,-6.9 -7.32,-6.81 -3.98,0.09 -7.16,3.28 -7.1,7.14 0.06,3.85 3.34,6.9 7.32,6.81z"/>
   <path class="fil0" d="M467.69 284.8c3.98,-0.09 7.16,-3.28 7.1,-7.13 -0.06,-3.85 -3.33,-6.9 -7.32,-6.81 -3.98,0.09 -7.16,3.28 -7.1,7.14 0.06,3.85 3.34,6.9 7.32,6.81z"/>
   <path class="fil0" d="M488.01 284.35c3.98,-0.09 7.16,-3.28 7.1,-7.13 -0.06,-3.85 -3.34,-6.9 -7.32,-6.81 -3.98,0.09 -7.16,3.28 -7.1,7.14 0.06,3.85 3.34,6.9 7.32,6.81z"/>
   <path class="fil0" d="M508.32 283.89c3.98,-0.09 7.16,-3.28 7.1,-7.13 -0.06,-3.85 -3.34,-6.9 -7.32,-6.81 -3.98,0.09 -7.16,3.28 -7.1,7.14 0.06,3.85 3.34,6.9 7.32,6.81z"/>
   <path class="fil0" d="M528.64 283.44c3.98,-0.09 7.16,-3.28 7.1,-7.13 -0.06,-3.85 -3.34,-6.9 -7.32,-6.81 -3.98,0.09 -7.16,3.28 -7.1,7.13 0.06,3.85 3.34,6.9 7.32,6.81z"/>
   <path class="fil0" d="M548.96 282.99c3.98,-0.09 7.16,-3.28 7.1,-7.13 -0.06,-3.85 -3.34,-6.9 -7.32,-6.81 -3.98,0.09 -7.16,3.28 -7.1,7.13 0.06,3.85 3.34,6.9 7.32,6.81z"/>
   <path class="fil0" d="M569.27 282.53c3.99,-0.09 7.16,-3.28 7.1,-7.13 -0.06,-3.85 -3.33,-6.9 -7.32,-6.81 -3.98,0.09 -7.16,3.28 -7.1,7.13 0.06,3.85 3.33,6.9 7.32,6.81z"/>
   <path class="fil0" d="M589.59 282.08c3.98,-0.09 7.16,-3.28 7.1,-7.13 -0.06,-3.85 -3.34,-6.9 -7.32,-6.81 -3.98,0.09 -7.16,3.28 -7.1,7.14 0.06,3.85 3.34,6.9 7.32,6.81z"/>
   <path class="fil0" d="M609.91 281.63c3.99,-0.09 7.16,-3.28 7.1,-7.13 -0.06,-3.85 -3.34,-6.9 -7.32,-6.81 -3.98,0.09 -7.16,3.28 -7.1,7.14 0.06,3.85 3.34,6.9 7.32,6.81z"/>
   <path class="fil0" d="M630.23 281.18c3.98,-0.09 7.16,-3.28 7.1,-7.13 -0.06,-3.85 -3.34,-6.9 -7.32,-6.81 -3.98,0.09 -7.16,3.28 -7.1,7.14 0.06,3.85 3.34,6.9 7.32,6.81z"/>
   <path class="fil0" d="M650.54 280.72c3.99,-0.09 7.16,-3.28 7.1,-7.13 -0.06,-3.85 -3.34,-6.9 -7.32,-6.81 -3.98,0.09 -7.16,3.28 -7.1,7.14 0.06,3.85 3.34,6.9 7.32,6.81z"/>
   <path class="fil0" d="M670.86 280.27c3.98,-0.09 7.16,-3.28 7.1,-7.13 -0.06,-3.85 -3.34,-6.9 -7.32,-6.81 -3.98,0.09 -7.16,3.28 -7.1,7.14 0.06,3.85 3.34,6.9 7.32,6.81z"/>
   <path class="fil0" d="M691.18 279.82c3.99,-0.09 7.16,-3.28 7.1,-7.13 -0.06,-3.85 -3.34,-6.9 -7.32,-6.81 -3.98,0.09 -7.16,3.28 -7.1,7.14 0.06,3.85 3.34,6.9 7.32,6.81z"/>
   <path class="fil0" d="M711.49 279.36c3.99,-0.09 7.16,-3.28 7.1,-7.13 -0.06,-3.85 -3.34,-6.9 -7.32,-6.81 -3.98,0.09 -7.16,3.28 -7.1,7.14 0.06,3.85 3.33,6.9 7.32,6.81z"/>
   <path class="fil0" d="M731.81 278.91c3.98,-0.09 7.16,-3.28 7.1,-7.13 -0.06,-3.85 -3.34,-6.9 -7.32,-6.81 -3.98,0.09 -7.16,3.28 -7.1,7.14 0.06,3.85 3.34,6.9 7.32,6.81z"/>
   <path class="fil0" d="M752.13 278.46c3.99,-0.09 7.16,-3.28 7.1,-7.13 -0.06,-3.85 -3.34,-6.9 -7.32,-6.81 -3.98,0.09 -7.16,3.28 -7.1,7.13 0.06,3.85 3.34,6.9 7.32,6.81z"/>
   <path class="fil0" d="M772.45 278c3.98,-0.09 7.16,-3.28 7.1,-7.13 -0.06,-3.85 -3.34,-6.9 -7.32,-6.81 -3.98,0.09 -7.16,3.28 -7.1,7.13 0.06,3.85 3.34,6.9 7.32,6.81z"/>
   <path class="fil0" d="M792.76 277.55c3.99,-0.09 7.16,-3.28 7.1,-7.13 -0.06,-3.85 -3.34,-6.9 -7.32,-6.81 -3.98,0.09 -7.16,3.28 -7.1,7.13 0.06,3.85 3.34,6.9 7.32,6.81z"/>
   <path class="fil0" d="M813.08 277.1c3.98,-0.09 7.16,-3.28 7.1,-7.13 -0.06,-3.85 -3.34,-6.9 -7.32,-6.81 -3.98,0.09 -7.16,3.28 -7.1,7.14 0.06,3.85 3.34,6.9 7.32,6.81z"/>
   <path class="fil0" d="M833.4 276.65c3.98,-0.09 7.16,-3.28 7.1,-7.13 -0.06,-3.85 -3.34,-6.9 -7.32,-6.81 -3.98,0.09 -7.16,3.28 -7.1,7.14 0.06,3.85 3.34,6.9 7.32,6.81z"/>
   <path class="fil0" d="M853.71 276.19c3.98,-0.09 7.16,-3.28 7.1,-7.13 -0.06,-3.85 -3.34,-6.9 -7.32,-6.81 -3.98,0.09 -7.16,3.28 -7.1,7.14 0.06,3.85 3.33,6.9 7.32,6.81z"/>
   <path class="fil0" d="M203.87 310.34c3.98,-0.09 7.16,-3.28 7.1,-7.13 -0.06,-3.85 -3.34,-6.9 -7.32,-6.81 -3.98,0.09 -7.16,3.28 -7.1,7.14 0.06,3.85 3.34,6.9 7.32,6.81z"/>
   <path class="fil0" d="M224.19 309.89c3.98,-0.09 7.16,-3.28 7.1,-7.13 -0.06,-3.85 -3.33,-6.9 -7.32,-6.81 -3.98,0.09 -7.16,3.28 -7.1,7.14 0.06,3.85 3.34,6.9 7.32,6.81z"/>
   <path class="fil0" d="M244.51 309.43c3.98,-0.09 7.16,-3.28 7.1,-7.13 -0.06,-3.85 -3.34,-6.9 -7.32,-6.81 -3.98,0.09 -7.16,3.28 -7.1,7.14 0.06,3.85 3.34,6.9 7.32,6.81z"/>
   <path class="fil0" d="M264.83 308.98c3.98,-0.09 7.16,-3.28 7.1,-7.13 -0.06,-3.85 -3.34,-6.9 -7.32,-6.81 -3.98,0.09 -7.16,3.29 -7.1,7.14 0.06,3.85 3.34,6.9 7.32,6.81z"/>
   <path class="fil0" d="M285.14 308.53c3.98,-0.09 7.16,-3.28 7.1,-7.13 -0.06,-3.85 -3.34,-6.9 -7.32,-6.81 -3.98,0.09 -7.16,3.28 -7.1,7.13 0.06,3.85 3.34,6.9 7.32,6.81z"/>
   <path class="fil0" d="M305.46 308.07c3.98,-0.09 7.16,-3.28 7.1,-7.13 -0.06,-3.85 -3.34,-6.9 -7.32,-6.81 -3.98,0.09 -7.16,3.28 -7.1,7.13 0.06,3.85 3.34,6.9 7.32,6.81z"/>
   <path class="fil0" d="M325.78 307.62c3.98,-0.09 7.16,-3.28 7.1,-7.13 -0.06,-3.85 -3.34,-6.9 -7.32,-6.81 -3.98,0.09 -7.16,3.28 -7.1,7.14 0.06,3.85 3.34,6.9 7.32,6.81z"/>
   <path class="fil0" d="M346.09 307.17c3.98,-0.09 7.16,-3.28 7.1,-7.13 -0.06,-3.85 -3.34,-6.9 -7.32,-6.81 -3.99,0.09 -7.16,3.28 -7.1,7.14 0.06,3.85 3.34,6.9 7.32,6.81z"/>
   <path class="fil0" d="M366.41 306.72c3.98,-0.09 7.16,-3.28 7.1,-7.13 -0.06,-3.85 -3.34,-6.9 -7.32,-6.81 -3.98,0.09 -7.16,3.28 -7.1,7.14 0.06,3.85 3.34,6.9 7.32,6.81z"/>
   <path class="fil0" d="M386.73 306.26c3.98,-0.09 7.16,-3.28 7.1,-7.13 -0.06,-3.85 -3.34,-6.9 -7.32,-6.81 -3.98,0.09 -7.16,3.28 -7.1,7.14 0.06,3.85 3.34,6.9 7.32,6.81z"/>
   <path class="fil0" d="M407.05 305.81c3.98,-0.09 7.16,-3.28 7.1,-7.13 -0.06,-3.85 -3.34,-6.9 -7.32,-6.81 -3.98,0.09 -7.16,3.28 -7.1,7.14 0.06,3.85 3.34,6.9 7.32,6.81z"/>
   <path class="fil0" d="M427.36 305.36c3.98,-0.09 7.16,-3.28 7.1,-7.13 -0.06,-3.85 -3.34,-6.9 -7.32,-6.81 -3.98,0.09 -7.16,3.28 -7.1,7.14 0.06,3.85 3.34,6.9 7.32,6.81z"/>
   <path class="fil0" d="M447.68 304.9c3.98,-0.09 7.16,-3.28 7.1,-7.13 -0.06,-3.85 -3.34,-6.9 -7.32,-6.81 -3.98,0.09 -7.16,3.28 -7.1,7.14 0.06,3.85 3.34,6.9 7.32,6.81z"/>
   <path class="fil0" d="M468 304.45c3.98,-0.09 7.16,-3.28 7.1,-7.13 -0.06,-3.85 -3.34,-6.9 -7.32,-6.81 -3.98,0.09 -7.16,3.28 -7.1,7.14 0.06,3.85 3.34,6.9 7.32,6.81z"/>
   <path class="fil0" d="M488.31 304c3.98,-0.09 7.16,-3.28 7.1,-7.13 -0.06,-3.85 -3.34,-6.9 -7.32,-6.81 -3.99,0.09 -7.16,3.28 -7.1,7.13 0.06,3.85 3.34,6.9 7.32,6.81z"/>
   <path class="fil0" d="M508.63 303.54c3.98,-0.09 7.16,-3.28 7.1,-7.13 -0.06,-3.85 -3.34,-6.9 -7.32,-6.81 -3.98,0.09 -7.16,3.28 -7.1,7.13 0.06,3.85 3.34,6.9 7.32,6.81z"/>
   <path class="fil0" d="M528.95 303.09c3.98,-0.09 7.16,-3.28 7.1,-7.13 -0.06,-3.85 -3.34,-6.9 -7.32,-6.81 -3.99,0.09 -7.16,3.28 -7.1,7.13 0.06,3.85 3.33,6.9 7.32,6.81z"/>
   <path class="fil0" d="M549.26 302.64c3.98,-0.09 7.16,-3.28 7.1,-7.13 -0.06,-3.85 -3.34,-6.9 -7.32,-6.81 -3.98,0.09 -7.16,3.28 -7.1,7.14 0.06,3.85 3.34,6.9 7.32,6.81z"/>
   <path class="fil0" d="M569.58 302.19c3.98,-0.09 7.16,-3.28 7.1,-7.13 -0.06,-3.85 -3.34,-6.9 -7.32,-6.81 -3.98,0.09 -7.16,3.28 -7.1,7.14 0.06,3.85 3.33,6.9 7.32,6.81z"/>
   <path class="fil0" d="M589.9 301.73c3.98,-0.09 7.16,-3.28 7.1,-7.13 -0.06,-3.85 -3.34,-6.9 -7.32,-6.81 -3.98,0.09 -7.16,3.28 -7.1,7.14 0.06,3.85 3.33,6.9 7.32,6.81z"/>
   <path class="fil0" d="M610.22 301.28c3.98,-0.09 7.16,-3.28 7.1,-7.13 -0.06,-3.85 -3.34,-6.9 -7.32,-6.81 -3.98,0.09 -7.16,3.28 -7.1,7.14 0.06,3.85 3.34,6.9 7.32,6.81z"/>
   <path class="fil0" d="M630.53 300.83c3.98,-0.09 7.16,-3.28 7.1,-7.13 -0.06,-3.85 -3.34,-6.9 -7.32,-6.81 -3.98,0.09 -7.16,3.28 -7.1,7.14 0.06,3.85 3.33,6.9 7.32,6.81z"/>
   <path class="fil0" d="M650.85 300.37c3.98,-0.09 7.16,-3.28 7.1,-7.13 -0.06,-3.85 -3.34,-6.9 -7.32,-6.81 -3.98,0.09 -7.16,3.28 -7.1,7.14 0.06,3.85 3.34,6.9 7.32,6.81z"/>
   <path class="fil0" d="M671.17 299.92c3.98,-0.09 7.16,-3.28 7.1,-7.13 -0.06,-3.85 -3.34,-6.9 -7.32,-6.81 -3.98,0.09 -7.16,3.28 -7.1,7.14 0.06,3.85 3.34,6.9 7.32,6.81z"/>
   <path class="fil0" d="M691.48 299.47c3.98,-0.09 7.16,-3.28 7.1,-7.13 -0.06,-3.85 -3.34,-6.9 -7.32,-6.81 -3.98,0.09 -7.16,3.28 -7.1,7.13 0.06,3.85 3.34,6.9 7.32,6.81z"/>
   <path class="fil0" d="M711.8 299.01c3.98,-0.09 7.16,-3.28 7.1,-7.13 -0.06,-3.85 -3.34,-6.9 -7.32,-6.81 -3.98,0.09 -7.16,3.28 -7.1,7.13 0.06,3.85 3.33,6.9 7.32,6.81z"/>
   <path class="fil0" d="M732.12 298.56c3.98,-0.09 7.16,-3.28 7.1,-7.13 -0.06,-3.85 -3.34,-6.9 -7.32,-6.81 -3.98,0.09 -7.16,3.28 -7.1,7.13 0.06,3.85 3.34,6.9 7.32,6.81z"/>
   <path class="fil0" d="M752.44 298.11c3.98,-0.09 7.16,-3.28 7.1,-7.13 -0.06,-3.85 -3.34,-6.9 -7.32,-6.81 -3.98,0.09 -7.16,3.28 -7.1,7.14 0.06,3.85 3.34,6.9 7.32,6.81z"/>
   <path class="fil0" d="M772.75 297.66c3.98,-0.09 7.16,-3.28 7.1,-7.13 -0.06,-3.85 -3.34,-6.9 -7.32,-6.81 -3.98,0.09 -7.16,3.28 -7.1,7.14 0.06,3.85 3.34,6.9 7.32,6.81z"/>
   <path class="fil0" d="M793.07 297.2c3.98,-0.09 7.16,-3.28 7.1,-7.13 -0.06,-3.85 -3.34,-6.9 -7.32,-6.81 -3.98,0.09 -7.16,3.28 -7.1,7.14 0.06,3.85 3.34,6.9 7.32,6.81z"/>
   <path class="fil0" d="M204.18 329.99c3.98,-0.09 7.16,-3.28 7.1,-7.13 -0.06,-3.85 -3.34,-6.9 -7.32,-6.81 -3.98,0.09 -7.16,3.28 -7.1,7.13 0.06,3.85 3.34,6.9 7.32,6.81z"/>
   <path class="fil0" d="M224.5 329.54c3.98,-0.09 7.16,-3.28 7.1,-7.13 -0.06,-3.85 -3.34,-6.9 -7.32,-6.81 -3.98,0.09 -7.16,3.28 -7.1,7.14 0.06,3.85 3.34,6.9 7.32,6.81z"/>
   <path class="fil0" d="M244.82 329.08c3.98,-0.09 7.16,-3.28 7.1,-7.13 -0.06,-3.85 -3.34,-6.9 -7.32,-6.81 -3.98,0.09 -7.16,3.28 -7.1,7.14 0.06,3.85 3.34,6.9 7.32,6.81z"/>
   <path class="fil0" d="M265.13 328.63c3.98,-0.09 7.16,-3.28 7.1,-7.13 -0.06,-3.85 -3.34,-6.9 -7.32,-6.81 -3.98,0.09 -7.16,3.28 -7.1,7.14 0.06,3.85 3.34,6.9 7.32,6.81z"/>
   <path class="fil0" d="M285.45 328.18c3.98,-0.09 7.16,-3.28 7.1,-7.13 -0.06,-3.85 -3.34,-6.9 -7.32,-6.81 -3.98,0.09 -7.16,3.28 -7.1,7.14 0.06,3.85 3.34,6.9 7.32,6.81z"/>
   <path class="fil0" d="M305.76 327.72c3.98,-0.09 7.16,-3.28 7.1,-7.13 -0.06,-3.85 -3.34,-6.9 -7.32,-6.81 -3.98,0.09 -7.16,3.28 -7.1,7.14 0.06,3.85 3.34,6.9 7.32,6.81z"/>
   <path class="fil0" d="M326.08 327.27c3.99,-0.09 7.16,-3.28 7.1,-7.13 -0.06,-3.85 -3.34,-6.9 -7.32,-6.81 -3.98,0.09 -7.16,3.28 -7.1,7.14 0.06,3.85 3.34,6.9 7.32,6.81z"/>
   <path class="fil0" d="M346.4 326.82c3.98,-0.09 7.16,-3.28 7.1,-7.13 -0.06,-3.85 -3.33,-6.9 -7.32,-6.81 -3.98,0.09 -7.16,3.28 -7.1,7.14 0.06,3.85 3.34,6.9 7.32,6.81z"/>
   <path class="fil0" d="M366.72 326.37c3.98,-0.09 7.16,-3.28 7.1,-7.13 -0.06,-3.85 -3.33,-6.9 -7.32,-6.81 -3.98,0.09 -7.16,3.28 -7.1,7.14 0.06,3.85 3.34,6.9 7.32,6.81z"/>
   <path class="fil0" d="M387.03 325.91c3.98,-0.09 7.16,-3.28 7.1,-7.13 -0.06,-3.85 -3.33,-6.9 -7.32,-6.81 -3.98,0.09 -7.16,3.28 -7.1,7.13 0.06,3.85 3.34,6.9 7.32,6.81z"/>
   <path class="fil0" d="M407.35 325.46c3.98,-0.09 7.16,-3.28 7.1,-7.13 -0.06,-3.85 -3.34,-6.9 -7.32,-6.81 -3.98,0.09 -7.16,3.28 -7.1,7.13 0.06,3.85 3.34,6.9 7.32,6.81z"/>
   <path class="fil0" d="M427.67 325.01c3.98,-0.09 7.16,-3.28 7.1,-7.13 -0.06,-3.85 -3.34,-6.9 -7.32,-6.81 -3.98,0.09 -7.16,3.28 -7.1,7.14 0.06,3.85 3.34,6.9 7.32,6.81z"/>
   <path class="fil0" d="M447.98 324.55c3.98,-0.09 7.16,-3.28 7.1,-7.13 -0.06,-3.85 -3.34,-6.9 -7.32,-6.81 -3.98,0.09 -7.16,3.28 -7.1,7.14 0.06,3.85 3.34,6.9 7.32,6.81z"/>
   <path class="fil0" d="M468.3 324.1c3.99,-0.09 7.16,-3.28 7.1,-7.13 -0.06,-3.85 -3.34,-6.9 -7.32,-6.81 -3.98,0.09 -7.16,3.28 -7.1,7.14 0.06,3.85 3.34,6.9 7.32,6.81z"/>
   <path class="fil0" d="M488.62 323.65c3.98,-0.09 7.16,-3.28 7.1,-7.13 -0.06,-3.85 -3.34,-6.9 -7.32,-6.81 -3.98,0.09 -7.16,3.28 -7.1,7.14 0.06,3.85 3.34,6.9 7.32,6.81z"/>
   <path class="fil0" d="M508.94 323.19c3.99,-0.09 7.16,-3.28 7.1,-7.13 -0.06,-3.85 -3.34,-6.9 -7.32,-6.81 -3.98,0.09 -7.16,3.28 -7.1,7.14 0.06,3.85 3.34,6.9 7.32,6.81z"/>
   <path class="fil0" d="M529.25 322.74c3.98,-0.09 7.16,-3.28 7.1,-7.13 -0.06,-3.85 -3.34,-6.9 -7.32,-6.81 -3.98,0.09 -7.16,3.28 -7.1,7.14 0.06,3.85 3.34,6.9 7.32,6.81z"/>
   <path class="fil0" d="M549.57 322.29c3.99,-0.09 7.16,-3.28 7.1,-7.13 -0.06,-3.85 -3.34,-6.9 -7.32,-6.81 -3.98,0.09 -7.16,3.28 -7.1,7.14 0.06,3.85 3.34,6.9 7.32,6.81z"/>
   <path class="fil0" d="M569.89 321.84c3.98,-0.09 7.16,-3.28 7.1,-7.13 -0.06,-3.85 -3.34,-6.9 -7.32,-6.81 -3.99,0.09 -7.16,3.28 -7.1,7.14 0.06,3.85 3.33,6.9 7.32,6.81z"/>
   <path class="fil0" d="M590.21 321.38c3.98,-0.09 7.16,-3.28 7.1,-7.13 -0.06,-3.85 -3.34,-6.9 -7.32,-6.81 -3.99,0.09 -7.16,3.28 -7.1,7.13 0.06,3.85 3.34,6.9 7.32,6.81z"/>
   <path class="fil0" d="M610.52 320.93c3.98,-0.09 7.16,-3.28 7.1,-7.13 -0.06,-3.85 -3.34,-6.9 -7.32,-6.81 -3.98,0.09 -7.16,3.28 -7.1,7.13 0.06,3.85 3.34,6.9 7.32,6.81z"/>
   <path class="fil0" d="M630.84 320.48c3.98,-0.09 7.16,-3.28 7.1,-7.13 -0.06,-3.85 -3.34,-6.9 -7.32,-6.81 -3.99,0.09 -7.16,3.28 -7.1,7.13 0.06,3.85 3.34,6.9 7.32,6.81z"/>
   <path class="fil0" d="M651.16 320.02c3.98,-0.09 7.16,-3.28 7.1,-7.13 -0.06,-3.85 -3.34,-6.9 -7.32,-6.81 -3.98,0.09 -7.16,3.28 -7.1,7.14 0.06,3.85 3.34,6.9 7.32,6.81z"/>
   <path class="fil0" d="M671.47 319.57c3.98,-0.09 7.16,-3.28 7.1,-7.13 -0.06,-3.85 -3.34,-6.9 -7.32,-6.81 -3.99,0.09 -7.16,3.28 -7.1,7.14 0.06,3.85 3.34,6.9 7.32,6.81z"/>
   <path class="fil0" d="M691.79 319.12c3.98,-0.09 7.16,-3.28 7.1,-7.13 -0.06,-3.85 -3.34,-6.9 -7.32,-6.81 -3.98,0.09 -7.16,3.28 -7.1,7.14 0.06,3.85 3.34,6.9 7.32,6.81z"/>
   <path class="fil0" d="M712.11 318.67c3.98,-0.09 7.16,-3.28 7.1,-7.13 -0.06,-3.85 -3.34,-6.9 -7.32,-6.81 -3.99,0.09 -7.16,3.28 -7.1,7.14 0.06,3.85 3.33,6.9 7.32,6.81z"/>
   <path class="fil0" d="M732.43 318.21c3.98,-0.09 7.16,-3.28 7.1,-7.13 -0.06,-3.85 -3.34,-6.9 -7.32,-6.81 -3.99,0.09 -7.16,3.28 -7.1,7.14 0.06,3.85 3.34,6.9 7.32,6.81z"/>
   <path class="fil0" d="M752.74 317.76c3.98,-0.09 7.16,-3.28 7.1,-7.13 -0.06,-3.85 -3.34,-6.9 -7.32,-6.81 -3.98,0.09 -7.16,3.28 -7.1,7.14 0.06,3.85 3.34,6.9 7.32,6.81z"/>
   <path class="fil0" d="M773.06 317.31c3.98,-0.09 7.16,-3.28 7.1,-7.13 -0.06,-3.85 -3.34,-6.9 -7.32,-6.81 -3.99,0.09 -7.16,3.28 -7.1,7.14 0.06,3.85 3.34,6.9 7.32,6.81z"/>
   <path class="fil0" d="M204.49 349.64c3.98,-0.09 7.16,-3.28 7.1,-7.14 -0.06,-3.85 -3.34,-6.9 -7.32,-6.81 -3.98,0.09 -7.16,3.28 -7.1,7.14 0.06,3.85 3.33,6.9 7.32,6.81z"/>
   <path class="fil0" d="M224.81 349.19c3.98,-0.09 7.16,-3.28 7.1,-7.14 -0.06,-3.85 -3.34,-6.9 -7.32,-6.81 -3.98,0.09 -7.16,3.28 -7.1,7.13 0.06,3.85 3.34,6.9 7.32,6.81z"/>
   <path class="fil0" d="M245.12 348.73c3.98,-0.09 7.16,-3.28 7.1,-7.14 -0.06,-3.85 -3.34,-6.9 -7.32,-6.81 -3.98,0.09 -7.16,3.28 -7.1,7.13 0.06,3.85 3.34,6.9 7.32,6.81z"/>
   <path class="fil0" d="M265.44 348.28c3.98,-0.09 7.16,-3.28 7.1,-7.14 -0.06,-3.85 -3.34,-6.9 -7.32,-6.81 -3.98,0.09 -7.16,3.28 -7.1,7.13 0.06,3.85 3.34,6.9 7.32,6.81z"/>
   <path class="fil0" d="M285.76 347.83c3.98,-0.09 7.16,-3.28 7.1,-7.13 -0.06,-3.85 -3.34,-6.9 -7.32,-6.81 -3.98,0.09 -7.16,3.28 -7.1,7.14 0.06,3.85 3.34,6.9 7.32,6.81z"/>
   <path class="fil0" d="M306.07 347.37c3.98,-0.09 7.16,-3.28 7.1,-7.13 -0.06,-3.85 -3.34,-6.9 -7.32,-6.81 -3.98,0.09 -7.16,3.28 -7.1,7.14 0.06,3.85 3.34,6.9 7.32,6.81z"/>
   <path class="fil0" d="M326.39 346.92c3.98,-0.09 7.16,-3.28 7.1,-7.13 -0.06,-3.85 -3.33,-6.9 -7.32,-6.81 -3.98,0.09 -7.16,3.28 -7.1,7.14 0.06,3.85 3.34,6.9 7.32,6.81z"/>
   <path class="fil0" d="M346.71 346.47c3.98,-0.09 7.16,-3.28 7.1,-7.14 -0.06,-3.85 -3.34,-6.9 -7.32,-6.81 -3.98,0.09 -7.16,3.28 -7.1,7.14 0.06,3.85 3.34,6.9 7.32,6.81z"/>
   <path class="fil0" d="M367.03 346.02c3.98,-0.09 7.16,-3.28 7.1,-7.14 -0.06,-3.85 -3.34,-6.9 -7.32,-6.81 -3.98,0.09 -7.16,3.28 -7.1,7.14 0.06,3.85 3.34,6.9 7.32,6.81z"/>
   <path class="fil0" d="M387.34 345.56c3.98,-0.09 7.16,-3.28 7.1,-7.14 -0.06,-3.85 -3.34,-6.9 -7.32,-6.81 -3.98,0.09 -7.16,3.28 -7.1,7.14 0.06,3.85 3.34,6.9 7.32,6.81z"/>
   <path class="fil0" d="M407.66 345.11c3.98,-0.09 7.16,-3.28 7.1,-7.14 -0.06,-3.85 -3.34,-6.9 -7.32,-6.81 -3.98,0.09 -7.16,3.28 -7.1,7.14 0.06,3.85 3.34,6.9 7.32,6.81z"/>
   <path class="fil0" d="M427.97 344.66c3.98,-0.09 7.16,-3.28 7.1,-7.14 -0.06,-3.85 -3.34,-6.9 -7.32,-6.81 -3.98,0.09 -7.16,3.28 -7.1,7.14 0.06,3.85 3.34,6.9 7.32,6.81z"/>
   <path class="fil0" d="M448.29 344.2c3.98,-0.09 7.16,-3.28 7.1,-7.14 -0.06,-3.85 -3.34,-6.9 -7.32,-6.81 -3.98,0.09 -7.16,3.28 -7.1,7.13 0.06,3.85 3.34,6.9 7.32,6.81z"/>
   <path class="fil0" d="M468.61 343.75c3.99,-0.09 7.16,-3.28 7.1,-7.14 -0.06,-3.85 -3.34,-6.9 -7.32,-6.81 -3.98,0.09 -7.16,3.28 -7.1,7.13 0.06,3.85 3.34,6.9 7.32,6.81z"/>
   <path class="fil0" d="M488.93 343.3c3.98,-0.09 7.16,-3.28 7.1,-7.14 -0.06,-3.85 -3.34,-6.9 -7.32,-6.81 -3.98,0.09 -7.16,3.28 -7.1,7.14 0.06,3.85 3.34,6.9 7.32,6.81z"/>
   <path class="fil0" d="M509.24 342.84c3.99,-0.09 7.16,-3.28 7.1,-7.13 -0.06,-3.85 -3.34,-6.9 -7.32,-6.81 -3.98,0.09 -7.16,3.28 -7.1,7.14 0.06,3.85 3.34,6.9 7.32,6.81z"/>
   <path class="fil0" d="M529.56 342.39c3.98,-0.09 7.16,-3.28 7.1,-7.13 -0.06,-3.85 -3.34,-6.9 -7.32,-6.81 -3.98,0.09 -7.16,3.28 -7.1,7.14 0.06,3.85 3.34,6.9 7.32,6.81z"/>
   <path class="fil0" d="M549.88 341.94c3.99,-0.09 7.16,-3.28 7.1,-7.14 -0.06,-3.85 -3.34,-6.9 -7.32,-6.81 -3.98,0.09 -7.16,3.28 -7.1,7.14 0.06,3.85 3.34,6.9 7.32,6.81z"/>
   <path class="fil0" d="M570.19 341.49c3.99,-0.09 7.16,-3.28 7.1,-7.14 -0.06,-3.85 -3.34,-6.9 -7.32,-6.81 -3.98,0.09 -7.16,3.28 -7.1,7.14 0.06,3.85 3.33,6.9 7.32,6.81z"/>
   <path class="fil0" d="M590.51 341.03c3.98,-0.09 7.16,-3.28 7.1,-7.14 -0.06,-3.85 -3.34,-6.9 -7.32,-6.81 -3.98,0.09 -7.16,3.28 -7.1,7.14 0.06,3.85 3.34,6.9 7.32,6.81z"/>
   <path class="fil0" d="M610.83 340.58c3.99,-0.09 7.16,-3.28 7.1,-7.14 -0.06,-3.85 -3.34,-6.9 -7.32,-6.81 -3.98,0.09 -7.16,3.28 -7.1,7.14 0.06,3.85 3.34,6.9 7.32,6.81z"/>
   <path class="fil0" d="M631.15 340.13c3.98,-0.09 7.16,-3.28 7.1,-7.14 -0.06,-3.85 -3.34,-6.9 -7.32,-6.81 -3.98,0.09 -7.16,3.28 -7.1,7.14 0.06,3.85 3.34,6.9 7.32,6.81z"/>
   <path class="fil0" d="M651.46 339.67c3.99,-0.09 7.16,-3.28 7.1,-7.14 -0.06,-3.85 -3.34,-6.9 -7.32,-6.81 -3.98,0.09 -7.16,3.28 -7.1,7.13 0.06,3.85 3.34,6.9 7.32,6.81z"/>
   <path class="fil0" d="M671.78 339.22c3.98,-0.09 7.16,-3.28 7.1,-7.14 -0.06,-3.85 -3.34,-6.9 -7.32,-6.81 -3.98,0.09 -7.16,3.28 -7.1,7.13 0.06,3.85 3.34,6.9 7.32,6.81z"/>
   <path class="fil0" d="M692.1 338.77c3.99,-0.09 7.16,-3.28 7.1,-7.14 -0.06,-3.85 -3.34,-6.9 -7.32,-6.81 -3.98,0.09 -7.16,3.28 -7.1,7.13 0.06,3.85 3.34,6.9 7.32,6.81z"/>
   <path class="fil0" d="M712.41 338.32c3.99,-0.09 7.16,-3.28 7.1,-7.13 -0.06,-3.85 -3.34,-6.9 -7.32,-6.81 -3.99,0.09 -7.16,3.28 -7.1,7.14 0.06,3.85 3.33,6.9 7.32,6.81z"/>
   <path class="fil0" d="M732.73 337.86c3.98,-0.09 7.16,-3.28 7.1,-7.13 -0.06,-3.85 -3.34,-6.9 -7.32,-6.81 -3.99,0.09 -7.16,3.28 -7.1,7.14 0.06,3.85 3.34,6.9 7.32,6.81z"/>
   <path class="fil0" d="M753.05 337.41c3.99,-0.09 7.16,-3.28 7.1,-7.13 -0.06,-3.85 -3.34,-6.9 -7.32,-6.81 -3.98,0.09 -7.16,3.28 -7.1,7.14 0.06,3.85 3.34,6.9 7.32,6.81z"/>
   <path class="fil0" d="M773.37 336.96c3.98,-0.09 7.16,-3.28 7.1,-7.14 -0.06,-3.85 -3.34,-6.9 -7.32,-6.81 -3.99,0.09 -7.16,3.28 -7.1,7.14 0.06,3.85 3.34,6.9 7.32,6.81z"/>
   <path class="fil0" d="M204.79 369.29c3.98,-0.09 7.16,-3.28 7.1,-7.13 -0.06,-3.85 -3.34,-6.9 -7.32,-6.81 -3.99,0.09 -7.16,3.28 -7.1,7.14 0.06,3.85 3.34,6.9 7.32,6.81z"/>
   <path class="fil0" d="M225.11 368.83c3.98,-0.09 7.16,-3.28 7.1,-7.13 -0.06,-3.85 -3.34,-6.9 -7.32,-6.81 -3.98,0.09 -7.16,3.28 -7.1,7.14 0.06,3.85 3.34,6.9 7.32,6.81z"/>
   <path class="fil0" d="M245.43 368.38c3.98,-0.09 7.16,-3.28 7.1,-7.14 -0.06,-3.85 -3.34,-6.9 -7.32,-6.81 -3.98,0.09 -7.16,3.28 -7.1,7.14 0.06,3.85 3.34,6.9 7.32,6.81z"/>
   <path class="fil0" d="M265.75 367.93c3.98,-0.09 7.16,-3.28 7.1,-7.14 -0.06,-3.85 -3.34,-6.9 -7.32,-6.81 -3.98,0.09 -7.16,3.28 -7.1,7.14 0.06,3.85 3.34,6.9 7.32,6.81z"/>
   <circle class="fil0" transform="matrix(0.274754 -0.00612545 0.00414508 0.265732 285.954 360.503)" r="26.25"/>
   <path class="fil0" d="M306.38 367.02c3.98,-0.09 7.16,-3.28 7.1,-7.14 -0.06,-3.85 -3.34,-6.9 -7.32,-6.81 -3.98,0.09 -7.16,3.28 -7.1,7.14 0.06,3.85 3.34,6.9 7.32,6.81z"/>
   <path class="fil0" d="M326.7 366.57c3.98,-0.09 7.16,-3.28 7.1,-7.14 -0.06,-3.85 -3.34,-6.9 -7.32,-6.81 -3.98,0.09 -7.16,3.28 -7.1,7.14 0.06,3.85 3.34,6.9 7.32,6.81z"/>
   <path class="fil0" d="M347.01 366.12c3.98,-0.09 7.16,-3.28 7.1,-7.14 -0.06,-3.85 -3.34,-6.9 -7.32,-6.81 -3.99,0.09 -7.16,3.28 -7.1,7.13 0.06,3.85 3.34,6.9 7.32,6.81z"/>
   <path class="fil0" d="M367.33 365.66c3.98,-0.09 7.16,-3.28 7.1,-7.14 -0.06,-3.85 -3.34,-6.9 -7.32,-6.81 -3.98,0.09 -7.16,3.28 -7.1,7.13 0.06,3.85 3.34,6.9 7.32,6.81z"/>
   <path class="fil0" d="M387.65 365.21c3.98,-0.09 7.16,-3.28 7.1,-7.14 -0.06,-3.85 -3.34,-6.9 -7.32,-6.81 -3.98,0.09 -7.16,3.28 -7.1,7.13 0.06,3.85 3.34,6.9 7.32,6.81z"/>
   <path class="fil0" d="M407.96 364.76c3.98,-0.09 7.16,-3.28 7.1,-7.13 -0.06,-3.85 -3.34,-6.9 -7.32,-6.81 -3.98,0.09 -7.16,3.28 -7.1,7.14 0.06,3.85 3.34,6.9 7.32,6.81z"/>
   <circle class="fil0" transform="matrix(0.274754 -0.00612545 0.00414508 0.265732 428.173 357.332)" r="26.25"/>
   <circle class="fil0" transform="matrix(0.274754 -0.00612545 0.00414508 0.265732 448.489 356.879)" r="26.25"/>
   <path class="fil0" d="M468.92 363.4c3.98,-0.09 7.16,-3.28 7.1,-7.14 -0.06,-3.85 -3.34,-6.9 -7.32,-6.81 -3.98,0.09 -7.16,3.28 -7.1,7.14 0.06,3.85 3.34,6.9 7.32,6.81z"/>
   <path class="fil0" d="M489.23 362.95c3.98,-0.09 7.16,-3.28 7.1,-7.14 -0.06,-3.85 -3.34,-6.9 -7.32,-6.81 -3.98,0.09 -7.16,3.28 -7.1,7.14 0.06,3.85 3.33,6.9 7.32,6.81z"/>
   <path class="fil0" d="M509.55 362.49c3.98,-0.09 7.16,-3.28 7.1,-7.14 -0.06,-3.85 -3.34,-6.9 -7.32,-6.81 -3.98,0.09 -7.16,3.28 -7.1,7.14 0.06,3.85 3.34,6.9 7.32,6.81z"/>
   <circle class="fil0" transform="matrix(0.274754 -0.00612545 0.00414508 0.265732 529.758 355.068)" r="26.25"/>
   <path class="fil0" d="M550.18 361.59c3.98,-0.09 7.16,-3.28 7.1,-7.14 -0.06,-3.85 -3.34,-6.9 -7.32,-6.81 -3.98,0.09 -7.16,3.28 -7.1,7.13 0.06,3.85 3.34,6.9 7.32,6.81z"/>
   <ellipse class="fil0" transform="matrix(-0.00334829 -0.26575 0.274766 -0.00535483 570.434 354.187)" rx="26.25" ry="26.24"/>
   <path class="fil0" d="M590.82 360.68c3.98,-0.09 7.16,-3.28 7.1,-7.14 -0.06,-3.85 -3.34,-6.9 -7.32,-6.81 -3.98,0.09 -7.16,3.28 -7.1,7.13 0.06,3.85 3.34,6.9 7.32,6.81z"/>
   <path class="fil0" d="M611.14 360.23c3.98,-0.09 7.16,-3.28 7.1,-7.14 -0.06,-3.85 -3.34,-6.9 -7.32,-6.81 -3.98,0.09 -7.16,3.28 -7.1,7.14 0.06,3.85 3.34,6.9 7.32,6.81z"/>
   <path class="fil0" d="M631.45 359.78c3.98,-0.09 7.16,-3.28 7.1,-7.13 -0.06,-3.85 -3.34,-6.9 -7.32,-6.81 -3.98,0.09 -7.16,3.28 -7.1,7.14 0.06,3.85 3.34,6.9 7.32,6.81z"/>
   <path class="fil0" d="M651.77 359.32c3.98,-0.09 7.16,-3.28 7.1,-7.13 -0.06,-3.85 -3.34,-6.9 -7.32,-6.81 -3.98,0.09 -7.16,3.28 -7.1,7.14 0.06,3.85 3.34,6.9 7.32,6.81z"/>
   <circle class="fil0" transform="matrix(0.274754 -0.00612545 0.00414508 0.265732 671.978 351.897)" r="26.25"/>
   <path class="fil0" d="M692.4 358.42c3.98,-0.09 7.16,-3.28 7.1,-7.14 -0.06,-3.85 -3.34,-6.9 -7.32,-6.81 -3.98,0.09 -7.16,3.28 -7.1,7.14 0.06,3.85 3.34,6.9 7.32,6.81z"/>
   <ellipse class="fil0" transform="matrix(-0.00323839 -0.265752 0.274768 -0.00524854 712.587 350.965)" rx="26.25" ry="26.24"/>
   <path class="fil0" d="M733.04 357.51c3.98,-0.09 7.16,-3.28 7.1,-7.14 -0.06,-3.85 -3.34,-6.9 -7.32,-6.81 -3.98,0.09 -7.16,3.28 -7.1,7.14 0.06,3.85 3.34,6.9 7.32,6.81z"/>
   <path class="fil0" d="M753.35 357.06c3.99,-0.09 7.16,-3.28 7.1,-7.14 -0.06,-3.85 -3.34,-6.9 -7.32,-6.81 -3.98,0.09 -7.16,3.28 -7.1,7.14 0.06,3.85 3.34,6.9 7.32,6.81z"/>
   <path class="fil0" d="M773.67 356.61c3.98,-0.09 7.16,-3.28 7.1,-7.14 -0.06,-3.85 -3.34,-6.9 -7.32,-6.81 -3.98,0.09 -7.16,3.28 -7.1,7.13 0.06,3.85 3.34,6.9 7.32,6.81z"/>
   <path class="fil0" d="M19.88 377.62c3.98,-0.09 7.16,-3.28 7.1,-7.14 -0.06,-3.85 -3.34,-6.9 -7.32,-6.81 -3.98,0.09 -7.16,3.28 -7.1,7.14 0.06,3.85 3.34,6.9 7.32,6.81z"/>
   <circle class="fil0" transform="matrix(0.274754 -0.00612545 0.00414508 0.265732 7.21222 385.594)" r="26.25"/>
   <circle class="fil0" transform="matrix(0.274754 -0.00612545 0.00414508 0.265732 27.5279 385.141)" r="26.25"/>
   <path class="fil0" d="M83.2 391.66c3.98,-0.09 7.16,-3.28 7.1,-7.13 -0.06,-3.85 -3.34,-6.9 -7.32,-6.81 -3.98,0.09 -7.16,3.28 -7.1,7.14 0.06,3.85 3.34,6.9 7.32,6.81z"/>
   <path class="fil0" d="M103.52 391.2c3.98,-0.09 7.16,-3.28 7.1,-7.13 -0.06,-3.85 -3.34,-6.9 -7.32,-6.81 -3.98,0.09 -7.16,3.28 -7.1,7.14 0.06,3.85 3.34,6.9 7.32,6.81z"/>
   <path class="fil0" d="M123.83 390.75c3.98,-0.09 7.16,-3.28 7.1,-7.13 -0.06,-3.85 -3.34,-6.9 -7.32,-6.81 -3.98,0.09 -7.16,3.28 -7.1,7.14 0.06,3.85 3.34,6.9 7.32,6.81z"/>
   <path class="fil0" d="M184.78 389.39c3.99,-0.09 7.16,-3.28 7.1,-7.14 -0.06,-3.85 -3.34,-6.9 -7.32,-6.81 -3.98,0.09 -7.16,3.28 -7.1,7.14 0.06,3.85 3.34,6.9 7.32,6.81z"/>
   <path class="fil0" d="M205.1 388.94c3.98,-0.09 7.16,-3.28 7.1,-7.14 -0.06,-3.85 -3.33,-6.9 -7.32,-6.81 -3.98,0.09 -7.16,3.28 -7.1,7.14 0.06,3.85 3.34,6.9 7.32,6.81z"/>
   <path class="fil0" d="M225.42 388.49c3.98,-0.09 7.16,-3.28 7.1,-7.14 -0.06,-3.85 -3.33,-6.9 -7.32,-6.81 -3.98,0.09 -7.16,3.28 -7.1,7.14 0.06,3.85 3.34,6.9 7.32,6.81z"/>
   <path class="fil0" d="M245.73 388.03c3.98,-0.09 7.16,-3.28 7.1,-7.14 -0.06,-3.85 -3.33,-6.9 -7.32,-6.81 -3.98,0.09 -7.16,3.28 -7.1,7.13 0.06,3.85 3.34,6.9 7.32,6.81z"/>
   <path class="fil0" d="M266.05 387.58c3.98,-0.09 7.16,-3.28 7.1,-7.14 -0.06,-3.85 -3.34,-6.9 -7.32,-6.81 -3.98,0.09 -7.16,3.28 -7.1,7.13 0.06,3.85 3.34,6.9 7.32,6.81z"/>
   <circle class="fil0" transform="matrix(0.274754 -0.00612545 0.00414508 0.265732 286.26 380.152)" r="26.25"/>
   <path class="fil0" d="M306.68 386.67c3.98,-0.09 7.16,-3.28 7.1,-7.13 -0.06,-3.85 -3.34,-6.9 -7.32,-6.81 -3.98,0.09 -7.16,3.28 -7.1,7.14 0.06,3.85 3.34,6.9 7.32,6.81z"/>
   <path class="fil0" d="M327 386.22c3.99,-0.09 7.16,-3.28 7.1,-7.13 -0.06,-3.85 -3.34,-6.9 -7.32,-6.81 -3.98,0.09 -7.16,3.28 -7.1,7.14 0.06,3.85 3.34,6.9 7.32,6.81z"/>
   <path class="fil0" d="M347.32 385.77c3.98,-0.09 7.16,-3.28 7.1,-7.14 -0.06,-3.85 -3.34,-6.9 -7.32,-6.81 -3.98,0.09 -7.16,3.28 -7.1,7.14 0.06,3.85 3.34,6.9 7.32,6.81z"/>
   <path class="fil0" d="M367.64 385.32c3.98,-0.09 7.16,-3.28 7.1,-7.14 -0.06,-3.85 -3.34,-6.9 -7.32,-6.81 -3.98,0.09 -7.16,3.28 -7.1,7.14 0.06,3.85 3.34,6.9 7.32,6.81z"/>
   <path class="fil0" d="M387.95 384.86c3.98,-0.09 7.16,-3.28 7.1,-7.14 -0.06,-3.85 -3.34,-6.9 -7.32,-6.81 -3.98,0.09 -7.16,3.28 -7.1,7.14 0.06,3.85 3.34,6.9 7.32,6.81z"/>
   <path class="fil0" d="M408.27 384.41c3.98,-0.09 7.16,-3.28 7.1,-7.14 -0.06,-3.85 -3.34,-6.9 -7.32,-6.81 -3.98,0.09 -7.16,3.28 -7.1,7.14 0.06,3.85 3.34,6.9 7.32,6.81z"/>
   <circle class="fil0" transform="matrix(0.274754 -0.00612545 0.00414508 0.265732 428.48 376.981)" r="26.25"/>
   <circle class="fil0" transform="matrix(0.274754 -0.00612545 0.00414508 0.265732 448.796 376.528)" r="26.25"/>
   <path class="fil0" d="M469.22 383.05c3.98,-0.09 7.16,-3.28 7.1,-7.14 -0.06,-3.85 -3.34,-6.9 -7.32,-6.81 -3.98,0.09 -7.16,3.28 -7.1,7.13 0.06,3.85 3.34,6.9 7.32,6.81z"/>
   <path class="fil0" d="M489.54 382.6c3.98,-0.09 7.16,-3.28 7.1,-7.14 -0.06,-3.85 -3.34,-6.9 -7.32,-6.81 -3.99,0.09 -7.16,3.28 -7.1,7.13 0.06,3.85 3.34,6.9 7.32,6.81z"/>
   <path class="fil0" d="M509.86 382.14c3.98,-0.09 7.16,-3.28 7.1,-7.13 -0.06,-3.85 -3.34,-6.9 -7.32,-6.81 -3.98,0.09 -7.16,3.28 -7.1,7.14 0.06,3.85 3.34,6.9 7.32,6.81z"/>
   <circle class="fil0" transform="matrix(0.274754 -0.00612545 0.00414508 0.265732 530.065 374.716)" r="26.25"/>
   <path class="fil0" d="M550.49 381.24c3.98,-0.09 7.16,-3.28 7.1,-7.13 -0.06,-3.85 -3.34,-6.9 -7.32,-6.81 -3.98,0.09 -7.16,3.28 -7.1,7.14 0.06,3.85 3.34,6.9 7.32,6.81z"/>
   <ellipse class="fil0" transform="matrix(-0.00334829 -0.26575 0.274766 -0.00535483 570.739 373.837)" rx="26.25" ry="26.24"/>
   <path class="fil0" d="M591.13 380.33c3.98,-0.09 7.16,-3.28 7.1,-7.14 -0.06,-3.85 -3.34,-6.9 -7.32,-6.81 -3.99,0.09 -7.16,3.28 -7.1,7.14 0.06,3.85 3.34,6.9 7.32,6.81z"/>
   <path class="fil0" d="M611.44 379.88c3.98,-0.09 7.16,-3.28 7.1,-7.14 -0.06,-3.85 -3.34,-6.9 -7.32,-6.81 -3.98,0.09 -7.16,3.28 -7.1,7.14 0.06,3.85 3.34,6.9 7.32,6.81z"/>
   <path class="fil0" d="M631.76 379.43c3.98,-0.09 7.16,-3.28 7.1,-7.14 -0.06,-3.85 -3.34,-6.9 -7.32,-6.81 -3.99,0.09 -7.16,3.28 -7.1,7.14 0.06,3.85 3.34,6.9 7.32,6.81z"/>
   <path class="fil0" d="M652.08 378.97c3.98,-0.09 7.16,-3.28 7.1,-7.14 -0.06,-3.85 -3.34,-6.9 -7.32,-6.81 -3.98,0.09 -7.16,3.28 -7.1,7.14 0.06,3.85 3.34,6.9 7.32,6.81z"/>
   <circle class="fil0" transform="matrix(0.274754 -0.00612545 0.00414508 0.265732 672.284 371.545)" r="26.25"/>
   <path class="fil0" d="M692.71 378.07c3.98,-0.09 7.16,-3.28 7.1,-7.14 -0.06,-3.85 -3.34,-6.9 -7.32,-6.81 -3.98,0.09 -7.16,3.28 -7.1,7.13 0.06,3.85 3.34,6.9 7.32,6.81z"/>
   <ellipse class="fil0" transform="matrix(-0.00323839 -0.265752 0.274768 -0.00524854 712.893 370.614)" rx="26.25" ry="26.24"/>
   <path class="fil0" d="M733.35 377.16c3.98,-0.09 7.16,-3.28 7.1,-7.13 -0.06,-3.85 -3.34,-6.9 -7.32,-6.81 -3.98,0.09 -7.16,3.28 -7.1,7.14 0.06,3.85 3.33,6.9 7.32,6.81z"/>
   <path class="fil0" d="M753.66 376.71c3.98,-0.09 7.16,-3.28 7.1,-7.13 -0.06,-3.85 -3.34,-6.9 -7.32,-6.81 -3.98,0.09 -7.16,3.28 -7.1,7.14 0.06,3.85 3.34,6.9 7.32,6.81z"/>
   <path class="fil0" d="M773.98 376.26c3.98,-0.09 7.16,-3.28 7.1,-7.14 -0.06,-3.85 -3.34,-6.9 -7.32,-6.81 -3.98,0.09 -7.16,3.28 -7.1,7.14 0.06,3.85 3.33,6.9 7.32,6.81z"/>
   <path class="fil0" d="M83.51 411.31c3.98,-0.09 7.16,-3.28 7.1,-7.14 -0.06,-3.85 -3.34,-6.9 -7.32,-6.81 -3.98,0.09 -7.16,3.28 -7.1,7.13 0.06,3.85 3.34,6.9 7.32,6.81z"/>
   <path class="fil0" d="M103.82 410.85c3.98,-0.09 7.16,-3.28 7.1,-7.14 -0.06,-3.85 -3.34,-6.9 -7.32,-6.81 -3.98,0.09 -7.16,3.28 -7.1,7.13 0.06,3.85 3.34,6.9 7.32,6.81z"/>
   <path class="fil0" d="M124.14 410.4c3.98,-0.09 7.16,-3.28 7.1,-7.14 -0.06,-3.85 -3.34,-6.9 -7.32,-6.81 -3.98,0.09 -7.16,3.28 -7.1,7.13 0.06,3.85 3.34,6.9 7.32,6.81z"/>
   <path class="fil0" d="M144.46 409.95c3.98,-0.09 7.16,-3.28 7.1,-7.14 -0.06,-3.85 -3.34,-6.9 -7.32,-6.81 -3.98,0.09 -7.16,3.28 -7.1,7.13 0.06,3.85 3.34,6.9 7.32,6.81z"/>
   <path class="fil0" d="M164.77 409.49c3.98,-0.09 7.16,-3.28 7.1,-7.14 -0.06,-3.85 -3.34,-6.9 -7.32,-6.81 -3.98,0.09 -7.16,3.28 -7.1,7.13 0.06,3.85 3.34,6.9 7.32,6.81z"/>
   <path class="fil0" d="M185.09 409.04c3.98,-0.09 7.16,-3.28 7.1,-7.13 -0.06,-3.85 -3.33,-6.9 -7.32,-6.81 -3.98,0.09 -7.16,3.28 -7.1,7.13 0.06,3.85 3.34,6.9 7.32,6.81z"/>
   <path class="fil0" d="M205.41 408.59c3.98,-0.09 7.16,-3.28 7.1,-7.13 -0.06,-3.85 -3.34,-6.9 -7.32,-6.81 -3.98,0.09 -7.16,3.28 -7.1,7.13 0.06,3.85 3.34,6.9 7.32,6.81z"/>
   <path class="fil0" d="M225.73 408.14c3.98,-0.09 7.16,-3.28 7.1,-7.13 -0.06,-3.85 -3.34,-6.9 -7.32,-6.81 -3.98,0.09 -7.16,3.28 -7.1,7.13 0.06,3.85 3.34,6.9 7.32,6.81z"/>
   <path class="fil0" d="M246.04 407.68c3.98,-0.09 7.16,-3.28 7.1,-7.14 -0.06,-3.85 -3.34,-6.9 -7.32,-6.81 -3.98,0.09 -7.16,3.28 -7.1,7.13 0.06,3.85 3.34,6.9 7.32,6.81z"/>
   <path class="fil0" d="M266.36 407.23c3.98,-0.09 7.16,-3.28 7.1,-7.14 -0.06,-3.85 -3.34,-6.9 -7.32,-6.81 -3.98,0.09 -7.16,3.28 -7.1,7.13 0.06,3.85 3.34,6.9 7.32,6.81z"/>
   <path class="fil0" d="M306.99 406.32c3.98,-0.09 7.16,-3.28 7.1,-7.14 -0.06,-3.85 -3.34,-6.9 -7.32,-6.81 -3.98,0.09 -7.16,3.28 -7.1,7.13 0.06,3.85 3.34,6.9 7.32,6.81z"/>
   <path class="fil0" d="M388.26 404.51c3.98,-0.09 7.16,-3.28 7.1,-7.14 -0.06,-3.85 -3.34,-6.9 -7.32,-6.81 -3.98,0.09 -7.16,3.28 -7.1,7.13 0.06,3.85 3.34,6.9 7.32,6.81z"/>
   <path class="fil0" d="M408.58 404.06c3.98,-0.09 7.16,-3.28 7.1,-7.13 -0.06,-3.85 -3.34,-6.9 -7.32,-6.81 -3.98,0.09 -7.16,3.28 -7.1,7.13 0.06,3.85 3.34,6.9 7.32,6.81z"/>
   <path class="fil0" d="M428.89 403.61c3.98,-0.09 7.16,-3.28 7.1,-7.13 -0.06,-3.85 -3.34,-6.9 -7.32,-6.81 -3.98,0.09 -7.16,3.28 -7.1,7.13 0.06,3.85 3.34,6.9 7.32,6.81z"/>
   <path class="fil0" d="M489.85 402.25c3.98,-0.09 7.16,-3.28 7.1,-7.14 -0.06,-3.85 -3.34,-6.9 -7.32,-6.81 -3.98,0.09 -7.16,3.28 -7.1,7.13 0.06,3.85 3.34,6.9 7.32,6.81z"/>
   <path class="fil0" d="M510.16 401.8c3.99,-0.09 7.16,-3.28 7.1,-7.14 -0.06,-3.85 -3.34,-6.9 -7.32,-6.81 -3.98,0.09 -7.16,3.28 -7.1,7.13 0.06,3.85 3.34,6.9 7.32,6.81z"/>
   <path class="fil0" d="M530.48 401.34c3.98,-0.09 7.16,-3.28 7.1,-7.14 -0.06,-3.85 -3.34,-6.9 -7.32,-6.81 -3.98,0.09 -7.16,3.28 -7.1,7.13 0.06,3.85 3.34,6.9 7.32,6.81z"/>
   <path class="fil0" d="M550.79 400.89c3.99,-0.09 7.16,-3.28 7.1,-7.14 -0.06,-3.85 -3.34,-6.9 -7.32,-6.81 -3.98,0.09 -7.16,3.28 -7.1,7.13 0.06,3.85 3.34,6.9 7.32,6.81z"/>
   <path class="fil0" d="M571.11 400.44c3.99,-0.09 7.16,-3.28 7.1,-7.14 -0.06,-3.85 -3.34,-6.9 -7.32,-6.81 -3.99,0.09 -7.16,3.28 -7.1,7.13 0.06,3.85 3.33,6.9 7.32,6.81z"/>
   <path class="fil0" d="M591.43 399.98c3.98,-0.09 7.16,-3.28 7.1,-7.14 -0.06,-3.85 -3.34,-6.9 -7.32,-6.81 -3.98,0.09 -7.16,3.28 -7.1,7.13 0.06,3.85 3.34,6.9 7.32,6.81z"/>
   <path class="fil0" d="M611.75 399.53c3.99,-0.09 7.16,-3.28 7.1,-7.13 -0.06,-3.85 -3.34,-6.9 -7.32,-6.81 -3.98,0.09 -7.16,3.28 -7.1,7.13 0.06,3.85 3.34,6.9 7.32,6.81z"/>
   <path class="fil0" d="M632.07 399.08c3.98,-0.09 7.16,-3.28 7.1,-7.13 -0.06,-3.85 -3.34,-6.9 -7.32,-6.81 -3.99,0.09 -7.16,3.28 -7.1,7.13 0.06,3.85 3.34,6.9 7.32,6.81z"/>
   <path class="fil0" d="M652.38 398.62c3.99,-0.09 7.16,-3.28 7.1,-7.13 -0.06,-3.85 -3.34,-6.9 -7.32,-6.81 -3.98,0.09 -7.16,3.28 -7.1,7.13 0.06,3.85 3.34,6.9 7.32,6.81z"/>
   <path class="fil0" d="M672.7 398.17c3.98,-0.09 7.16,-3.28 7.1,-7.14 -0.06,-3.85 -3.34,-6.9 -7.32,-6.81 -3.99,0.09 -7.16,3.28 -7.1,7.13 0.06,3.85 3.34,6.9 7.32,6.81z"/>
   <path class="fil0" d="M693.01 397.72c3.98,-0.09 7.16,-3.28 7.1,-7.14 -0.06,-3.85 -3.34,-6.9 -7.32,-6.81 -3.98,0.09 -7.16,3.28 -7.1,7.13 0.06,3.85 3.34,6.9 7.32,6.81z"/>
   <path class="fil0" d="M713.33 397.27c3.98,-0.09 7.16,-3.28 7.1,-7.14 -0.06,-3.85 -3.34,-6.9 -7.32,-6.81 -3.99,0.09 -7.16,3.28 -7.1,7.13 0.06,3.85 3.33,6.9 7.32,6.81z"/>
   <path class="fil0" d="M733.65 396.81c3.98,-0.09 7.16,-3.28 7.1,-7.14 -0.06,-3.85 -3.34,-6.9 -7.32,-6.81 -3.99,0.09 -7.16,3.28 -7.1,7.13 0.06,3.85 3.34,6.9 7.32,6.81z"/>
   <path class="fil0" d="M753.97 396.36c3.98,-0.09 7.16,-3.28 7.1,-7.14 -0.06,-3.85 -3.34,-6.9 -7.32,-6.81 -3.98,0.09 -7.16,3.28 -7.1,7.13 0.06,3.85 3.34,6.9 7.32,6.81z"/>
   <path class="fil0" d="M774.29 395.91c3.98,-0.09 7.16,-3.28 7.1,-7.14 -0.06,-3.85 -3.34,-6.9 -7.32,-6.81 -3.99,0.09 -7.16,3.28 -7.1,7.13 0.06,3.85 3.34,6.9 7.32,6.81z"/>
   <path class="fil0" d="M124.44 430.05c3.98,-0.09 7.16,-3.28 7.1,-7.13 -0.06,-3.85 -3.34,-6.9 -7.32,-6.81 -3.98,0.09 -7.16,3.28 -7.1,7.13 0.06,3.85 3.34,6.9 7.32,6.81z"/>
   <path class="fil0" d="M144.76 429.6c3.98,-0.09 7.16,-3.29 7.1,-7.13 -0.06,-3.85 -3.34,-6.9 -7.32,-6.81 -3.98,0.09 -7.16,3.28 -7.1,7.14 0.06,3.85 3.34,6.9 7.32,6.81z"/>
   <path class="fil0" d="M165.08 429.14c3.98,-0.09 7.16,-3.28 7.1,-7.13 -0.06,-3.85 -3.34,-6.9 -7.32,-6.81 -3.98,0.09 -7.16,3.28 -7.1,7.14 0.06,3.85 3.34,6.9 7.32,6.81z"/>
   <path class="fil0" d="M185.4 428.69c3.98,-0.09 7.16,-3.28 7.1,-7.13 -0.06,-3.85 -3.34,-6.9 -7.32,-6.81 -3.98,0.09 -7.16,3.28 -7.1,7.14 0.06,3.85 3.34,6.9 7.32,6.81z"/>
   <path class="fil0" d="M205.71 428.24c3.98,-0.09 7.16,-3.28 7.1,-7.13 -0.06,-3.85 -3.34,-6.9 -7.32,-6.81 -3.99,0.09 -7.16,3.28 -7.1,7.14 0.06,3.85 3.34,6.9 7.32,6.81z"/>
   <path class="fil0" d="M226.03 427.79c3.98,-0.09 7.16,-3.28 7.1,-7.13 -0.06,-3.85 -3.34,-6.9 -7.32,-6.81 -3.98,0.09 -7.16,3.28 -7.1,7.14 0.06,3.85 3.34,6.9 7.32,6.81z"/>
   <path class="fil0" d="M246.35 427.33c3.98,-0.09 7.16,-3.28 7.1,-7.13 -0.06,-3.85 -3.34,-6.9 -7.32,-6.81 -3.98,0.09 -7.16,3.28 -7.1,7.14 0.06,3.85 3.34,6.9 7.32,6.81z"/>
   <path class="fil0" d="M490.15 421.9c3.98,-0.09 7.16,-3.28 7.1,-7.13 -0.06,-3.85 -3.34,-6.9 -7.32,-6.81 -3.98,0.09 -7.16,3.28 -7.1,7.14 0.06,3.85 3.34,6.9 7.32,6.81z"/>
   <path class="fil0" d="M510.47 421.44c3.98,-0.09 7.16,-3.28 7.1,-7.13 -0.06,-3.85 -3.34,-6.9 -7.32,-6.81 -3.98,0.09 -7.16,3.28 -7.1,7.13 0.06,3.85 3.34,6.9 7.32,6.81z"/>
   <path class="fil0" d="M530.79 420.99c3.98,-0.09 7.16,-3.28 7.1,-7.13 -0.06,-3.85 -3.34,-6.9 -7.32,-6.81 -3.98,0.09 -7.16,3.28 -7.1,7.13 0.06,3.85 3.34,6.9 7.32,6.81z"/>
   <path class="fil0" d="M551.1 420.54c3.98,-0.09 7.16,-3.28 7.1,-7.13 -0.06,-3.85 -3.34,-6.9 -7.32,-6.81 -3.98,0.09 -7.16,3.28 -7.1,7.14 0.06,3.85 3.34,6.9 7.32,6.81z"/>
   <path class="fil0" d="M571.42 420.09c3.99,-0.09 7.16,-3.28 7.1,-7.13 -0.06,-3.85 -3.33,-6.9 -7.32,-6.81 -3.98,0.09 -7.16,3.28 -7.1,7.14 0.06,3.85 3.33,6.9 7.32,6.81z"/>
   <path class="fil0" d="M591.74 419.63c3.98,-0.09 7.16,-3.28 7.1,-7.13 -0.06,-3.85 -3.34,-6.9 -7.32,-6.81 -3.98,0.09 -7.16,3.28 -7.1,7.14 0.06,3.85 3.34,6.9 7.32,6.81z"/>
   <path class="fil0" d="M612.05 419.18c3.99,-0.09 7.16,-3.28 7.1,-7.13 -0.06,-3.85 -3.34,-6.9 -7.32,-6.81 -3.98,0.09 -7.16,3.28 -7.1,7.14 0.06,3.85 3.34,6.9 7.32,6.81z"/>
   <path class="fil0" d="M632.37 418.73c3.98,-0.09 7.16,-3.28 7.1,-7.13 -0.06,-3.85 -3.34,-6.9 -7.32,-6.81 -3.98,0.09 -7.16,3.28 -7.1,7.14 0.06,3.85 3.34,6.9 7.32,6.81z"/>
   <path class="fil0" d="M652.69 418.27c3.99,-0.09 7.16,-3.28 7.1,-7.13 -0.06,-3.85 -3.34,-6.9 -7.32,-6.81 -3.98,0.09 -7.16,3.28 -7.1,7.14 0.06,3.85 3.34,6.9 7.32,6.81z"/>
   <path class="fil0" d="M673.01 417.82c3.98,-0.09 7.16,-3.28 7.1,-7.13 -0.06,-3.85 -3.34,-6.9 -7.32,-6.81 -3.98,0.09 -7.16,3.28 -7.1,7.14 0.06,3.85 3.34,6.9 7.32,6.81z"/>
   <path class="fil0" d="M693.32 417.37c3.99,-0.09 7.16,-3.28 7.1,-7.13 -0.06,-3.85 -3.34,-6.9 -7.32,-6.81 -3.98,0.09 -7.16,3.28 -7.1,7.14 0.06,3.85 3.34,6.9 7.32,6.81z"/>
   <path class="fil0" d="M713.64 416.91c3.99,-0.09 7.16,-3.28 7.1,-7.13 -0.06,-3.85 -3.34,-6.9 -7.32,-6.81 -3.98,0.09 -7.16,3.28 -7.1,7.13 0.06,3.85 3.33,6.9 7.32,6.81z"/>
   <path class="fil0" d="M733.96 416.46c3.98,-0.09 7.16,-3.28 7.1,-7.13 -0.06,-3.85 -3.34,-6.9 -7.32,-6.81 -3.98,0.09 -7.16,3.28 -7.1,7.13 0.06,3.85 3.34,6.9 7.32,6.81z"/>
   <path class="fil0" d="M754.27 416.01c3.99,-0.09 7.16,-3.28 7.1,-7.13 -0.06,-3.85 -3.34,-6.9 -7.32,-6.81 -3.98,0.09 -7.16,3.28 -7.1,7.13 0.06,3.85 3.34,6.9 7.32,6.81z"/>
   <path class="fil0" d="M774.59 415.55c3.98,-0.09 7.16,-3.28 7.1,-7.13 -0.06,-3.85 -3.34,-6.9 -7.32,-6.81 -3.98,0.09 -7.16,3.28 -7.1,7.14 0.06,3.85 3.34,6.9 7.32,6.81z"/>
   <path class="fil0" d="M145.07 449.25c3.98,-0.09 7.16,-3.28 7.1,-7.14 -0.06,-3.85 -3.34,-6.9 -7.32,-6.81 -3.98,0.09 -7.16,3.28 -7.1,7.13 0.06,3.85 3.34,6.9 7.32,6.81z"/>
   <path class="fil0" d="M165.38 448.79c3.98,-0.09 7.16,-3.28 7.1,-7.14 -0.06,-3.85 -3.34,-6.9 -7.32,-6.81 -3.98,0.09 -7.16,3.28 -7.1,7.13 0.06,3.85 3.34,6.9 7.32,6.81z"/>
   <path class="fil0" d="M185.7 448.34c3.99,-0.09 7.16,-3.28 7.1,-7.14 -0.06,-3.85 -3.34,-6.9 -7.32,-6.81 -3.98,0.09 -7.16,3.28 -7.1,7.13 0.06,3.85 3.34,6.9 7.32,6.81z"/>
   <path class="fil0" d="M206.02 447.89c3.98,-0.09 7.16,-3.28 7.1,-7.14 -0.06,-3.85 -3.34,-6.9 -7.32,-6.81 -3.98,0.09 -7.16,3.28 -7.1,7.13 0.06,3.85 3.34,6.9 7.32,6.81z"/>
   <path class="fil0" d="M226.34 447.43c3.98,-0.09 7.16,-3.28 7.1,-7.14 -0.06,-3.85 -3.34,-6.9 -7.32,-6.81 -3.98,0.09 -7.16,3.28 -7.1,7.13 0.06,3.85 3.34,6.9 7.32,6.81z"/>
   <path class="fil0" d="M510.78 441.09c3.98,-0.09 7.16,-3.28 7.1,-7.13 -0.06,-3.85 -3.34,-6.9 -7.32,-6.81 -3.98,0.09 -7.16,3.28 -7.1,7.13 0.06,3.85 3.34,6.9 7.32,6.81z"/>
   <path class="fil0" d="M531.09 440.64c3.98,-0.09 7.16,-3.28 7.1,-7.14 -0.06,-3.85 -3.34,-6.9 -7.32,-6.81 -3.99,0.09 -7.16,3.28 -7.1,7.13 0.06,3.85 3.33,6.9 7.32,6.81z"/>
   <path class="fil0" d="M551.41 440.19c3.98,-0.09 7.16,-3.28 7.1,-7.14 -0.06,-3.85 -3.34,-6.9 -7.32,-6.81 -3.98,0.09 -7.16,3.28 -7.1,7.13 0.06,3.85 3.34,6.9 7.32,6.81z"/>
   <path class="fil0" d="M571.73 439.74c3.98,-0.09 7.16,-3.28 7.1,-7.14 -0.06,-3.85 -3.34,-6.9 -7.32,-6.81 -3.98,0.09 -7.16,3.28 -7.1,7.13 0.06,3.85 3.33,6.9 7.32,6.81z"/>
   <path class="fil0" d="M592.05 439.28c3.98,-0.09 7.16,-3.28 7.1,-7.14 -0.06,-3.85 -3.34,-6.9 -7.32,-6.81 -3.98,0.09 -7.16,3.28 -7.1,7.13 0.06,3.85 3.33,6.9 7.32,6.81z"/>
   <path class="fil0" d="M612.36 438.83c3.98,-0.09 7.16,-3.28 7.1,-7.14 -0.06,-3.85 -3.34,-6.9 -7.32,-6.81 -3.98,0.09 -7.16,3.28 -7.1,7.13 0.06,3.85 3.34,6.9 7.32,6.81z"/>
   <path class="fil0" d="M632.68 438.38c3.98,-0.09 7.16,-3.28 7.1,-7.14 -0.06,-3.85 -3.34,-6.9 -7.32,-6.81 -3.98,0.09 -7.16,3.28 -7.1,7.13 0.06,3.85 3.33,6.9 7.32,6.81z"/>
   <path class="fil0" d="M653 437.92c3.98,-0.09 7.16,-3.28 7.1,-7.14 -0.06,-3.85 -3.34,-6.9 -7.32,-6.81 -3.98,0.09 -7.16,3.28 -7.1,7.13 0.06,3.85 3.34,6.9 7.32,6.81z"/>
   <path class="fil0" d="M673.31 437.47c3.98,-0.09 7.16,-3.28 7.1,-7.14 -0.06,-3.85 -3.34,-6.9 -7.32,-6.81 -3.98,0.09 -7.16,3.28 -7.1,7.13 0.06,3.85 3.34,6.9 7.32,6.81z"/>
   <path class="fil0" d="M693.63 437.02c3.98,-0.09 7.16,-3.28 7.1,-7.13 -0.06,-3.85 -3.34,-6.9 -7.32,-6.81 -3.98,0.09 -7.16,3.28 -7.1,7.13 0.06,3.85 3.34,6.9 7.32,6.81z"/>
   <path class="fil0" d="M713.95 436.56c3.98,-0.09 7.16,-3.28 7.1,-7.13 -0.06,-3.85 -3.34,-6.9 -7.32,-6.81 -3.98,0.09 -7.16,3.28 -7.1,7.13 0.06,3.85 3.33,6.9 7.32,6.81z"/>
   <path class="fil0" d="M734.27 436.11c3.98,-0.09 7.16,-3.28 7.1,-7.13 -0.06,-3.85 -3.34,-6.9 -7.32,-6.81 -3.98,0.09 -7.16,3.28 -7.1,7.13 0.06,3.85 3.34,6.9 7.32,6.81z"/>
   <path class="fil0" d="M754.58 435.66c3.98,-0.09 7.16,-3.28 7.1,-7.14 -0.06,-3.85 -3.34,-6.9 -7.32,-6.81 -3.98,0.09 -7.16,3.28 -7.1,7.13 0.06,3.85 3.34,6.9 7.32,6.81z"/>
   <path class="fil0" d="M774.9 435.21c3.98,-0.09 7.16,-3.28 7.1,-7.14 -0.06,-3.85 -3.34,-6.9 -7.32,-6.81 -3.98,0.09 -7.16,3.28 -7.1,7.13 0.06,3.85 3.34,6.9 7.32,6.81z"/>
   <path class="fil0" d="M795.22 434.75c3.98,-0.09 7.16,-3.28 7.1,-7.14 -0.06,-3.85 -3.34,-6.9 -7.32,-6.81 -3.98,0.09 -7.16,3.28 -7.1,7.13 0.06,3.85 3.34,6.9 7.32,6.81z"/>
   <circle class="fil0" transform="matrix(0.274754 -0.00612545 0.00414508 0.265732 145.267 461.923)" r="26.25"/>
   <circle class="fil0" transform="matrix(0.274754 -0.00612545 0.00414508 0.265732 165.582 461.47)" r="26.25"/>
   <path class="fil0" d="M511.08 460.74c3.99,-0.09 7.16,-3.28 7.1,-7.13 -0.06,-3.85 -3.34,-6.9 -7.32,-6.81 -3.98,0.09 -7.16,3.28 -7.1,7.13 0.06,3.85 3.34,6.9 7.32,6.81z"/>
   <circle class="fil0" transform="matrix(0.274754 -0.00612545 0.00414508 0.265732 531.291 453.316)" r="26.24"/>
   <path class="fil0" d="M551.71 459.84c3.99,-0.09 7.16,-3.28 7.1,-7.13 -0.06,-3.85 -3.34,-6.9 -7.32,-6.81 -3.98,0.09 -7.16,3.28 -7.1,7.13 0.06,3.85 3.34,6.9 7.32,6.81z"/>
   <circle class="fil0" transform="matrix(0.270457 -0.04904 0.0485456 0.261233 571.892 452.41)" r="26.24"/>
   <path class="fil0" d="M592.35 458.93c3.98,-0.09 7.16,-3.28 7.1,-7.13 -0.06,-3.85 -3.34,-6.9 -7.32,-6.81 -3.99,0.09 -7.16,3.28 -7.1,7.13 0.06,3.85 3.34,6.9 7.32,6.81z"/>
   <path class="fil0" d="M612.67 458.48c3.98,-0.09 7.16,-3.28 7.1,-7.13 -0.06,-3.85 -3.34,-6.9 -7.32,-6.81 -3.98,0.09 -7.16,3.28 -7.1,7.13 0.06,3.85 3.34,6.9 7.32,6.81z"/>
   <path class="fil0" d="M632.99 458.03c3.98,-0.09 7.16,-3.28 7.1,-7.13 -0.06,-3.85 -3.34,-6.9 -7.32,-6.81 -3.99,0.09 -7.16,3.28 -7.1,7.13 0.06,3.85 3.34,6.9 7.32,6.81z"/>
   <path class="fil0" d="M643.5 479.23c3.98,-0.09 7.16,-3.28 7.1,-7.13 -0.06,-3.85 -3.34,-6.9 -7.32,-6.81 -3.98,0.09 -7.16,3.28 -7.1,7.13 0.06,3.85 3.34,6.9 7.32,6.81z"/>
   <path class="fil0" d="M653.3 457.57c3.98,-0.09 7.16,-3.28 7.1,-7.13 -0.06,-3.85 -3.34,-6.9 -7.32,-6.81 -3.98,0.09 -7.16,3.28 -7.1,7.13 0.06,3.85 3.34,6.9 7.32,6.81z"/>
   <circle class="fil0" transform="matrix(0.274754 -0.00612545 0.00414508 0.265732 673.51 450.146)" r="26.24"/>
   <path class="fil0" d="M693.93 456.67c3.98,-0.09 7.16,-3.28 7.1,-7.13 -0.06,-3.85 -3.34,-6.9 -7.32,-6.81 -3.98,0.09 -7.16,3.28 -7.1,7.13 0.06,3.85 3.34,6.9 7.32,6.81z"/>
   <circle class="fil0" transform="matrix(0.270485 -0.0489875 0.0484911 0.261261 714.198 449.261)" r="26.24"/>
   <path class="fil0" d="M734.57 455.76c3.98,-0.09 7.16,-3.28 7.1,-7.13 -0.06,-3.85 -3.34,-6.9 -7.32,-6.81 -3.99,0.09 -7.16,3.28 -7.1,7.13 0.06,3.85 3.34,6.9 7.32,6.81z"/>
   <path class="fil0" d="M754.89 455.31c3.98,-0.09 7.16,-3.28 7.1,-7.13 -0.06,-3.85 -3.34,-6.9 -7.32,-6.81 -3.98,0.09 -7.16,3.28 -7.1,7.13 0.06,3.85 3.34,6.9 7.32,6.81z"/>
   <path class="fil0" d="M775.21 454.86c3.98,-0.09 7.16,-3.28 7.1,-7.13 -0.06,-3.85 -3.34,-6.9 -7.32,-6.81 -3.99,0.09 -7.16,3.28 -7.1,7.13 0.06,3.85 3.34,6.9 7.32,6.81z"/>
   <path class="fil0" d="M795.52 454.4c3.98,-0.09 7.16,-3.28 7.1,-7.13 -0.06,-3.85 -3.34,-6.9 -7.32,-6.81 -3.98,0.09 -7.16,3.28 -7.1,7.13 0.06,3.85 3.34,6.9 7.32,6.81z"/>
   <path class="fil0" d="M815.84 453.95c3.98,-0.09 7.16,-3.28 7.1,-7.13 -0.06,-3.85 -3.34,-6.9 -7.32,-6.81 -3.99,0.09 -7.16,3.28 -7.1,7.13 0.06,3.85 3.34,6.9 7.32,6.81z"/>
   <path class="fil0" d="M511.39 480.39c3.99,-0.09 7.16,-3.28 7.1,-7.13 -0.06,-3.85 -3.34,-6.9 -7.32,-6.81 -3.98,0.09 -7.16,3.28 -7.1,7.13 0.06,3.85 3.34,6.9 7.32,6.81z"/>
   <path class="fil0" d="M531.71 479.94c3.98,-0.09 7.16,-3.28 7.1,-7.14 -0.06,-3.85 -3.34,-6.9 -7.32,-6.81 -3.98,0.09 -7.16,3.28 -7.1,7.13 0.06,3.85 3.34,6.9 7.32,6.81z"/>
   <path class="fil0" d="M552.02 479.49c3.99,-0.09 7.16,-3.28 7.1,-7.14 -0.06,-3.85 -3.34,-6.9 -7.32,-6.81 -3.98,0.09 -7.16,3.28 -7.1,7.13 0.06,3.85 3.34,6.9 7.32,6.81z"/>
   <path class="fil0" d="M572.34 479.04c3.99,-0.09 7.16,-3.28 7.1,-7.14 -0.06,-3.85 -3.34,-6.9 -7.32,-6.81 -3.98,0.09 -7.16,3.28 -7.1,7.13 0.06,3.85 3.33,6.9 7.32,6.81z"/>
   <path class="fil0" d="M592.66 478.58c3.98,-0.09 7.16,-3.28 7.1,-7.14 -0.06,-3.85 -3.34,-6.9 -7.32,-6.81 -3.98,0.09 -7.16,3.28 -7.1,7.13 0.06,3.85 3.34,6.9 7.32,6.81z"/>
   <path class="fil0" d="M612.97 478.13c3.99,-0.09 7.16,-3.28 7.1,-7.14 -0.06,-3.85 -3.34,-6.9 -7.32,-6.81 -3.98,0.09 -7.16,3.28 -7.1,7.13 0.06,3.85 3.34,6.9 7.32,6.81z"/>
   <path class="fil0" d="M673.92 476.77c3.98,-0.09 7.16,-3.28 7.1,-7.13 -0.06,-3.85 -3.34,-6.9 -7.32,-6.81 -3.98,0.09 -7.16,3.28 -7.1,7.13 0.06,3.85 3.34,6.9 7.32,6.81z"/>
   <path class="fil0" d="M694.24 476.32c3.99,-0.09 7.16,-3.28 7.1,-7.13 -0.06,-3.85 -3.34,-6.9 -7.32,-6.81 -3.98,0.09 -7.16,3.28 -7.1,7.13 0.06,3.85 3.34,6.9 7.32,6.81z"/>
   <path class="fil0" d="M714.56 475.86c3.98,-0.09 7.16,-3.28 7.1,-7.13 -0.06,-3.85 -3.34,-6.9 -7.32,-6.81 -3.99,0.09 -7.16,3.28 -7.1,7.13 0.06,3.85 3.33,6.9 7.32,6.81z"/>
   <path class="fil0" d="M734.88 475.41c3.98,-0.09 7.16,-3.28 7.1,-7.14 -0.06,-3.85 -3.34,-6.9 -7.32,-6.81 -3.99,0.09 -7.16,3.28 -7.1,7.13 0.06,3.85 3.34,6.9 7.32,6.81z"/>
   <path class="fil0" d="M775.51 474.51c3.98,-0.09 7.16,-3.28 7.1,-7.14 -0.06,-3.85 -3.34,-6.9 -7.32,-6.81 -3.99,0.09 -7.16,3.28 -7.1,7.13 0.06,3.85 3.34,6.9 7.32,6.81z"/>
   <path class="fil0" d="M795.83 474.05c3.98,-0.09 7.16,-3.28 7.1,-7.14 -0.06,-3.85 -3.34,-6.9 -7.32,-6.81 -3.98,0.09 -7.16,3.28 -7.1,7.13 0.06,3.85 3.34,6.9 7.32,6.81z"/>
   <path class="fil0" d="M816.14 473.6c3.98,-0.09 7.16,-3.28 7.1,-7.14 -0.06,-3.85 -3.34,-6.9 -7.32,-6.81 -3.99,0.09 -7.16,3.28 -7.1,7.13 0.06,3.85 3.34,6.9 7.32,6.81z"/>
   <path class="fil0" d="M836.46 473.15c3.98,-0.09 7.16,-3.28 7.1,-7.14 -0.06,-3.85 -3.34,-6.9 -7.32,-6.81 -3.99,0.09 -7.16,3.28 -7.1,7.13 0.06,3.85 3.34,6.9 7.32,6.81z"/>
   <path class="fil0" d="M511.7 500.04c3.98,-0.09 7.16,-3.28 7.1,-7.13 -0.06,-3.85 -3.34,-6.9 -7.32,-6.81 -3.98,0.09 -7.16,3.28 -7.1,7.13 0.06,3.85 3.34,6.9 7.32,6.81z"/>
   <path class="fil0" d="M511.7 520.26c3.98,-0.09 7.16,-3.28 7.1,-7.13 -0.06,-3.85 -3.34,-6.9 -7.32,-6.81 -3.98,0.09 -7.16,3.28 -7.1,7.13 0.06,3.85 3.34,6.9 7.32,6.81z"/>
  </g>
 </g>
</svg>
