<svg width="50" height="51" viewBox="0 0 50 51" fill="none" xmlns="http://www.w3.org/2000/svg">
<path d="M50 25.1784C50 38.9848 38.8088 50.1792 24.9997 50.1792C11.1947 50.1792 0 38.9848 0 25.1784C0 11.3704 11.1947 0.178715 24.9997 0.178715C38.8088 0.178715 50 11.3704 50 25.1784Z" fill="#4D4D4D"/>
<path d="M28.1554 26.5479L39.587 15.1161C39.2114 14.5369 38.5872 14.1322 37.8456 14.1322H12.1592C11.4139 14.1322 10.7929 14.5369 10.415 15.1161L21.8481 26.5479C23.5313 28.2334 26.47 28.2334 28.1554 26.5479Z" fill="white"/>
<path d="M29.6507 28.044C28.4097 29.2862 26.7592 29.9717 24.9997 29.9717C23.2439 29.9717 21.5934 29.2862 20.3492 28.044L10.041 17.7332V34.1081C10.041 35.2765 10.9875 36.2257 12.1586 36.2257H37.845C39.0156 36.2257 39.9621 35.2765 39.9621 34.1081V17.7332L29.6507 28.044Z" fill="white"/>
</svg>
