<svg width="22" height="30" viewBox="0 0 22 30" fill="none" xmlns="http://www.w3.org/2000/svg">
<path d="M10.4124 26.3928C10.6643 26.6755 11.2847 27.475 11.5799 27.6251L11.6132 27.6239C11.9527 27.2062 12.264 26.7627 12.5987 26.3405C12.8719 26.4247 13.3043 26.3773 13.6026 26.3952C14.3926 26.4419 15.3129 26.5536 16.0603 26.8216C16.3607 26.9292 16.8969 27.2066 17.0029 27.5236C17.0394 27.6337 17.0086 27.7478 16.9518 27.8439C16.6789 28.3049 15.8019 28.5566 15.3093 28.6895C13.3575 29.2164 8.31053 29.5119 6.57349 28.4593C6.40248 28.3554 6.17788 28.1901 6.14267 27.9769C6.12217 27.8558 6.16718 27.745 6.23833 27.6496C6.85818 26.8196 9.40516 26.5196 10.4124 26.3928Z" fill="#4D4D4D"/>
<path d="M18.4642 13.6414C18.0371 15.3853 17.297 17.0108 16.5459 18.6304C16.3205 19.116 16.0865 19.5979 15.8395 20.0729C15.3329 21.0473 14.8374 22.029 14.2955 22.9843C13.427 24.516 12.5248 26.0287 11.6363 27.5494C11.626 27.5666 11.6131 27.5826 11.5901 27.6146C11.4432 27.4142 11.3 27.2242 11.1618 27.0308C10.7601 26.4678 10.3595 25.9046 9.96035 25.3404C9.8498 25.1841 9.74554 25.0238 9.63831 24.8646C9.2231 24.2518 8.79142 23.6486 8.39497 23.0236C7.59602 21.7635 6.80205 20.5007 6.03225 19.223C5.37559 18.1337 4.77662 17.0112 4.25996 15.8481C3.99239 15.2469 3.74572 14.6348 3.52145 14.0163C3.07925 12.7959 3.07349 11.746 3.29401 10.4677C3.39965 9.85689 3.59235 9.27232 3.85212 8.71034C4.56968 7.15731 5.67455 5.96034 7.16292 5.11838C7.77685 4.77114 8.42863 4.51369 9.11472 4.35538C10.398 4.05952 11.9718 4.10123 13.2183 4.47271C14.261 4.78328 15.1878 5.29418 16.0141 5.99254C16.9333 6.76898 17.6361 7.71123 18.1135 8.81499C18.2584 9.15125 18.3824 9.49966 18.4776 9.85281C18.8745 11.3194 18.8135 12.2158 18.4642 13.6414Z" fill="#4D4D4D"/>
<path fill-rule="evenodd" clip-rule="evenodd" d="M6.73253 22.0309C-0.146333 19.1845 -2.32481 10.0253 2.88961 4.37284C7.00705 -0.0908241 13.9707 -0.370699 18.4355 3.74761C24.2393 9.10144 22.6218 18.3046 15.9994 21.6583C16.2044 21.2643 16.4073 20.8696 16.6118 20.4756C16.8651 19.9893 17.1047 19.4958 17.3355 18.9979C18.1124 17.3239 18.8688 15.6495 19.3099 13.8498C19.6972 12.2687 19.748 11.2132 19.3183 9.6247C19.2115 9.23071 19.075 8.84381 18.913 8.46901C18.3832 7.24215 17.5956 6.18789 16.5754 5.32558C15.6561 4.54871 14.6191 3.97972 13.465 3.6361C12.0635 3.218 10.3403 3.17585 8.91591 3.50432C8.14799 3.6814 7.41573 3.97026 6.73006 4.35805C5.08265 5.28992 3.85005 6.62609 3.056 8.34393C2.76476 8.97432 2.5484 9.63419 2.43006 10.319C2.18501 11.7394 2.20106 12.9459 2.69723 14.3139C2.92843 14.9525 3.18285 15.5829 3.45864 16.2035C3.98959 17.3984 4.60607 18.5542 5.28105 19.6742C5.75731 20.4647 6.24285 21.2491 6.73253 22.0309Z" fill="#4D4D4D"/>
</svg>
