<svg width="91" height="90" viewBox="0 0 91 90" fill="none" xmlns="http://www.w3.org/2000/svg">
<path d="M90.5 44.9999C90.5 57.0772 85.7425 68.0433 77.9979 76.1267C69.8067 84.6765 58.2746 89.9996 45.5002 89.9996C32.7253 89.9996 21.1936 84.6765 13.0024 76.1267C5.25899 68.0433 0.5 57.0772 0.5 44.9999C0.5 20.1477 20.648 1.52588e-05 45.5002 1.52588e-05C70.3523 1.52588e-05 90.5 20.1477 90.5 44.9999Z" fill="#E1E6E4"/>
<path d="M45.501 10.6475C55.6545 10.6475 63.8845 18.8787 63.8845 29.0309C63.8845 39.1844 55.6545 47.4156 45.501 47.4156C35.3488 47.4156 27.1172 39.1844 27.1172 29.0309C27.1172 18.8787 35.3488 10.6475 45.501 10.6475Z" fill="#A1B5B3"/>
<path d="M76.4727 72.406C76.111 72.8135 75.7433 73.2141 75.366 73.6073C67.8392 81.4654 57.2406 86.3579 45.4996 86.3579C33.7581 86.3579 23.1599 81.4654 15.6315 73.6073C15.2571 73.2141 14.888 72.8135 14.5264 72.406C20.0674 60.8784 31.8548 52.9186 45.4996 52.9186C59.144 52.9186 70.933 60.8784 76.4727 72.406Z" fill="#A1B5B3"/>
</svg>
