<svg width="50" height="51" viewBox="0 0 50 51" fill="none" xmlns="http://www.w3.org/2000/svg">
<path d="M50 25.1776C50 38.9833 38.8088 50.1777 24.9997 50.1777C11.1947 50.1777 0 38.9833 0 25.1776C0 11.369 11.1947 0.177734 24.9997 0.177734C38.8088 0.177734 50 11.369 50 25.1776Z" fill="#4D4D4D"/>
<path d="M31.6536 16.4003C31.6536 20.0754 28.6755 23.0537 24.9999 23.0537C21.328 23.0537 18.3477 20.0754 18.3477 16.4003C18.3477 12.7249 21.328 9.74752 24.9999 9.74752C28.6755 9.74752 31.6536 12.7249 31.6536 16.4003Z" fill="white"/>
<path d="M36.0866 39.5603V36.4323C36.0866 30.4269 31.5921 25.0449 25.5959 24.7313C19.1998 24.3979 13.9102 29.4838 13.9102 35.8054V39.5603C13.9102 40.1401 14.3805 40.6105 14.9597 40.6105H35.0397C35.6194 40.6105 36.0866 40.1401 36.0866 39.5603Z" fill="white"/>
</svg>
