<svg width="50" height="51" viewBox="0 0 50 51" fill="none" xmlns="http://www.w3.org/2000/svg">
<path d="M50 25.1789C50 38.9853 38.8088 50.1797 24.9997 50.1797C11.1947 50.1797 0 38.9853 0 25.1789C0 11.3713 11.1947 0.179203 24.9997 0.179203C38.8088 0.179203 50 11.3713 50 25.1789Z" fill="#4D4D4D"/>
<path d="M38.6543 13.9106H11.3431C10.0454 13.9106 8.98828 14.9642 8.98828 16.2664V29.7295C8.98828 31.0312 10.0454 32.0853 11.3431 32.0853H23.0792L34.278 40.2023V32.0853H38.6543C39.9565 32.0853 41.0102 31.0312 41.0102 29.7295V16.2664C41.0102 14.9642 39.9565 13.9106 38.6543 13.9106Z" fill="white"/>
</svg>
