<svg width="21" height="20" viewBox="0 0 21 20" fill="none" xmlns="http://www.w3.org/2000/svg">
<path d="M20.4905 15.7809C20.5328 16.1051 20.4338 16.3881 20.1945 16.6272L17.3787 19.4222C17.2508 19.5627 17.0858 19.6828 16.8809 19.7814C16.6765 19.8808 16.4745 19.9447 16.2774 19.972C16.2627 19.972 16.2204 19.9752 16.15 19.9841C16.0803 19.989 15.9879 19.993 15.875 19.993C15.6074 19.993 15.173 19.948 14.573 19.8559C13.9736 19.7647 13.2389 19.5382 12.371 19.1777C11.5032 18.8181 10.5184 18.2789 9.41757 17.5589C8.31633 16.8389 7.14471 15.8504 5.90297 14.5949C4.91465 13.6212 4.09597 12.6895 3.44686 11.8C2.79804 10.911 2.27462 10.0887 1.87967 9.33242C1.485 8.57857 1.18851 7.8931 0.991107 7.27977C0.79356 6.66601 0.658803 6.13624 0.58826 5.69101C0.517431 5.24678 0.489273 4.89765 0.50364 4.64364C0.517432 4.38949 0.525211 4.24776 0.525211 4.21975C0.553227 4.02263 0.616397 3.82219 0.715674 3.61732C0.813945 3.41129 0.934492 3.24553 1.07529 3.11924L3.8911 0.30352C4.08908 0.106403 4.31418 0.00695419 4.56876 0.00695419C4.75238 0.00695419 4.91457 0.0602322 5.05623 0.16655C5.19674 0.271717 5.31685 0.40213 5.41541 0.557295L7.6814 4.85497C7.80812 5.08011 7.84393 5.32864 7.78689 5.5963C7.73072 5.86554 7.61103 6.09012 7.42728 6.27344L6.39008 7.31204C6.36106 7.33934 6.33623 7.38604 6.31555 7.44796C6.29399 7.51276 6.28424 7.5657 6.28424 7.60808C6.34042 7.90419 6.467 8.24291 6.66411 8.62493C6.83393 8.9617 7.09536 9.37644 7.44894 9.86276C7.80122 10.3494 8.30251 10.911 8.95133 11.5459C9.58664 12.1954 10.1514 12.6991 10.6451 13.0596C11.1394 13.4188 11.5528 13.6848 11.8844 13.8542C12.2167 14.0228 12.4695 14.1258 12.6471 14.1604L12.9106 14.2138C12.9392 14.2138 12.9857 14.2024 13.0492 14.1811C13.1122 14.1604 13.1579 14.1359 13.1859 14.1084L14.393 12.8793C14.6472 12.6549 14.9432 12.5415 15.2824 12.5415C15.5224 12.5415 15.7125 12.5839 15.8534 12.6681H15.875L19.961 15.0817C20.2579 15.2658 20.4338 15.4979 20.4905 15.7809Z" fill="#4D4D4D"/>
</svg>
