<svg width="20" height="21" viewBox="0 0 20 21" fill="none" xmlns="http://www.w3.org/2000/svg">
<path d="M7.98863 1.01163L19.5941 12.6145C19.8534 12.8765 20 13.2274 20 13.5956V17.4538C20 17.8202 19.8534 18.1733 19.5941 18.4326L17.7979 20.2288C17.2577 20.7693 16.3791 20.7693 15.8385 20.2288L12.2917 16.6803C11.7491 16.1395 11.7491 15.2609 12.2917 14.7204L12.9175 14.0951C13.4584 13.5543 13.4584 12.6757 12.9175 12.1352L8.49907 7.71634C7.95853 7.17649 7.0799 7.17649 6.5397 7.71634L5.91384 8.34254C5.37131 8.88309 4.49466 8.88309 3.95224 8.34254L0.405412 4.7957C-0.135137 4.25317 -0.135137 3.37687 0.405412 2.83399L2.22802 1.01163C2.48942 0.752329 2.84232 0.606457 3.20852 0.606457H7.01081C7.37631 0.606457 7.72991 0.752329 7.98863 1.01163Z" fill="#5DC26B"/>
</svg>
