<svg width="50" height="51" viewBox="0 0 50 51" fill="none" xmlns="http://www.w3.org/2000/svg">
<path d="M50 25.1779C50 38.9839 38.8088 50.1787 25.0002 50.1787C11.1947 50.1787 0 38.9839 0 25.1779C0 11.3699 11.1947 0.177746 25.0002 0.177746C38.8088 0.177746 50 11.3699 50 25.1779Z" fill="#4D4D4D"/>
<path d="M22.2729 12.1431L38.0156 27.8822C38.3673 28.2376 38.5661 28.7136 38.5661 29.2131V34.4466C38.5661 34.9437 38.3673 35.4225 38.0156 35.7743L35.579 38.2108C34.8462 38.9441 33.6544 38.9441 32.9212 38.2108L28.1099 33.3974C27.374 32.6638 27.374 31.472 28.1099 30.7388L28.9589 29.8905C29.6926 29.157 29.6926 27.9652 28.9589 27.2319L22.9654 21.2379C22.2321 20.5056 21.0403 20.5056 20.3075 21.2379L19.4585 22.0873C18.7226 22.8206 17.5334 22.8206 16.7977 22.0873L11.9865 17.2761C11.2532 16.5402 11.2532 15.3515 11.9865 14.6151L14.4588 12.1431C14.8134 11.7914 15.2921 11.5935 15.7888 11.5935H20.9466C21.4424 11.5935 21.922 11.7914 22.2729 12.1431Z" fill="white"/>
</svg>
