<?xml version="1.0" encoding="UTF-8"?>
<!DOCTYPE svg PUBLIC "-//W3C//DTD SVG 1.1//EN" "http://www.w3.org/Graphics/SVG/1.1/DTD/svg11.dtd">
<!-- Creator: CorelDRAW -->
<svg xmlns="http://www.w3.org/2000/svg" xml:space="preserve" width="0.464417in" height="0.797197in" version="1.1" style="shape-rendering:geometricPrecision; text-rendering:geometricPrecision; image-rendering:optimizeQuality; fill-rule:evenodd; clip-rule:evenodd"
viewBox="0 0 91.59 157.22"
 xmlns:xlink="http://www.w3.org/1999/xlink"
 xmlns:xodm="http://www.corel.com/coreldraw/odm/2003">
 <defs>
  <style type="text/css">
   <![CDATA[
    .fil0 {fill:#1C9DA2;fill-rule:nonzero}
    .fil1 {fill:#282828;fill-rule:nonzero}
   ]]>
  </style>
 </defs>
 <g id="Layer_x0020_1">
  <metadata id="CorelCorpID_0Corel-Layer"/>
  <g id="_2555289788752">
   <path class="fil0" d="M88.3 111.96c0,0 -30.96,36.18 -37.86,41.8 -5.67,4.99 -9.48,1.32 -17.6,-5.58 0,0 -24,-25.63 -31.62,-33.39l31.55 3.38c0,0 -11.71,-6.51 -13.46,-53.05 -2.04,-54.39 10.17,-63.62 10.17,-63.62 0,0 15.06,32.26 30.38,36.99 15.32,4.73 33.7,-4.2 29.67,0.61 -8.27,9.88 -22.55,14.92 -29.08,37.42 -7.47,25.73 -5.04,42.01 -5.04,42.01 0,0 19.04,-1.85 32.9,-6.58z"/>
   <path class="fil0" d="M89.53 39.1c-8.27,9.88 -21.05,17.68 -27.58,40.18 -5.14,17.71 -6.28,32.55 -6.54,39.25 -3.43,-6.73 -4.68,-11.94 -1.96,-41.56 0.85,-9.23 -5.6,-34.11 -17.18,-39.97 -10.29,-5.21 -16.21,0.18 -16.49,0.54 2.6,-32.99 9.71,-36.05 9.71,-36.05 0,0 15.06,32.26 30.38,36.99 15.32,4.73 33.7,-4.2 29.67,0.61z"/>
   <g>
    <path class="fil1" d="M89.46 111.17c0.2,0.53 0.06,1.68 -0.49,2.15 -0.25,0.33 -0.93,1.04 -1.19,1.37 -1.01,1.19 -3.71,4.25 -4.75,5.46 -6.19,7.01 -12.96,14.8 -19.26,21.65 -4.53,4.79 -8.56,9.64 -13.78,13.86 -3.08,2.46 -7.3,1.79 -10.29,-0.43 -2.84,-1.92 -5.26,-4.11 -7.75,-6.22 -9.21,-9.97 -22.36,-23.73 -31.61,-33.36 -0.8,-0.79 -0.1,-2.23 1.01,-2.08 0,0 31.55,3.37 31.55,3.37l-1.15 1.96c-10.31,-17.71 -13.24,-38.75 -13.96,-58.91 -0.3,-10.11 -0.18,-20.27 0.98,-30.38 1.08,-8.84 2.63,-18.08 7.15,-25.91 0.88,-1.4 3.33,-5.47 4.89,-2.8 4.46,9.4 9.82,18.6 16.57,26.56 3.36,3.84 7.08,7.54 11.79,9.52 9.05,3.22 18.85,0.83 28.08,-0.67 0.97,-0.11 1.97,-0.33 3,-0.02 1.23,0.36 1.73,1.89 1.03,2.96 -5.41,6.76 -11.67,12.92 -16.46,20.05 -7.85,11.47 -13.65,24.52 -16.46,38.17 -1.32,6.71 -2.13,13.9 -1.19,20.63 0,0 -1.24,-0.95 -1.24,-0.95 9.43,-1.19 18.88,-2.8 28.05,-5.35 0.7,-0.18 1.12,-0.35 2.37,-0.62 1.14,-0.23 2.32,-0.06 3.12,0.01zm-2.31 1.56l0 0c-0.52,0.49 -0.64,1.08 -0.81,1.28 -0.05,0.16 -0.95,0.36 -1.57,0.56 -9.34,2.68 -18.97,4.12 -28.65,4.86 -0.6,0.06 -1.17,-0.34 -1.24,-0.95 -0.8,-7.29 -0.01,-14.36 1.38,-21.46 2.96,-13.95 8.05,-27.59 16.2,-39.36 4.53,-6.67 9.95,-12.56 15.11,-18.58 0,0 0.83,-0.99 0.83,-0.99 0.11,-0.13 0.19,-0.25 0.23,-0.31 0.01,-0.02 -0,-0.01 -0.02,0.09 -0.03,0.12 -0.08,0.47 0.17,0.85 0.26,0.4 0.59,0.43 0.51,0.43 -4.92,0.47 -9.75,1.86 -14.79,2.1 -7.19,0.38 -15.09,-0.38 -21.1,-4.75 -11.47,-8.83 -18.6,-21.8 -25.24,-34.38 -0.01,-0.01 2.18,0.56 2.18,0.56 -0.21,0.19 -0.67,0.68 -0.99,1.1 -9.25,14.13 -9.04,39.44 -8.83,56.13 0.32,14.98 1.88,30.07 6.93,44.22 1.64,4.58 3.63,9.32 6.32,13.31 0.41,0.57 0.27,1.37 -0.31,1.76 -0.25,0.17 -0.55,0.24 -0.83,0.21l-31.55 -3.4 1.01 -2.08c5.36,5.51 10.61,11.09 15.88,16.67l15.75 16.76c3,2.23 6.93,6.76 11.17,7.47 1.27,0.15 2.52,-0.32 3.69,-1.15 2.35,-1.81 4.61,-4.19 6.8,-6.48 2.19,-2.33 4.36,-4.7 6.51,-7.08 7.88,-8.74 16.1,-18.27 23.77,-27.23 0.27,-0.31 0.91,-1.08 1.17,-1.38 0.01,-0.01 0.05,-0.06 0.03,-0.04 -0.02,0.03 -0.05,0.07 -0.07,0.12 -0.23,0.34 0.02,1.01 0.34,1.15z"/>
   </g>
  </g>
 </g>
</svg>
