<svg width="491" height="359" viewBox="0 0 491 359" fill="none" xmlns="http://www.w3.org/2000/svg">
<path d="M373.237 33.8078L394.052 21.9786L393.981 46.7035L373.166 58.5333L373.237 33.8078Z" fill="#DDA800"/>
<path d="M350.889 21.1896L371.705 9.36132L394.053 21.9792L373.238 33.8085L350.889 21.1896Z" fill="#FFD550"/>
<path d="M373.239 33.8078L373.168 58.5333L350.818 45.9158L350.89 21.1889L373.239 33.8078Z" fill="#FCC901"/>
<path d="M389.668 41.4478C388.485 42.0973 387.522 43.7044 387.519 45.038L389.478 43.9618L389.471 46.6707C389.469 47.1177 389.791 47.3052 390.188 47.0868C390.585 46.8691 390.909 46.3279 390.91 45.8799V45.794C390.912 45.6792 390.828 45.6325 390.728 45.6879C390.625 45.7441 390.544 45.8822 390.544 45.9958L390.543 46.081C390.542 46.3019 390.382 46.5672 390.19 46.6724C389.996 46.7788 389.837 46.6892 389.838 46.4686L389.846 43.7597L391.806 42.6823C391.809 41.3488 390.852 40.7969 389.668 41.4478Z" fill="#11303F"/>
<path d="M382.391 44.9166L382.386 46.6442C382.382 47.5252 382.969 47.9287 383.728 47.6137L383.722 49.6993L382.879 50.161C382.778 50.2164 382.694 50.3569 382.694 50.47C382.694 50.5858 382.777 50.6311 382.878 50.5757L384.929 49.4491C385.031 49.3929 385.114 49.2555 385.114 49.1407C385.114 49.0281 385.032 48.9786 384.932 49.0335L384.089 49.4978L384.095 47.4116C384.854 46.8925 385.445 45.843 385.447 44.9625L385.452 43.2368L382.391 44.9166Z" fill="#11303F"/>
<path d="M376.282 48.3017L375.263 49.8565L375.794 49.5637L375.781 54.1236L375.433 54.3146C375.332 54.3713 375.249 54.5066 375.248 54.6228C375.248 54.7367 375.331 54.7854 375.432 54.7286L379.667 52.4038C379.767 52.3484 379.851 52.2085 379.852 52.0951C379.852 51.9789 379.769 51.9345 379.668 51.9894L379.329 52.1753L379.343 47.6156L379.865 47.3283L378.852 46.8891L377.835 48.4432L378.366 48.1517L378.352 52.712L376.761 53.5865L376.775 49.026L377.293 48.7412L376.282 48.3017Z" fill="#11303F"/>
<path d="M361.766 27.3254L382.581 15.4965L382.435 15.4182L361.621 27.2464L361.766 27.3254Z" fill="#6F6F6F"/>
<path d="M350.102 25.6568L342.153 25.6321L346.15 19.6499L350.102 25.6568ZM342.156 19.6376L342.159 18.8305L350.124 18.8552L350.118 20.4691L342.153 20.4446L342.156 19.6376ZM345.454 41.7945L345.508 25.4488L346.736 25.4525L346.682 41.7982L345.454 41.7945ZM350.05 41.6149L346.059 47.5971L342.101 41.5903L350.05 41.6149ZM342.065 47.5848L342.068 46.7778L350.033 46.8022L350.028 48.4163L342.062 48.3919L342.065 47.5848Z" fill="#373435"/>
<path d="M394.675 56.0697L390.449 49.487L397.755 49.5937L394.675 56.0697ZM395.631 46.2858L396.33 45.8565L400.566 52.4531L399.168 53.3116L394.932 46.7148L395.631 46.2858ZM380.399 59.5301L392.4 52.1615L393.053 53.1781L381.053 60.5469L380.399 59.5301ZM383.01 63.2319L375.708 63.1309L378.784 56.6494L383.01 63.2319ZM373.584 59.8229L374.283 59.3941L378.518 65.9907L377.121 66.8491L372.885 60.2523L373.584 59.8229Z" fill="#373435"/>
<path d="M382.276 4.324L378.301 11.0556L374.982 4.6899L382.276 4.324ZM372.984 8.07213L372.27 7.6687L376.252 0.922993L377.682 1.73044L373.699 8.47615L372.984 8.07213ZM395.041 16.7205L379.806 8.11846L380.421 7.07822L395.655 15.6802L395.041 16.7205ZM397.167 12.7317L400.49 19.092L393.193 19.4633L397.167 12.7317ZM398.493 22.475L397.778 22.0714L401.761 15.3257L403.19 16.1327L399.207 22.8784L398.493 22.475Z" fill="#373435"/>
<path d="M101.007 39.4042H111.186L110.509 42.6364H96.391L100.858 21.5316H104.797L101.007 39.4042ZM117.917 23.8587L118.76 19.819H122.759L121.922 23.8587H117.917ZM114.017 42.6364L117.273 27.3491H121.084L117.824 42.6364H114.017ZM137.301 29.6275C137.967 28.7656 138.755 28.1033 139.658 27.6454C140.562 27.1874 141.52 26.9613 142.534 26.9613C143.167 26.9613 143.74 27.0477 144.258 27.2197C144.776 27.398 145.222 27.6508 145.596 27.9845C145.977 28.3244 146.263 28.7335 146.466 29.2186C146.676 29.7033 146.775 30.258 146.775 30.8935C146.775 31.2815 146.736 31.7122 146.665 32.1861C146.588 32.6604 146.499 33.1341 146.406 33.6081L144.484 42.6364H140.678L142.578 33.6675C142.688 33.1615 142.76 32.7576 142.798 32.4504C142.836 32.1434 142.853 31.8847 142.853 31.675C142.853 31.454 142.826 31.2492 142.765 31.0605C142.704 30.8722 142.611 30.7049 142.484 30.5597C142.352 30.4191 142.181 30.3066 141.966 30.2198C141.752 30.1394 141.487 30.0964 141.173 30.0964C140.529 30.0964 139.923 30.2742 139.35 30.6351C138.783 30.9959 138.292 31.4863 137.885 32.1058C137.67 32.4231 137.482 32.7788 137.317 33.1828C137.158 33.5816 137.02 34.0605 136.899 34.6157L135.202 42.6364H131.396L133.302 33.6675C133.407 33.1665 133.478 32.7575 133.517 32.4556C133.555 32.1484 133.577 31.8901 133.577 31.6799C133.577 31.4589 133.544 31.2547 133.483 31.0605C133.428 30.8722 133.335 30.7049 133.203 30.5652C133.076 30.4191 132.9 30.3065 132.685 30.2256C132.47 30.1393 132.211 30.0964 131.897 30.0964C131.302 30.0964 130.74 30.2469 130.212 30.5542C129.677 30.8612 129.209 31.2815 128.796 31.8198C128.543 32.1652 128.311 32.5636 128.118 33.0104C127.926 33.4574 127.766 33.9802 127.634 34.5834L125.926 42.6364H122.12L125.359 27.3491H128.603V29.2665H128.669C128.928 28.9597 129.231 28.669 129.573 28.3889C129.92 28.1089 130.289 27.8665 130.696 27.6557C131.099 27.4461 131.528 27.2791 131.991 27.1499C132.454 27.026 132.933 26.9613 133.428 26.9613C134.387 26.9613 135.196 27.1874 135.869 27.6454C136.535 28.1033 136.992 28.7656 137.24 29.6275H137.301ZM152.454 23.8587L153.297 19.819H157.296L156.458 23.8587H152.454ZM148.554 42.6364L151.81 27.3491H155.621L152.36 42.6364H148.554ZM168.175 30.4191H164.109L162.562 37.7884C162.507 38.0202 162.468 38.2246 162.44 38.397C162.413 38.569 162.402 38.7202 162.402 38.8495C162.402 39.2377 162.507 39.5069 162.721 39.663C162.936 39.8137 163.316 39.889 163.85 39.889C164.219 39.889 164.688 39.8512 165.255 39.7705C165.828 39.6897 166.335 39.5985 166.786 39.4955L166.159 42.5986C165.64 42.7331 165.079 42.8406 164.473 42.9165C163.867 42.9863 163.294 43.024 162.754 43.024C162.011 43.024 161.372 42.9487 160.832 42.798C160.297 42.6414 159.851 42.4262 159.504 42.1407C159.152 41.8552 158.893 41.5107 158.728 41.1008C158.563 40.6919 158.48 40.2284 158.48 39.7109C158.48 39.5335 158.491 39.318 158.508 39.0706C158.529 38.8277 158.579 38.5265 158.657 38.182L160.303 30.4191H157.378L158.039 27.3491H160.948L161.868 23.083H165.674L164.77 27.3491H168.835L168.175 30.4191ZM173.611 19.7863H177.423L173.567 37.9119C173.478 38.3322 173.435 38.6391 173.435 38.8278C173.435 39.1188 173.529 39.3343 173.71 39.4637C173.892 39.5983 174.167 39.663 174.531 39.663C174.9 39.663 175.28 39.6198 175.677 39.5389L174.983 42.6577C174.74 42.7112 174.421 42.7549 174.035 42.798C173.644 42.8406 173.275 42.8623 172.917 42.8623C171.777 42.8623 170.923 42.6147 170.344 42.1135C169.772 41.613 169.479 40.8802 169.479 39.9109C169.479 39.4097 169.551 38.8332 169.689 38.1924L173.611 19.7863ZM188.929 31.1412C188.929 30.7968 188.786 30.5003 188.511 30.247C188.23 29.9938 187.806 29.8703 187.233 29.8703C186.803 29.8703 186.368 29.956 185.916 30.123C185.47 30.2902 185.051 30.538 184.66 30.8668C184.269 31.1953 183.916 31.5992 183.603 32.0735C183.289 32.5523 183.041 33.0965 182.859 33.716C184 33.716 184.958 33.6403 185.734 33.4951C186.506 33.3499 187.133 33.156 187.607 32.9132C188.081 32.6762 188.417 32.4021 188.621 32.0894C188.824 31.7826 188.929 31.4645 188.929 31.1412ZM192.769 31.1357C192.769 31.9922 192.559 32.7576 192.129 33.4306C191.705 34.1097 191.077 34.691 190.251 35.1653C189.425 35.6442 188.401 36.0106 187.183 36.2638C185.971 36.5117 184.572 36.641 182.992 36.641C182.81 36.641 182.578 36.6355 182.297 36.6246V36.7218C182.297 37.2764 182.38 37.7616 182.545 38.176C182.71 38.5963 182.953 38.9354 183.272 39.1941C183.592 39.4578 183.972 39.652 184.423 39.7705C184.875 39.8945 185.382 39.9535 185.944 39.9535C186.781 39.9535 187.663 39.8563 188.588 39.657C189.513 39.4578 190.323 39.1887 191.011 38.855L190.318 42.1407C189.651 42.4044 188.885 42.6146 188.032 42.7816C187.178 42.9432 186.263 43.024 185.299 43.024C184.148 43.024 183.145 42.8733 182.297 42.566C181.444 42.2592 180.744 41.8338 180.188 41.2787C179.637 40.7295 179.224 40.0724 178.954 39.318C178.684 38.5586 178.552 37.7238 178.552 36.808C178.552 35.9945 178.64 35.1922 178.81 34.3946C178.981 33.5922 179.235 32.8275 179.571 32.0944C179.901 31.3673 180.314 30.6891 180.81 30.0642C181.306 29.4338 181.879 28.895 182.529 28.4376C183.179 27.9795 183.911 27.6187 184.715 27.3545C185.525 27.0908 186.401 26.9613 187.348 26.9613C188.175 26.9613 188.924 27.0635 189.59 27.2627C190.257 27.462 190.824 27.7426 191.292 28.1033C191.761 28.4643 192.124 28.9059 192.383 29.4229C192.642 29.9348 192.769 30.5058 192.769 31.1357ZM205.724 30.5435C205.261 30.441 204.815 30.3869 204.386 30.3869C204 30.3869 203.609 30.4304 203.207 30.5108C202.81 30.5976 202.425 30.7319 202.044 30.9262C201.67 31.1145 201.317 31.3623 200.981 31.675C200.645 31.9818 200.359 32.3695 200.111 32.8329C199.99 33.054 199.874 33.3231 199.764 33.6403C199.649 33.953 199.533 34.3892 199.417 34.9493L197.786 42.6364H193.981L197.219 27.3491H200.464V29.2665H200.53C201.141 28.5394 201.824 27.9739 202.579 27.5701C203.333 27.1657 204.214 26.9613 205.229 26.9613C205.625 26.9613 206.038 26.9937 206.467 27.058L205.724 30.5435ZM224.215 47.9365C223.802 47.5919 223.377 47.1229 222.936 46.5301C222.496 45.9438 222.094 45.2431 221.736 44.4356C221.378 43.6218 221.075 42.6953 220.838 41.6559C220.601 40.6166 220.485 39.4638 220.485 38.1979C220.485 36.2855 220.717 34.4705 221.18 32.7516C221.642 31.0386 222.264 29.4502 223.052 27.9904C223.834 26.5253 224.743 25.2004 225.779 24.0094C226.809 22.8242 227.9 21.8007 229.04 20.9497L230.83 22.9055C229.783 23.81 228.836 24.8226 227.971 25.9378C227.112 27.0531 226.373 28.265 225.762 29.5845C225.151 30.899 224.672 32.3051 224.336 33.8133C223.995 35.3157 223.823 36.9156 223.823 38.6068C223.823 40.1691 224.022 41.5588 224.413 42.7925C224.81 44.0203 225.377 45.0874 226.115 45.9815L224.215 47.9365ZM233.577 39.8317H242.41L241.822 42.6364H229.572L233.448 24.3243H236.866L233.577 39.8317ZM248.25 26.3432L248.981 22.8378H252.451L251.724 26.3432H248.25ZM244.866 42.6364L247.691 29.3721H250.999L248.169 42.6364H244.866ZM265.068 31.3491C265.647 30.6011 266.331 30.0262 267.114 29.6289C267.898 29.2318 268.73 29.0357 269.609 29.0357C270.159 29.0357 270.656 29.11 271.106 29.2599C271.554 29.4138 271.942 29.634 272.267 29.9235C272.596 30.2181 272.845 30.5734 273.021 30.9942C273.203 31.414 273.289 31.8956 273.289 32.447C273.289 32.7838 273.256 33.1573 273.194 33.569C273.127 33.9802 273.05 34.3914 272.969 34.8027L271.301 42.6364H267.999L269.647 34.8545C269.743 34.4152 269.805 34.0645 269.839 33.7983C269.872 33.5313 269.887 33.3072 269.887 33.1253C269.887 32.9333 269.862 32.7557 269.81 32.5919C269.757 32.4286 269.676 32.2835 269.566 32.1574C269.451 32.0362 269.303 31.9378 269.117 31.863C268.931 31.793 268.701 31.7553 268.429 31.7553C267.87 31.7553 267.344 31.9098 266.847 32.2229C266.355 32.536 265.929 32.9616 265.575 33.499C265.389 33.7746 265.226 34.0829 265.083 34.4337C264.944 34.7796 264.825 35.1957 264.72 35.6768L263.248 42.6364H259.945L261.599 34.8545C261.69 34.4196 261.752 34.0646 261.786 33.8028C261.819 33.5363 261.838 33.3118 261.838 33.1298C261.838 32.9383 261.809 32.7603 261.757 32.5919C261.709 32.4286 261.628 32.2836 261.513 32.1621C261.403 32.0362 261.25 31.9377 261.064 31.8679C260.877 31.793 260.653 31.7553 260.38 31.7553C259.864 31.7553 259.377 31.8864 258.918 32.1529C258.454 32.4193 258.048 32.7839 257.689 33.251C257.469 33.5506 257.269 33.8963 257.102 34.284C256.934 34.672 256.796 35.1254 256.681 35.6487L255.199 42.6364H251.897L254.707 29.3721H257.522V31.036H257.579C257.804 30.7696 258.067 30.5167 258.363 30.2743C258.664 30.0311 258.984 29.8204 259.338 29.6379C259.687 29.4563 260.06 29.3112 260.461 29.1991C260.863 29.0915 261.279 29.0357 261.709 29.0357C262.54 29.0357 263.243 29.2318 263.826 29.6289C264.404 30.0262 264.801 30.6011 265.016 31.3491H265.068ZM278.217 26.3432L278.948 22.8378H282.418L281.691 26.3432H278.217ZM274.833 42.6364L277.658 29.3721H280.965L278.135 42.6364H274.833ZM291.857 32.0362H288.33L286.987 38.4297C286.939 38.6308 286.905 38.8086 286.882 38.958C286.858 39.1077 286.848 39.2387 286.848 39.3503C286.848 39.687 286.939 39.9207 287.125 40.0565C287.312 40.1872 287.641 40.2525 288.106 40.2525C288.426 40.2525 288.831 40.2199 289.324 40.1501C289.821 40.0797 290.261 40.0002 290.653 39.9117L290.108 42.6031C289.659 42.7202 289.171 42.8138 288.645 42.8791C288.12 42.94 287.622 42.9726 287.154 42.9726C286.509 42.9726 285.955 42.9074 285.486 42.7767C285.023 42.6409 284.635 42.4538 284.335 42.206C284.029 41.9583 283.804 41.6591 283.661 41.3041C283.517 40.9488 283.445 40.5471 283.445 40.0981C283.445 39.9439 283.455 39.7569 283.469 39.5417C283.488 39.3321 283.532 39.0703 283.598 38.7712L285.027 32.0362H282.49L283.063 29.3721H285.587L286.385 25.6701H289.688L288.903 29.3721H292.431L291.857 32.0362ZM299.475 38.6074C299.475 38.3318 299.385 38.1076 299.208 37.9342C299.032 37.7617 298.802 37.6072 298.525 37.4764C298.243 37.3453 297.922 37.2241 297.564 37.1115C297.205 37.0044 296.842 36.878 296.479 36.7427C296.145 36.6165 295.819 36.4671 295.504 36.2937C295.193 36.1163 294.911 35.9015 294.663 35.6397C294.419 35.3822 294.223 35.0741 294.075 34.7187C293.932 34.3637 293.86 33.9335 293.86 33.4288C293.86 32.6809 294.003 32.0312 294.294 31.4797C294.581 30.9283 294.968 30.4705 295.456 30.1105C295.944 29.7506 296.508 29.4796 297.153 29.3017C297.793 29.1241 298.472 29.0357 299.179 29.0357C299.581 29.0357 299.987 29.0587 300.393 29.11C300.799 29.1614 301.196 29.2272 301.583 29.3158C301.971 29.3997 302.339 29.5026 302.697 29.6148C303.051 29.7269 303.371 29.8536 303.662 29.9887L303.127 32.5129C302.43 32.2369 301.741 32.0263 301.062 31.8865C300.389 31.7412 299.748 31.6713 299.151 31.6713C298.51 31.6713 298.013 31.798 297.659 32.0546C297.311 32.3069 297.139 32.6386 297.139 33.0457C297.139 33.2931 297.201 33.499 297.324 33.6716C297.454 33.8399 297.621 33.9848 297.831 34.1155C298.042 34.2421 298.281 34.3588 298.558 34.457C298.835 34.5554 299.122 34.6629 299.418 34.7699C299.801 34.9102 300.188 35.06 300.579 35.2234C300.971 35.3873 301.33 35.6066 301.646 35.8731C301.961 36.144 302.224 36.4761 302.424 36.8687C302.625 37.2609 302.726 37.7516 302.726 38.3458C302.726 39.1029 302.578 39.771 302.282 40.346C301.99 40.9211 301.569 41.4021 301.029 41.7947C300.489 42.1873 299.843 42.4816 299.098 42.6782C298.347 42.8747 297.521 42.9726 296.603 42.9726C296.092 42.9726 295.604 42.9444 295.15 42.8932C294.691 42.8373 294.275 42.767 293.908 42.6876C293.54 42.6032 293.22 42.5192 292.942 42.4257C292.67 42.3373 292.45 42.2533 292.292 42.1825L292.837 39.6075C293.454 39.8368 294.075 40.0142 294.706 40.1448C295.337 40.2715 295.972 40.3366 296.618 40.3366C297.554 40.3366 298.262 40.1822 298.749 39.8784C299.232 39.5748 299.475 39.1497 299.475 38.6074ZM308.365 23.8191C308.724 24.1182 309.092 24.5249 309.474 25.0395C309.857 25.5489 310.205 26.1566 310.526 26.8575C310.841 27.5628 311.099 28.3671 311.3 29.2691C311.501 30.1713 311.601 31.1716 311.601 32.2696C311.601 33.9291 311.4 35.504 310.999 36.9905C310.597 38.4814 310.057 39.8599 309.374 41.1262C308.695 42.3976 307.906 43.5479 307.008 44.5808C306.114 45.6089 305.173 46.4966 304.183 47.2355L302.625 45.5384C303.533 44.7533 304.36 43.8746 305.106 42.9073C305.851 41.94 306.492 40.8881 307.023 39.7434C307.557 38.6027 307.968 37.378 308.26 36.0695C308.556 34.756 308.704 33.3725 308.704 31.9146C308.704 30.5592 308.533 29.353 308.193 28.2828C307.854 27.2175 307.362 26.2919 306.716 25.5162L308.365 23.8191ZM95.4219 45.5739H228.731V47.043H95.4219V45.5739ZM228.731 45.1858H312.638V46.4603H228.731V45.1858Z" fill="#373435"/>
<path d="M13.584 108.739L20.4844 98.5462L14.2263 89.1907H18.9397L22.8766 95.0106L26.813 89.1907H31.5356L25.2637 98.5507L32.1502 108.739H27.3012L22.8714 102.118L18.4375 108.739H13.584ZM33.169 102.405L37.1058 102.022C37.343 103.311 37.8178 104.253 38.5391 104.858C39.2599 105.463 40.2327 105.763 41.4566 105.763C42.7502 105.763 43.7272 105.495 44.3835 104.958C45.0399 104.421 45.3698 103.793 45.3698 103.074C45.3698 102.61 45.2301 102.219 44.9559 101.891C44.6811 101.568 44.1974 101.285 43.5086 101.049C43.0385 100.885 41.9681 100.603 40.2931 100.193C38.1389 99.6655 36.6268 99.0196 35.7565 98.2509C34.5326 97.1723 33.9227 95.857 33.9227 94.3051C33.9227 93.3089 34.2113 92.3713 34.7837 91.5024C35.3606 90.6333 36.1891 89.9733 37.2729 89.5185C38.3575 89.0633 39.6599 88.8358 41.1963 88.8358C43.6948 88.8358 45.5796 89.3774 46.8402 90.4649C48.1056 91.5525 48.7669 92.9994 48.8319 94.8153L44.7836 94.9519C44.6114 93.9416 44.2438 93.2176 43.6808 92.7764C43.1177 92.3353 42.2707 92.1125 41.1447 92.1125C39.9811 92.1125 39.0696 92.3485 38.4132 92.8218C37.9899 93.1268 37.7759 93.5318 37.7759 94.0415C37.7759 94.5053 37.976 94.9017 38.3762 95.2293C38.8834 95.6523 40.1167 96.0889 42.0754 96.5441C44.034 96.9944 45.4811 97.4679 46.4169 97.9499C47.3568 98.4374 48.092 99.0968 48.622 99.9389C49.1525 100.78 49.4181 101.818 49.4181 103.051C49.4181 104.17 49.102 105.222 48.4643 106.2C47.827 107.178 46.9284 107.906 45.7652 108.38C44.6022 108.857 43.1503 109.094 41.4148 109.094C38.888 109.094 36.9475 108.525 35.5936 107.383C34.2396 106.246 33.4344 104.585 33.169 102.405ZM33.169 163.637L37.1058 163.255C37.343 164.543 37.8178 165.485 38.5391 166.09C39.2599 166.696 40.2327 166.995 41.4566 166.995C42.7502 166.995 43.7272 166.727 44.3835 166.19C45.0399 165.653 45.3698 165.026 45.3698 164.307C45.3698 163.842 45.2301 163.451 44.9559 163.123C44.6811 162.8 44.1974 162.518 43.5086 162.281C43.0385 162.117 41.9681 161.836 40.2931 161.426C38.1389 160.898 36.6268 160.252 35.7565 159.483C34.5326 158.405 33.9227 157.089 33.9227 155.537C33.9227 154.541 34.2113 153.603 34.7837 152.735C35.3606 151.865 36.1891 151.206 37.2729 150.751C38.3575 150.296 39.6599 150.069 41.1963 150.069C43.6948 150.069 45.5796 150.61 46.8402 151.697C48.1056 152.785 48.7669 154.232 48.8319 156.048L44.7836 156.184C44.6114 155.174 44.2438 154.45 43.6808 154.009C43.1177 153.568 42.2707 153.345 41.1447 153.345C39.9811 153.345 39.0696 153.581 38.4132 154.054C37.9899 154.359 37.7759 154.764 37.7759 155.274C37.7759 155.738 37.976 156.134 38.3762 156.462C38.8834 156.885 40.1167 157.321 42.0754 157.777C44.034 158.227 45.4811 158.7 46.4169 159.182C47.3568 159.67 48.092 160.329 48.622 161.171C49.1525 162.013 49.4181 163.051 49.4181 164.283C49.4181 165.403 49.102 166.454 48.4643 167.433C47.827 168.411 46.9284 169.139 45.7652 169.612C44.6022 170.09 43.1503 170.327 41.4148 170.327C38.888 170.327 36.9475 169.758 35.5936 168.616C34.2396 167.478 33.4344 165.817 33.169 163.637Z" fill="#373435"/>
<path d="M2.25098 125.415H491" stroke="#373435" stroke-width="1.22804" stroke-miterlimit="2.61313"/>
<path d="M65.0625 77.5838V182.736" stroke="#373435" stroke-width="1.22804" stroke-miterlimit="2.61313"/>
<path d="M180.773 77.5838V182.736" stroke="#373435" stroke-width="1.22804" stroke-miterlimit="2.61313"/>
<path d="M99.0194 104.589V108.056H85.5908C85.7347 106.736 86.1719 105.489 86.8983 104.311C87.6238 103.132 89.0616 101.567 91.2023 99.6153C92.9284 98.0408 93.9849 96.9709 94.3755 96.4113C94.9015 95.6379 95.1666 94.8738 95.1666 94.1138C95.1666 93.2769 94.9387 92.635 94.4782 92.1843C94.0219 91.734 93.3894 91.5109 92.5841 91.5109C91.7839 91.5109 91.1507 91.7477 90.6769 92.2212C90.2063 92.6896 89.9366 93.4719 89.8618 94.5691L86.0373 94.1959C86.2653 92.1299 86.9772 90.6466 88.1774 89.7451C89.3782 88.8488 90.8764 88.3986 92.6772 88.3986C94.65 88.3986 96.1998 88.9218 97.3309 89.9638C98.4567 91.0061 99.0194 92.3024 99.0194 93.8543C99.0194 94.7375 98.8569 95.5744 98.5357 96.3755C98.2146 97.1716 97.7026 98.0041 96.9998 98.8784C96.5394 99.4607 95.6971 100.293 94.4871 101.381C93.2728 102.469 92.5052 103.187 92.1839 103.547C91.8581 103.902 91.5977 104.252 91.3976 104.589H99.0194ZM102.403 108.056V104.316H106.227V108.056H102.403ZM109.405 103.037L113.23 102.65C113.342 103.497 113.663 104.17 114.198 104.666C114.738 105.162 115.357 105.408 116.06 105.408C116.86 105.408 117.54 105.089 118.093 104.447C118.647 103.806 118.926 102.841 118.926 101.553C118.926 100.343 118.652 99.4379 118.098 98.8328C117.549 98.2274 116.832 97.9269 115.948 97.9269C114.845 97.9269 113.854 98.4004 112.979 99.3467L109.88 98.91L111.835 88.7533H121.969V92.2478H114.743L114.138 95.5743C114.989 95.1604 115.864 94.9512 116.758 94.9512C118.46 94.9512 119.903 95.5568 121.085 96.7713C122.271 97.9813 122.863 99.556 122.863 101.495C122.863 103.11 122.383 104.548 121.429 105.817C120.126 107.547 118.321 108.411 116.013 108.411C114.166 108.411 112.658 107.925 111.495 106.955C110.327 105.982 109.634 104.68 109.405 103.037ZM133.332 108.056V88.5079H137.157V98.8784L141.638 93.8859H146.356L141.415 99.0648L146.72 108.056H142.587L138.93 101.663L137.157 103.519V108.056H133.332ZM148.637 108.957L153.02 109.476C153.094 109.981 153.262 110.327 153.523 110.518C153.89 110.786 154.462 110.923 155.244 110.923C156.245 110.923 156.993 110.777 157.497 110.482C157.831 110.286 158.087 109.972 158.259 109.535C158.376 109.226 158.436 108.648 158.436 107.815L158.455 105.745C157.301 107.287 155.849 108.056 154.099 108.056C152.154 108.056 150.61 107.251 149.474 105.645C148.581 104.375 148.134 102.792 148.134 100.903C148.134 98.5277 148.72 96.7163 149.888 95.4654C151.057 94.2136 152.513 93.5859 154.253 93.5859C156.044 93.5859 157.524 94.3553 158.688 95.8931V93.8859H162.261V106.591C162.261 108.261 162.122 109.512 161.838 110.336C161.559 111.164 161.163 111.81 160.651 112.283C160.144 112.752 159.465 113.125 158.613 113.389C157.762 113.658 156.687 113.79 155.388 113.79C152.931 113.79 151.191 113.376 150.163 112.552C149.135 111.724 148.623 110.682 148.623 109.412C148.623 109.29 148.628 109.135 148.637 108.957ZM152.07 100.685C152.07 102.186 152.369 103.283 152.96 103.979C153.555 104.675 154.29 105.026 155.16 105.026C156.091 105.026 156.882 104.666 157.524 103.951C158.171 103.237 158.492 102.182 158.492 100.78C158.492 99.3149 158.185 98.2274 157.566 97.5174C156.952 96.8076 156.17 96.4527 155.226 96.4527C154.309 96.4527 153.555 96.8036 152.96 97.4988C152.369 98.1952 152.07 99.2559 152.07 100.685ZM93.885 164.334L97.7099 163.947C97.8214 164.794 98.1425 165.467 98.6778 165.963C99.2175 166.459 99.8367 166.705 100.539 166.705C101.34 166.705 102.019 166.387 102.572 165.745C103.126 165.103 103.405 164.138 103.405 162.851C103.405 161.641 103.131 160.735 102.577 160.13C102.028 159.524 101.311 159.224 100.427 159.224C99.3242 159.224 98.3338 159.698 97.4589 160.644L94.3599 160.207L96.3144 150.05H106.449V153.545H99.2222L98.6174 156.871C99.4691 156.457 100.344 156.248 101.237 156.248C102.94 156.248 104.383 156.854 105.565 158.069C106.751 159.279 107.342 160.853 107.342 162.792C107.342 164.407 106.862 165.845 105.909 167.115C104.606 168.844 102.8 169.709 100.493 169.709C98.6452 169.709 97.1377 169.222 95.9742 168.252C94.8064 167.278 94.1134 165.977 93.885 164.334ZM125.568 169.353V149.805H129.393V160.175L133.875 155.183H138.593L133.651 160.362L138.956 169.353H134.824L131.166 162.96L129.393 164.816V169.353H125.568ZM140.873 170.254L145.256 170.773C145.33 171.278 145.498 171.624 145.759 171.815C146.127 172.084 146.699 172.22 147.48 172.22C148.481 172.22 149.23 172.075 149.733 171.779C150.068 171.583 150.324 171.269 150.495 170.832C150.612 170.523 150.673 169.945 150.673 169.112L150.691 167.041C149.537 168.584 148.085 169.353 146.336 169.353C144.391 169.353 142.846 168.548 141.711 166.942C140.817 165.672 140.371 164.088 140.371 162.2C140.371 159.825 140.956 158.014 142.125 156.762C143.293 155.511 144.749 154.883 146.489 154.883C148.281 154.883 149.76 155.652 150.924 157.19V155.183H154.498V167.888C154.498 169.558 154.358 170.809 154.074 171.633C153.795 172.461 153.399 173.107 152.888 173.581C152.38 174.049 151.701 174.422 150.849 174.686C149.998 174.954 148.923 175.086 147.625 175.086C145.168 175.086 143.427 174.673 142.399 173.849C141.371 173.02 140.859 171.979 140.859 170.709C140.859 170.586 140.864 170.431 140.873 170.254ZM144.307 161.982C144.307 163.483 144.605 164.58 145.196 165.276C145.791 165.973 146.527 166.322 147.397 166.322C148.328 166.322 149.118 165.963 149.76 165.249C150.407 164.535 150.728 163.479 150.728 162.077C150.728 160.612 150.422 159.524 149.802 158.814C149.188 158.105 148.406 157.749 147.462 157.749C146.546 157.749 145.791 158.1 145.196 158.796C144.605 159.492 144.307 160.553 144.307 161.982Z" fill="#373435"/>
<path d="M207.671 96.5716C206.685 96.1622 205.964 95.6025 205.517 94.8834C205.066 94.1696 204.843 93.382 204.843 92.5314C204.843 91.0705 205.364 89.8644 206.402 88.9135C207.439 87.9627 208.919 87.4846 210.831 87.4846C212.73 87.4846 214.2 87.9627 215.247 88.9135C216.294 89.8644 216.82 91.0705 216.82 92.5314C216.82 93.4366 216.578 94.242 216.094 94.9518C215.615 95.6573 214.935 96.1988 214.06 96.5716C215.172 97.009 216.015 97.6458 216.596 98.4828C217.173 99.3247 217.462 100.289 217.462 101.386C217.462 103.197 216.876 104.667 215.699 105.8C214.526 106.933 212.962 107.497 211.008 107.497C209.193 107.497 207.686 107.029 206.476 106.091C205.052 104.99 204.34 103.47 204.34 101.545C204.34 100.485 204.61 99.5108 205.145 98.6239C205.68 97.7365 206.522 97.054 207.671 96.5716ZM208.472 92.8037C208.472 93.5503 208.686 94.1373 209.114 94.5558C209.547 94.9747 210.119 95.1838 210.831 95.1838C211.557 95.1838 212.134 94.9701 212.567 94.5466C213 94.1236 213.218 93.5367 213.218 92.79C213.218 92.0847 213.004 91.5209 212.577 91.0975C212.143 90.6745 211.576 90.4609 210.873 90.4609C210.138 90.4609 209.556 90.6745 209.124 91.102C208.691 91.53 208.472 92.0989 208.472 92.8037ZM208.109 101.186C208.109 102.228 208.379 103.037 208.919 103.62C209.458 104.202 210.129 104.494 210.933 104.494C211.725 104.494 212.376 104.212 212.893 103.653C213.409 103.092 213.665 102.283 213.665 101.227C213.665 100.303 213.404 99.5612 212.879 99.0015C212.353 98.4419 211.687 98.1601 210.882 98.1601C209.947 98.1601 209.254 98.4787 208.793 99.1155C208.337 99.7523 208.109 100.439 208.109 101.186ZM233.353 97.1765L229.584 97.8323C229.458 97.0993 229.169 96.5488 228.718 96.1762C228.267 95.8076 227.685 95.6205 226.969 95.6205C226.015 95.6205 225.251 95.9437 224.684 96.5901C224.116 97.2359 223.832 98.3145 223.832 99.8299C223.832 101.513 224.121 102.701 224.698 103.397C225.275 104.093 226.047 104.439 227.015 104.439C227.741 104.439 228.336 104.235 228.797 103.829C229.263 103.425 229.588 102.728 229.779 101.736L233.548 102.364C233.157 104.057 232.408 105.335 231.301 106.2C230.194 107.065 228.709 107.497 226.843 107.497C224.731 107.497 223.042 106.842 221.785 105.536C220.524 104.225 219.896 102.414 219.896 100.098C219.896 97.7547 220.529 95.9347 221.79 94.6287C223.051 93.3229 224.758 92.6722 226.912 92.6722C228.672 92.6722 230.072 93.0451 231.114 93.7873C232.152 94.5289 232.897 95.6575 233.353 97.1765ZM235.982 92.9722H239.5V94.9061C240.761 93.4182 242.264 92.6722 244.009 92.6722C244.935 92.6722 245.74 92.8587 246.419 93.2318C247.103 93.6048 247.661 94.1696 248.094 94.9244C248.732 94.1696 249.421 93.6048 250.156 93.2318C250.891 92.8587 251.677 92.6722 252.515 92.6722C253.576 92.6722 254.474 92.8813 255.214 93.3049C255.949 93.7277 256.498 94.3465 256.861 95.1658C257.126 95.7663 257.256 96.7448 257.256 98.0966V107.142H253.432V99.0559C253.432 97.6499 253.301 96.7448 253.036 96.3396C252.683 95.8076 252.133 95.5384 251.398 95.5384C250.863 95.5384 250.356 95.6977 249.881 96.0169C249.411 96.3395 249.067 96.8083 248.857 97.4228C248.648 98.041 248.546 99.0156 248.546 100.349V107.142H244.721V99.3882C244.721 98.0143 244.651 97.1219 244.515 96.7266C244.381 96.3258 244.172 96.0254 243.883 95.8304C243.599 95.6343 243.208 95.5384 242.72 95.5384C242.128 95.5384 241.598 95.6936 241.129 96.0028C240.654 96.3168 240.319 96.7626 240.114 97.3499C239.909 97.9367 239.807 98.9108 239.807 100.267V107.142H235.982V92.9722ZM266.986 107.142L272.207 99.8434L267.209 92.9722H271.881L274.44 96.8675L277.158 92.9722H281.643L276.734 99.6843L282.09 107.142H277.423L274.44 102.751L271.471 107.142H266.986ZM304.244 103.675V107.142H290.815C290.959 105.823 291.396 104.576 292.123 103.397C292.848 102.219 294.286 100.654 296.427 98.7015C298.153 97.1269 299.209 96.0572 299.6 95.4975C300.126 94.7241 300.391 93.9599 300.391 93.2001C300.391 92.3631 300.163 91.7211 299.702 91.2705C299.246 90.8203 298.613 90.597 297.808 90.597C297.008 90.597 296.375 90.8339 295.901 91.3073C295.431 91.7758 295.161 92.5582 295.086 93.6547L291.262 93.2822C291.489 91.2161 292.201 89.7328 293.402 88.8314C294.602 87.935 296.101 87.4846 297.902 87.4846C299.874 87.4846 301.424 88.0079 302.555 89.0501C303.681 90.0922 304.244 91.3886 304.244 92.9403C304.244 93.8232 304.081 94.6606 303.76 95.4612C303.439 96.2573 302.927 97.0902 302.225 97.9638C301.764 98.5462 300.921 99.3793 299.711 100.467C298.497 101.554 297.729 102.273 297.408 102.633C297.083 102.988 296.822 103.338 296.622 103.675H304.244ZM316.617 107.142H312.792V92.9908C311.396 94.274 309.749 95.2251 307.85 95.8392V92.4267C308.851 92.108 309.935 91.5025 311.103 90.6061C312.275 89.7148 313.076 88.6719 313.513 87.4846H316.617V107.142ZM335.802 97.1765L332.033 97.8323C331.907 97.0993 331.619 96.5488 331.167 96.1762C330.716 95.8076 330.134 95.6205 329.418 95.6205C328.464 95.6205 327.7 95.9437 327.133 96.5901C326.565 97.2359 326.282 98.3145 326.282 99.8299C326.282 101.513 326.57 102.701 327.147 103.397C327.724 104.093 328.496 104.439 329.465 104.439C330.19 104.439 330.786 104.235 331.247 103.829C331.712 103.425 332.038 102.728 332.229 101.736L335.998 102.364C335.606 104.057 334.857 105.335 333.75 106.2C332.642 107.065 331.158 107.497 329.292 107.497C327.18 107.497 325.491 106.842 324.234 105.536C322.973 104.225 322.345 102.414 322.345 100.098C322.345 97.7547 322.978 95.9347 324.239 94.6287C325.5 93.3229 327.208 92.6722 329.362 92.6722C331.121 92.6722 332.521 93.0451 333.564 93.7873C334.601 94.5289 335.346 95.6575 335.802 97.1765ZM338.431 92.9722H341.949V94.9061C343.21 93.4182 344.713 92.6722 346.458 92.6722C347.384 92.6722 348.189 92.8587 348.868 93.2318C349.552 93.6048 350.111 94.1696 350.544 94.9244C351.181 94.1696 351.87 93.6048 352.605 93.2318C353.34 92.8587 354.126 92.6722 354.964 92.6722C356.025 92.6722 356.923 92.8813 357.663 93.3049C358.398 93.7277 358.947 94.3465 359.31 95.1658C359.575 95.7663 359.706 96.7448 359.706 98.0966V107.142H355.881V99.0559C355.881 97.6499 355.75 96.7448 355.485 96.3396C355.132 95.8076 354.582 95.5384 353.847 95.5384C353.312 95.5384 352.805 95.6977 352.33 96.0169C351.86 96.3395 351.516 96.8083 351.306 97.4228C351.097 98.041 350.995 99.0156 350.995 100.349V107.142H347.17V99.3882C347.17 98.0143 347.1 97.1219 346.965 96.7266C346.83 96.3258 346.621 96.0254 346.332 95.8304C346.049 95.6343 345.658 95.5384 345.169 95.5384C344.578 95.5384 344.047 95.6936 343.578 96.0028C343.103 96.3168 342.768 96.7626 342.563 97.3499C342.358 97.9367 342.256 98.9108 342.256 100.267V107.142H338.431V92.9722ZM369.435 107.142L374.656 99.8434L369.658 92.9722H374.33L376.889 96.8675L379.607 92.9722H384.092L379.183 99.6843L384.539 107.142H379.872L376.889 102.751L373.921 107.142H369.435ZM406.721 92.3807L403.008 92.781C402.92 92.0353 402.682 91.4849 402.3 91.1294C401.919 90.7744 401.426 90.597 400.816 90.597C400.007 90.597 399.322 90.952 398.764 91.6618C398.205 92.3721 397.857 93.851 397.713 96.0986C398.666 94.9974 399.848 94.4469 401.268 94.4469C402.863 94.4469 404.236 95.0427 405.376 96.2346C406.516 97.432 407.084 98.9699 407.084 100.858C407.084 102.86 406.484 104.471 405.283 105.682C404.082 106.892 402.543 107.497 400.663 107.497C398.648 107.497 396.986 106.728 395.688 105.19C394.39 103.652 393.739 101.136 393.739 97.6321C393.739 94.0419 394.418 91.4525 395.772 89.8644C397.126 88.2766 398.885 87.4846 401.049 87.4846C402.566 87.4846 403.822 87.9031 404.817 88.7405C405.814 89.5734 406.446 90.7885 406.721 92.3807ZM398.038 100.562C398.038 101.781 398.326 102.724 398.899 103.388C399.471 104.052 400.123 104.385 400.862 104.385C401.57 104.385 402.161 104.112 402.635 103.57C403.106 103.024 403.343 102.133 403.343 100.894C403.343 99.6208 403.087 98.6878 402.579 98.0915C402.068 97.5 401.435 97.2041 400.672 97.2041C399.932 97.2041 399.313 97.4864 398.801 98.0551C398.294 98.6192 398.038 99.4564 398.038 100.562ZM415.758 87.4846C417.693 87.4846 419.206 88.1629 420.299 89.5186C421.597 91.1203 422.249 93.7823 422.249 97.4955C422.249 101.204 421.593 103.87 420.285 105.491C419.201 106.828 417.693 107.497 415.758 107.497C413.812 107.497 412.244 106.764 411.053 105.3C409.862 103.834 409.267 101.217 409.267 97.4588C409.267 93.7688 409.922 91.1112 411.23 89.4912C412.314 88.1536 413.822 87.4846 415.758 87.4846ZM415.758 90.597C415.301 90.597 414.892 90.7426 414.538 91.034C414.18 91.3203 413.901 91.8391 413.706 92.5899C413.445 93.5594 413.314 95.1975 413.314 97.4955C413.314 99.7981 413.431 101.377 413.664 102.237C413.896 103.097 414.19 103.67 414.543 103.957C414.897 104.244 415.301 104.385 415.758 104.385C416.214 104.385 416.623 104.239 416.981 103.948C417.335 103.661 417.614 103.142 417.81 102.392C418.07 101.431 418.201 99.7981 418.201 97.4955C418.201 95.1975 418.084 93.6188 417.852 92.7584C417.619 91.8987 417.326 91.3203 416.972 91.034C416.618 90.7426 416.214 90.597 415.758 90.597ZM438.251 97.1765L434.482 97.8323C434.356 97.0993 434.068 96.5488 433.617 96.1762C433.165 95.8076 432.584 95.6205 431.867 95.6205C430.913 95.6205 430.15 95.9437 429.582 96.5901C429.015 97.2359 428.731 98.3145 428.731 99.8299C428.731 101.513 429.019 102.701 429.596 103.397C430.174 104.093 430.945 104.439 431.914 104.439C432.64 104.439 433.235 104.235 433.696 103.829C434.161 103.425 434.487 102.728 434.678 101.736L438.447 102.364C438.056 104.057 437.306 105.335 436.199 106.2C435.092 107.065 433.608 107.497 431.741 107.497C429.629 107.497 427.94 106.842 426.683 105.536C425.423 104.225 424.795 102.414 424.795 100.098C424.795 97.7547 425.427 95.9347 426.688 94.6287C427.949 93.3229 429.657 92.6722 431.811 92.6722C433.57 92.6722 434.971 93.0451 436.013 93.7873C437.05 94.5289 437.795 95.6575 438.251 97.1765ZM440.88 92.9722H444.398V94.9061C445.659 93.4182 447.162 92.6722 448.907 92.6722C449.833 92.6722 450.638 92.8587 451.317 93.2318C452.002 93.6048 452.56 94.1696 452.993 94.9244C453.63 94.1696 454.319 93.6048 455.054 93.2318C455.789 92.8587 456.575 92.6722 457.413 92.6722C458.474 92.6722 459.372 92.8813 460.112 93.3049C460.847 93.7277 461.396 94.3465 461.759 95.1658C462.024 95.7663 462.155 96.7448 462.155 98.0966V107.142H458.33V99.0559C458.33 97.6499 458.2 96.7448 457.934 96.3396C457.581 95.8076 457.032 95.5384 456.296 95.5384C455.761 95.5384 455.254 95.6977 454.78 96.0169C454.31 96.3395 453.965 96.8083 453.756 97.4228C453.546 98.041 453.444 99.0156 453.444 100.349V107.142H449.619V99.3882C449.619 98.0143 449.549 97.1219 449.414 96.7266C449.279 96.3258 449.07 96.0254 448.781 95.8304C448.498 95.6343 448.107 95.5384 447.618 95.5384C447.027 95.5384 446.497 95.6936 446.027 96.0028C445.552 96.3168 445.217 96.7626 445.013 97.3499C444.808 97.9367 444.705 98.9108 444.705 100.267V107.142H440.88V92.9722ZM214.168 169.18H210.343V155.029C208.947 156.312 207.3 157.263 205.401 157.877V154.465C206.402 154.146 207.485 153.541 208.653 152.644C209.826 151.753 210.627 150.71 211.064 149.523H214.168V169.18ZM232.85 165.713V169.18H219.421C219.566 167.861 220.003 166.614 220.729 165.435C221.455 164.257 222.893 162.692 225.033 160.74C226.759 159.165 227.816 158.096 228.207 157.536C228.732 156.762 228.997 155.998 228.997 155.238C228.997 154.401 228.769 153.759 228.309 153.309C227.852 152.858 227.22 152.635 226.415 152.635C225.615 152.635 224.982 152.872 224.507 153.345C224.037 153.814 223.767 154.596 223.693 155.693L219.868 155.32C220.096 153.254 220.808 151.771 222.008 150.87C223.209 149.973 224.707 149.523 226.508 149.523C228.481 149.523 230.031 150.046 231.161 151.088C232.287 152.13 232.85 153.427 232.85 154.978C232.85 155.862 232.687 156.699 232.366 157.5C232.045 158.296 231.533 159.129 230.831 160.002C230.37 160.585 229.527 161.418 228.318 162.505C227.104 163.593 226.336 164.312 226.015 164.671C225.689 165.026 225.429 165.376 225.228 165.713H232.85ZM248.881 159.215L245.112 159.871C244.986 159.138 244.698 158.587 244.246 158.214C243.795 157.846 243.213 157.659 242.496 157.659C241.543 157.659 240.779 157.982 240.212 158.628C239.644 159.274 239.36 160.353 239.36 161.868C239.36 163.551 239.649 164.74 240.225 165.435C240.803 166.132 241.575 166.477 242.543 166.477C243.269 166.477 243.864 166.273 244.325 165.867C244.791 165.463 245.116 164.766 245.307 163.775L249.076 164.403C248.685 166.095 247.936 167.374 246.829 168.239C245.721 169.103 244.237 169.535 242.371 169.535C240.258 169.535 238.569 168.88 237.312 167.574C236.052 166.264 235.424 164.452 235.424 162.137C235.424 159.793 236.057 157.973 237.318 156.667C238.579 155.361 240.286 154.71 242.44 154.71C244.199 154.71 245.6 155.083 246.642 155.825C247.68 156.567 248.425 157.695 248.881 159.215ZM251.51 155.011H255.027V156.944C256.289 155.457 257.792 154.71 259.537 154.71C260.462 154.71 261.268 154.897 261.947 155.27C262.631 155.643 263.189 156.208 263.622 156.963C264.26 156.208 264.948 155.643 265.684 155.27C266.419 154.897 267.205 154.71 268.042 154.71C269.103 154.71 270.002 154.92 270.741 155.343C271.477 155.766 272.026 156.384 272.389 157.204C272.654 157.805 272.784 158.783 272.784 160.135V169.18H268.959V161.094C268.959 159.688 268.829 158.783 268.564 158.378C268.21 157.846 267.661 157.577 266.926 157.577C266.39 157.577 265.883 157.736 265.409 158.055C264.939 158.378 264.595 158.847 264.385 159.461C264.176 160.08 264.074 161.054 264.074 162.387V169.18H260.248V161.427C260.248 160.052 260.179 159.16 260.043 158.765C259.909 158.364 259.699 158.063 259.411 157.868C259.127 157.672 258.736 157.577 258.248 157.577C257.656 157.577 257.126 157.732 256.657 158.041C256.182 158.355 255.847 158.801 255.642 159.388C255.437 159.975 255.335 160.949 255.335 162.305V169.18H251.51V155.011ZM282.513 169.18L287.735 161.882L282.737 155.011H287.409L289.968 158.905L292.685 155.011H297.171L292.262 161.722L297.618 169.18H292.951L289.968 164.789L286.999 169.18H282.513ZM314.327 169.18V165.249H306.175V161.986L314.821 149.55H318.041V161.973H320.526V165.249H318.041V169.18H314.327ZM314.327 161.973V155.297L309.758 161.973H314.327ZM322.401 164.161L326.226 163.775C326.337 164.621 326.658 165.294 327.194 165.79C327.733 166.286 328.352 166.532 329.055 166.532C329.855 166.532 330.535 166.213 331.088 165.571C331.642 164.931 331.921 163.966 331.921 162.677C331.921 161.467 331.647 160.562 331.093 159.957C330.544 159.352 329.827 159.051 328.943 159.051C327.84 159.051 326.85 159.524 325.975 160.471L322.876 160.034L324.83 149.878H334.965V153.372H327.738L327.133 156.699C327.985 156.284 328.86 156.075 329.753 156.075C331.456 156.075 332.899 156.681 334.08 157.896C335.267 159.106 335.858 160.68 335.858 162.619C335.858 164.234 335.378 165.672 334.425 166.941C333.122 168.671 331.316 169.535 329.009 169.535C327.161 169.535 325.653 169.049 324.49 168.079C323.322 167.106 322.629 165.804 322.401 164.161ZM351.33 159.215L347.561 159.871C347.435 159.138 347.146 158.587 346.695 158.214C346.244 157.846 345.662 157.659 344.945 157.659C343.992 157.659 343.228 157.982 342.661 158.628C342.093 159.274 341.809 160.353 341.809 161.868C341.809 163.551 342.098 164.74 342.675 165.435C343.252 166.132 344.024 166.477 344.992 166.477C345.718 166.477 346.314 166.273 346.774 165.867C347.24 165.463 347.565 164.766 347.756 163.775L351.525 164.403C351.134 166.095 350.385 167.374 349.278 168.239C348.17 169.103 346.686 169.535 344.82 169.535C342.708 169.535 341.018 168.88 339.761 167.574C338.501 166.264 337.873 164.452 337.873 162.137C337.873 159.793 338.506 157.973 339.767 156.667C341.028 155.361 342.735 154.71 344.89 154.71C346.649 154.71 348.049 155.083 349.091 155.825C350.129 156.567 350.874 157.695 351.33 159.215ZM353.959 155.011H357.477V156.944C358.738 155.457 360.241 154.71 361.986 154.71C362.912 154.71 363.717 154.897 364.396 155.27C365.08 155.643 365.639 156.208 366.071 156.963C366.709 156.208 367.398 155.643 368.133 155.27C368.868 154.897 369.654 154.71 370.492 154.71C371.552 154.71 372.451 154.92 373.19 155.343C373.926 155.766 374.475 156.384 374.838 157.204C375.103 157.805 375.233 158.783 375.233 160.135V169.18H371.409V161.094C371.409 159.688 371.278 158.783 371.013 158.378C370.66 157.846 370.11 157.577 369.375 157.577C368.84 157.577 368.333 157.736 367.858 158.055C367.388 158.378 367.044 158.847 366.834 159.461C366.625 160.08 366.523 161.054 366.523 162.387V169.18H362.698V161.427C362.698 160.052 362.628 159.16 362.493 158.765C362.358 158.364 362.149 158.063 361.86 157.868C361.577 157.672 361.185 157.577 360.697 157.577C360.106 157.577 359.575 157.732 359.106 158.041C358.631 158.355 358.296 158.801 358.091 159.388C357.886 159.975 357.784 160.949 357.784 162.305V169.18H353.959V155.011ZM384.963 169.18L390.184 161.882L385.186 155.011H389.858L392.417 158.905L395.135 155.011H399.62L394.711 161.722L400.067 169.18H395.4L392.417 164.789L389.449 169.18H384.963ZM422.249 154.419L418.536 154.819C418.448 154.073 418.21 153.523 417.828 153.168C417.447 152.812 416.953 152.635 416.344 152.635C415.534 152.635 414.85 152.99 414.292 153.7C413.733 154.41 413.385 155.889 413.24 158.137C414.194 157.035 415.376 156.485 416.796 156.485C418.391 156.485 419.764 157.081 420.904 158.273C422.044 159.47 422.612 161.008 422.612 162.896C422.612 164.898 422.012 166.509 420.811 167.72C419.61 168.93 418.07 169.535 416.19 169.535C414.176 169.535 412.514 168.767 411.216 167.228C409.918 165.691 409.267 163.174 409.267 159.67C409.267 156.08 409.945 153.49 411.3 151.903C412.654 150.315 414.413 149.523 416.577 149.523C418.093 149.523 419.35 149.941 420.345 150.779C421.341 151.611 421.974 152.826 422.249 154.419ZM413.566 162.6C413.566 163.82 413.854 164.762 414.427 165.426C414.999 166.09 415.651 166.423 416.39 166.423C417.098 166.423 417.689 166.15 418.163 165.608C418.633 165.062 418.871 164.17 418.871 162.933C418.871 161.659 418.615 160.726 418.107 160.129C417.596 159.538 416.963 159.242 416.2 159.242C415.46 159.242 414.841 159.524 414.329 160.094C413.822 160.657 413.566 161.495 413.566 162.6ZM431.286 149.523C433.221 149.523 434.733 150.201 435.827 151.556C437.125 153.159 437.777 155.82 437.777 159.534C437.777 163.242 437.12 165.908 435.813 167.529C434.729 168.866 433.221 169.535 431.286 169.535C429.34 169.535 427.772 168.803 426.581 167.338C425.39 165.873 424.795 163.256 424.795 159.497C424.795 155.807 425.45 153.149 426.757 151.53C427.842 150.192 429.35 149.523 431.286 149.523ZM431.286 152.635C430.829 152.635 430.419 152.781 430.066 153.072C429.708 153.359 429.429 153.878 429.234 154.628C428.972 155.598 428.842 157.236 428.842 159.534C428.842 161.836 428.959 163.415 429.191 164.275C429.424 165.135 429.717 165.708 430.071 165.995C430.425 166.282 430.829 166.423 431.286 166.423C431.741 166.423 432.151 166.277 432.509 165.986C432.863 165.699 433.142 165.18 433.338 164.43C433.598 163.47 433.728 161.836 433.728 159.534C433.728 157.236 433.612 155.657 433.379 154.797C433.147 153.937 432.853 153.359 432.5 153.072C432.146 152.781 431.741 152.635 431.286 152.635ZM453.779 159.215L450.01 159.871C449.884 159.138 449.596 158.587 449.145 158.214C448.693 157.846 448.112 157.659 447.395 157.659C446.441 157.659 445.678 157.982 445.11 158.628C444.542 159.274 444.258 160.353 444.258 161.868C444.258 163.551 444.547 164.74 445.124 165.435C445.701 166.132 446.473 166.477 447.441 166.477C448.167 166.477 448.763 166.273 449.224 165.867C449.689 165.463 450.015 164.766 450.205 163.775L453.975 164.403C453.583 166.095 452.834 167.374 451.727 168.239C450.619 169.103 449.135 169.535 447.269 169.535C445.156 169.535 443.467 168.88 442.211 167.574C440.95 166.264 440.322 164.452 440.322 162.137C440.322 159.793 440.955 157.973 442.216 156.667C443.477 155.361 445.185 154.71 447.339 154.71C449.098 154.71 450.499 155.083 451.541 155.825C452.578 156.567 453.323 157.695 453.779 159.215ZM456.408 155.011H459.926V156.944C461.187 155.457 462.69 154.71 464.435 154.71C465.361 154.71 466.166 154.897 466.845 155.27C467.53 155.643 468.088 156.208 468.521 156.963C469.158 156.208 469.847 155.643 470.582 155.27C471.317 154.897 472.103 154.71 472.941 154.71C474.002 154.71 474.9 154.92 475.64 155.343C476.375 155.766 476.924 156.384 477.287 157.204C477.552 157.805 477.683 158.783 477.683 160.135V169.18H473.858V161.094C473.858 159.688 473.727 158.783 473.462 158.378C473.109 157.846 472.559 157.577 471.824 157.577C471.289 157.577 470.782 157.736 470.307 158.055C469.837 158.378 469.493 158.847 469.284 159.461C469.074 160.08 468.972 161.054 468.972 162.387V169.18H465.147V161.427C465.147 160.052 465.077 159.16 464.942 158.765C464.807 158.364 464.598 158.063 464.309 157.868C464.026 157.672 463.634 157.577 463.146 157.577C462.555 157.577 462.024 157.732 461.555 158.041C461.08 158.355 460.745 158.801 460.541 159.388C460.335 159.975 460.233 160.949 460.233 162.305V169.18H456.408V155.011Z" fill="#373435"/>
<path d="M27.7414 222.637V203.089H33.804L37.3871 216.421L40.9286 203.089H47.0051V222.637H43.2642L43.2502 207.248L39.3092 222.637H35.4188L31.4963 207.248L31.4824 222.637H27.7414ZM34.1112 283.87V264.485H38.1594V280.566H48.1822V283.87H34.1112ZM13.3535 345.102L20.2538 334.909L13.9959 325.554H18.7093L22.646 331.373L26.5824 325.554H31.305L25.0331 334.914L31.9195 345.102H27.0707L22.6409 338.481L18.2069 345.102H13.3535ZM34.1112 345.102V325.718H38.1594V341.798H48.1822V345.102H34.1112Z" fill="#373435"/>
<path d="M0.450195 239.313H489.199" stroke="#373435" stroke-width="1.22804" stroke-miterlimit="2.61313"/>
<path d="M0.450195 301.138H489.199" stroke="#373435" stroke-width="1.22804" stroke-miterlimit="2.61313"/>
<path d="M97.9447 221.953H94.1203V207.802C92.7241 209.085 91.0768 210.036 89.178 210.651V207.238C90.1787 206.919 91.263 206.314 92.4308 205.417C93.6037 204.526 94.4038 203.483 94.8415 202.296H97.9447V221.953ZM110.165 202.296C112.1 202.296 113.612 202.974 114.706 204.33C116.004 205.931 116.656 208.593 116.656 212.307C116.656 216.015 115.999 218.682 114.692 220.302C113.607 221.639 112.1 222.309 110.165 222.309C108.219 222.309 106.651 221.575 105.46 220.111C104.269 218.645 103.673 216.029 103.673 212.27C103.673 208.58 104.329 205.922 105.636 204.302C106.721 202.965 108.228 202.296 110.165 202.296ZM110.165 205.408C109.708 205.408 109.298 205.554 108.945 205.845C108.587 206.131 108.308 206.65 108.112 207.401C107.851 208.37 107.721 210.009 107.721 212.307C107.721 214.609 107.837 216.188 108.07 217.048C108.303 217.908 108.596 218.481 108.95 218.768C109.304 219.055 109.708 219.196 110.165 219.196C110.62 219.196 111.03 219.05 111.388 218.759C111.742 218.472 112.021 217.953 112.217 217.203C112.477 216.242 112.607 214.609 112.607 212.307C112.607 210.009 112.491 208.43 112.258 207.569C112.025 206.71 111.732 206.131 111.379 205.845C111.025 205.554 110.62 205.408 110.165 205.408ZM127.655 221.953V202.405H131.48V212.775L135.961 207.783H140.68L135.738 212.962L141.043 221.953H136.911L133.253 215.56L131.48 217.417V221.953H127.655ZM142.96 222.854L147.343 223.373C147.418 223.878 147.586 224.224 147.846 224.415C148.214 224.684 148.786 224.82 149.567 224.82C150.568 224.82 151.317 224.675 151.82 224.379C152.155 224.183 152.411 223.869 152.583 223.432C152.699 223.123 152.76 222.545 152.76 221.712L152.778 219.641C151.625 221.184 150.172 221.953 148.423 221.953C146.478 221.953 144.933 221.148 143.798 219.542C142.904 218.272 142.457 216.689 142.457 214.8C142.457 212.425 143.043 210.614 144.212 209.362C145.38 208.111 146.836 207.483 148.577 207.483C150.368 207.483 151.847 208.252 153.011 209.79V207.783H156.584V220.488C156.584 222.158 156.445 223.41 156.161 224.233C155.882 225.061 155.486 225.707 154.975 226.181C154.468 226.649 153.788 227.022 152.936 227.286C152.085 227.555 151.01 227.687 149.712 227.687C147.255 227.687 145.515 227.273 144.486 226.449C143.458 225.621 142.946 224.579 142.946 223.309C142.946 223.187 142.951 223.032 142.96 222.854ZM146.394 214.582C146.394 216.084 146.692 217.18 147.283 217.876C147.878 218.573 148.614 218.923 149.484 218.923C150.414 218.923 151.205 218.564 151.847 217.849C152.494 217.135 152.816 216.079 152.816 214.677C152.816 213.212 152.509 212.124 151.89 211.415C151.275 210.705 150.493 210.349 149.549 210.349C148.632 210.349 147.878 210.701 147.283 211.396C146.692 212.093 146.394 213.153 146.394 214.582ZM101.099 279.783V283.25H87.6709C87.8148 281.931 88.252 280.684 88.9785 279.505C89.7039 278.327 91.1418 276.762 93.2824 274.81C95.0085 273.236 96.065 272.166 96.4558 271.606C96.9816 270.833 97.2467 270.068 97.2467 269.308C97.2467 268.471 97.0187 267.829 96.5583 267.378C96.1021 266.929 95.4694 266.705 94.6642 266.705C93.864 266.705 93.231 266.942 92.7566 267.415C92.2863 267.884 92.0167 268.666 91.942 269.763L88.1174 269.39C88.3453 267.324 89.0573 265.841 90.2577 264.94C91.4583 264.043 92.9566 263.593 94.7575 263.593C96.7301 263.593 98.2799 264.116 99.411 265.158C100.537 266.2 101.099 267.497 101.099 269.049C101.099 269.931 100.937 270.768 100.616 271.57C100.295 272.366 99.7827 273.199 99.0801 274.072C98.6196 274.655 97.7772 275.488 96.5672 276.575C95.353 277.663 94.5853 278.382 94.2642 278.741C93.9383 279.096 93.6778 279.446 93.4779 279.783H101.099ZM110.165 263.593C112.1 263.593 113.612 264.271 114.706 265.626C116.004 267.229 116.656 269.891 116.656 273.604C116.656 277.312 115.999 279.979 114.692 281.599C113.607 282.936 112.1 283.605 110.165 283.605C108.219 283.605 106.651 282.873 105.46 281.407C104.269 279.942 103.673 277.326 103.673 273.567C103.673 269.877 104.329 267.22 105.636 265.6C106.721 264.262 108.228 263.593 110.165 263.593ZM110.165 266.705C109.708 266.705 109.298 266.851 108.945 267.142C108.587 267.429 108.308 267.948 108.112 268.698C107.851 269.667 107.721 271.306 107.721 273.604C107.721 275.906 107.837 277.485 108.07 278.345C108.303 279.205 108.596 279.778 108.95 280.065C109.304 280.352 109.708 280.493 110.165 280.493C110.62 280.493 111.03 280.347 111.388 280.056C111.742 279.769 112.021 279.25 112.217 278.5C112.477 277.54 112.607 275.906 112.607 273.604C112.607 271.306 112.491 269.727 112.258 268.867C112.025 268.007 111.732 267.429 111.379 267.142C111.025 266.851 110.62 266.705 110.165 266.705ZM127.655 283.25V263.702H131.48V274.072L135.961 269.08H140.68L135.738 274.259L141.043 283.25H136.911L133.253 276.857L131.48 278.713V283.25H127.655ZM142.96 284.151L147.343 284.67C147.418 285.175 147.586 285.521 147.846 285.712C148.214 285.981 148.786 286.117 149.567 286.117C150.568 286.117 151.317 285.972 151.82 285.676C152.155 285.48 152.411 285.166 152.583 284.729C152.699 284.42 152.76 283.842 152.76 283.009L152.778 280.939C151.625 282.481 150.172 283.25 148.423 283.25C146.478 283.25 144.933 282.445 143.798 280.839C142.904 279.569 142.457 277.986 142.457 276.097C142.457 273.722 143.043 271.91 144.212 270.659C145.38 269.408 146.836 268.78 148.577 268.78C150.368 268.78 151.847 269.549 153.011 271.087V269.08H156.584V281.785C156.584 283.455 156.445 284.706 156.161 285.53C155.882 286.358 155.486 287.004 154.975 287.477C154.468 287.947 153.788 288.319 152.936 288.584C152.085 288.852 151.01 288.984 149.712 288.984C147.255 288.984 145.515 288.57 144.486 287.746C143.458 286.918 142.946 285.876 142.946 284.606C142.946 284.484 142.951 284.329 142.96 284.151ZM146.394 275.879C146.394 277.38 146.692 278.477 147.283 279.173C147.878 279.869 148.614 280.22 149.484 280.22C150.414 280.22 151.205 279.86 151.847 279.146C152.494 278.431 152.816 277.376 152.816 275.974C152.816 274.509 152.509 273.421 151.89 272.711C151.275 272.002 150.493 271.647 149.549 271.647C148.632 271.647 147.878 271.998 147.283 272.693C146.692 273.39 146.394 274.45 146.394 275.879ZM88.0334 339.364L91.7465 338.923C91.8631 339.851 92.1796 340.562 92.6962 341.053C93.2128 341.544 93.8356 341.79 94.5667 341.79C95.353 341.79 96.0139 341.494 96.5537 340.907C97.0888 340.32 97.3585 339.529 97.3585 338.527C97.3585 337.585 97.1027 336.835 96.5861 336.284C96.0695 335.733 95.4411 335.456 94.6966 335.456C94.2083 335.456 93.6269 335.551 92.9474 335.738L93.3706 332.698C94.4038 332.726 95.1901 332.503 95.7346 332.034C96.2795 331.57 96.549 330.946 96.549 330.168C96.549 329.509 96.3486 328.985 95.9484 328.59C95.5484 328.198 95.0179 328.002 94.3523 328.002C93.697 328.002 93.1381 328.225 92.6772 328.671C92.2122 329.117 91.9327 329.768 91.8305 330.623L88.3129 330.037C88.5593 328.844 88.9269 327.893 89.425 327.179C89.9184 326.469 90.6113 325.909 91.4955 325.5C92.3797 325.095 93.3757 324.89 94.4739 324.89C96.3536 324.89 97.8612 325.477 98.9966 326.655C99.9317 327.62 100.401 328.713 100.401 329.927C100.401 331.647 99.4434 333.026 97.5214 334.05C98.6664 334.291 99.578 334.828 100.267 335.665C100.95 336.502 101.295 337.512 101.295 338.696C101.295 340.411 100.653 341.876 99.3733 343.087C98.0937 344.297 96.5021 344.903 94.5946 344.903C92.7895 344.903 91.2908 344.392 90.1044 343.369C88.913 342.349 88.2242 341.016 88.0334 339.364ZM110.165 324.89C112.1 324.89 113.612 325.568 114.706 326.924C116.004 328.525 116.656 331.188 116.656 334.901C116.656 338.609 115.999 341.276 114.692 342.896C113.607 344.233 112.1 344.903 110.165 344.903C108.219 344.903 106.651 344.17 105.46 342.705C104.269 341.239 103.673 338.623 103.673 334.864C103.673 331.174 104.329 328.516 105.636 326.896C106.721 325.559 108.228 324.89 110.165 324.89ZM110.165 328.002C109.708 328.002 109.298 328.148 108.945 328.439C108.587 328.726 108.308 329.244 108.112 329.995C107.851 330.965 107.721 332.603 107.721 334.901C107.721 337.203 107.837 338.782 108.07 339.642C108.303 340.502 108.596 341.075 108.95 341.362C109.304 341.649 109.708 341.79 110.165 341.79C110.62 341.79 111.03 341.644 111.388 341.353C111.742 341.066 112.021 340.547 112.217 339.797C112.477 338.836 112.607 337.203 112.607 334.901C112.607 332.603 112.491 331.024 112.258 330.164C112.025 329.304 111.732 328.726 111.379 328.439C111.025 328.148 110.62 328.002 110.165 328.002ZM127.655 344.548V324.999H131.48V335.369L135.961 330.377H140.68L135.738 335.556L141.043 344.548H136.911L133.253 338.154L131.48 340.011V344.548H127.655ZM142.96 345.448L147.343 345.967C147.418 346.472 147.586 346.818 147.846 347.009C148.214 347.278 148.786 347.414 149.567 347.414C150.568 347.414 151.317 347.269 151.82 346.973C152.155 346.777 152.411 346.463 152.583 346.026C152.699 345.717 152.76 345.139 152.76 344.306L152.778 342.236C151.625 343.778 150.172 344.548 148.423 344.548C146.478 344.548 144.933 343.742 143.798 342.136C142.904 340.866 142.457 339.283 142.457 337.394C142.457 335.019 143.043 333.208 144.212 331.957C145.38 330.705 146.836 330.077 148.577 330.077C150.368 330.077 151.847 330.846 153.011 332.384V330.377H156.584V343.082C156.584 344.752 156.445 346.004 156.161 346.827C155.882 347.655 155.486 348.301 154.975 348.775C154.468 349.243 153.788 349.616 152.936 349.88C152.085 350.149 151.01 350.281 149.712 350.281C147.255 350.281 145.515 349.867 144.486 349.043C143.458 348.215 142.946 347.173 142.946 345.903C142.946 345.781 142.951 345.626 142.96 345.448ZM146.394 337.176C146.394 338.678 146.692 339.774 147.283 340.47C147.878 341.167 148.614 341.517 149.484 341.517C150.414 341.517 151.205 341.158 151.847 340.443C152.494 339.729 152.816 338.673 152.816 337.271C152.816 335.806 152.509 334.718 151.89 334.009C151.275 333.299 150.493 332.944 149.549 332.944C148.632 332.944 147.878 333.295 147.283 333.99C146.692 334.686 146.394 335.747 146.394 337.176Z" fill="#373435"/>
<path d="M215.522 217.573V221.04H202.093C202.237 219.72 202.674 218.473 203.4 217.295C204.126 216.117 205.564 214.551 207.704 212.599C209.43 211.025 210.487 209.955 210.878 209.396C211.403 208.622 211.669 207.858 211.669 207.098C211.669 206.26 211.441 205.619 210.98 205.168C210.524 204.718 209.891 204.495 209.086 204.495C208.286 204.495 207.653 204.732 207.179 205.205C206.709 205.674 206.439 206.456 206.364 207.553L202.539 207.18C202.767 205.114 203.479 203.631 204.679 202.729C205.88 201.833 207.378 201.382 209.179 201.382C211.152 201.382 212.702 201.905 213.833 202.947C214.959 203.99 215.522 205.286 215.522 206.838C215.522 207.721 215.359 208.559 215.038 209.359C214.717 210.155 214.205 210.988 213.502 211.862C213.041 212.444 212.199 213.277 210.989 214.364C209.775 215.452 209.007 216.171 208.686 216.53C208.36 216.886 208.1 217.236 207.9 217.573H215.522ZM225.605 221.04V217.109H217.453V213.846L226.099 201.41H229.318V213.832H231.804V217.109H229.318V221.04H225.605ZM225.605 213.832V207.157L221.036 213.832H225.605ZM247.08 211.074L243.311 211.73C243.185 210.997 242.897 210.447 242.445 210.074C241.994 209.705 241.412 209.518 240.696 209.518C239.742 209.518 238.978 209.842 238.411 210.488C237.843 211.134 237.559 212.212 237.559 213.728C237.559 215.411 237.848 216.599 238.425 217.295C239.002 217.991 239.774 218.337 240.742 218.337C241.468 218.337 242.064 218.132 242.525 217.727C242.99 217.322 243.315 216.626 243.506 215.634L247.276 216.262C246.884 217.955 246.135 219.233 245.028 220.098C243.92 220.963 242.436 221.395 240.57 221.395C238.457 221.395 236.768 220.74 235.512 219.434C234.251 218.123 233.623 216.312 233.623 213.996C233.623 211.653 234.256 209.832 235.517 208.526C236.778 207.221 238.485 206.57 240.64 206.57C242.398 206.57 243.799 206.942 244.842 207.685C245.879 208.426 246.624 209.555 247.08 211.074ZM249.709 206.87H253.227V208.804C254.488 207.316 255.991 206.57 257.735 206.57C258.661 206.57 259.467 206.756 260.146 207.13C260.83 207.503 261.389 208.067 261.821 208.822C262.459 208.067 263.147 207.503 263.883 207.13C264.618 206.756 265.404 206.57 266.242 206.57C267.302 206.57 268.201 206.779 268.941 207.202C269.675 207.626 270.225 208.244 270.588 209.064C270.853 209.664 270.984 210.643 270.984 211.994V221.04H267.158V212.954C267.158 211.548 267.028 210.643 266.763 210.237C266.409 209.705 265.86 209.436 265.125 209.436C264.59 209.436 264.083 209.596 263.608 209.915C263.138 210.237 262.794 210.706 262.584 211.32C262.375 211.939 262.273 212.913 262.273 214.246V221.04H258.448V213.286C258.448 211.912 258.378 211.02 258.243 210.624C258.108 210.224 257.899 209.923 257.61 209.728C257.327 209.532 256.935 209.436 256.446 209.436C255.856 209.436 255.325 209.591 254.855 209.901C254.381 210.215 254.046 210.66 253.841 211.248C253.636 211.835 253.534 212.809 253.534 214.164V221.04H249.709V206.87ZM280.713 221.04L285.934 213.741L280.936 206.87H285.608L288.167 210.765L290.885 206.87H295.37L290.461 213.582L295.817 221.04H291.15L288.167 216.649L285.199 221.04H280.713ZM312.526 221.04V217.109H304.374V213.846L313.02 201.41H316.24V213.832H318.725V217.109H316.24V221.04H312.526ZM312.526 213.832V207.157L307.957 213.832H312.526ZM320.6 216.021L324.425 215.634C324.537 216.481 324.858 217.154 325.392 217.65C325.932 218.146 326.551 218.391 327.254 218.391C328.054 218.391 328.734 218.073 329.288 217.431C329.841 216.79 330.12 215.825 330.12 214.537C330.12 213.327 329.846 212.421 329.292 211.816C328.743 211.211 328.026 210.911 327.142 210.911C326.039 210.911 325.049 211.384 324.174 212.33L321.075 211.894L323.029 201.737H333.164V205.232H325.937L325.332 208.559C326.184 208.144 327.059 207.935 327.952 207.935C329.655 207.935 331.098 208.54 332.279 209.755C333.466 210.965 334.057 212.54 334.057 214.478C334.057 216.094 333.578 217.532 332.624 218.801C331.321 220.531 329.516 221.395 327.208 221.395C325.36 221.395 323.853 220.908 322.689 219.939C321.521 218.965 320.828 217.663 320.6 216.021ZM349.529 211.074L345.76 211.73C345.634 210.997 345.345 210.447 344.894 210.074C344.443 209.705 343.862 209.518 343.145 209.518C342.191 209.518 341.428 209.842 340.86 210.488C340.292 211.134 340.009 212.212 340.009 213.728C340.009 215.411 340.297 216.599 340.874 217.295C341.451 217.991 342.223 218.337 343.191 218.337C343.917 218.337 344.513 218.132 344.974 217.727C345.439 217.322 345.765 216.626 345.955 215.634L349.725 216.262C349.333 217.955 348.584 219.233 347.477 220.098C346.369 220.963 344.885 221.395 343.019 221.395C340.906 221.395 339.217 220.74 337.961 219.434C336.7 218.123 336.072 216.312 336.072 213.996C336.072 211.653 336.705 209.832 337.966 208.526C339.227 207.221 340.935 206.57 343.089 206.57C344.848 206.57 346.249 206.942 347.291 207.685C348.328 208.426 349.073 209.555 349.529 211.074ZM352.158 206.87H355.676V208.804C356.937 207.316 358.44 206.57 360.185 206.57C361.111 206.57 361.916 206.756 362.595 207.13C363.279 207.503 363.838 208.067 364.27 208.822C364.908 208.067 365.597 207.503 366.332 207.13C367.067 206.756 367.853 206.57 368.691 206.57C369.752 206.57 370.65 206.779 371.39 207.202C372.125 207.626 372.674 208.244 373.037 209.064C373.302 209.664 373.433 210.643 373.433 211.994V221.04H369.608V212.954C369.608 211.548 369.478 210.643 369.212 210.237C368.859 209.705 368.309 209.436 367.574 209.436C367.039 209.436 366.532 209.596 366.057 209.915C365.588 210.237 365.243 210.706 365.033 211.32C364.824 211.939 364.722 212.913 364.722 214.246V221.04H360.897V213.286C360.897 211.912 360.827 211.02 360.692 210.624C360.557 210.224 360.348 209.923 360.059 209.728C359.776 209.532 359.384 209.436 358.896 209.436C358.305 209.436 357.774 209.591 357.305 209.901C356.83 210.215 356.495 210.66 356.29 211.248C356.086 211.835 355.983 212.809 355.983 214.164V221.04H352.158V206.87ZM383.162 221.04L388.383 213.741L383.386 206.87H388.057L390.616 210.765L393.334 206.87H397.819L392.91 213.582L398.266 221.04H393.599L390.616 216.649L387.648 221.04H383.162ZM420.448 206.279L416.735 206.679C416.646 205.933 416.409 205.383 416.027 205.027C415.646 204.672 415.152 204.495 414.543 204.495C413.734 204.495 413.05 204.85 412.491 205.56C411.933 206.27 411.584 207.749 411.44 209.996C412.394 208.895 413.575 208.345 414.995 208.345C416.59 208.345 417.963 208.94 419.103 210.132C420.243 211.33 420.811 212.868 420.811 214.756C420.811 216.758 420.211 218.369 419.01 219.579C417.81 220.79 416.27 221.395 414.39 221.395C412.375 221.395 410.713 220.626 409.415 219.088C408.117 217.55 407.466 215.033 407.466 211.53C407.466 207.94 408.145 205.35 409.499 203.762C410.853 202.174 412.612 201.382 414.775 201.382C416.293 201.382 417.549 201.801 418.545 202.638C419.541 203.471 420.173 204.686 420.448 206.279ZM411.765 214.46C411.765 215.679 412.053 216.622 412.626 217.286C413.198 217.95 413.85 218.282 414.589 218.282C415.297 218.282 415.888 218.009 416.362 217.468C416.833 216.922 417.07 216.03 417.07 214.792C417.07 213.519 416.813 212.586 416.307 211.989C415.795 211.398 415.162 211.102 414.399 211.102C413.659 211.102 413.04 211.384 412.528 211.953C412.021 212.517 411.765 213.354 411.765 214.46ZM429.485 201.382C431.42 201.382 432.933 202.061 434.026 203.416C435.324 205.018 435.976 207.68 435.976 211.393C435.976 215.102 435.32 217.768 434.012 219.388C432.928 220.726 431.42 221.395 429.485 221.395C427.539 221.395 425.971 220.662 424.78 219.198C423.589 217.732 422.994 215.115 422.994 211.357C422.994 207.667 423.649 205.009 424.957 203.389C426.041 202.051 427.549 201.382 429.485 201.382ZM429.485 204.495C429.028 204.495 428.619 204.641 428.266 204.932C427.907 205.218 427.628 205.737 427.433 206.488C427.172 207.457 427.041 209.095 427.041 211.393C427.041 213.696 427.158 215.275 427.391 216.135C427.623 216.995 427.916 217.568 428.27 217.854C428.624 218.142 429.028 218.282 429.485 218.282C429.941 218.282 430.35 218.137 430.709 217.846C431.062 217.559 431.341 217.04 431.537 216.289C431.797 215.329 431.927 213.696 431.927 211.393C431.927 209.095 431.811 207.516 431.578 206.656C431.346 205.796 431.053 205.218 430.699 204.932C430.345 204.641 429.941 204.495 429.485 204.495ZM451.978 211.074L448.209 211.73C448.084 210.997 447.795 210.447 447.343 210.074C446.892 209.705 446.311 209.518 445.594 209.518C444.64 209.518 443.877 209.842 443.31 210.488C442.741 211.134 442.458 212.212 442.458 213.728C442.458 215.411 442.747 216.599 443.323 217.295C443.9 217.991 444.673 218.337 445.641 218.337C446.366 218.337 446.962 218.132 447.423 217.727C447.888 217.322 448.214 216.626 448.405 215.634L452.174 216.262C451.782 217.955 451.034 219.233 449.926 220.098C448.819 220.963 447.335 221.395 445.469 221.395C443.356 221.395 441.667 220.74 440.41 219.434C439.149 218.123 438.521 216.312 438.521 213.996C438.521 211.653 439.154 209.832 440.415 208.526C441.676 207.221 443.384 206.57 445.538 206.57C447.297 206.57 448.698 206.942 449.74 207.685C450.778 208.426 451.522 209.555 451.978 211.074ZM454.607 206.87H458.125V208.804C459.386 207.316 460.889 206.57 462.634 206.57C463.56 206.57 464.365 206.756 465.045 207.13C465.729 207.503 466.287 208.067 466.72 208.822C467.357 208.067 468.046 207.503 468.781 207.13C469.516 206.756 470.302 206.57 471.14 206.57C472.201 206.57 473.099 206.779 473.839 207.202C474.574 207.626 475.123 208.244 475.486 209.064C475.752 209.664 475.882 210.643 475.882 211.994V221.04H472.057V212.954C472.057 211.548 471.927 210.643 471.661 210.237C471.308 209.705 470.759 209.436 470.024 209.436C469.488 209.436 468.981 209.596 468.506 209.915C468.037 210.237 467.692 210.706 467.483 211.32C467.273 211.939 467.171 212.913 467.171 214.246V221.04H463.346V213.286C463.346 211.912 463.276 211.02 463.141 210.624C463.006 210.224 462.797 209.923 462.509 209.728C462.225 209.532 461.833 209.436 461.345 209.436C460.754 209.436 460.224 209.591 459.754 209.901C459.279 210.215 458.944 210.66 458.74 211.248C458.535 211.835 458.432 212.809 458.432 214.164V221.04H454.607V206.87ZM202.455 277.895L206.169 277.454C206.285 278.382 206.601 279.092 207.118 279.583C207.635 280.075 208.258 280.32 208.989 280.32C209.775 280.32 210.436 280.025 210.976 279.438C211.511 278.851 211.781 278.059 211.781 277.058C211.781 276.116 211.525 275.365 211.008 274.815C210.491 274.264 209.863 273.987 209.118 273.987C208.63 273.987 208.049 274.082 207.369 274.269L207.793 271.229C208.826 271.256 209.612 271.034 210.156 270.565C210.701 270.1 210.971 269.477 210.971 268.699C210.971 268.039 210.771 267.516 210.37 267.12C209.97 266.729 209.44 266.533 208.774 266.533C208.119 266.533 207.56 266.756 207.099 267.202C206.634 267.648 206.355 268.299 206.253 269.154L202.735 268.567C202.981 267.375 203.349 266.424 203.847 265.709C204.34 265 205.034 264.439 205.917 264.03C206.802 263.625 207.798 263.42 208.896 263.42C210.775 263.42 212.283 264.007 213.418 265.186C214.353 266.151 214.823 267.243 214.823 268.458C214.823 270.178 213.865 271.556 211.943 272.58C213.088 272.822 214 273.359 214.689 274.196C215.372 275.033 215.717 276.043 215.717 277.226C215.717 278.941 215.075 280.407 213.795 281.618C212.516 282.828 210.924 283.433 209.016 283.433C207.211 283.433 205.713 282.923 204.526 281.9C203.335 280.88 202.646 279.547 202.455 277.895ZM231.077 268.317L227.364 268.717C227.276 267.971 227.038 267.421 226.656 267.066C226.275 266.71 225.782 266.533 225.173 266.533C224.363 266.533 223.679 266.888 223.12 267.598C222.562 268.308 222.213 269.787 222.069 272.034C223.023 270.933 224.205 270.383 225.624 270.383C227.22 270.383 228.593 270.979 229.732 272.171C230.873 273.368 231.44 274.906 231.44 276.794C231.44 278.796 230.84 280.407 229.639 281.618C228.439 282.828 226.899 283.433 225.019 283.433C223.004 283.433 221.343 282.664 220.044 281.126C218.747 279.588 218.095 277.072 218.095 273.568C218.095 269.978 218.774 267.388 220.128 265.8C221.482 264.212 223.241 263.42 225.405 263.42C226.922 263.42 228.179 263.839 229.174 264.676C230.17 265.509 230.803 266.724 231.077 268.317ZM222.395 276.498C222.395 277.717 222.683 278.66 223.255 279.324C223.828 279.988 224.479 280.32 225.219 280.32C225.926 280.32 226.517 280.048 226.992 279.506C227.462 278.96 227.699 278.068 227.699 276.83C227.699 275.557 227.443 274.624 226.936 274.027C226.424 273.436 225.791 273.14 225.028 273.14C224.289 273.14 223.67 273.422 223.157 273.991C222.65 274.555 222.395 275.392 222.395 276.498ZM247.08 273.113L243.311 273.768C243.185 273.036 242.897 272.485 242.445 272.112C241.994 271.743 241.412 271.556 240.696 271.556C239.742 271.556 238.978 271.88 238.411 272.526C237.843 273.172 237.559 274.25 237.559 275.766C237.559 277.449 237.848 278.637 238.425 279.333C239.002 280.029 239.774 280.375 240.742 280.375C241.468 280.375 242.064 280.171 242.525 279.765C242.99 279.361 243.315 278.664 243.506 277.672L247.276 278.3C246.884 279.993 246.135 281.272 245.028 282.137C243.92 283.001 242.436 283.433 240.57 283.433C238.457 283.433 236.768 282.778 235.512 281.472C234.251 280.162 233.623 278.35 233.623 276.034C233.623 273.691 234.256 271.871 235.517 270.565C236.778 269.259 238.485 268.608 240.64 268.608C242.398 268.608 243.799 268.981 244.842 269.723C245.879 270.465 246.624 271.593 247.08 273.113ZM249.709 268.908H253.227V270.842C254.488 269.354 255.991 268.608 257.735 268.608C258.661 268.608 259.467 268.794 260.146 269.168C260.83 269.541 261.389 270.105 261.821 270.86C262.459 270.105 263.147 269.541 263.883 269.168C264.618 268.794 265.404 268.608 266.242 268.608C267.302 268.608 268.201 268.817 268.941 269.241C269.675 269.664 270.225 270.282 270.588 271.102C270.853 271.702 270.984 272.681 270.984 274.032V283.078H267.158V274.992C267.158 273.586 267.028 272.681 266.763 272.275C266.409 271.743 265.86 271.475 265.125 271.475C264.59 271.475 264.083 271.634 263.608 271.953C263.138 272.275 262.794 272.745 262.584 273.359C262.375 273.978 262.273 274.951 262.273 276.284V283.078H258.448V275.325C258.448 273.95 258.378 273.058 258.243 272.663C258.108 272.262 257.899 271.961 257.61 271.766C257.327 271.57 256.935 271.475 256.446 271.475C255.856 271.475 255.325 271.629 254.855 271.939C254.381 272.253 254.046 272.699 253.841 273.286C253.636 273.873 253.534 274.847 253.534 276.202V283.078H249.709V268.908ZM280.713 283.078L285.934 275.779L280.936 268.908H285.608L288.167 272.803L290.885 268.908H295.37L290.461 275.62L295.817 283.078H291.15L288.167 278.687L285.199 283.078H280.713ZM312.526 283.078V279.147H304.374V275.884L313.02 263.448H316.24V275.87H318.725V279.147H316.24V283.078H312.526ZM312.526 275.87V269.195L307.957 275.87H312.526ZM320.6 278.059L324.425 277.672C324.537 278.519 324.858 279.192 325.392 279.688C325.932 280.184 326.551 280.43 327.254 280.43C328.054 280.43 328.734 280.111 329.288 279.469C329.841 278.828 330.12 277.863 330.12 276.575C330.12 275.365 329.846 274.46 329.292 273.855C328.743 273.249 328.026 272.949 327.142 272.949C326.039 272.949 325.049 273.422 324.174 274.369L321.075 273.932L323.029 263.775H333.164V267.27H325.937L325.332 270.597C326.184 270.182 327.059 269.973 327.952 269.973C329.655 269.973 331.098 270.579 332.279 271.793C333.466 273.003 334.057 274.578 334.057 276.516C334.057 278.132 333.578 279.57 332.624 280.839C331.321 282.569 329.516 283.433 327.208 283.433C325.36 283.433 323.853 282.946 322.689 281.977C321.521 281.004 320.828 279.701 320.6 278.059ZM349.529 273.113L345.76 273.768C345.634 273.036 345.345 272.485 344.894 272.112C344.443 271.743 343.862 271.556 343.145 271.556C342.191 271.556 341.428 271.88 340.86 272.526C340.292 273.172 340.009 274.25 340.009 275.766C340.009 277.449 340.297 278.637 340.874 279.333C341.451 280.029 342.223 280.375 343.191 280.375C343.917 280.375 344.513 280.171 344.974 279.765C345.439 279.361 345.765 278.664 345.955 277.672L349.725 278.3C349.333 279.993 348.584 281.272 347.477 282.137C346.369 283.001 344.885 283.433 343.019 283.433C340.906 283.433 339.217 282.778 337.961 281.472C336.7 280.162 336.072 278.35 336.072 276.034C336.072 273.691 336.705 271.871 337.966 270.565C339.227 269.259 340.935 268.608 343.089 268.608C344.848 268.608 346.249 268.981 347.291 269.723C348.328 270.465 349.073 271.593 349.529 273.113ZM352.158 268.908H355.676V270.842C356.937 269.354 358.44 268.608 360.185 268.608C361.111 268.608 361.916 268.794 362.595 269.168C363.279 269.541 363.838 270.105 364.27 270.86C364.908 270.105 365.597 269.541 366.332 269.168C367.067 268.794 367.853 268.608 368.691 268.608C369.752 268.608 370.65 268.817 371.39 269.241C372.125 269.664 372.674 270.282 373.037 271.102C373.302 271.702 373.433 272.681 373.433 274.032V283.078H369.608V274.992C369.608 273.586 369.478 272.681 369.212 272.275C368.859 271.743 368.309 271.475 367.574 271.475C367.039 271.475 366.532 271.634 366.057 271.953C365.588 272.275 365.243 272.745 365.033 273.359C364.824 273.978 364.722 274.951 364.722 276.284V283.078H360.897V275.325C360.897 273.95 360.827 273.058 360.692 272.663C360.557 272.262 360.348 271.961 360.059 271.766C359.776 271.57 359.384 271.475 358.896 271.475C358.305 271.475 357.774 271.629 357.305 271.939C356.83 272.253 356.495 272.699 356.29 273.286C356.086 273.873 355.983 274.847 355.983 276.202V283.078H352.158V268.908ZM383.162 283.078L388.383 275.779L383.386 268.908H388.057L390.616 272.803L393.334 268.908H397.819L392.91 275.62L398.266 283.078H393.599L390.616 278.687L387.648 283.078H383.162ZM420.448 268.317L416.735 268.717C416.646 267.971 416.409 267.421 416.027 267.066C415.646 266.71 415.152 266.533 414.543 266.533C413.734 266.533 413.05 266.888 412.491 267.598C411.933 268.308 411.584 269.787 411.44 272.034C412.394 270.933 413.575 270.383 414.995 270.383C416.59 270.383 417.963 270.979 419.103 272.171C420.243 273.368 420.811 274.906 420.811 276.794C420.811 278.796 420.211 280.407 419.01 281.618C417.81 282.828 416.27 283.433 414.39 283.433C412.375 283.433 410.713 282.664 409.415 281.126C408.117 279.588 407.466 277.072 407.466 273.568C407.466 269.978 408.145 267.388 409.499 265.8C410.853 264.212 412.612 263.42 414.775 263.42C416.293 263.42 417.549 263.839 418.545 264.676C419.541 265.509 420.173 266.724 420.448 268.317ZM411.765 276.498C411.765 277.717 412.053 278.66 412.626 279.324C413.198 279.988 413.85 280.32 414.589 280.32C415.297 280.32 415.888 280.048 416.362 279.506C416.833 278.96 417.07 278.068 417.07 276.83C417.07 275.557 416.813 274.624 416.307 274.027C415.795 273.436 415.162 273.14 414.399 273.14C413.659 273.14 413.04 273.422 412.528 273.991C412.021 274.555 411.765 275.392 411.765 276.498ZM429.485 263.42C431.42 263.42 432.933 264.099 434.026 265.454C435.324 267.056 435.976 269.718 435.976 273.431C435.976 277.14 435.32 279.806 434.012 281.427C432.928 282.764 431.42 283.433 429.485 283.433C427.539 283.433 425.971 282.7 424.78 281.235C423.589 279.77 422.994 277.154 422.994 273.395C422.994 269.704 423.649 267.047 424.957 265.428C426.041 264.089 427.549 263.42 429.485 263.42ZM429.485 266.533C429.028 266.533 428.619 266.678 428.266 266.97C427.907 267.257 427.628 267.775 427.433 268.526C427.172 269.495 427.041 271.133 427.041 273.431C427.041 275.734 427.158 277.312 427.391 278.173C427.623 279.033 427.916 279.606 428.27 279.892C428.624 280.18 429.028 280.32 429.485 280.32C429.941 280.32 430.35 280.175 430.709 279.884C431.062 279.597 431.341 279.078 431.537 278.327C431.797 277.367 431.927 275.734 431.927 273.431C431.927 271.133 431.811 269.555 431.578 268.694C431.346 267.834 431.053 267.257 430.699 266.97C430.345 266.678 429.941 266.533 429.485 266.533ZM451.978 273.113L448.209 273.768C448.084 273.036 447.795 272.485 447.343 272.112C446.892 271.743 446.311 271.556 445.594 271.556C444.64 271.556 443.877 271.88 443.31 272.526C442.741 273.172 442.458 274.25 442.458 275.766C442.458 277.449 442.747 278.637 443.323 279.333C443.9 280.029 444.673 280.375 445.641 280.375C446.366 280.375 446.962 280.171 447.423 279.765C447.888 279.361 448.214 278.664 448.405 277.672L452.174 278.3C451.782 279.993 451.034 281.272 449.926 282.137C448.819 283.001 447.335 283.433 445.469 283.433C443.356 283.433 441.667 282.778 440.41 281.472C439.149 280.162 438.521 278.35 438.521 276.034C438.521 273.691 439.154 271.871 440.415 270.565C441.676 269.259 443.384 268.608 445.538 268.608C447.297 268.608 448.698 268.981 449.74 269.723C450.778 270.465 451.522 271.593 451.978 273.113ZM454.607 268.908H458.125V270.842C459.386 269.354 460.889 268.608 462.634 268.608C463.56 268.608 464.365 268.794 465.045 269.168C465.729 269.541 466.287 270.105 466.72 270.86C467.357 270.105 468.046 269.541 468.781 269.168C469.516 268.794 470.302 268.608 471.14 268.608C472.201 268.608 473.099 268.817 473.839 269.241C474.574 269.664 475.123 270.282 475.486 271.102C475.752 271.702 475.882 272.681 475.882 274.032V283.078H472.057V274.992C472.057 273.586 471.927 272.681 471.661 272.275C471.308 271.743 470.759 271.475 470.024 271.475C469.488 271.475 468.981 271.634 468.506 271.953C468.037 272.275 467.692 272.745 467.483 273.359C467.273 273.978 467.171 274.951 467.171 276.284V283.078H463.346V275.325C463.346 273.95 463.276 273.058 463.141 272.663C463.006 272.262 462.797 271.961 462.509 271.766C462.225 271.57 461.833 271.475 461.345 271.475C460.754 271.475 460.224 271.629 459.754 271.939C459.279 272.253 458.944 272.699 458.74 273.286C458.535 273.873 458.432 274.847 458.432 276.202V283.078H454.607V268.908ZM202.567 329.281V325.813H215.689V328.544C214.605 329.586 213.507 331.079 212.386 333.026C211.269 334.974 210.412 337.044 209.826 339.237C209.24 341.43 208.951 343.392 208.961 345.116H205.275C205.34 342.409 205.908 339.647 206.983 336.83C208.063 334.018 209.496 331.497 211.297 329.281H202.567ZM231.077 330.355L227.364 330.755C227.276 330.009 227.038 329.459 226.656 329.104C226.275 328.749 225.782 328.571 225.173 328.571C224.363 328.571 223.679 328.926 223.12 329.636C222.562 330.346 222.213 331.825 222.069 334.072C223.023 332.971 224.205 332.421 225.624 332.421C227.22 332.421 228.593 333.017 229.732 334.209C230.873 335.406 231.44 336.944 231.44 338.832C231.44 340.835 230.84 342.445 229.639 343.656C228.439 344.866 226.899 345.471 225.019 345.471C223.004 345.471 221.343 344.702 220.044 343.164C218.747 341.626 218.095 339.11 218.095 335.606C218.095 332.016 218.774 329.426 220.128 327.839C221.482 326.251 223.241 325.459 225.405 325.459C226.922 325.459 228.179 325.877 229.174 326.715C230.17 327.548 230.803 328.762 231.077 330.355ZM222.395 338.536C222.395 339.756 222.683 340.698 223.255 341.363C223.828 342.026 224.479 342.359 225.219 342.359C225.926 342.359 226.517 342.086 226.992 341.544C227.462 340.998 227.699 340.106 227.699 338.869C227.699 337.594 227.443 336.662 226.936 336.066C226.424 335.474 225.791 335.178 225.028 335.178C224.289 335.178 223.67 335.46 223.157 336.03C222.65 336.593 222.395 337.43 222.395 338.536ZM247.08 335.151L243.311 335.807C243.185 335.074 242.897 334.523 242.445 334.15C241.994 333.781 241.412 333.595 240.696 333.595C239.742 333.595 238.978 333.918 238.411 334.564C237.843 335.21 237.559 336.289 237.559 337.804C237.559 339.488 237.848 340.675 238.425 341.371C239.002 342.067 239.774 342.413 240.742 342.413C241.468 342.413 242.064 342.209 242.525 341.803C242.99 341.398 243.315 340.702 243.506 339.711L247.276 340.339C246.884 342.031 246.135 343.31 245.028 344.175C243.92 345.039 242.436 345.471 240.57 345.471C238.457 345.471 236.768 344.816 235.512 343.51C234.251 342.2 233.623 340.388 233.623 338.072C233.623 335.729 234.256 333.909 235.517 332.603C236.778 331.297 238.485 330.646 240.64 330.646C242.398 330.646 243.799 331.019 244.842 331.761C245.879 332.503 246.624 333.631 247.08 335.151ZM249.709 330.946H253.227V332.88C254.488 331.392 255.991 330.646 257.735 330.646C258.661 330.646 259.467 330.833 260.146 331.206C260.83 331.579 261.389 332.143 261.821 332.898C262.459 332.143 263.147 331.579 263.883 331.206C264.618 330.833 265.404 330.646 266.242 330.646C267.302 330.646 268.201 330.856 268.941 331.279C269.675 331.702 270.225 332.32 270.588 333.14C270.853 333.741 270.984 334.719 270.984 336.07V345.116H267.158V337.03C267.158 335.624 267.028 334.719 266.763 334.314C266.409 333.781 265.86 333.513 265.125 333.513C264.59 333.513 264.083 333.672 263.608 333.991C263.138 334.314 262.794 334.783 262.584 335.397C262.375 336.015 262.273 336.989 262.273 338.322V345.116H258.448V337.363C258.448 335.988 258.378 335.096 258.243 334.701C258.108 334.3 257.899 334 257.61 333.804C257.327 333.608 256.935 333.513 256.446 333.513C255.856 333.513 255.325 333.667 254.855 333.977C254.381 334.291 254.046 334.737 253.841 335.324C253.636 335.91 253.534 336.885 253.534 338.241V345.116H249.709V330.946ZM280.713 345.116L285.934 337.817L280.936 330.946H285.608L288.167 334.842L290.885 330.946H295.37L290.461 337.658L295.817 345.116H291.15L288.167 340.725L285.199 345.116H280.713ZM312.526 345.116V341.185H304.374V337.922L313.02 325.486H316.24V337.908H318.725V341.185H316.24V345.116H312.526ZM312.526 337.908V331.233L307.957 337.908H312.526ZM320.6 340.097L324.425 339.711C324.537 340.557 324.858 341.23 325.392 341.726C325.932 342.222 326.551 342.468 327.254 342.468C328.054 342.468 328.734 342.149 329.288 341.508C329.841 340.867 330.12 339.901 330.12 338.613C330.12 337.403 329.846 336.498 329.292 335.893C328.743 335.287 328.026 334.988 327.142 334.988C326.039 334.988 325.049 335.46 324.174 336.407L321.075 335.97L323.029 325.813H333.164V329.308H325.937L325.332 332.634C326.184 332.22 327.059 332.011 327.952 332.011C329.655 332.011 331.098 332.617 332.279 333.832C333.466 335.042 334.057 336.616 334.057 338.555C334.057 340.17 333.578 341.608 332.624 342.877C331.321 344.607 329.516 345.471 327.208 345.471C325.36 345.471 323.853 344.985 322.689 344.015C321.521 343.042 320.828 341.74 320.6 340.097ZM349.529 335.151L345.76 335.807C345.634 335.074 345.345 334.523 344.894 334.15C344.443 333.781 343.862 333.595 343.145 333.595C342.191 333.595 341.428 333.918 340.86 334.564C340.292 335.21 340.009 336.289 340.009 337.804C340.009 339.488 340.297 340.675 340.874 341.371C341.451 342.067 342.223 342.413 343.191 342.413C343.917 342.413 344.513 342.209 344.974 341.803C345.439 341.398 345.765 340.702 345.955 339.711L349.725 340.339C349.333 342.031 348.584 343.31 347.477 344.175C346.369 345.039 344.885 345.471 343.019 345.471C340.906 345.471 339.217 344.816 337.961 343.51C336.7 342.2 336.072 340.388 336.072 338.072C336.072 335.729 336.705 333.909 337.966 332.603C339.227 331.297 340.935 330.646 343.089 330.646C344.848 330.646 346.249 331.019 347.291 331.761C348.328 332.503 349.073 333.631 349.529 335.151Z" fill="#373435"/>
<path d="M352.158 330.946H355.676V332.88C356.937 331.392 358.44 330.646 360.185 330.646C361.111 330.646 361.916 330.833 362.595 331.206C363.28 331.579 363.838 332.143 364.271 332.898C364.908 332.143 365.597 331.579 366.332 331.206C367.068 330.833 367.853 330.646 368.691 330.646C369.752 330.646 370.65 330.856 371.39 331.279C372.125 331.702 372.674 332.32 373.037 333.14C373.302 333.741 373.433 334.719 373.433 336.07V345.116H369.608V337.03C369.608 335.624 369.478 334.719 369.212 334.314C368.859 333.781 368.309 333.513 367.574 333.513C367.039 333.513 366.532 333.672 366.058 333.991C365.588 334.314 365.243 334.783 365.034 335.397C364.824 336.015 364.722 336.989 364.722 338.322V345.116H360.897V337.363C360.897 335.988 360.827 335.096 360.692 334.701C360.557 334.3 360.348 334 360.059 333.804C359.776 333.608 359.385 333.513 358.896 333.513C358.305 333.513 357.774 333.667 357.305 333.977C356.83 334.291 356.495 334.737 356.291 335.324C356.086 335.91 355.983 336.885 355.983 338.241V345.116H352.158V330.946ZM383.162 345.116L388.383 337.817L383.386 330.946H388.057L390.616 334.842L393.334 330.946H397.82L392.91 337.658L398.267 345.116H393.599L390.616 340.725L387.648 345.116H383.162ZM420.448 330.355L416.735 330.755C416.647 330.009 416.409 329.459 416.027 329.104C415.646 328.749 415.153 328.571 414.543 328.571C413.734 328.571 413.05 328.926 412.491 329.636C411.933 330.346 411.584 331.825 411.44 334.072C412.394 332.971 413.575 332.421 414.995 332.421C416.59 332.421 417.963 333.017 419.103 334.209C420.244 335.406 420.811 336.944 420.811 338.832C420.811 340.835 420.211 342.445 419.01 343.656C417.81 344.866 416.27 345.471 414.39 345.471C412.375 345.471 410.714 344.702 409.415 343.164C408.117 341.626 407.466 339.11 407.466 335.606C407.466 332.016 408.145 329.426 409.499 327.839C410.853 326.251 412.612 325.459 414.776 325.459C416.293 325.459 417.549 325.877 418.545 326.715C419.541 327.548 420.174 328.762 420.448 330.355ZM411.765 338.536C411.765 339.756 412.053 340.698 412.626 341.363C413.198 342.026 413.85 342.359 414.59 342.359C415.297 342.359 415.888 342.086 416.363 341.544C416.833 340.998 417.07 340.106 417.07 338.869C417.07 337.594 416.814 336.662 416.307 336.066C415.795 335.474 415.162 335.178 414.399 335.178C413.659 335.178 413.04 335.46 412.528 336.03C412.021 336.593 411.765 337.43 411.765 338.536ZM429.485 325.459C431.421 325.459 432.933 326.137 434.026 327.492C435.324 329.095 435.976 331.757 435.976 335.47C435.976 339.178 435.32 341.845 434.012 343.465C432.928 344.802 431.421 345.471 429.485 345.471C427.54 345.471 425.971 344.739 424.78 343.273C423.589 341.808 422.994 339.192 422.994 335.433C422.994 331.743 423.65 329.086 424.957 327.466C426.041 326.127 427.549 325.459 429.485 325.459ZM429.485 328.571C429.029 328.571 428.619 328.716 428.266 329.008C427.908 329.295 427.628 329.813 427.433 330.564C427.172 331.533 427.042 333.171 427.042 335.47C427.042 337.772 427.158 339.351 427.391 340.211C427.624 341.071 427.916 341.644 428.27 341.931C428.624 342.218 429.029 342.359 429.485 342.359C429.941 342.359 430.35 342.213 430.709 341.922C431.062 341.635 431.341 341.116 431.537 340.365C431.798 339.405 431.928 337.772 431.928 335.47C431.928 333.171 431.811 331.593 431.578 330.733C431.346 329.873 431.053 329.295 430.699 329.008C430.345 328.716 429.941 328.571 429.485 328.571ZM451.979 335.151L448.21 335.807C448.084 335.074 447.795 334.523 447.344 334.15C446.893 333.781 446.311 333.595 445.594 333.595C444.64 333.595 443.877 333.918 443.31 334.564C442.742 335.21 442.458 336.289 442.458 337.804C442.458 339.488 442.747 340.675 443.323 341.371C443.9 342.067 444.673 342.413 445.641 342.413C446.367 342.413 446.962 342.209 447.423 341.803C447.888 341.398 448.214 340.702 448.405 339.711L452.174 340.339C451.782 342.031 451.034 343.31 449.927 344.175C448.819 345.039 447.335 345.471 445.469 345.471C443.356 345.471 441.667 344.816 440.41 343.51C439.15 342.2 438.522 340.388 438.522 338.072C438.522 335.729 439.154 333.909 440.415 332.603C441.676 331.297 443.384 330.646 445.538 330.646C447.297 330.646 448.698 331.019 449.74 331.761C450.778 332.503 451.522 333.631 451.979 335.151ZM454.607 330.946H458.126V332.88C459.387 331.392 460.89 330.646 462.634 330.646C463.56 330.646 464.366 330.833 465.045 331.206C465.729 331.579 466.287 332.143 466.72 332.898C467.357 332.143 468.046 331.579 468.781 331.206C469.517 330.833 470.302 330.646 471.14 330.646C472.201 330.646 473.099 330.856 473.839 331.279C474.574 331.702 475.123 332.32 475.486 333.14C475.752 333.741 475.882 334.719 475.882 336.07V345.116H472.057V337.03C472.057 335.624 471.927 334.719 471.661 334.314C471.308 333.781 470.759 333.513 470.024 333.513C469.488 333.513 468.981 333.672 468.507 333.991C468.037 334.314 467.692 334.783 467.483 335.397C467.273 336.015 467.171 336.989 467.171 338.322V345.116H463.346V337.363C463.346 335.988 463.277 335.096 463.141 334.701C463.006 334.3 462.797 334 462.509 333.804C462.225 333.608 461.834 333.513 461.345 333.513C460.754 333.513 460.224 333.667 459.754 333.977C459.279 334.291 458.944 334.737 458.74 335.324C458.535 335.91 458.432 336.885 458.432 338.241V345.116H454.607V330.946Z" fill="#373435"/>
<path d="M65.0918 188.525V358.615" stroke="#373435" stroke-width="1.22804" stroke-miterlimit="2.61313"/>
<path d="M180.803 188.525V358.615" stroke="#373435" stroke-width="1.22804" stroke-miterlimit="2.61313"/>
<path d="M0.450195 185.407H489.199" stroke="#373435" stroke-width="1.22804" stroke-miterlimit="2.61313"/>
</svg>
