<svg width="328" height="382" viewBox="0 0 328 382" fill="none" xmlns="http://www.w3.org/2000/svg">
<path fill-rule="evenodd" clip-rule="evenodd" d="M261.746 20.1651L222.138 -0.000104904H23.4346L63.0422 20.1651H261.746Z" fill="#414041"/>
<path fill-rule="evenodd" clip-rule="evenodd" d="M63.0422 20.1651L23.4346 -9.15527e-05V361.352L63.0422 381.518V20.1651Z" fill="#414041"/>
<path fill-rule="evenodd" clip-rule="evenodd" d="M63.0146 20.136H261.747V381.538H63.0146V20.136Z" fill="#565658"/>
<path fill-rule="evenodd" clip-rule="evenodd" d="M169.55 27.0596H258.07V95.769H169.55V27.0596Z" fill="#1B9DA1" stroke="#1D1D1E" stroke-width="1.78758" stroke-miterlimit="22.9256"/>
<path fill-rule="evenodd" clip-rule="evenodd" d="M169.55 95.7689H258.07V143.312H169.55V95.7689Z" fill="#1B9DA1" stroke="#1D1D1E" stroke-width="1.78758" stroke-miterlimit="22.9256"/>
<path fill-rule="evenodd" clip-rule="evenodd" d="M169.55 206.291H258.07V180.669H169.55V206.291Z" fill="#1B9DA1" stroke="#1D1D1E" stroke-width="1.78758" stroke-miterlimit="22.9256"/>
<path fill-rule="evenodd" clip-rule="evenodd" d="M169.55 231.914H258.07V206.291H169.55V231.914Z" fill="#1B9DA1" stroke="#1D1D1E" stroke-width="1.78758" stroke-miterlimit="22.9256"/>
<path fill-rule="evenodd" clip-rule="evenodd" d="M169.55 231.914H258.07V278.847H169.55V231.914Z" fill="#1B9DA1" stroke="#1D1D1E" stroke-width="1.78758" stroke-miterlimit="22.9256"/>
<path fill-rule="evenodd" clip-rule="evenodd" d="M169.55 325.781H258.07V278.847H169.55V325.781Z" fill="#1B9DA1" stroke="#1D1D1E" stroke-width="1.78758" stroke-miterlimit="22.9256"/>
<path fill-rule="evenodd" clip-rule="evenodd" d="M169.55 325.781H258.07V372.968H169.55V325.781Z" fill="#1B9DA1" stroke="#1D1D1E" stroke-width="1.78758" stroke-miterlimit="22.9256"/>
<path fill-rule="evenodd" clip-rule="evenodd" d="M169.55 161.991H214.158V143.312H169.55V161.991Z" fill="#1B9DA1" stroke="#1D1D1E" stroke-width="1.78758" stroke-miterlimit="22.9256"/>
<path fill-rule="evenodd" clip-rule="evenodd" d="M169.55 161.991H214.158V180.669H169.55V161.991Z" fill="#1B9DA1" stroke="#1D1D1E" stroke-width="1.78758" stroke-miterlimit="22.9256"/>
<path fill-rule="evenodd" clip-rule="evenodd" d="M258.07 161.991H214.158V143.312H258.07V161.991Z" fill="#1B9DA1" stroke="#1D1D1E" stroke-width="1.78758" stroke-miterlimit="22.9256"/>
<path fill-rule="evenodd" clip-rule="evenodd" d="M258.07 161.991H214.158V180.669H258.07V161.991Z" fill="#1B9DA1" stroke="#1D1D1E" stroke-width="1.78758" stroke-miterlimit="22.9256"/>
<path fill-rule="evenodd" clip-rule="evenodd" d="M241.337 114H248.865C249.579 114 250.161 114.581 250.161 115.294V123.087C250.161 123.799 249.579 124.381 248.865 124.381H241.337C240.624 124.381 240.042 123.799 240.042 123.087V115.294C240.042 114.581 240.624 114 241.337 114Z" fill="#C5C6C6"/>
<path fill-rule="evenodd" clip-rule="evenodd" d="M245.05 101.155C245.268 101.155 245.444 101.331 245.444 101.548C245.444 101.765 245.268 101.941 245.05 101.941C244.834 101.941 244.658 101.765 244.658 101.548C244.658 101.331 244.834 101.155 245.05 101.155Z" fill="#1D1D1E"/>
<path fill-rule="evenodd" clip-rule="evenodd" d="M247.053 101.996C247.271 101.996 247.447 102.172 247.447 102.389C247.447 102.606 247.271 102.782 247.053 102.782C246.837 102.782 246.661 102.606 246.661 102.389C246.661 102.172 246.837 101.996 247.053 101.996Z" fill="#1D1D1E"/>
<path fill-rule="evenodd" clip-rule="evenodd" d="M247.876 103.734C248.093 103.734 248.269 103.91 248.269 104.127C248.269 104.345 248.093 104.52 247.876 104.52C247.659 104.52 247.483 104.345 247.483 104.127C247.483 103.91 247.659 103.734 247.876 103.734Z" fill="#1D1D1E"/>
<path fill-rule="evenodd" clip-rule="evenodd" d="M247.09 105.865C247.307 105.865 247.483 106.04 247.483 106.258C247.483 106.475 247.307 106.651 247.09 106.651C246.873 106.651 246.697 106.475 246.697 106.258C246.697 106.04 246.873 105.865 247.09 105.865Z" fill="#1D1D1E"/>
<path fill-rule="evenodd" clip-rule="evenodd" d="M245.071 106.931C245.288 106.931 245.463 107.107 245.463 107.324C245.463 107.541 245.288 107.717 245.071 107.717C244.853 107.717 244.677 107.541 244.677 107.324C244.677 107.107 244.853 106.931 245.071 106.931Z" fill="#1D1D1E"/>
<path fill-rule="evenodd" clip-rule="evenodd" d="M243.123 105.921C243.34 105.921 243.515 106.097 243.515 106.314C243.515 106.531 243.34 106.707 243.123 106.707C242.905 106.707 242.729 106.531 242.729 106.314C242.729 106.097 242.905 105.921 243.123 105.921Z" fill="#1D1D1E"/>
<path fill-rule="evenodd" clip-rule="evenodd" d="M242.227 103.94C242.444 103.94 242.62 104.116 242.62 104.333C242.62 104.55 242.444 104.726 242.227 104.726C242.01 104.726 241.834 104.55 241.834 104.333C241.834 104.116 242.01 103.94 242.227 103.94Z" fill="#1D1D1E"/>
<path fill-rule="evenodd" clip-rule="evenodd" d="M243.103 101.94C243.321 101.94 243.497 102.116 243.497 102.333C243.497 102.55 243.321 102.726 243.103 102.726C242.887 102.726 242.711 102.55 242.711 102.333C242.711 102.116 242.887 101.94 243.103 101.94Z" fill="#1D1D1E"/>
<path fill-rule="evenodd" clip-rule="evenodd" d="M244.993 102.295C245.211 102.295 245.386 102.471 245.386 102.688C245.386 102.906 245.211 103.081 244.993 103.081C244.777 103.081 244.601 102.906 244.601 102.688C244.601 102.471 244.777 102.295 244.993 102.295Z" fill="#1D1D1E"/>
<path fill-rule="evenodd" clip-rule="evenodd" d="M246.247 103.174C246.465 103.174 246.64 103.35 246.64 103.566C246.64 103.784 246.465 103.96 246.247 103.96C246.03 103.96 245.854 103.784 245.854 103.566C245.854 103.35 246.03 103.174 246.247 103.174Z" fill="#1D1D1E"/>
<path fill-rule="evenodd" clip-rule="evenodd" d="M246.155 104.818C246.373 104.818 246.549 104.994 246.549 105.211C246.549 105.428 246.373 105.604 246.155 105.604C245.939 105.604 245.763 105.428 245.763 105.211C245.763 104.994 245.939 104.818 246.155 104.818Z" fill="#1D1D1E"/>
<path fill-rule="evenodd" clip-rule="evenodd" d="M245.05 105.36C245.268 105.36 245.444 105.536 245.444 105.754C245.444 105.97 245.268 106.146 245.05 106.146C244.834 106.146 244.658 105.97 244.658 105.754C244.658 105.536 244.834 105.36 245.05 105.36Z" fill="#1D1D1E"/>
<path fill-rule="evenodd" clip-rule="evenodd" d="M243.965 104.613C244.182 104.613 244.358 104.789 244.358 105.006C244.358 105.223 244.182 105.399 243.965 105.399C243.748 105.399 243.572 105.223 243.572 105.006C243.572 104.789 243.748 104.613 243.965 104.613Z" fill="#1D1D1E"/>
<path fill-rule="evenodd" clip-rule="evenodd" d="M244.059 103.286C244.275 103.286 244.452 103.462 244.452 103.679C244.452 103.896 244.275 104.072 244.059 104.072C243.841 104.072 243.665 103.896 243.665 103.679C243.665 103.462 243.841 103.286 244.059 103.286Z" fill="#1D1D1E"/>
<path fill-rule="evenodd" clip-rule="evenodd" d="M245.182 103.903C245.399 103.903 245.575 104.079 245.575 104.295C245.575 104.513 245.399 104.689 245.182 104.689C244.965 104.689 244.789 104.513 244.789 104.295C244.789 104.079 244.965 103.903 245.182 103.903Z" fill="#1D1D1E"/>
<path fill-rule="evenodd" clip-rule="evenodd" d="M245.05 131.099C245.268 131.099 245.444 131.275 245.444 131.492C245.444 131.709 245.268 131.885 245.05 131.885C244.834 131.885 244.658 131.709 244.658 131.492C244.658 131.275 244.834 131.099 245.05 131.099Z" fill="#1D1D1E"/>
<path fill-rule="evenodd" clip-rule="evenodd" d="M247.053 131.94C247.271 131.94 247.447 132.116 247.447 132.332C247.447 132.55 247.271 132.726 247.053 132.726C246.837 132.726 246.661 132.55 246.661 132.332C246.661 132.116 246.837 131.94 247.053 131.94Z" fill="#1D1D1E"/>
<path fill-rule="evenodd" clip-rule="evenodd" d="M247.876 133.679C248.093 133.679 248.269 133.854 248.269 134.071C248.269 134.289 248.093 134.465 247.876 134.465C247.659 134.465 247.483 134.289 247.483 134.071C247.483 133.854 247.659 133.679 247.876 133.679Z" fill="#1D1D1E"/>
<path fill-rule="evenodd" clip-rule="evenodd" d="M247.09 135.81C247.307 135.81 247.483 135.985 247.483 136.202C247.483 136.419 247.307 136.596 247.09 136.596C246.873 136.596 246.697 136.419 246.697 136.202C246.697 135.985 246.873 135.81 247.09 135.81Z" fill="#1D1D1E"/>
<path fill-rule="evenodd" clip-rule="evenodd" d="M245.071 136.875C245.288 136.875 245.463 137.051 245.463 137.267C245.463 137.485 245.288 137.661 245.071 137.661C244.853 137.661 244.677 137.485 244.677 137.267C244.677 137.051 244.853 136.875 245.071 136.875Z" fill="#1D1D1E"/>
<path fill-rule="evenodd" clip-rule="evenodd" d="M243.123 135.865C243.34 135.865 243.515 136.041 243.515 136.258C243.515 136.475 243.34 136.651 243.123 136.651C242.905 136.651 242.729 136.475 242.729 136.258C242.729 136.041 242.905 135.865 243.123 135.865Z" fill="#1D1D1E"/>
<path fill-rule="evenodd" clip-rule="evenodd" d="M242.227 133.884C242.444 133.884 242.62 134.06 242.62 134.276C242.62 134.494 242.444 134.67 242.227 134.67C242.01 134.67 241.834 134.494 241.834 134.276C241.834 134.06 242.01 133.884 242.227 133.884Z" fill="#1D1D1E"/>
<path fill-rule="evenodd" clip-rule="evenodd" d="M243.103 131.884C243.321 131.884 243.497 132.06 243.497 132.277C243.497 132.494 243.321 132.67 243.103 132.67C242.887 132.67 242.711 132.494 242.711 132.277C242.711 132.06 242.887 131.884 243.103 131.884Z" fill="#1D1D1E"/>
<path fill-rule="evenodd" clip-rule="evenodd" d="M244.993 132.239C245.211 132.239 245.386 132.416 245.386 132.632C245.386 132.849 245.211 133.025 244.993 133.025C244.777 133.025 244.601 132.849 244.601 132.632C244.601 132.416 244.777 132.239 244.993 132.239Z" fill="#1D1D1E"/>
<path fill-rule="evenodd" clip-rule="evenodd" d="M246.247 133.118C246.465 133.118 246.64 133.294 246.64 133.511C246.64 133.728 246.465 133.904 246.247 133.904C246.03 133.904 245.854 133.728 245.854 133.511C245.854 133.294 246.03 133.118 246.247 133.118Z" fill="#1D1D1E"/>
<path fill-rule="evenodd" clip-rule="evenodd" d="M246.155 134.762C246.373 134.762 246.549 134.938 246.549 135.156C246.549 135.372 246.373 135.548 246.155 135.548C245.939 135.548 245.763 135.372 245.763 135.156C245.763 134.938 245.939 134.762 246.155 134.762Z" fill="#1D1D1E"/>
<path fill-rule="evenodd" clip-rule="evenodd" d="M245.05 135.304C245.268 135.304 245.444 135.48 245.444 135.697C245.444 135.915 245.268 136.09 245.05 136.09C244.834 136.09 244.658 135.915 244.658 135.697C244.658 135.48 244.834 135.304 245.05 135.304Z" fill="#1D1D1E"/>
<path fill-rule="evenodd" clip-rule="evenodd" d="M243.965 134.557C244.182 134.557 244.358 134.733 244.358 134.95C244.358 135.167 244.182 135.343 243.965 135.343C243.748 135.343 243.572 135.167 243.572 134.95C243.572 134.733 243.748 134.557 243.965 134.557Z" fill="#1D1D1E"/>
<path fill-rule="evenodd" clip-rule="evenodd" d="M244.059 133.23C244.275 133.23 244.452 133.406 244.452 133.623C244.452 133.84 244.275 134.016 244.059 134.016C243.841 134.016 243.665 133.84 243.665 133.623C243.665 133.406 243.841 133.23 244.059 133.23Z" fill="#1D1D1E"/>
<path fill-rule="evenodd" clip-rule="evenodd" d="M245.182 133.847C245.399 133.847 245.575 134.023 245.575 134.239C245.575 134.457 245.399 134.632 245.182 134.632C244.965 134.632 244.789 134.457 244.789 134.239C244.789 134.023 244.965 133.847 245.182 133.847Z" fill="#1D1D1E"/>
<path fill-rule="evenodd" clip-rule="evenodd" d="M182.384 102.11H227.507C228.798 102.11 229.853 103.166 229.853 104.455V134.024C229.853 135.314 228.798 136.369 227.507 136.369H182.384C181.093 136.369 180.037 135.314 180.037 134.024V104.455C180.037 103.166 181.093 102.11 182.384 102.11Z" fill="#333333"/>
<path fill-rule="evenodd" clip-rule="evenodd" d="M182.295 104.32H227.802V133.893H182.295V104.32Z" fill="#666666"/>
<path fill-rule="evenodd" clip-rule="evenodd" d="M66.8789 27.0596H155.4V95.769H66.8789V27.0596Z" fill="#1B9DA1" stroke="#1D1D1E" stroke-width="1.78758" stroke-miterlimit="22.9256"/>
<path fill-rule="evenodd" clip-rule="evenodd" d="M66.8789 95.7689H155.4V143.312H66.8789V95.7689Z" fill="#1B9DA1" stroke="#1D1D1E" stroke-width="1.78758" stroke-miterlimit="22.9256"/>
<path fill-rule="evenodd" clip-rule="evenodd" d="M66.8789 206.291H155.4V180.669H66.8789V206.291Z" fill="#1B9DA1" stroke="#1D1D1E" stroke-width="1.78758" stroke-miterlimit="22.9256"/>
<path fill-rule="evenodd" clip-rule="evenodd" d="M66.8789 231.914H155.4V206.291H66.8789V231.914Z" fill="#1B9DA1" stroke="#1D1D1E" stroke-width="1.78758" stroke-miterlimit="22.9256"/>
<path fill-rule="evenodd" clip-rule="evenodd" d="M66.8789 231.913H155.4V372.968H66.8789V231.913Z" fill="#1B9DA1" stroke="#1D1D1E" stroke-width="1.78758" stroke-miterlimit="22.9256"/>
<path fill-rule="evenodd" clip-rule="evenodd" d="M66.8789 161.991H111.487V143.312H66.8789V161.991Z" fill="#1B9DA1" stroke="#1D1D1E" stroke-width="1.78758" stroke-miterlimit="22.9256"/>
<path fill-rule="evenodd" clip-rule="evenodd" d="M66.8789 161.991H111.487V180.669H66.8789V161.991Z" fill="#1B9DA1" stroke="#1D1D1E" stroke-width="1.78758" stroke-miterlimit="22.9256"/>
<path fill-rule="evenodd" clip-rule="evenodd" d="M155.399 161.991H111.486V143.312H155.399V161.991Z" fill="#1B9DA1" stroke="#1D1D1E" stroke-width="1.78758" stroke-miterlimit="22.9256"/>
<path fill-rule="evenodd" clip-rule="evenodd" d="M155.399 161.991H111.486V180.669H155.399V161.991Z" fill="#1B9DA1" stroke="#1D1D1E" stroke-width="1.78758" stroke-miterlimit="22.9256"/>
<path d="M157.256 26.9941H167.897V373.183H157.256V26.9941Z" stroke="#1A1A1A" stroke-width="1.42974" stroke-miterlimit="22.9256"/>
<path fill-rule="evenodd" clip-rule="evenodd" d="M162.806 44.1669C164.011 44.1669 164.988 45.1433 164.988 46.3473C164.988 47.5512 164.011 48.5273 162.806 48.5273C161.6 48.5273 160.623 47.5512 160.623 46.3473C160.623 45.1433 161.6 44.1669 162.806 44.1669Z" fill="#606062"/>
<path fill-rule="evenodd" clip-rule="evenodd" d="M75.9993 81.1388L69.932 47.9826H0.14335L0 81.1388H75.9993Z" fill="#E14137"/>
<path fill-rule="evenodd" clip-rule="evenodd" d="M75.9993 223.544L69.932 190.388H0.14335L0 223.544H75.9993Z" fill="#E14137"/>
<path fill-rule="evenodd" clip-rule="evenodd" d="M75.9993 317.804L69.932 284.648H0.14335L0 317.804H75.9993Z" fill="#E14137"/>
<path fill-rule="evenodd" clip-rule="evenodd" d="M251.033 178.91L257.101 145.754H326.889L327.033 178.91H251.033Z" fill="#E14137"/>
<path fill-rule="evenodd" clip-rule="evenodd" d="M251.033 320.436L257.101 287.28H326.889L327.033 320.436H251.033Z" fill="#E14137"/>
<path d="M183.828 40.5077L183.073 40.4759C181.85 40.4759 180.791 40.9131 179.895 41.7804C178.999 42.6485 178.551 43.6746 178.551 44.8629C178.551 46.0466 179.015 47.1044 179.944 48.025C180.872 48.9449 181.938 49.408 183.139 49.408L183.828 49.3766V52.9115L183.106 52.9743C180.681 52.9743 178.634 52.2274 176.962 50.7285C175.291 49.234 174.455 47.3563 174.455 45.0998C174.455 42.8848 175.28 40.9702 176.93 39.3609C178.579 37.7461 180.56 36.9412 182.876 36.9412H183.828V40.5077ZM195.244 53.0059C192.906 53.0059 190.929 52.2437 189.313 50.7178C187.696 49.1926 186.888 47.2931 186.888 45.0209C186.888 42.7066 187.718 40.75 189.379 39.1504C191.039 37.5511 193.071 36.7513 195.473 36.7513C197.876 36.7513 199.853 37.5511 201.404 39.1504C202.955 40.75 203.731 42.8326 203.731 45.3999V52.7217H199.897V45.5259C199.897 43.9691 199.482 42.7217 198.652 41.7854C197.822 40.8496 196.718 40.3815 195.342 40.3815C194.098 40.3815 193.026 40.8229 192.131 41.702C191.235 42.585 190.787 43.6215 190.787 44.8158C190.787 46.0941 191.263 47.1722 192.213 48.0563C193.163 48.9344 194.337 49.3766 195.736 49.3766C196.216 49.3766 196.62 49.3395 196.948 49.2713C197.275 49.198 197.756 49.0031 198.389 48.6823V52.4066C197.647 52.6587 197.056 52.8163 196.62 52.8797L195.244 53.0059ZM207.938 42.8538C207.938 41.2125 208.55 39.8126 209.773 38.6659C210.997 37.514 212.471 36.9412 214.197 36.9412H215.147V40.4129H214.689C213.793 40.4129 213.077 40.6706 212.542 41.1913C212.007 41.707 211.739 42.401 211.739 43.2694V52.7217H207.938V42.8538ZM225.482 52.8797C223.058 52.8797 221.076 52.1746 219.536 50.7653C217.996 49.3558 217.225 47.5035 217.225 45.2101C217.225 42.8326 218.05 40.8336 219.7 39.2136C221.349 37.593 223.397 36.7834 225.843 36.7834C228.246 36.7834 230.223 37.5667 231.774 39.1351C233.325 40.7025 234.1 42.7166 234.1 45.1787V51.4282C234.1 53.9324 233.221 55.9515 231.463 57.488C229.704 59.0239 227.416 59.7922 224.598 59.7922L222.992 59.697L220.961 59.192V55.6257L222.763 56.1309L224.139 56.2566C226.083 56.2566 227.574 55.8364 228.613 54.9948C229.65 54.1526 230.169 52.9328 230.169 51.3337V45.1473C230.169 43.8007 229.731 42.6751 228.858 41.7698C227.984 40.8653 226.903 40.4129 225.614 40.4129C224.369 40.4129 223.309 40.8337 222.435 41.6758C221.562 42.5174 221.125 43.5689 221.125 44.832C221.125 46.1781 221.589 47.2775 222.517 48.1298C223.446 48.9819 224.641 49.408 226.105 49.408C226.652 49.408 227.028 49.3823 227.236 49.3291C227.444 49.2764 227.689 49.1925 227.973 49.0765C228.257 48.9606 228.585 48.819 228.956 48.6504V52.3118L227.154 52.7537L225.482 52.8797ZM246.042 36.7834C248.357 36.7834 250.323 37.5618 251.94 39.119C253.556 40.6756 254.365 42.5907 254.365 44.8629C254.365 47.1565 253.556 49.0871 251.94 50.655C250.323 52.2224 248.335 53.0059 245.976 53.0059C243.705 53.0059 241.755 52.2118 240.127 50.6232C238.499 49.0351 237.686 47.1146 237.686 44.8629C237.686 42.5907 238.495 40.6756 240.111 39.119C241.727 37.5618 243.705 36.7834 246.042 36.7834ZM241.585 44.9582C241.585 46.157 242.028 47.2093 242.912 48.1141C243.797 49.0189 244.84 49.4712 246.042 49.4712C247.199 49.4712 248.226 49.0189 249.122 48.1141C250.017 47.2093 250.465 46.1358 250.465 44.895C250.465 43.6747 250.028 42.6114 249.154 41.707C248.281 40.8022 247.243 40.3497 246.042 40.3497C244.818 40.3497 243.769 40.8022 242.895 41.707C242.022 42.6114 241.585 43.695 241.585 44.9582ZM175.073 70.9817C175.073 68.9073 175.888 67.1208 177.52 65.6122C179.151 64.1086 181.131 63.3539 183.46 63.3539C185.81 63.3539 187.778 64.1187 189.365 65.6486C190.954 67.179 191.748 69.0855 191.748 71.3699C191.748 73.6745 190.944 75.6023 189.334 77.1534C187.724 78.704 185.711 79.4793 183.296 79.4793C182.492 79.4793 181.447 79.2904 180.163 78.9135V75.33L181.501 75.6756C181.806 75.7383 182.209 75.7702 182.709 75.7702C184.362 75.7702 185.635 75.3877 186.526 74.6226C187.419 73.8583 187.865 72.7526 187.865 71.3067C187.865 70.091 187.429 69.0642 186.56 68.2266C185.689 67.388 184.624 66.9688 183.362 66.9688C182.144 66.9688 181.088 67.3828 180.197 68.2109C179.305 69.0327 178.859 70.0544 178.859 71.27V85.9225H175.073V70.9817ZM203.085 63.3539C205.392 63.3539 207.349 64.1294 208.959 65.68C210.569 67.2313 211.374 69.1375 211.374 71.4006C211.374 73.6851 210.569 75.6079 208.959 77.1691C207.349 78.7299 205.37 79.5102 203.02 79.5102C200.758 79.5102 198.816 78.719 197.195 77.1375C195.574 75.5556 194.764 73.6431 194.764 71.4006C194.764 69.1375 195.569 67.2313 197.179 65.68C198.788 64.1294 200.758 63.3539 203.085 63.3539ZM198.647 71.4952C198.647 72.6896 199.088 73.7372 199.968 74.6385C200.85 75.5399 201.889 75.9899 203.085 75.9899C204.238 75.9899 205.261 75.5399 206.152 74.6385C207.045 73.7372 207.49 72.6684 207.49 71.4326C207.49 70.217 207.056 69.1587 206.186 68.2573C205.315 67.3561 204.282 66.9063 203.085 66.9063C201.867 66.9063 200.823 67.3561 199.953 68.2573C199.083 69.1587 198.647 70.2381 198.647 71.4952ZM214.945 63.794H218.763V79.2278H214.945V63.794ZM216.837 56.2821C217.534 56.2821 218.122 56.5229 218.599 57.0048C219.099 57.4445 219.35 58.0103 219.35 58.7021C219.35 59.3721 219.111 59.9381 218.632 60.3996C218.153 60.8606 217.555 61.0909 216.837 61.0909C216.163 61.0909 215.575 60.8658 215.075 60.4149C214.574 59.9649 214.325 59.3936 214.325 58.7021C214.325 58.0103 214.564 57.434 215.043 56.9734C215.521 56.5124 216.12 56.2821 216.837 56.2821ZM222.921 70.4741C222.921 68.4149 223.622 66.7383 225.025 65.4498C226.428 64.1558 228.24 63.5115 230.458 63.5115C232.678 63.5115 234.495 64.1501 235.908 65.4341C237.322 66.7119 238.03 68.3937 238.03 70.4741V79.2278H234.244V70.5631C234.244 69.5099 233.89 68.64 233.184 67.9487C232.477 67.2519 231.58 66.9063 230.491 66.9063C229.36 66.9063 228.446 67.2411 227.75 67.9116C227.055 68.5874 226.706 69.4674 226.706 70.5631V79.2278H222.921V70.4741ZM248.257 79.2903C246.494 79.2903 245.048 78.756 243.916 77.6926C242.785 76.6289 242.22 75.215 242.22 73.4655V59.4882H246.005V63.794H249.008V67.1578H246.005V73.5069C246.005 74.2404 246.245 74.8371 246.723 75.2986C247.202 75.7596 247.832 75.9899 248.616 75.9899H249.008V79.2903H248.257Z" fill="#FEFEFE"/>
<path fill-rule="evenodd" clip-rule="evenodd" d="M203.02 70.6107C203.195 70.6027 203.363 70.665 203.504 70.7423L214.198 59.2902C214.156 59.1395 214.129 58.9812 214.119 58.8193C214.035 57.4503 215.164 56.2792 216.638 56.2003C218.112 56.1228 219.374 57.1719 219.459 58.5379C219.542 59.9064 218.414 61.0777 216.94 61.1557C216.724 61.1679 216.514 61.1537 216.31 61.1198L203.702 70.9252C203.83 71.0551 203.861 71.2168 203.888 71.4044C203.915 71.8472 203.597 72.252 203.118 72.2757C202.641 72.3011 202.28 71.9388 202.253 71.4964C202.226 71.0515 202.543 70.6382 203.02 70.6107Z" fill="#FEFEFE" stroke="#FEFEFE" stroke-width="0.893702" stroke-miterlimit="2.61313"/>
<path d="M41.6598 313.082H35.3847L30.1069 304.729L24.8292 313.082H18.5125L27.1564 300.241L19.0112 288.148H25.2863L30.1069 295.711L34.9276 288.148H41.2027L33.0575 300.199L41.6598 313.082ZM49.0998 308.22H57.3697V313.082H43.6143V288.148H49.0998V308.22Z" fill="white"/>
<path d="M36.5732 71.5513H44.843V76.4135H31.0876V51.4792H36.5732V71.5513Z" fill="white"/>
<path d="M296.901 290.777H302.802V315.711H297.317V300.875L290.543 315.711H287.385L280.652 300.834V315.711H275.167V290.777H281.109L288.964 308.023L296.901 290.777Z" fill="white"/>
<path d="M38.3948 219.154C34.0313 219.154 30.5405 216.702 28.9198 213.585L33.4495 210.76C34.3638 212.713 36.1507 214.001 38.4364 214.001C40.348 214.001 41.5116 213.087 41.5116 211.715C41.5116 207.352 30.0003 209.388 30.0003 200.911C30.0003 195.924 34.0313 193.555 37.9793 193.555C41.0545 193.555 43.8388 194.968 45.6673 197.087L42.0103 200.578C40.7636 199.207 39.3506 198.417 37.9377 198.417C36.6079 198.417 35.5274 199.082 35.5274 200.495C35.5274 204.817 46.9972 202.531 46.9972 211.757C46.9972 216.411 43.0492 219.154 38.3948 219.154Z" fill="white"/>
<path d="M291.42 174.185H285.144L279.867 165.832L274.589 174.185H268.272L276.916 161.344L268.771 149.251H275.046L279.867 156.814L284.687 149.251H290.962L282.817 161.302L291.42 174.185ZM301.062 174.517C296.699 174.517 293.208 172.066 291.587 168.949L296.117 166.123C297.031 168.076 298.818 169.364 301.104 169.364C303.015 169.364 304.179 168.45 304.179 167.079C304.179 162.715 292.668 164.751 292.668 156.274C292.668 151.287 296.699 148.918 300.647 148.918C303.722 148.918 306.506 150.331 308.335 152.451L304.678 155.941C303.431 154.57 302.018 153.78 300.605 153.78C299.275 153.78 298.195 154.445 298.195 155.858C298.195 160.18 309.664 157.895 309.664 167.12C309.664 171.775 305.717 174.517 301.062 174.517Z" fill="white"/>
</svg>
