<svg width="21" height="23" viewBox="0 0 21 23" fill="none" xmlns="http://www.w3.org/2000/svg">
<path d="M11.5314 0.62151C12.6466 0.60589 13.6519 0.743629 14.6354 1.03258C15.8682 1.39477 16.9823 1.98061 17.9555 2.82402C18.7743 3.534 19.4296 4.37279 19.9284 5.33536C20.428 6.29995 20.7375 7.32317 20.8871 8.39723C20.9395 8.77046 20.9707 9.14568 20.9848 9.52268C20.994 9.76316 21.005 10.0037 20.9975 10.2441C20.9578 11.4761 20.7593 12.6768 20.2825 13.8219C19.9158 14.7023 19.4109 15.4924 18.7212 16.1554C17.8949 16.95 16.9209 17.4622 15.7842 17.6431C15.3113 17.7187 14.8339 17.7416 14.3617 17.6298C13.4896 17.424 12.8568 16.9224 12.49 16.0977C12.4721 16.0572 12.4565 16.0156 12.434 15.9779C12.3974 15.9164 12.3614 15.9114 12.3076 15.9573C12.2805 15.9806 12.2568 16.0083 12.2325 16.0347C11.7893 16.5072 11.2882 16.9027 10.7046 17.1893C10.2031 17.4351 9.67489 17.5889 9.12029 17.6576C8.85733 17.6901 8.59357 17.7084 8.32872 17.7011C7.68176 17.6843 7.07721 17.5148 6.52382 17.1785C5.55856 16.592 4.99063 15.7198 4.72202 14.6382C4.62117 14.2313 4.58158 13.818 4.57162 13.399C4.55061 12.4815 4.70559 11.5945 5.01015 10.7318C5.31889 9.85635 5.77735 9.06588 6.37194 8.35334C7.02806 7.56675 7.81195 6.93768 8.71542 6.45942C9.45461 6.06828 10.2401 5.81067 11.0664 5.67279C11.6473 5.57545 12.2316 5.55609 12.8164 5.58585C13.7588 5.63351 14.6789 5.80299 15.5583 6.15831C15.7366 6.23008 15.9105 6.31333 16.085 6.39425C16.1834 6.44003 16.1988 6.47392 16.1778 6.58688C16.0812 7.10338 15.9839 7.61936 15.887 8.13532C15.6754 9.26242 15.4632 10.3895 15.2529 11.5169C15.1667 11.978 15.0721 12.4376 14.9999 12.9013C14.9362 13.3142 14.8953 13.7291 14.9156 14.1475C14.9263 14.3638 14.956 14.5779 15.0388 14.7817C15.116 14.9718 15.2533 15.0626 15.4568 15.0645C15.7347 15.0672 15.9858 14.9817 16.2178 14.8359C16.6415 14.57 16.9594 14.202 17.2205 13.7813C17.5571 13.2406 17.7685 12.6498 17.9086 12.0318C18.0017 11.6205 18.0563 11.2035 18.088 10.7829C18.1136 10.4459 18.1136 10.1093 18.1017 9.77309C18.0666 8.7918 17.9036 7.83572 17.5277 6.92283C17.2307 6.20262 16.819 5.55607 16.2724 5.00039C15.6548 4.37215 14.924 3.91829 14.0973 3.61722C13.4946 3.39775 12.8736 3.26377 12.2355 3.20722C11.8954 3.1772 11.5553 3.15643 11.2145 3.16531C10.2901 3.1882 9.38904 3.33887 8.51736 3.65461C7.57041 3.99728 6.71959 4.50151 5.96545 5.16706C5.28644 5.76636 4.72242 6.46139 4.26356 7.2426C3.78045 8.06514 3.43805 8.94411 3.21023 9.86858C3.08232 10.3872 2.99952 10.9132 2.94418 11.4449C2.88467 12.0131 2.87928 12.583 2.90675 13.1512C2.96666 14.3752 3.23811 15.5486 3.81708 16.6382C4.42728 17.7866 5.29223 18.6892 6.43536 19.3194C7.15974 19.7186 7.93368 19.966 8.74814 20.1003C9.38137 20.2045 10.0184 20.217 10.6554 20.1865C11.4787 20.1471 12.2882 20.0152 13.0771 19.766C13.6389 19.5884 14.1667 19.3404 14.6733 19.0423C14.7147 19.0182 14.7563 18.9938 14.7996 18.9724C14.9148 18.9144 14.9675 18.9329 15.0132 19.0519C15.0808 19.2279 15.1461 19.4045 15.2117 19.5813C15.4003 20.0889 15.5893 20.5961 15.7774 21.1037C15.8458 21.2888 15.8419 21.2995 15.6667 21.3949C14.8179 21.8578 13.9323 22.2277 12.9901 22.4555C12.4438 22.588 11.8909 22.6772 11.3321 22.7372C10.6245 22.8128 9.91455 22.8299 9.20579 22.7975C7.88224 22.7368 6.61241 22.4411 5.41018 21.872C4.33464 21.3629 3.39147 20.6739 2.58508 19.7996C2.06065 19.2308 1.61591 18.6038 1.24847 17.9225C0.656845 16.8267 0.29156 15.6584 0.1176 14.4272C0.0133858 13.6902 -0.0202755 12.9494 0.0115005 12.2073C0.0668391 10.9059 0.295465 9.63456 0.725517 8.40257C1.2167 6.99379 1.93233 5.71252 2.90257 4.57585C3.81357 3.5088 4.88345 2.63825 6.12002 1.97189C7.14143 1.42147 8.22343 1.04242 9.36157 0.824165C9.82986 0.734493 10.3023 0.674168 10.7791 0.641315C11.06 0.621927 11.3402 0.626492 11.5314 0.62151ZM11.9847 8.33691C11.8027 8.32816 11.6103 8.34102 11.4203 8.37118C10.9225 8.449 10.4588 8.62207 10.0294 8.88382C9.22801 9.3723 8.64432 10.059 8.24255 10.899C7.85504 11.7093 7.67422 12.5649 7.73979 13.4665C7.75514 13.6714 7.79284 13.8722 7.86541 14.0653C8.03183 14.5077 8.33518 14.7993 8.80886 14.8821C9.07492 14.9282 9.34434 14.9218 9.60663 14.8409C9.994 14.7219 10.3279 14.5092 10.6218 14.2363C11.3955 13.5188 11.9004 12.6379 12.179 11.6253C12.2851 11.2387 12.3373 10.8395 12.4114 10.4456C12.5316 9.80703 12.65 9.16859 12.7679 8.5297C12.7877 8.42428 12.7713 8.401 12.6664 8.38457C12.4442 8.34956 12.2206 8.33085 11.9847 8.33691Z" fill="#5DC26B"/>
</svg>
