<svg width="176" height="61" viewBox="0 0 176 61" fill="none" xmlns="http://www.w3.org/2000/svg">
<path d="M19.9109 6.66098H23.7554L19.2194 23.2563H15.0152L12.0004 11.5843L8.98557 23.2563H4.78141L0.245343 6.66098H4.08994L7.0771 18.2224L10.2302 6.66098H13.2727H13.7706L16.9513 18.1671L19.9109 6.66098ZM31.6348 11.9715C33.8752 11.9715 35.6453 13.8246 35.6453 16.2586V23.2563H32.105V16.8395C32.105 15.8714 31.4135 15.097 30.4178 15.097C29.3391 15.097 28.537 16.0374 28.537 17.0054V23.2563H24.9966V4.30997H28.537V13.4374C29.3114 12.5247 30.4178 11.9715 31.6348 11.9715ZM50.9891 20.3798H51.487V23.2563C51.2381 23.367 50.9062 23.4776 50.5466 23.4776C49.053 23.4776 47.836 22.7308 47.1445 21.5968C46.2595 22.7585 44.9595 23.4776 43.3553 23.4776C40.2851 23.4776 37.8788 20.933 37.8788 17.7246C37.8788 14.5161 40.2851 11.9715 43.3553 11.9715C44.6276 11.9715 45.6786 12.414 46.5084 13.1608V12.1928H50.0211V19.3011C50.0211 20.2139 50.5189 20.3798 50.9891 20.3798ZM44.0467 20.3522C45.485 20.3522 46.6743 19.1905 46.6743 17.7246C46.6743 16.2586 45.485 15.097 44.0467 15.097C42.5808 15.097 41.4191 16.2586 41.4191 17.7246C41.4191 19.1905 42.5808 20.3522 44.0467 20.3522ZM60.2073 14.931H57.5797V18.8862C57.5797 19.799 58.1053 20.3798 58.8521 20.3798H60.1797V23.1181C59.9031 23.3117 59.1563 23.4776 58.4095 23.4776C56.0585 23.4776 54.0671 21.6521 54.0671 19.3011V14.931H52.2139V12.1928H54.0671V7.93329H57.5797V12.1928H60.2073V14.931ZM65.969 23.4776C64.0053 23.4776 61.9585 22.5372 61.2947 20.8224L63.8946 19.5224C64.3925 20.4628 65.1669 20.6841 65.7478 20.6841C66.3286 20.6841 66.7158 20.4351 66.7158 19.9926C66.7158 19.6054 66.3839 19.3288 65.3882 18.9416C64.1159 18.4714 61.9032 17.7246 61.9032 15.5118C61.9032 13.631 63.5074 11.9715 66.0244 11.9715C67.5733 11.9715 68.9286 12.6077 69.7583 13.4374L67.9881 15.4289C67.6562 15.014 66.9924 14.6268 66.2733 14.6268C65.6648 14.6268 65.3882 14.9033 65.3882 15.2629C65.3882 15.6778 65.7754 15.8438 66.5775 16.1757C68.1541 16.7842 69.9796 17.6692 69.9796 19.882C69.9796 21.9564 68.4584 23.4776 65.969 23.4776ZM84.4824 20.3798H84.9802V23.2563C84.7313 23.367 84.3994 23.4776 84.0398 23.4776C82.5463 23.4776 81.3293 22.7308 80.6378 21.5968C79.7527 22.7585 78.4527 23.4776 76.8485 23.4776C73.7784 23.4776 71.372 20.933 71.372 17.7246C71.372 14.5161 73.7784 11.9715 76.8485 11.9715C78.1208 11.9715 79.1719 12.414 80.0016 13.1608V12.1928H83.5143V19.3011C83.5143 20.2139 84.0122 20.3798 84.4824 20.3798ZM77.54 20.3522C78.9783 20.3522 80.1676 19.1905 80.1676 17.7246C80.1676 16.2586 78.9783 15.097 77.54 15.097C76.0741 15.097 74.9124 16.2586 74.9124 17.7246C74.9124 19.1905 76.0741 20.3522 77.54 20.3522ZM93.7283 11.9715C96.7707 11.9715 99.1771 14.5161 99.1771 17.7246C99.1771 20.933 96.7707 23.4776 93.7283 23.4776C92.4559 23.4776 91.4049 23.0351 90.5751 22.2883V29.9222L87.0348 29.8945V12.1928L90.5751 12.2204V13.1608C91.4049 12.414 92.4559 11.9715 93.7283 11.9715ZM93.0368 20.3522C94.5027 20.3522 95.6644 19.1905 95.6644 17.7246C95.6644 16.2586 94.5027 15.097 93.0368 15.097C91.5709 15.097 90.4092 16.2586 90.4092 17.7246C90.4092 19.1905 91.5709 20.3522 93.0368 20.3522ZM108.357 11.9715C111.4 11.9715 113.806 14.5161 113.806 17.7246C113.806 20.933 111.4 23.4776 108.357 23.4776C107.085 23.4776 106.034 23.0351 105.204 22.2883V29.9222L101.664 29.8945V12.1928L105.204 12.2204V13.1608C106.034 12.414 107.085 11.9715 108.357 11.9715ZM107.666 20.3522C109.132 20.3522 110.293 19.1905 110.293 17.7246C110.293 16.2586 109.132 15.097 107.666 15.097C106.2 15.097 105.038 16.2586 105.038 17.7246C105.038 19.1905 106.2 20.3522 107.666 20.3522ZM21.388 50.2563V33.661H26.8645C31.4282 33.661 35.1622 37.3673 35.1622 41.9587C35.1622 46.55 31.4282 50.2563 26.8645 50.2563H21.388ZM25.039 47.0203H26.8368C29.4644 47.0203 31.5112 44.8352 31.5112 41.9587C31.5112 39.0821 29.4644 36.8971 26.8368 36.8971H25.039V47.0203ZM49.0677 44.6969V45.3054H40.6041C40.7424 46.882 41.5721 47.85 43.1763 47.85C44.3933 47.85 45.1955 47.3245 45.4997 46.4394H48.9017C48.3486 48.8457 46.3018 50.4776 43.2317 50.4776C39.5254 50.4776 37.0361 48.1819 37.0361 44.7246C37.0361 41.2672 39.553 38.9438 43.121 38.9438C46.689 38.9438 49.0677 41.2395 49.0677 44.6969ZM43.1763 41.6544C41.9317 41.6544 41.1849 42.2353 40.8253 43.1757H45.4167C45.0572 42.2076 44.3657 41.6544 43.1763 41.6544ZM55.0999 50.4776C53.1362 50.4776 51.0894 49.5372 50.4256 47.8224L53.0255 46.5224C53.5234 47.4628 54.2978 47.6841 54.8787 47.6841C55.4595 47.6841 55.8467 47.4351 55.8467 46.9926C55.8467 46.6054 55.5148 46.3288 54.5191 45.9416C53.2468 45.4714 51.0341 44.7246 51.0341 42.5118C51.0341 40.631 52.6383 38.9715 55.1553 38.9715C56.7042 38.9715 58.0595 39.6077 58.8892 40.4374L57.119 42.4289C56.7871 42.014 56.1233 41.6268 55.4042 41.6268C54.7957 41.6268 54.5191 41.9033 54.5191 42.2629C54.5191 42.6778 54.9063 42.8438 55.7084 43.1757C57.285 43.7842 59.1105 44.6692 59.1105 46.882C59.1105 48.9564 57.5892 50.4776 55.0999 50.4776ZM67.9432 41.931H65.3156V45.8862C65.3156 46.799 65.8411 47.3798 66.5879 47.3798H67.9155V50.1181C67.6389 50.3117 66.8922 50.4776 66.1454 50.4776C63.7944 50.4776 61.8029 48.6521 61.8029 46.3011V41.931H59.9498V39.1928H61.8029V34.9333H65.3156V39.1928H67.9432V41.931ZM81.3941 44.6969V45.3054H72.9305C73.0687 46.882 73.8985 47.85 75.5027 47.85C76.7197 47.85 77.5218 47.3245 77.8261 46.4394H81.2281C80.675 48.8457 78.6282 50.4776 75.5581 50.4776C71.8518 50.4776 69.3624 48.1819 69.3624 44.7246C69.3624 41.2672 71.8794 38.9438 75.4474 38.9438C79.0154 38.9438 81.3941 41.2395 81.3941 44.6969ZM75.5027 41.6544C74.2581 41.6544 73.5113 42.2353 73.1517 43.1757H77.7431C77.3835 42.2076 76.6921 41.6544 75.5027 41.6544ZM96.0283 50.2563H91.4369L87.537 45.1671V50.2563H84.0243V31.31H87.537V43.1757L91.3816 39.1928H95.6134L90.7731 44.199L96.0283 50.2563Z" fill="#57BB6E"/>
<rect x="115.147" y="30.2563" width="42.4264" height="42.4264" rx="9.8995" transform="rotate(-45 115.147 30.2563)" fill="#43B86F"/>
<path d="M139.319 38.2976L139.751 38.5553C141.338 39.4982 143.142 39.997 144.969 39.997C150.606 39.997 155.191 35.4221 155.191 29.8009C155.191 24.1784 150.606 19.6036 144.969 19.6036C139.334 19.6036 134.748 24.1784 134.748 29.8009C134.748 31.6571 135.264 33.4844 136.243 35.087L136.508 35.5205L135.486 39.3222L139.319 38.2976ZM132.117 42.6827L133.946 35.8736C132.911 34.0101 132.365 31.9211 132.365 29.8009C132.365 22.8681 138.019 17.2269 144.969 17.2269C151.919 17.2269 157.573 22.8681 157.573 29.8009C157.573 36.7335 151.919 42.3737 144.969 42.3737C142.883 42.3737 140.822 41.8479 138.978 40.8493L132.117 42.6827Z" fill="#FEFEFE"/>
<path fill-rule="evenodd" clip-rule="evenodd" d="M149.658 31.548C149.139 31.2387 148.465 30.8929 147.853 31.1426C147.384 31.3338 147.085 32.0665 146.781 32.44C146.625 32.6325 146.439 32.6622 146.199 32.5662C144.439 31.8664 143.09 30.6947 142.119 29.0795C141.955 28.8276 141.985 28.6303 142.183 28.3974C142.477 28.0541 142.845 27.6619 142.923 27.197C143.003 26.7334 142.785 26.1906 142.592 25.7766C142.347 25.249 142.072 24.4955 141.541 24.1966C141.053 23.9214 140.411 24.0754 139.977 24.4282C139.227 25.0373 138.865 25.9918 138.875 26.9385C138.878 27.2076 138.912 27.4754 138.975 27.7342C139.126 28.3589 139.414 28.9417 139.74 29.4963C139.986 29.9143 140.253 30.3188 140.54 30.7088C141.482 31.9848 142.653 33.0928 144.008 33.9216C144.687 34.3355 145.416 34.6989 146.172 34.948C147.02 35.2273 147.775 35.5183 148.69 35.3443C149.648 35.1633 150.593 34.5712 150.974 33.6506C151.086 33.3774 151.142 33.0744 151.08 32.7856C150.949 32.1907 150.141 31.8368 149.658 31.548Z" fill="#FEFEFE"/>
</svg>
