<?xml version="1.0" encoding="UTF-8"?>
<!DOCTYPE svg PUBLIC "-//W3C//DTD SVG 1.1//EN" "http://www.w3.org/Graphics/SVG/1.1/DTD/svg11.dtd">
<!-- Creator: CorelDRAW -->
<svg xmlns="http://www.w3.org/2000/svg" xml:space="preserve" width="1.62258in" height="0.509236in" version="1.1" style="shape-rendering:geometricPrecision; text-rendering:geometricPrecision; image-rendering:optimizeQuality; fill-rule:evenodd; clip-rule:evenodd"
viewBox="0 0 142.9 44.85"
 xmlns:xlink="http://www.w3.org/1999/xlink"
 xmlns:xodm="http://www.corel.com/coreldraw/odm/2003">
 <defs>
  <style type="text/css">
   <![CDATA[
    .fil2 {fill:#FEFEFE}
    .fil3 {fill:#57BB6E;fill-rule:nonzero}
    .fil1 {fill:#FEFEFE;fill-rule:nonzero}
    .fil0 {fill:url(#id0)}
   ]]>
  </style>
  <linearGradient id="id0" gradientUnits="userSpaceOnUse" x1="120.1" y1="-1.12" x2="120.1" y2="44.66">
   <stop offset="0" style="stop-opacity:1; stop-color:#6CC06D"/>
   <stop offset="1" style="stop-opacity:1; stop-color:#37B670"/>
  </linearGradient>
 </defs>
 <g id="Layer_x0020_1">
  <metadata id="CorelCorpID_0Corel-Layer"/>
  <path class="fil0" d="M120.7 44.85c-3.36,0 -6.71,-1.29 -9.28,-3.88l-8.53 -8.61 -0.56 -0.56c-5.13,-5.18 -5.13,-13.56 0,-18.74l9.09 -9.17c1.63,-1.64 3.57,-2.76 5.63,-3.36 3.42,-1.3 9.17,-0.07 11.63,2.2 0.45,0.35 0.89,0.74 1.3,1.16l5.35 5.4 3.73 3.77c5.13,5.18 5.13,13.56 0,18.74l-9.09 9.17c-2.56,2.59 -5.93,3.88 -9.28,3.88l0.01 0.01z"/>
  <path class="fil1" d="M115.85 29.96l0.41 0.24c1.49,0.9 3.18,1.37 4.9,1.37 5.3,0 9.61,-4.35 9.61,-9.7 0,-5.35 -4.31,-9.7 -9.61,-9.7 -5.3,0 -9.61,4.35 -9.61,9.7 0,1.76 0.49,3.5 1.41,5.02l0.25 0.41 -0.96 3.61 3.6 -0.98 0 0.01zm-6.76 4.17l1.72 -6.47c-0.97,-1.77 -1.49,-3.76 -1.49,-5.77 0,-6.59 5.32,-11.95 11.84,-11.95 6.53,0 11.84,5.37 11.84,11.95 0,6.59 -5.32,11.95 -11.84,11.95 -1.96,0 -3.9,-0.5 -5.63,-1.45l-6.44 1.74z"/>
  <path class="fil2" d="M125.57 23.53c-0.49,-0.29 -1.12,-0.62 -1.7,-0.38 -0.44,0.18 -0.72,0.88 -1.01,1.24 -0.15,0.18 -0.32,0.21 -0.55,0.12 -1.66,-0.66 -2.92,-1.78 -3.83,-3.31 -0.16,-0.24 -0.13,-0.42 0.06,-0.64 0.28,-0.32 0.62,-0.69 0.7,-1.14 0.08,-0.44 -0.13,-0.96 -0.31,-1.35 -0.23,-0.5 -0.49,-1.22 -0.99,-1.5 -0.46,-0.26 -1.06,-0.11 -1.47,0.22 -0.71,0.58 -1.05,1.49 -1.04,2.39 0,0.25 0.03,0.51 0.09,0.76 0.14,0.59 0.41,1.15 0.72,1.67 0.23,0.4 0.48,0.79 0.75,1.16 0.89,1.21 1.99,2.27 3.26,3.05 0.64,0.39 1.33,0.73 2.03,0.98 0.8,0.26 1.51,0.54 2.36,0.37 0.9,-0.17 1.79,-0.74 2.14,-1.61 0.11,-0.26 0.16,-0.54 0.1,-0.83 -0.12,-0.56 -0.88,-0.91 -1.34,-1.18l0 -0.01z"/>
  <polygon class="fil3" points="16.01,3.53 13.61,12.99 11.01,3.53 10.61,3.53 8.14,3.53 5.56,13.03 3.14,3.53 -0,3.53 3.69,17.17 7.12,17.17 9.57,7.57 12.03,17.17 15.46,17.17 19.15,3.53 "/>
  <path class="fil3" d="M25.57 7.89c-0.99,0 -1.89,0.45 -2.52,1.2l0 -7.5 -2.89 0 0 15.57 2.89 0 0 -5.14c0,-0.8 0.65,-1.57 1.53,-1.57 0.82,0 1.37,0.63 1.37,1.44l0 5.28 2.89 0 0 -5.75c0,-2 -1.44,-3.52 -3.26,-3.52l0 -0.01z"/>
  <path class="fil3" d="M41.33 14.81c-0.38,0 -0.78,-0.14 -0.78,-0.89l0 -5.85 -2.86 0 0 0.79c-0.67,-0.61 -1.53,-0.97 -2.56,-0.97 -2.5,0 -4.46,2.09 -4.46,4.73 0,2.64 1.96,4.73 4.46,4.73 1.31,0 2.36,-0.59 3.09,-1.54 0.56,0.93 1.55,1.54 2.76,1.54 0.29,0 0.56,-0.1 0.76,-0.18l0 -2.35 -0.41 0 0 -0.01zm-5.65 -0.02c-1.19,0 -2.13,-0.95 -2.13,-2.16 0,-1.21 0.94,-2.16 2.13,-2.16 1.17,0 2.13,0.95 2.13,2.16 0,1.21 -0.96,2.16 -2.13,2.16z"/>
  <path class="fil3" d="M48.83 10.33l0 -2.25 -2.14 0 0 -3.5 -2.86 0 0 3.5 -1.51 0 0 2.25 1.51 0 0 3.59c0,1.93 1.62,3.43 3.54,3.43 0.61,0 1.21,-0.14 1.44,-0.3l0 -2.25 -1.08 0c-0.61,0 -1.04,-0.48 -1.04,-1.22l0 -3.25 2.14 0 -0.01 0z"/>
  <path class="fil3" d="M53.53 17.35c2.03,0 3.27,-1.25 3.27,-2.94 0,-1.83 -1.49,-2.56 -2.77,-3.05 -0.66,-0.27 -0.97,-0.41 -0.97,-0.75 0,-0.3 0.23,-0.52 0.72,-0.52 0.59,0 1.13,0.32 1.4,0.65l1.44 -1.64c-0.68,-0.68 -1.78,-1.2 -3.04,-1.2 -2.05,0 -3.36,1.36 -3.36,2.91 0,1.83 1.81,2.44 2.84,2.82 0.82,0.32 1.09,0.55 1.09,0.87 0,0.36 -0.31,0.57 -0.8,0.57 -0.47,0 -1.11,-0.18 -1.51,-0.95l-2.12 1.07c0.54,1.4 2.21,2.17 3.81,2.17l-0.01 -0.01z"/>
  <path class="fil3" d="M68.58 14.81c-0.38,0 -0.78,-0.14 -0.78,-0.89l0 -5.85 -2.86 0 0 0.79c-0.67,-0.61 -1.53,-0.97 -2.56,-0.97 -2.5,0 -4.46,2.09 -4.46,4.73 0,2.64 1.96,4.73 4.46,4.73 1.31,0 2.36,-0.59 3.09,-1.54 0.56,0.93 1.55,1.54 2.76,1.54 0.29,0 0.56,-0.09 0.76,-0.18l0 -2.35 -0.41 0 0 -0.01zm-5.65 -0.02c-1.19,0 -2.13,-0.95 -2.13,-2.16 0,-1.21 0.94,-2.16 2.13,-2.16 1.17,0 2.13,0.95 2.13,2.16 0,1.21 -0.96,2.16 -2.13,2.16z"/>
  <path class="fil3" d="M76.12 7.89c-1.04,0 -1.89,0.36 -2.57,0.97l0 -0.77 -2.89 -0.02 0 14.55 2.89 0.02 0 -6.27c0.68,0.61 1.53,0.97 2.57,0.97 2.48,0 4.44,-2.09 4.44,-4.73 0,-2.64 -1.96,-4.73 -4.44,-4.73l0 0.01zm-0.56 6.89c-1.19,0 -2.14,-0.95 -2.14,-2.16 0,-1.21 0.94,-2.16 2.14,-2.16 1.19,0 2.14,0.95 2.14,2.16 0,1.21 -0.94,2.16 -2.14,2.16z"/>
  <path class="fil3" d="M88.04 7.89c-1.04,0 -1.89,0.36 -2.57,0.97l0 -0.77 -2.89 -0.02 0 14.55 2.89 0.02 0 -6.27c0.68,0.61 1.53,0.97 2.57,0.97 2.48,0 4.43,-2.09 4.43,-4.73 0,-2.64 -1.96,-4.73 -4.43,-4.73l0 0.01zm-0.56 6.89c-1.19,0 -2.14,-0.95 -2.14,-2.16 0,-1.21 0.94,-2.16 2.14,-2.16 1.19,0 2.14,0.95 2.14,2.16 0,1.21 -0.94,2.16 -2.14,2.16z"/>
  <path class="fil3" d="M17.23 41.49l4.46 0c3.71,0 6.76,-3.04 6.76,-6.82 0,-3.78 -3.04,-6.82 -6.76,-6.82l-4.46 0 0 13.64zm2.97 -2.66l0 -8.33 1.46 0c2.13,0 3.8,1.79 3.8,4.17 0,2.36 -1.66,4.17 -3.8,4.17l-1.46 0 0 -0.01z"/>
  <path class="fil3" d="M39.78 36.91c0,-2.83 -1.94,-4.72 -4.84,-4.72 -2.91,0 -4.95,1.91 -4.95,4.74 0,2.84 2.03,4.73 5.04,4.73 2.5,0 4.17,-1.34 4.62,-3.32l-2.77 0c-0.25,0.73 -0.9,1.16 -1.89,1.16 -1.31,0 -1.99,-0.8 -2.09,-2.09l6.89 0 0 -0.5 -0.01 -0.01zm-4.8 -2.48c0.97,0 1.53,0.45 1.83,1.24l-3.73 0c0.29,-0.77 0.9,-1.24 1.91,-1.24l-0.01 0z"/>
  <path class="fil3" d="M44.68 41.68c2.03,0 3.27,-1.25 3.27,-2.95 0,-1.83 -1.49,-2.56 -2.77,-3.05 -0.66,-0.27 -0.97,-0.41 -0.97,-0.75 0,-0.3 0.23,-0.52 0.72,-0.52 0.59,0 1.13,0.32 1.4,0.65l1.44 -1.64c-0.68,-0.68 -1.78,-1.2 -3.04,-1.2 -2.05,0 -3.36,1.36 -3.36,2.91 0,1.83 1.81,2.44 2.84,2.82 0.82,0.32 1.09,0.55 1.09,0.87 0,0.36 -0.31,0.57 -0.8,0.57 -0.47,0 -1.11,-0.18 -1.51,-0.95l-2.12 1.07c0.54,1.4 2.21,2.17 3.81,2.17l-0.01 -0.01z"/>
  <path class="fil3" d="M55.13 34.65l0 -2.25 -2.14 0 0 -3.5 -2.86 0 0 3.5 -1.51 0 0 2.25 1.51 0 0 3.59c0,1.93 1.62,3.43 3.54,3.43 0.61,0 1.21,-0.14 1.44,-0.3l0 -2.25 -1.08 0c-0.61,0 -1.04,-0.48 -1.04,-1.22l0 -3.25 2.14 0 -0.01 0z"/>
  <path class="fil3" d="M66.08 36.91c0,-2.83 -1.93,-4.72 -4.84,-4.72 -2.91,0 -4.95,1.91 -4.95,4.74 0,2.84 2.03,4.73 5.04,4.73 2.5,0 4.17,-1.34 4.62,-3.32l-2.77 0c-0.25,0.73 -0.9,1.16 -1.89,1.16 -1.31,0 -1.99,-0.8 -2.09,-2.09l6.89 0 0 -0.5 -0.01 -0.01zm-4.8 -2.48c0.97,0 1.53,0.45 1.83,1.24l-3.73 0c0.29,-0.77 0.9,-1.24 1.91,-1.24l-0.01 0z"/>
  <polygon class="fil3" points="78,41.49 73.72,36.51 77.66,32.4 74.21,32.4 71.08,35.67 71.08,25.91 68.23,25.91 68.23,41.49 71.08,41.49 71.08,37.31 74.26,41.49 "/>
 </g>
</svg>
