<?xml version="1.0" encoding="UTF-8"?>
<!DOCTYPE svg PUBLIC "-//W3C//DTD SVG 1.1//EN" "http://www.w3.org/Graphics/SVG/1.1/DTD/svg11.dtd">
<!-- Creator: CorelDRAW -->
<svg xmlns="http://www.w3.org/2000/svg" xml:space="preserve" width="1.23874in" height="1.20886in" version="1.1" style="shape-rendering:geometricPrecision; text-rendering:geometricPrecision; image-rendering:optimizeQuality; fill-rule:evenodd; clip-rule:evenodd"
viewBox="0 0 79.61 77.69"
 xmlns:xlink="http://www.w3.org/1999/xlink"
 xmlns:xodm="http://www.corel.com/coreldraw/odm/2003">
 <defs>
  <style type="text/css">
   <![CDATA[
    .fil2 {fill:#FEFEFE}
    .fil3 {fill:#57BB6E;fill-rule:nonzero}
    .fil1 {fill:#FEFEFE;fill-rule:nonzero}
    .fil0 {fill:url(#id0)}
   ]]>
  </style>
  <linearGradient id="id0" gradientUnits="userSpaceOnUse" x1="39.27" y1="-1.01" x2="39.27" y2="40.31">
   <stop offset="0" style="stop-opacity:1; stop-color:#6CC06D"/>
   <stop offset="1" style="stop-opacity:1; stop-color:#37B670"/>
  </linearGradient>
 </defs>
 <g id="Layer_x0020_1">
  <metadata id="CorelCorpID_0Corel-Layer"/>
  <path class="fil0" d="M39.81 40.48c-3.03,0 -6.06,-1.16 -8.37,-3.5l-7.7 -7.77 -0.5 -0.51c-4.63,-4.67 -4.63,-12.24 0,-16.91l8.2 -8.28c1.47,-1.48 3.22,-2.49 5.08,-3.04 3.08,-1.17 8.28,-0.06 10.5,1.99 0.41,0.32 0.8,0.66 1.17,1.05l4.83 4.87 3.37 3.4c4.63,4.67 4.63,12.24 0,16.91l-8.2 8.28c-2.31,2.34 -5.35,3.5 -8.37,3.5l0.01 0.01z"/>
  <path class="fil1" d="M35.43 27.04l0.37 0.22c1.34,0.81 2.87,1.24 4.42,1.24 4.78,0 8.67,-3.93 8.67,-8.75 0,-4.83 -3.89,-8.75 -8.67,-8.75 -4.78,0 -8.67,3.93 -8.67,8.75 0,1.59 0.44,3.16 1.27,4.53l0.23 0.37 -0.86 3.26 3.25 -0.88 0 0.01zm-6.1 3.76l1.55 -5.84c-0.87,-1.6 -1.34,-3.39 -1.34,-5.21 0,-5.95 4.8,-10.79 10.69,-10.79 5.9,0 10.69,4.84 10.69,10.79 0,5.95 -4.8,10.79 -10.69,10.79 -1.76,0 -3.52,-0.45 -5.08,-1.31l-5.82 1.57z"/>
  <path class="fil2" d="M44.2 21.24c-0.44,-0.26 -1.01,-0.56 -1.53,-0.35 -0.4,0.16 -0.65,0.79 -0.91,1.12 -0.14,0.16 -0.29,0.19 -0.5,0.11 -1.49,-0.6 -2.64,-1.61 -3.46,-2.99 -0.14,-0.22 -0.12,-0.38 0.05,-0.58 0.25,-0.29 0.56,-0.63 0.63,-1.03 0.07,-0.4 -0.12,-0.86 -0.28,-1.22 -0.21,-0.45 -0.44,-1.1 -0.89,-1.35 -0.41,-0.24 -0.95,-0.1 -1.32,0.2 -0.64,0.53 -0.95,1.35 -0.94,2.15 0,0.23 0.03,0.46 0.08,0.68 0.13,0.54 0.37,1.04 0.65,1.51 0.21,0.36 0.43,0.71 0.68,1.05 0.8,1.09 1.79,2.05 2.94,2.75 0.58,0.35 1.2,0.66 1.84,0.88 0.72,0.24 1.36,0.49 2.13,0.34 0.81,-0.15 1.61,-0.66 1.94,-1.45 0.1,-0.24 0.14,-0.49 0.09,-0.75 -0.11,-0.51 -0.79,-0.82 -1.21,-1.06l0 -0.01z"/>
  <polygon class="fil3" points="13.79,44.84 11.71,52.98 9.48,44.84 9.13,44.84 7.01,44.84 4.79,53.02 2.7,44.84 -0,44.84 3.18,56.58 6.13,56.58 8.24,48.32 10.35,56.58 13.31,56.58 16.49,44.84 "/>
  <path class="fil3" d="M22.01 48.59c-0.86,0 -1.63,0.39 -2.17,1.04l0 -6.45 -2.49 0 0 13.41 2.49 0 0 -4.43c0,-0.69 0.56,-1.35 1.31,-1.35 0.7,0 1.18,0.55 1.18,1.24l0 4.54 2.49 0 0 -4.95c0,-1.72 -1.24,-3.03 -2.81,-3.03l0 -0.01z"/>
  <path class="fil3" d="M35.58 54.55c-0.32,0 -0.68,-0.12 -0.68,-0.76l0 -5.04 -2.46 0 0 0.68c-0.58,-0.53 -1.31,-0.84 -2.21,-0.84 -2.15,0 -3.84,1.8 -3.84,4.07 0,2.27 1.68,4.07 3.84,4.07 1.13,0 2.03,-0.51 2.66,-1.33 0.49,0.8 1.33,1.33 2.38,1.33 0.25,0 0.49,-0.08 0.66,-0.15l0 -2.03 -0.35 0 0 -0.01zm-4.86 -0.02c-1.03,0 -1.84,-0.82 -1.84,-1.86 0,-1.05 0.81,-1.86 1.84,-1.86 1.01,0 1.84,0.82 1.84,1.86 0,1.05 -0.83,1.86 -1.84,1.86z"/>
  <path class="fil3" d="M42.04 50.69l0 -1.94 -1.85 0 0 -3.02 -2.46 0 0 3.02 -1.3 0 0 1.94 1.3 0 0 3.09c0,1.66 1.4,2.95 3.04,2.95 0.52,0 1.04,-0.12 1.24,-0.25l0 -1.94 -0.93 0c-0.52,0 -0.89,-0.41 -0.89,-1.05l0 -2.8 1.85 0 -0.01 0z"/>
  <path class="fil3" d="M46.09 56.74c1.75,0 2.82,-1.07 2.82,-2.54 0,-1.57 -1.28,-2.2 -2.39,-2.63 -0.57,-0.24 -0.84,-0.35 -0.84,-0.65 0,-0.25 0.2,-0.45 0.62,-0.45 0.5,0 0.97,0.27 1.21,0.56l1.24 -1.41c-0.59,-0.58 -1.53,-1.04 -2.62,-1.04 -1.77,0 -2.89,1.17 -2.89,2.51 0,1.57 1.56,2.1 2.45,2.43 0.7,0.27 0.94,0.47 0.94,0.75 0,0.31 -0.27,0.49 -0.68,0.49 -0.41,0 -0.95,-0.15 -1.3,-0.82l-1.83 0.92c0.47,1.21 1.9,1.87 3.28,1.87l-0.01 -0.01z"/>
  <path class="fil3" d="M59.04 54.55c-0.32,0 -0.68,-0.12 -0.68,-0.76l0 -5.03 -2.46 0 0 0.68c-0.58,-0.53 -1.31,-0.84 -2.21,-0.84 -2.15,0 -3.84,1.8 -3.84,4.07 0,2.27 1.68,4.07 3.84,4.07 1.13,0 2.03,-0.51 2.66,-1.33 0.49,0.8 1.33,1.33 2.38,1.33 0.25,0 0.49,-0.08 0.66,-0.15l0 -2.03 -0.35 0 0 -0.01zm-4.86 -0.02c-1.03,0 -1.84,-0.82 -1.84,-1.86 0,-1.05 0.81,-1.86 1.84,-1.86 1.01,0 1.84,0.82 1.84,1.86 0,1.05 -0.83,1.86 -1.84,1.86z"/>
  <path class="fil3" d="M65.53 48.59c-0.89,0 -1.63,0.31 -2.22,0.84l0 -0.66 -2.49 -0.02 0 12.52 2.49 0.02 0 -5.4c0.59,0.53 1.31,0.84 2.22,0.84 2.13,0 3.82,-1.8 3.82,-4.07 0,-2.27 -1.68,-4.07 -3.82,-4.07l0 0.01zm-0.49 5.93c-1.03,0 -1.85,-0.82 -1.85,-1.86 0,-1.05 0.81,-1.86 1.85,-1.86 1.03,0 1.85,0.82 1.85,1.86 0,1.05 -0.81,1.86 -1.85,1.86z"/>
  <path class="fil3" d="M75.79 48.59c-0.89,0 -1.63,0.31 -2.22,0.84l0 -0.66 -2.48 -0.02 0 12.52 2.48 0.02 0 -5.4c0.59,0.53 1.31,0.84 2.22,0.84 2.13,0 3.82,-1.8 3.82,-4.07 0,-2.27 -1.68,-4.07 -3.82,-4.07l0 0.01zm-0.49 5.93c-1.03,0 -1.85,-0.82 -1.85,-1.86 0,-1.05 0.81,-1.86 1.85,-1.86 1.03,0 1.85,0.82 1.85,1.86 0,1.05 -0.81,1.86 -1.85,1.86z"/>
  <path class="fil3" d="M14.83 77.52l3.84 0c3.2,0 5.82,-2.62 5.82,-5.87 0,-3.25 -2.62,-5.87 -5.82,-5.87l-3.84 0 0 11.74zm2.56 -2.29l0 -7.17 1.26 0c1.84,0 3.27,1.54 3.27,3.59 0,2.04 -1.43,3.59 -3.27,3.59l-1.26 0 0 -0.01z"/>
  <path class="fil3" d="M34.24 73.58c0,-2.44 -1.67,-4.06 -4.17,-4.06 -2.5,0 -4.26,1.65 -4.26,4.08 0,2.44 1.75,4.07 4.34,4.07 2.15,0 3.59,-1.15 3.98,-2.85l-2.39 0c-0.22,0.63 -0.77,1 -1.63,1 -1.13,0 -1.71,-0.69 -1.8,-1.8l5.93 0 0 -0.43 -0.01 -0.01zm-4.13 -2.14c0.84,0 1.31,0.39 1.58,1.06l-3.21 0c0.25,-0.66 0.77,-1.06 1.65,-1.06l-0.01 0z"/>
  <path class="fil3" d="M38.47 77.68c1.75,0 2.82,-1.07 2.82,-2.54 0,-1.57 -1.28,-2.2 -2.39,-2.63 -0.57,-0.24 -0.84,-0.35 -0.84,-0.65 0,-0.25 0.2,-0.45 0.62,-0.45 0.5,0 0.97,0.27 1.21,0.56l1.24 -1.41c-0.59,-0.58 -1.53,-1.04 -2.62,-1.04 -1.76,0 -2.89,1.17 -2.89,2.51 0,1.57 1.56,2.1 2.45,2.43 0.7,0.27 0.94,0.47 0.94,0.75 0,0.31 -0.27,0.49 -0.68,0.49 -0.41,0 -0.95,-0.15 -1.3,-0.82l-1.83 0.92c0.47,1.21 1.9,1.87 3.28,1.87l-0.01 -0.01z"/>
  <path class="fil3" d="M47.46 71.63l0 -1.94 -1.85 0 0 -3.02 -2.46 0 0 3.02 -1.3 0 0 1.94 1.3 0 0 3.09c0,1.66 1.4,2.95 3.04,2.95 0.52,0 1.04,-0.12 1.24,-0.25l0 -1.94 -0.93 0c-0.52,0 -0.89,-0.41 -0.89,-1.05l0 -2.8 1.85 0 -0.01 0z"/>
  <path class="fil3" d="M56.89 73.58c0,-2.44 -1.67,-4.06 -4.17,-4.06 -2.5,0 -4.26,1.65 -4.26,4.08 0,2.44 1.75,4.07 4.34,4.07 2.15,0 3.59,-1.15 3.98,-2.85l-2.39 0c-0.22,0.63 -0.77,1 -1.63,1 -1.13,0 -1.71,-0.69 -1.8,-1.8l5.93 0 0 -0.43 -0.01 -0.01zm-4.13 -2.14c0.84,0 1.31,0.39 1.58,1.06l-3.21 0c0.25,-0.66 0.77,-1.06 1.65,-1.06l-0.01 0z"/>
  <polygon class="fil3" points="67.15,77.52 63.46,73.23 66.86,69.69 63.89,69.69 61.19,72.51 61.19,64.11 58.74,64.11 58.74,77.52 61.19,77.52 61.19,73.92 63.93,77.52 "/>
 </g>
</svg>
