<svg width="374" height="165" viewBox="0 0 374 165" fill="none" xmlns="http://www.w3.org/2000/svg">
<g clip-path="url(#clip0_231_31456)">
<path d="M119.994 72.706C112.914 72.706 106.927 70.2988 102.032 65.4855C97.1357 60.671 94.6877 54.6789 94.6877 47.5078C94.6877 40.2032 97.2022 34.028 102.23 28.9822C107.259 23.9351 113.411 21.4128 120.689 21.4128C127.968 21.4128 133.954 23.9364 138.652 28.9822C143.349 34.028 145.698 40.6015 145.698 48.7028V71.8092H134.087V49.1011C134.087 44.1877 132.83 40.2539 130.316 37.2987C127.801 34.3434 124.461 32.8664 120.292 32.8664C116.521 32.8664 113.279 34.2606 110.567 37.0327C107.854 39.8222 106.498 43.0917 106.498 46.8596C106.498 50.8936 107.937 54.2966 110.815 57.0849C113.693 59.857 117.249 61.2512 121.483 61.2512C122.939 61.2512 124.163 61.1349 125.155 60.9196C126.147 60.6871 127.603 60.0735 129.522 59.0604V70.8134C127.272 71.61 125.486 72.1085 124.163 72.3077L119.994 72.706Z" fill="#1B9DA1"/>
<path d="M185.592 35.3578L181.424 33.8635L178.149 33.4652C173.716 33.4652 170.06 34.8098 167.182 37.4991C164.304 40.1884 162.865 43.5914 162.865 47.7083C162.865 51.4923 164.188 54.7135 166.835 57.3694C169.481 60.0253 172.723 61.3539 176.56 61.3539C180.53 61.3539 183.838 59.9263 186.484 57.0713C189.13 54.2162 190.454 50.6301 190.454 46.3141V0.0012207H202.065V46.6123C202.065 54.3808 199.749 60.6883 195.118 65.5362C190.487 70.3829 184.4 72.8062 176.858 72.8062C169.249 72.8062 163.08 70.4484 158.35 65.7181C153.619 61.0038 151.254 54.878 151.254 47.3582C151.254 39.9719 153.652 33.8957 158.45 29.1492C163.246 24.3842 169.349 22.0116 176.76 22.0116L180.63 22.3097L185.592 23.522V35.3578Z" fill="#1B9DA1"/>
<path d="M233.03 72.706C225.95 72.706 219.963 70.2988 215.067 65.4855C210.171 60.671 207.724 54.6789 207.724 47.5078C207.724 40.2032 210.238 34.028 215.266 28.9822C220.295 23.9351 226.447 21.4128 233.725 21.4128C241.003 21.4128 246.99 23.9364 251.687 28.9822C256.385 34.028 258.734 40.6015 258.734 48.7028V71.8092H247.123V49.1011C247.123 44.1877 245.866 40.2539 243.351 37.2987C240.837 34.3434 237.497 32.8664 233.328 32.8664C229.556 32.8664 226.315 34.2606 223.603 37.0327C220.89 39.8222 219.534 43.0917 219.534 46.8596C219.534 50.8936 220.973 54.2966 223.851 57.0849C226.729 59.857 230.285 61.2512 234.519 61.2512C235.974 61.2512 237.198 61.1349 238.191 60.9196C239.183 60.6871 240.639 60.0735 242.558 59.0604V70.8134C240.308 71.61 238.522 72.1085 237.198 72.3077L233.03 72.706Z" fill="#1B9DA1"/>
<path d="M298.628 35.3578L294.46 33.8635L291.185 33.4652C286.752 33.4652 283.096 34.8098 280.218 37.4991C277.34 40.1884 275.9 43.5914 275.9 47.7083C275.9 51.4923 277.224 54.7135 279.871 57.3694C282.517 60.0253 285.759 61.3539 289.596 61.3539C293.566 61.3539 296.874 59.9263 299.519 57.0713C302.166 54.2162 303.489 50.6301 303.489 46.3141V0.0012207H315.1V46.6123C315.1 54.3808 312.784 60.6883 308.154 65.5362C303.523 70.3829 297.436 72.8062 289.894 72.8062C282.285 72.8062 276.116 70.4484 271.385 65.7181C266.655 61.0038 264.289 54.878 264.289 47.3582C264.289 39.9719 266.688 33.8957 271.485 29.1492C276.281 24.3842 282.385 22.0116 289.795 22.0116L293.666 22.3097L298.628 23.522V35.3578Z" fill="#1B9DA1"/>
<path d="M346.064 72.706C338.984 72.706 332.998 70.2988 328.102 65.4855C323.206 60.671 320.758 54.6789 320.758 47.5078C320.758 40.2032 323.273 34.028 328.3 28.9822C333.329 23.9351 339.481 21.4128 346.76 21.4128C354.038 21.4128 360.025 23.9364 364.722 28.9822C369.419 34.028 371.769 40.6015 371.769 48.7028V71.8092H360.158V49.1011C360.158 44.1877 358.901 40.2539 356.386 37.2987C353.872 34.3434 350.531 32.8664 346.363 32.8664C342.591 32.8664 339.349 34.2606 336.637 37.0327C333.925 39.8222 332.569 43.0917 332.569 46.8596C332.569 50.8936 334.007 54.2966 336.885 57.0849C339.763 59.857 343.319 61.2512 347.553 61.2512C349.009 61.2512 350.233 61.1349 351.225 60.9196C352.217 60.6871 353.673 60.0735 355.592 59.0604V70.8134C353.343 71.61 351.557 72.1085 350.233 72.3077L346.064 72.706Z" fill="#1B9DA1"/>
<path fill-rule="evenodd" clip-rule="evenodd" d="M95.7478 94.584C126.025 94.584 123.845 90.5823 123.71 121.023C123.981 126.822 120.448 131.461 115.145 130.993H96.4787V130.992C91.6038 131.409 87.5757 127.622 87.5757 122.826C87.5757 101.988 91.5175 76.3639 41.7863 76.3639C5.15745 76.3639 5.32138 21.0504 41.7863 21.0504C57.0913 21.0504 69.4148 33.4145 69.4148 48.7709C69.4148 67.9781 76.5502 90.821 95.7466 94.584H95.7478Z" fill="#1B9DA1"/>
<path fill-rule="evenodd" clip-rule="evenodd" d="M88.6136 81.6991H122.859C130.513 81.6991 136.868 87.9461 136.868 95.6243V129.984C136.868 137.663 130.512 144.039 122.859 144.039H88.6136C80.9604 144.039 74.7334 137.662 74.7334 129.984C74.7334 92.815 73.8619 92.2905 77.4574 87.2954C80.4415 89.8993 82.6466 93.0228 84.2034 96.797C82.8525 99.8425 83.4244 125.292 83.4244 125.169C83.4244 130.636 87.9652 135.19 93.5427 135.19H118.059C123.507 135.19 128.048 130.636 128.048 125.169C128.048 107.037 131.372 90.4189 118.059 90.4189C91.5595 90.4189 92.0106 90.1467 89.9103 91.1994C86.4085 89.5072 83.4244 87.0356 81.0899 83.9109C84.5793 81.6447 88.6136 81.6137 88.6136 81.6979V81.6991Z" fill="#1B9DA1"/>
<path fill-rule="evenodd" clip-rule="evenodd" d="M75.1228 72.3287C73.5661 67.774 72.5282 62.8284 72.0105 58.0127C78.3917 36.9758 62.6342 16.4957 41.3967 16.4957C23.7559 16.4957 9.48626 30.813 9.48626 48.5123C9.48626 69.4848 29.5898 86.0461 51.6457 78.9666C56.5748 79.2276 61.504 80.0082 66.3037 81.5705C38.2413 102.425 0.277588 81.4048 0.277588 48.5123C0.277588 25.7363 18.6974 7.25513 41.3967 7.25513C74.5743 7.25513 94.313 44.5217 75.1228 72.33V72.3287Z" fill="#1B9DA1"/>
<path d="M181.501 103.206L179.219 103.107C175.514 103.107 172.305 104.485 169.592 107.224C166.879 109.963 165.523 113.2 165.523 116.952C165.523 120.686 166.93 124.024 169.741 126.928C172.553 129.834 175.779 131.294 179.417 131.294L181.501 131.194V142.349L179.319 142.548C171.975 142.548 165.772 140.191 160.711 135.46C155.65 130.746 153.12 124.819 153.12 117.699C153.12 110.71 155.617 104.668 160.613 99.589C165.608 94.4937 171.612 91.9541 178.625 91.9541H181.503V103.209L181.501 103.206Z" fill="#1B9DA1"/>
<path d="M210.778 142.647C203.698 142.647 197.711 140.24 192.815 135.427C187.92 130.612 185.472 124.62 185.472 117.449C185.472 110.145 187.986 103.969 193.014 98.9235C198.043 93.8764 204.195 91.3541 211.473 91.3541C218.752 91.3541 224.738 93.8777 229.436 98.9235C234.133 103.969 236.482 110.543 236.482 118.644V141.75H224.871V119.042C224.871 114.129 223.614 110.195 221.1 107.24C218.585 104.285 215.245 102.808 211.076 102.808C207.305 102.808 204.063 104.202 201.351 106.974C198.638 109.764 197.282 113.033 197.282 116.801C197.282 120.835 198.721 124.238 201.599 127.026C204.477 129.798 208.033 131.192 212.267 131.192C213.723 131.192 214.947 131.076 215.939 130.861C216.931 130.628 218.387 130.015 220.306 129.002V140.755C218.056 141.551 216.27 142.05 214.947 142.249L210.778 142.647Z" fill="#1B9DA1"/>
<path d="M243.925 110.611C243.925 105.431 245.777 101.017 249.482 97.397C253.188 93.7614 257.653 91.9529 262.879 91.9529H265.757V102.909H264.368C261.655 102.909 259.489 103.723 257.868 105.366C256.247 106.993 255.436 109.183 255.436 111.922V141.752H243.923V110.611H243.925Z" fill="#1B9DA1"/>
<path d="M291.759 142.249C284.415 142.249 278.411 140.025 273.747 135.575C269.083 131.127 266.751 125.283 266.751 118.045C266.751 110.543 269.248 104.235 274.244 99.1214C279.24 94.0088 285.442 91.4531 292.852 91.4531C300.129 91.4531 306.117 93.9259 310.815 98.8728C315.512 103.82 317.862 110.178 317.862 117.946V137.667C317.862 145.568 315.198 151.942 309.873 156.79C304.547 161.638 297.616 164.06 289.082 164.06L284.219 163.762L278.066 162.169V150.914L283.524 152.508L287.693 152.906C293.581 152.906 298.097 151.579 301.239 148.923C304.381 146.267 305.953 142.416 305.953 137.369V117.847C305.953 113.598 304.63 110.046 301.983 107.191C299.337 104.335 296.062 102.908 292.158 102.908C288.387 102.908 285.178 104.235 282.532 106.891C279.885 109.547 278.563 112.867 278.563 116.85C278.563 121.1 279.968 124.569 282.781 127.259C285.592 129.948 289.215 131.293 293.647 131.293C295.301 131.293 296.443 131.21 297.071 131.044C297.7 130.878 298.445 130.612 299.305 130.247C300.165 129.882 301.157 129.433 302.283 128.903V140.455L296.825 141.849L291.764 142.248L291.759 142.249Z" fill="#1B9DA1"/>
<path d="M348.723 91.4544C355.736 91.4544 361.691 93.9111 366.586 98.8246C371.482 103.738 373.929 109.781 373.929 116.952C373.929 124.188 371.482 130.282 366.586 135.228C361.69 140.175 355.669 142.647 348.525 142.647C341.643 142.647 335.739 140.141 330.81 135.127C325.881 130.114 323.417 124.055 323.417 116.951C323.417 109.78 325.865 103.737 330.761 98.8233C335.656 93.9099 341.644 91.4531 348.723 91.4531V91.4544ZM335.226 117.25C335.226 121.034 336.566 124.354 339.246 127.209C341.925 130.064 345.084 131.492 348.723 131.492C352.23 131.492 355.34 130.064 358.051 127.209C360.764 124.354 362.12 120.967 362.12 117.05C362.12 113.199 360.797 109.845 358.15 106.99C355.504 104.135 352.36 102.708 348.722 102.708C345.017 102.708 341.841 104.135 339.195 106.99C336.549 109.845 335.226 113.264 335.226 117.249V117.25Z" fill="#1B9DA1"/>
</g>
<defs>
<clipPath id="clip0_231_31456">
<rect width="373.656" height="164.061" fill="white" transform="translate(0.275635)"/>
</clipPath>
</defs>
</svg>
